<svg version="1.2" baseProfile="tiny-ps" xmlns="http://www.w3.org/2000/svg" viewBox="0 0 22 18" width="22" height="18">
	<title>Group 28-svg</title>
	<defs>
		<clipPath clipPathUnits="userSpaceOnUse" id="cp1">
			<path d="m21.32 17.75l-21.32 0l0-17.75l21.32 0l0 17.75z" />
		</clipPath>
	</defs>
	<style>
		tspan { white-space:pre }
		.s0 { fill: #32323e } 
	</style>
	<g id="Clip-Path: Group_27" clip-path="url(#cp1)">
		<g id="Group_27">
			<path id="Path_48" class="s0" d="m21.32 9.62c-0.03 0.07-0.06 0.15-0.09 0.22c-0.04 0.09-0.09 0.18-0.16 0.26c-0.06 0.08-0.14 0.15-0.22 0.21c-0.08 0.06-0.17 0.11-0.27 0.14c-0.1 0.04-0.2 0.06-0.3 0.07c-0.03 0-0.05 0-0.08 0.01c-0.03 0-0.05 0-0.08 0c-0.03 0-0.05 0-0.08 0c-0.03 0-0.05 0-0.08 0l-14.06 0c0.08 0.08 0.13 0.13 0.18 0.18c1.41 1.41 2.82 2.83 4.24 4.24c0.11 0.09 0.2 0.19 0.27 0.31c0.07 0.12 0.12 0.25 0.14 0.39c0.02 0.14 0.02 0.28-0.01 0.41c-0.03 0.13-0.08 0.26-0.16 0.38c-0.08 0.1-0.16 0.21-0.25 0.3c-0.09 0.1-0.18 0.19-0.27 0.29c-0.09 0.09-0.19 0.18-0.29 0.27c-0.1 0.09-0.2 0.17-0.3 0.25c-0.1 0.07-0.21 0.12-0.33 0.15c-0.12 0.03-0.24 0.04-0.36 0.03c-0.12-0.01-0.24-0.04-0.35-0.09c-0.11-0.05-0.21-0.11-0.3-0.2c-0.05-0.04-0.1-0.09-0.15-0.14c-2.51-2.51-5.02-5.03-7.54-7.54c-0.11-0.09-0.2-0.2-0.27-0.32c-0.07-0.12-0.12-0.25-0.14-0.39c-0.02-0.14-0.02-0.28 0-0.41c0.03-0.14 0.08-0.27 0.15-0.39c0.02-0.03 0.04-0.05 0.06-0.08c0.02-0.03 0.04-0.05 0.06-0.08c0.02-0.03 0.04-0.05 0.06-0.07c0.02-0.02 0.05-0.05 0.07-0.07c2.51-2.51 5.02-5.03 7.54-7.54c0.11-0.13 0.25-0.24 0.41-0.31c0.16-0.07 0.33-0.11 0.5-0.11c0.17 0 0.34 0.04 0.5 0.11c0.16 0.07 0.3 0.18 0.41 0.31c0.18 0.18 0.36 0.36 0.54 0.54c0.13 0.11 0.23 0.25 0.31 0.4c0.07 0.15 0.11 0.32 0.11 0.49c0 0.17-0.04 0.34-0.11 0.49c-0.07 0.15-0.18 0.29-0.31 0.4c-1.42 1.42-2.85 2.84-4.28 4.26c-0.05 0.05-0.1 0.11-0.19 0.2l13.96 0c0.92 0 1.16 0.16 1.5 1l0 1.41z" />
		</g>
	</g>
</svg>