<svg xmlns="http://www.w3.org/2000/svg" width="25.44" height="24.964" viewBox="0 0 25.44 24.964">
  <g id="birthday-cake" transform="translate(-0.036 0.088)">
    <path id="Path_55" data-name="Path 55" d="M25.463,278.536a.926.926,0,0,1-.969.557q-11.743-.01-23.486-.007a2,2,0,0,1-.4-.02.739.739,0,0,1-.571-.8.749.749,0,0,1,.743-.67c.577-.007,1.161,0,1.738,0h.3V273.03a3.564,3.564,0,0,0,1.851-.219c.464-.139.935-.285,1.4-.418a5.419,5.419,0,0,1,3.032.06c.783.232,1.572.464,2.368.617a7.764,7.764,0,0,0,3.775-.272c.59-.179,1.188-.365,1.791-.5a5.093,5.093,0,0,1,2.6.146c.511.153,1.028.3,1.546.464a3.076,3.076,0,0,0,1.5.126V277.6h1.884a1.52,1.52,0,0,1,.345.033c.285.053.425.279.564.511A3.793,3.793,0,0,0,25.463,278.536Z" transform="translate(0 -254.217)" fill="#8b8b8b"/>
    <path id="Path_56" data-name="Path 56" d="M43.057,201.9h8.99a2.723,2.723,0,0,1,.571.046,1.188,1.188,0,0,1,.975,1.227v1.639A1.09,1.09,0,0,1,52.2,205.92a14.246,14.246,0,0,1-1.38-.4,7.4,7.4,0,0,0-5.029.007,8.035,8.035,0,0,1-3.039.524,9.625,9.625,0,0,1-2.514-.544,6.8,6.8,0,0,0-3.145-.391c-.789.126-1.559.358-2.335.557-.3.073-.584.173-.882.252a1.1,1.1,0,0,1-1.4-1.108c.027-.551,0-1.108.007-1.665a1.2,1.2,0,0,1,1.075-1.221,4.172,4.172,0,0,1,.5-.027Q38.552,201.9,43.057,201.9Z" transform="translate(-30.285 -188.587)" fill="#8b8b8b"/>
    <path id="Path_57" data-name="Path 57" d="M171.979,90.122h-2.966c-.007-.093-.013-.172-.013-.252V84.881c0-.59.239-.823.829-.823.5,0,1-.007,1.486,0a.643.643,0,0,1,.677.67c.007,1.771,0,3.543,0,5.314C172,90.056,171.992,90.069,171.979,90.122Z" transform="translate(-157.754 -78.561)" fill="#8b8b8b"/>
    <path id="Path_58" data-name="Path 58" d="M81.485,90.122H78.513c-.007-.093-.013-.172-.013-.252V84.881c0-.584.239-.823.829-.823.491,0,.975-.007,1.466,0a.65.65,0,0,1,.7.67c.007,1.771,0,3.543,0,5.314C81.505,90.056,81.492,90.076,81.485,90.122Z" transform="translate(-73.258 -78.561)" fill="#8b8b8b"/>
    <path id="Path_59" data-name="Path 59" d="M262.385,90.029h-2.972c-.007-.1-.013-.186-.013-.279V84.808c0-.624.232-.849.856-.849.491,0,.975-.007,1.466,0a.646.646,0,0,1,.677.67c.007,1.765,0,3.523,0,5.288A.349.349,0,0,1,262.385,90.029Z" transform="translate(-242.157 -78.467)" fill="#8b8b8b"/>
    <path id="Path_60" data-name="Path 60" d="M79.968,4.379a1.468,1.468,0,0,1-1.406-1.944A19.509,19.509,0,0,1,79.6.279a.427.427,0,0,1,.756,0A18.339,18.339,0,0,1,81.4,2.468,1.455,1.455,0,0,1,79.968,4.379Z" transform="translate(-73.234 -0.128)" fill="#8b8b8b"/>
    <path id="Path_61" data-name="Path 61" d="M262.091,2.738A1.49,1.49,0,0,1,261.2,4.1a1.42,1.42,0,0,1-1.6-.219,1.307,1.307,0,0,1-.458-1.539c.305-.756.683-1.486,1.055-2.209a.422.422,0,0,1,.743-.007,9.968,9.968,0,0,1,1.088,2.276A1.872,1.872,0,0,1,262.091,2.738Z" transform="translate(-241.829)" fill="#8b8b8b"/>
    <path id="Path_62" data-name="Path 62" d="M171.768,2.879a1.485,1.485,0,0,1-.922,1.36,1.417,1.417,0,0,1-1.592-.265,1.312,1.312,0,0,1-.425-1.526c.3-.75.677-1.466,1.048-2.183a.427.427,0,0,1,.743-.027,9.959,9.959,0,0,1,1.108,2.322A3.206,3.206,0,0,1,171.768,2.879Z" transform="translate(-157.503 -0.114)" fill="#8b8b8b"/>
  </g>
</svg>
