<svg xmlns="http://www.w3.org/2000/svg" width="53.333" height="39.123" viewBox="0 0 53.333 39.123">
  <path id="checkark" d="M53.333,5.6Q36.781,22.16,20.226,38.721c-.53.53-.881.527-1.414-.005q-9.2-9.2-18.4-18.4c-.143-.143-.273-.3-.41-.446v-.521c1.353-1.487,2.823-2.857,4.232-4.289,1.031-1.047,1.113-1.041,2.15,0q6.387,6.386,12.767,12.779c.3.3.432.316.742.006Q33.515,14.187,47.16.554c.748-.748.988-.746,1.743.01q1.859,1.86,3.715,3.721c.25.251.477.526.715.79Z" transform="translate(0 0.005)" fill="#88c107"/>
</svg>
