<svg id="Group_3146" data-name="Group 3146" xmlns="http://www.w3.org/2000/svg" xmlns:xlink="http://www.w3.org/1999/xlink" width="12.241" height="15" viewBox="0 0 12.241 15">
  <defs>
    <clipPath id="clip-path">
      <rect id="Rectangle_397" data-name="Rectangle 397" width="12.241" height="15" fill="#9f9f9f"/>
    </clipPath>
  </defs>
  <g id="Group_3145" data-name="Group 3145" clip-path="url(#clip-path)">
    <path id="Path_221" data-name="Path 221" d="M15.891,100.68q0-1.884,0-3.769a.682.682,0,1,1,1.36-.114c0,.058,0,.117,0,.176q0,3.681,0,7.362a1.3,1.3,0,0,0,1.371,1.371h5.418a1.3,1.3,0,0,0,1.371-1.371q0-3.713,0-7.426a.683.683,0,0,1,.539-.726.67.67,0,0,1,.808.555,1.351,1.351,0,0,1,.015.222q0,3.7,0,7.394a2.681,2.681,0,0,1-2.7,2.716q-2.741,0-5.482,0a2.671,2.671,0,0,1-2.7-2.7q0-1.844,0-3.689" transform="translate(-15.213 -92.071)" fill="#9f9f9f"/>
    <path id="Path_222" data-name="Path 222" d="M8.838,2.046h.485c.733,0,1.466,0,2.2,0a.683.683,0,0,1,.1,1.362c-.037,0-.074,0-.111,0H.736a.684.684,0,1,1,0-1.365c.818,0,1.636,0,2.453,0H3.4V1.867c0-.383,0-.766,0-1.149A.673.673,0,0,1,4.112,0Q6.12,0,8.127,0a.673.673,0,0,1,.71.712c0,.435,0,.871,0,1.331m-4.07-.014h2.7V1.376h-2.7Z" transform="translate(0 0)" fill="#9f9f9f"/>
    <path id="Path_223" data-name="Path 223" d="M95.808,131.147c0-.793,0-1.585,0-2.378a.676.676,0,0,1,1.291-.276.9.9,0,0,1,.067.34q.006,2.33,0,4.661a.683.683,0,1,1-1.362,0q0-1.173,0-2.346" transform="translate(-91.728 -122.641)" fill="#9f9f9f"/>
    <path id="Path_224" data-name="Path 224" d="M160.988,131.223c0,.793,0,1.585,0,2.378a.667.667,0,0,1-.51.652.649.649,0,0,1-.74-.3.861.861,0,0,1-.106-.393q-.011-2.346,0-4.693a.682.682,0,1,1,1.361.009q0,1.173,0,2.346" transform="translate(-152.828 -122.688)" fill="#9f9f9f"/>
  </g>
</svg>
