<svg id="Group_3111" data-name="Group 3111" xmlns="http://www.w3.org/2000/svg" xmlns:xlink="http://www.w3.org/1999/xlink" width="15.301" height="17.405" viewBox="0 0 15.301 17.405">
  <defs>
    <clipPath id="clip-path">
      <rect id="Rectangle_370" data-name="Rectangle 370" width="15.301" height="17.405" fill="#8b8b8b"/>
    </clipPath>
  </defs>
  <g id="Group_3110" data-name="Group 3110" clip-path="url(#clip-path)">
    <path id="Path_159" data-name="Path 159" d="M9.181,0c.1.03.194.056.288.091a1.464,1.464,0,0,1,.907.882c.116.306.217.619.315.932a.166.166,0,0,0,.191.137c.934,0,1.869,0,2.8,0A1.532,1.532,0,0,1,15.3,3.646c0,.3,0,.6,0,.9a.513.513,0,0,1-.551.552H.7a1.609,1.609,0,0,1-.2-.01C.127,5.041,0,4.9,0,4.529a9.623,9.623,0,0,1,.033-1.22A1.484,1.484,0,0,1,1.515,2.042q1.436-.011,2.871,0a.2.2,0,0,0,.237-.17c.077-.266.17-.527.259-.789A1.512,1.512,0,0,1,6.062.028.283.283,0,0,0,6.121,0Zm.482,2.032c-.086-.251-.157-.495-.255-.728a.458.458,0,0,0-.448-.283q-1.308,0-2.616,0a.465.465,0,0,0-.456.3c-.093.229-.163.467-.247.713Z" transform="translate(0)" fill="#8b8b8b"/>
    <path id="Path_160" data-name="Path 160" d="M25.258,136.431H38.264c-.031.384-.059.76-.091,1.135q-.128,1.54-.257,3.081-.148,1.777-.3,3.555c-.058.7-.106,1.4-.18,2.1a1.5,1.5,0,0,1-1.489,1.338c-.572.007-1.144,0-1.717,0q-3.306,0-6.611,0a1.5,1.5,0,0,1-1.546-1.371c-.042-.348-.064-.7-.093-1.049q-.166-1.989-.33-3.978-.144-1.744-.286-3.487c-.036-.434-.073-.868-.111-1.323m2.935,5.088q0,1.775,0,3.549a.5.5,0,0,0,.7.494.5.5,0,0,0,.321-.54q0-3.5,0-7a1.108,1.108,0,0,0,0-.136.463.463,0,0,0-.329-.412.5.5,0,0,0-.686.509q0,1.766,0,3.532m4.08.014v-1.308q0-1.121,0-2.241a.48.48,0,0,0-.323-.5.507.507,0,0,0-.7.515q0,3.523,0,7.047a.854.854,0,0,0,0,.119.463.463,0,0,0,.336.406.5.5,0,0,0,.679-.5q0-1.766,0-3.532m3.06-.012q0-1.758,0-3.517a.512.512,0,1,0-1.019,0q0,3.525,0,7.05a.975.975,0,0,0,0,.1.467.467,0,0,0,.346.416.5.5,0,0,0,.67-.514q0-1.767,0-3.534" transform="translate(-24.111 -130.237)" fill="#8b8b8b"/>
  </g>
</svg>
