<svg id="Edit" xmlns="http://www.w3.org/2000/svg" width="11.149" height="11.149" viewBox="0 0 11.149 11.149">
  <path id="Path_53" data-name="Path 53" d="M.206,92.165c-.175-.111-.2-.173-.148-.379q.324-1.3.652-2.605A.394.394,0,0,1,.815,89q3.012-3.022,6.033-6.039c.023-.023.048-.043.064-.057l2.405,2.405a.546.546,0,0,0-.093.061q-3,2.995-5.994,5.987a.546.546,0,0,1-.238.136Q1.7,91.821.4,92.142a.456.456,0,0,0-.059.023Z" transform="translate(-0.034 -81.016)" fill="#8b8b8b"/>
  <path id="Path_54" data-name="Path 54" d="M338.052,2a1.038,1.038,0,0,1-.048.175,1.734,1.734,0,0,1-.236.434c-.291.313-.609.6-.909.895l-2.36-2.36c.293-.3.575-.622.893-.909a1.2,1.2,0,0,1,1.551.011c.288.259.554.543.824.822a1.269,1.269,0,0,1,.284.625Z" transform="translate(-326.903 0.04)" fill="#8b8b8b"/>
</svg>
