<svg xmlns="http://www.w3.org/2000/svg" width="21.753" height="16.543" viewBox="0 0 21.753 16.543">
  <path id="Message" d="M21.753,1.7V14.844a3.778,3.778,0,0,1-.2.6,1.92,1.92,0,0,1-1.859,1.1H1.944a1.818,1.818,0,0,1-1.561-.791,4.7,4.7,0,0,1-.382-.9Q0,8.269,0,1.7a3.778,3.778,0,0,1,.2-.6A1.908,1.908,0,0,1,2.05,0H19.809a1.818,1.818,0,0,1,1.561.791A5.545,5.545,0,0,1,21.753,1.7Zm-2.236-.409H2.2q4.381,4.334,8.694,8.6Q15.218,5.576,19.517,1.291ZM8.386,9.145C6.309,11.216,4.28,13.24,2.268,15.253H19.485q-3.011-3-6.065-6.054c-.138.143-.292.308-.451.467-.52.52-1.041,1.041-1.561,1.556a.643.643,0,0,1-.977.005c-.064-.058-.122-.117-.181-.181C9.623,10.409,9,9.767,8.386,9.145Zm-7.1-6.962V14.318c2.034-2.034,4.063-4.052,6.1-6.091C5.375,6.224,3.346,4.217,1.291,2.183Zm13.16,6.054c2.013,2.013,4.031,4.026,6.006,6V2.241C18.444,4.254,16.426,6.267,14.451,8.237Z" fill="#fff"/>
</svg>
