<svg width="14" height="14" viewBox="0 0 14 14" fill="none" xmlns="http://www.w3.org/2000/svg">
<path d="M6.3335 9.00001H7.66683V10.3333H6.3335V9.00001ZM6.3335 3.66668H7.66683V7.66668H6.3335V3.66668ZM6.9935 0.333344C3.3135 0.333344 0.333496 3.32001 0.333496 7.00001C0.333496 10.68 3.3135 13.6667 6.9935 13.6667C10.6802 13.6667 13.6668 10.68 13.6668 7.00001C13.6668 3.32001 10.6802 0.333344 6.9935 0.333344ZM7.00016 12.3333C4.0535 12.3333 1.66683 9.94668 1.66683 7.00001C1.66683 4.05334 4.0535 1.66668 7.00016 1.66668C9.94683 1.66668 12.3335 4.05334 12.3335 7.00001C12.3335 9.94668 9.94683 12.3333 7.00016 12.3333Z" fill="#EA4335"/>
</svg>
