<svg version="1.2" baseProfile="tiny-ps" xmlns="http://www.w3.org/2000/svg" viewBox="0 0 34 20" width="34" height="20">
	<title>eye (1)-svg</title>
	<style>
		tspan { white-space:pre }
		.s0 { fill: #8b8b8b } 
	</style>
	<path id="Path_1" fill-rule="evenodd" class="s0" d="m0 9.7c0.3-0.5 0.7-1 1.1-1.5c2-2.6 4.6-4.7 7.5-6.2c2-1 4.2-1.7 6.4-1.9c4.3-0.4 8.5 0.7 12.1 3.2c2.3 1.6 4.4 3.6 6.1 5.8c0.4 0.5 0.4 1.2 0 1.7c-1.9 2.6-4.4 4.8-7.2 6.5c-2.3 1.4-4.9 2.2-7.6 2.5c-3.9 0.4-7.7-0.5-11-2.6c-2.8-1.7-5.2-3.9-7.1-6.5c-0.1-0.2-0.2-0.4-0.3-0.6l0-0.4zm9.7 0.4c0.1 3.9 3.4 6.9 7.3 6.8c3.9-0.1 6.9-3.4 6.8-7.2c-0.1-3.8-3.4-6.9-7.3-6.8c-3.9 0.1-6.9 3.4-6.8 7.2z" />
	<path id="Path_2" class="s0" d="m20.5 10c0 2.1-1.8 3.8-3.9 3.8c-2.1 0-3.7-1.7-3.7-3.8c0-2.1 1.8-3.8 3.9-3.8c2.1 0 3.8 1.7 3.7 3.8z" />
</svg>