<svg version="1.2" baseProfile="tiny-ps" xmlns="http://www.w3.org/2000/svg" viewBox="0 0 34 22" width="34" height="22">
	<title>eye-gray-hide-svg</title>
	<style>
		tspan { white-space:pre }
		.s0 { fill: #8b8b8b } 
		.s1 { fill: none } 
	</style>
	<path id="Rectangle_1" class="s0" d="m5.79 20.56l20.51-20.51l1.34 1.34l-20.51 20.51l-1.34-1.34z" />
	<path id="Path_3" class="s1" d="m13.2 12.3l-2.4 2.4c-0.6-1-1-2.2-1-3.4c-0.1-3.8 2.9-7.1 6.8-7.2c1.3 0 2.6 0.3 3.8 1l-2.4 2.4c-0.4-0.1-0.7-0.2-1.1-0.2c-2.1 0-3.9 1.7-3.9 3.8c0 0.4 0 0.8 0.2 1.2z" />
	<path id="Path_4" class="s1" d="m20.2 9.7l2.4-2.4c0.8 1.1 1.2 2.4 1.2 3.7c0.1 3.8-2.9 7.1-6.8 7.2c-1.5 0-2.9-0.4-4.1-1.2l2.3-2.3c0.4 0.2 0.9 0.3 1.4 0.3c2.1 0 3.9-1.7 3.9-3.8c0-0.5-0.1-1.1-0.3-1.5z" />
	<path id="Path_5" class="s0" d="m33.1 12.1c-2 2.6-4.4 4.8-7.2 6.5c-2.3 1.4-4.9 2.2-7.6 2.5c-2.8 0.3-5.7-0.1-8.3-1.2l2.8-2.8c1.2 0.8 2.7 1.2 4.1 1.2c3.9-0.1 6.9-3.3 6.8-7.2c0-1.3-0.4-2.6-1.1-3.7l3.5-3.5c0.3 0.2 0.7 0.4 1 0.6c2.4 1.6 4.4 3.5 6.1 5.8c0.4 0.5 0.4 1.2-0.1 1.8z" />
	<path id="Path_6" class="s0" d="m9.7 11.4c0 1.2 0.4 2.3 1 3.3l-3.6 3.6c-2.6-1.6-4.9-3.8-6.8-6.3c-0.1-0.2-0.2-0.4-0.3-0.6v-0.5c0.3-0.5 0.6-1 1-1.5c2.1-2.6 4.7-4.7 7.6-6.2c2-1 4.2-1.7 6.4-1.9c2.8-0.3 5.5 0.1 8.1 1.1l-2.8 2.8c-1.1-0.7-2.5-1-3.8-1c-3.9 0.1-6.9 3.3-6.8 7.2v0z" />
	<path id="Path_7" class="s0" d="m16.8 7.4c0.4 0 0.8 0 1.2 0.1l-4.8 4.8c-0.1-0.4-0.2-0.8-0.2-1.2c0-2.1 1.7-3.8 3.8-3.7v0z" />
	<path id="Path_8" class="s0" d="m15.3 14.6l5-5c0.2 0.5 0.3 1 0.3 1.5c-0.1 2.1-1.8 3.8-3.9 3.8c-0.5 0-1-0.1-1.4-0.3z" />
</svg>