<svg id="Group_22" data-name="Group 22" xmlns="http://www.w3.org/2000/svg" xmlns:xlink="http://www.w3.org/1999/xlink" width="16.918" height="14.644" viewBox="0 0 16.918 14.644">
  <defs>
    <clipPath id="clip-path">
      <rect id="Rectangle_14" data-name="Rectangle 14" width="16.918" height="14.644" fill="#039ce0"/>
    </clipPath>
  </defs>
  <g id="Group_21" data-name="Group 21" clip-path="url(#clip-path)">
    <path id="Path_40" data-name="Path 40" d="M16.918,1.308v9.417c-.01.036-.021.072-.028.108a1.452,1.452,0,0,1-.505.864,1.551,1.551,0,0,1-1.041.345q-2.263,0-4.526,0a.282.282,0,0,0-.259.127c-.544.734-1.094,1.464-1.643,2.194a.5.5,0,0,1-.9.005c-.549-.73-1.1-1.46-1.643-2.194a.3.3,0,0,0-.274-.132q-2.255.006-4.51,0a1.609,1.609,0,0,1-.752-.154A1.458,1.458,0,0,1,0,10.495Q0,7.934,0,5.373C0,4.1,0,2.818,0,1.541A1.459,1.459,0,0,1,.835.15,1.673,1.673,0,0,1,1.621,0h8.442q2.635,0,5.27,0a1.441,1.441,0,0,1,1.287.6,3.822,3.822,0,0,1,.3.7m-6.8,4.563a2.443,2.443,0,1,0-3.294.02c-.006.009-.011.021-.02.026-.038.022-.077.041-.115.063A3.692,3.692,0,0,0,4.724,9.22a.482.482,0,0,0,.523.542q3.212,0,6.423,0a.485.485,0,0,0,.526-.541,3.59,3.59,0,0,0-1.147-2.633,10.86,10.86,0,0,0-.93-.718" transform="translate(0 0)" fill="#039ce0"/>
    <path id="Path_41" data-name="Path 41" d="M139.155,159.448a2.74,2.74,0,0,1,2.648-2.257,2.782,2.782,0,0,1,2.762,2.257Z" transform="translate(-133.396 -150.684)" fill="#039ce0"/>
    <path id="Path_42" data-name="Path 42" d="M172.071,64.383a1.459,1.459,0,1,1-1.462-1.462,1.472,1.472,0,0,1,1.462,1.462" transform="translate(-162.152 -60.317)" fill="#039ce0"/>
  </g>
</svg>
