<svg xmlns="http://www.w3.org/2000/svg" xmlns:xlink="http://www.w3.org/1999/xlink" width="68.338" height="62.629" viewBox="0 0 68.338 62.629">
  <defs>
    <clipPath id="clip-path">
      <rect id="Rectangle_32" data-name="Rectangle 32" width="68.338" height="62.629" fill="#039ce0"/>
    </clipPath>
  </defs>
  <g id="Group_71" data-name="Group 71" clip-path="url(#clip-path)">
    <path id="Path_65" data-name="Path 65" d="M0,174.717q1.868-6.247,3.737-12.493,1.528-5.1,3.061-10.2a.939.939,0,0,1,.307-.514v.7c0,5.959-.043,11.919.015,17.878a10.59,10.59,0,0,0,5.669,9.681,10.784,10.784,0,0,0,5.453,1.27q19.946-.023,39.893-.008h.976c-.072.261-.122.461-.183.658q-1.185,3.781-2.373,7.56a6.363,6.363,0,0,1-7.944,4.345q-16.18-4.323-32.356-8.663c-3.688-.988-7.372-1.991-11.065-2.96a6.476,6.476,0,0,1-5.082-5.221c-.012-.058-.071-.105-.108-.158v-1.869" transform="translate(0 -131.206)" fill="#039ce0"/>
    <path id="Path_66" data-name="Path 66" d="M113.377,45.546q-10.544,0-21.088,0a7.072,7.072,0,0,1-7.2-5.625,8.694,8.694,0,0,1-.175-1.854Q84.9,22.782,84.905,7.5A7.146,7.146,0,0,1,92.412,0Q113.4,0,134.388,0a7.122,7.122,0,0,1,7.473,7.454q.006,15.382,0,30.764a7.087,7.087,0,0,1-5.933,7.222,9.914,9.914,0,0,1-1.728.1q-10.411.01-20.821,0m22.718-18.3a3.863,3.863,0,0,0,.057-.395q0-9.807,0-19.614c0-1.043-.547-1.527-1.668-1.527q-21.082,0-42.165,0c-1.21,0-1.706.5-1.707,1.7q0,12.943,0,25.886c0,.184.026.367.04.551l.149.071a6.782,6.782,0,0,1,.462-.572q3.533-3.544,7.075-7.078a4.957,4.957,0,0,1,4.879-1.434,5.126,5.126,0,0,1,2.536,1.522c1.048,1.077,2.1,2.147,3.186,3.252.274-.321.462-.538.646-.758q4.824-5.791,9.648-11.583c2.4-2.885,5.771-2.926,8.224-.1.67.772,1.331,1.553,2,2.33l6.644,7.75" transform="translate(-73.526 0)" fill="#039ce0"/>
    <path id="Path_67" data-name="Path 67" d="M154.379,75.136A5.686,5.686,0,1,1,160.1,69.5a5.7,5.7,0,0,1-5.725,5.637" transform="translate(-128.781 -55.221)" fill="#039ce0"/>
  </g>
</svg>
