<svg xmlns="http://www.w3.org/2000/svg" xmlns:xlink="http://www.w3.org/1999/xlink" width="24" height="24" viewBox="0 0 24 24">
  <defs>
    <linearGradient id="linear-gradient" x1="0.5" x2="0.5" y2="1" gradientUnits="objectBoundingBox">
      <stop offset="0" stop-color="#0b9ed1"/>
      <stop offset="1" stop-color="#84bf0e"/>
    </linearGradient>
  </defs>
  <g id="Group_101" data-name="Group 101" transform="translate(-1105 -399)">
    <path id="Rectangle_8_-_Outline" data-name="Rectangle 8 - Outline" d="M3,2A1,1,0,0,0,2,3V7A1,1,0,0,0,3,8H7A1,1,0,0,0,8,7V3A1,1,0,0,0,7,2H3M3,0H7a3,3,0,0,1,3,3V7a3,3,0,0,1-3,3H3A3,3,0,0,1,0,7V3A3,3,0,0,1,3,0Z" transform="translate(1106 400)" fill="#bcbcbc"/>
    <path id="Rectangle_9_-_Outline" data-name="Rectangle 9 - Outline" d="M3,2A1,1,0,0,0,2,3V7A1,1,0,0,0,3,8H7A1,1,0,0,0,8,7V3A1,1,0,0,0,7,2H3M3,0H7a3,3,0,0,1,3,3V7a3,3,0,0,1-3,3H3A3,3,0,0,1,0,7V3A3,3,0,0,1,3,0Z" transform="translate(1118 400)" fill="#bcbcbc"/>
    <path id="Rectangle_11_-_Outline" data-name="Rectangle 11 - Outline" d="M3,2A1,1,0,0,0,2,3V7A1,1,0,0,0,3,8H7A1,1,0,0,0,8,7V3A1,1,0,0,0,7,2H3M3,0H7a3,3,0,0,1,3,3V7a3,3,0,0,1-3,3H3A3,3,0,0,1,0,7V3A3,3,0,0,1,3,0Z" transform="translate(1118 412)" fill="#bcbcbc"/>
    <g id="Group_100" data-name="Group 100">
      <path id="Rectangle_10_-_Outline" data-name="Rectangle 10 - Outline" d="M3,2A1,1,0,0,0,2,3V7A1,1,0,0,0,3,8H7A1,1,0,0,0,8,7V3A1,1,0,0,0,7,2H3M3,0H7a3,3,0,0,1,3,3V7a3,3,0,0,1-3,3H3A3,3,0,0,1,0,7V3A3,3,0,0,1,3,0Z" transform="translate(1106 412)" fill="#bcbcbc"/>
      <g id="Group_99" data-name="Group 99">
        <path id="Rectangle_8_-_Outline_-_Outline" data-name="Rectangle 8 - Outline - Outline" d="M3,0A3,3,0,0,0,0,3V7a3,3,0,0,0,3,3H7a3,3,0,0,0,3-3V3A3,3,0,0,0,7,0H3M7,8H3A1,1,0,0,1,2,7V3A1,1,0,0,1,3,2H7A1,1,0,0,1,8,3V7A1,1,0,0,1,7,8M3-1H7a4,4,0,0,1,4,4V7a4,4,0,0,1-4,4H3A4,4,0,0,1-1,7V3A4,4,0,0,1,3-1ZM7,7H7V3H3V7Z" transform="translate(1106 400)" fill="url(#linear-gradient)"/>
        <path id="Rectangle_9_-_Outline_-_Outline" data-name="Rectangle 9 - Outline - Outline" d="M3,0A3,3,0,0,0,0,3V7a3,3,0,0,0,3,3H7a3,3,0,0,0,3-3V3A3,3,0,0,0,7,0H3M7,8H3A1,1,0,0,1,2,7V3A1,1,0,0,1,3,2H7A1,1,0,0,1,8,3V7A1,1,0,0,1,7,8M3-1H7a4,4,0,0,1,4,4V7a4,4,0,0,1-4,4H3A4,4,0,0,1-1,7V3A4,4,0,0,1,3-1ZM7,7H7V3H3V7Z" transform="translate(1118 400)" fill="url(#linear-gradient)"/>
        <path id="Rectangle_10_-_Outline_-_Outline" data-name="Rectangle 10 - Outline - Outline" d="M3,0A3,3,0,0,0,0,3V7a3,3,0,0,0,3,3H7a3,3,0,0,0,3-3V3A3,3,0,0,0,7,0H3M7,8H3A1,1,0,0,1,2,7V3A1,1,0,0,1,3,2H7A1,1,0,0,1,8,3V7A1,1,0,0,1,7,8M3-1H7a4,4,0,0,1,4,4V7a4,4,0,0,1-4,4H3A4,4,0,0,1-1,7V3A4,4,0,0,1,3-1ZM7,7H7V3H3V7Z" transform="translate(1106 412)" fill="url(#linear-gradient)"/>
        <path id="Rectangle_11_-_Outline_-_Outline" data-name="Rectangle 11 - Outline - Outline" d="M3,0A3,3,0,0,0,0,3V7a3,3,0,0,0,3,3H7a3,3,0,0,0,3-3V3A3,3,0,0,0,7,0H3M7,8H3A1,1,0,0,1,2,7V3A1,1,0,0,1,3,2H7A1,1,0,0,1,8,3V7A1,1,0,0,1,7,8M3-1H7a4,4,0,0,1,4,4V7a4,4,0,0,1-4,4H3A4,4,0,0,1-1,7V3A4,4,0,0,1,3-1ZM7,7H7V3H3V7Z" transform="translate(1118 412)" fill="url(#linear-gradient)"/>
      </g>
    </g>
  </g>
</svg>
