<svg xmlns="http://www.w3.org/2000/svg" width="22" height="22" viewBox="0 0 22 22">
  <g id="Group_104" data-name="Group 104" transform="translate(-1106 -400)">
    <path id="Rectangle_8_-_Outline" data-name="Rectangle 8 - Outline" d="M3,2A1,1,0,0,0,2,3V7A1,1,0,0,0,3,8H7A1,1,0,0,0,8,7V3A1,1,0,0,0,7,2H3M3,0H7a3,3,0,0,1,3,3V7a3,3,0,0,1-3,3H3A3,3,0,0,1,0,7V3A3,3,0,0,1,3,0Z" transform="translate(1106 400)" fill="#bcbcbc"/>
    <path id="Rectangle_9_-_Outline" data-name="Rectangle 9 - Outline" d="M3,2A1,1,0,0,0,2,3V7A1,1,0,0,0,3,8H7A1,1,0,0,0,8,7V3A1,1,0,0,0,7,2H3M3,0H7a3,3,0,0,1,3,3V7a3,3,0,0,1-3,3H3A3,3,0,0,1,0,7V3A3,3,0,0,1,3,0Z" transform="translate(1118 400)" fill="#bcbcbc"/>
    <path id="Rectangle_11_-_Outline" data-name="Rectangle 11 - Outline" d="M3,2A1,1,0,0,0,2,3V7A1,1,0,0,0,3,8H7A1,1,0,0,0,8,7V3A1,1,0,0,0,7,2H3M3,0H7a3,3,0,0,1,3,3V7a3,3,0,0,1-3,3H3A3,3,0,0,1,0,7V3A3,3,0,0,1,3,0Z" transform="translate(1118 412)" fill="#bcbcbc"/>
    <path id="Rectangle_10_-_Outline" data-name="Rectangle 10 - Outline" d="M3,2A1,1,0,0,0,2,3V7A1,1,0,0,0,3,8H7A1,1,0,0,0,8,7V3A1,1,0,0,0,7,2H3M3,0H7a3,3,0,0,1,3,3V7a3,3,0,0,1-3,3H3A3,3,0,0,1,0,7V3A3,3,0,0,1,3,0Z" transform="translate(1106 412)" fill="#bcbcbc"/>
  </g>
</svg>
