<svg xmlns="http://www.w3.org/2000/svg" width="24.026" height="20.044" viewBox="0 0 24.026 20.044">
  <path id="heart" d="M0,6.049c.095-.473.189-.992.331-1.465A6.651,6.651,0,0,1,7.373.047a6.594,6.594,0,0,1,4.064,1.938A7.268,7.268,0,0,1,12,2.6c.236-.236.425-.473.614-.662A6.685,6.685,0,0,1,22.685,10.68a14.2,14.2,0,0,1-2.458,2.6c-2.363,2.174-4.821,4.253-7.278,6.286a1.33,1.33,0,0,1-.992.473A1.588,1.588,0,0,1,11.3,19.8c-3.072-2.5-6.1-5.01-8.932-7.8a8.528,8.528,0,0,1-2.079-3.5C.189,8.081.095,7.656,0,7.183ZM12,17.58c.047-.047.142-.095.189-.142,1.7-1.418,3.4-2.836,5.057-4.348q1.7-1.489,3.261-3.119A4.712,4.712,0,0,0,21.74,5.435a4.549,4.549,0,0,0-7.514-2.127c-.473.473-.9.945-1.371,1.418a1.123,1.123,0,0,1-1.7,0c-.425-.425-.851-.9-1.276-1.276A4.472,4.472,0,0,0,5.293,2.363a4.544,4.544,0,0,0-2.6,6.522,8.009,8.009,0,0,0,1.7,2.079l6.1,5.388C10.964,16.777,11.484,17.155,12,17.58Z" transform="translate(0 0.001)" fill="#88c107"/>
</svg>
