<svg xmlns="http://www.w3.org/2000/svg" width="24.022" height="20.055" viewBox="0 0 24.022 20.055">
  <path id="heart" d="M0,6.049c.095-.473.189-.992.331-1.465A6.651,6.651,0,0,1,7.373.047a6.594,6.594,0,0,1,4.064,1.938A7.268,7.268,0,0,1,12,2.6c.236-.236.425-.473.614-.662A6.685,6.685,0,0,1,22.685,10.68a14.2,14.2,0,0,1-2.458,2.6c-2.363,2.174-4.821,4.253-7.278,6.286a1.33,1.33,0,0,1-.992.473A1.588,1.588,0,0,1,11.3,19.8C8.228,17.3,5.2,14.79,2.368,12A8.528,8.528,0,0,1,.289,8.5C.189,8.081.095,7.656,0,7.183Z" transform="translate(0 0.016)" fill="#88c107"/>
</svg>
