<svg xmlns="http://www.w3.org/2000/svg" xmlns:xlink="http://www.w3.org/1999/xlink" width="16" height="16.03" viewBox="0 0 16 16.03">
  <defs>
    <clipPath id="clip-path">
      <rect id="Rectangle_10" data-name="Rectangle 10" width="16" height="16.03" fill="#039ce0"/>
    </clipPath>
  </defs>
  <g id="Group_14" data-name="Group 14" transform="translate(0 0)">
    <g id="Group_13" data-name="Group 13" transform="translate(0 0)" clip-path="url(#clip-path)">
      <path id="Path_25" data-name="Path 25" d="M7.531,0h.937a.874.874,0,0,0,.12.026,7.5,7.5,0,0,1,3.492,1.1,7.866,7.866,0,0,1,3.906,6.55,7.482,7.482,0,0,1-.928,4.095A7.883,7.883,0,0,1,9.393,15.9c-.305.059-.617.086-.925.126H7.531A.845.845,0,0,0,7.41,16a7.515,7.515,0,0,1-3.166-.916A7.911,7.911,0,0,1,.126,9.41C.068,9.1.042,8.793,0,8.485V7.546A.957.957,0,0,0,.026,7.41,7.552,7.552,0,0,1,.94,4.253,7.893,7.893,0,0,1,6.606.127c.3-.059.616-.086.924-.127M9.793,11.888c-.243.052-.463.117-.689.143-.609.07-.88-.21-.768-.816.087-.476.218-.943.335-1.412a9.506,9.506,0,0,0,.444-1.976,1.221,1.221,0,0,0-.541-1.157A1.882,1.882,0,0,0,7.3,6.431a5.952,5.952,0,0,0-1.5.459.128.128,0,0,0-.073.07c-.043.163-.08.327-.124.512.117-.037.206-.065.294-.095a1.5,1.5,0,0,1,.785-.051c.212.045.339.148.349.362a2.825,2.825,0,0,1-.046.757c-.126.548-.284,1.088-.437,1.629a6.366,6.366,0,0,0-.292,1.467,1.214,1.214,0,0,0,.779,1.233,2.059,2.059,0,0,0,1.287.1c.437-.105.857-.281,1.284-.428a.131.131,0,0,0,.074-.07c.044-.159.08-.321.119-.486M8.724,3.069a3.818,3.818,0,0,0-.44.09,1.11,1.11,0,0,0-.617,1.666,1.227,1.227,0,0,0,1.264.53,1.155,1.155,0,0,0,.986-1.281A1.218,1.218,0,0,0,8.724,3.069" transform="translate(0 0)" fill="#039ce0"/>
    </g>
  </g>
</svg>
