<svg xmlns="http://www.w3.org/2000/svg" width="14.77" height="19.692" viewBox="0 0 14.77 19.692">
  <path id="Location_3" d="M7.862,0c.39.067.786.108,1.171.2a7.449,7.449,0,0,1,5.6,5.954A9.034,9.034,0,0,1,14,11.035a20.059,20.059,0,0,1-3.067,5.1,29.67,29.67,0,0,1-3.036,3.288.652.652,0,0,1-1.053,0,27.024,27.024,0,0,1-5.261-6.581A12.679,12.679,0,0,1,.068,8.656,7.444,7.444,0,0,1,6.1.113c.252-.041.5-.077.755-.113Zm3.6,7.264a4.1,4.1,0,1,0-3.992,4.218A4.109,4.109,0,0,0,11.463,7.264Z" transform="translate(0.026)" fill="#8b8b8b"/>
</svg>
