<svg xmlns="http://www.w3.org/2000/svg" width="29.122" height="29.141" viewBox="0 0 29.122 29.141">
  <g id="Group_3" data-name="Group 3" transform="translate(952.235 -424.231)">
    <path id="Path_1" data-name="Path 1" d="M-937.108,424.231c.436.079.883.123,1.308.243a7.464,7.464,0,0,1,5.694,6.038,7.428,7.428,0,0,1-2.608,7.368c-.078.069-.16.134-.239.2a.635.635,0,0,0-.057.074l.463.177a1.132,1.132,0,0,1,.742,1.451,1.149,1.149,0,0,1-1.472.706c-.895-.237-1.786-.51-2.7-.661a11.37,11.37,0,0,0-4.927.3,12.476,12.476,0,0,0-7.075,4.984,12.439,12.439,0,0,0-1.924,4.363,1.2,1.2,0,0,0,1.257,1.6c1.28,0,2.56,0,3.84,0a1.121,1.121,0,0,1,1.17,1.073,1.1,1.1,0,0,1-1.074,1.19c-1.45.017-2.9.058-4.351-.015a3.438,3.438,0,0,1-3.092-4.213,14.919,14.919,0,0,1,4.092-7.437,14.462,14.462,0,0,1,5.393-3.391l.333-.122c-.311-.29-.615-.545-.886-.831a7.392,7.392,0,0,1-2.134-6.151,7.466,7.466,0,0,1,4.86-6.4,13.753,13.753,0,0,1,2.085-.515c.054-.013.108-.028.162-.042Zm-.559,2.276a5.477,5.477,0,0,0-5.469,5.457,5.475,5.475,0,0,0,5.351,5.458,5.47,5.47,0,0,0,5.569-5.439A5.477,5.477,0,0,0-937.667,426.507Z" transform="translate(0 0)" fill="#fff"/>
    <path id="Path_2" data-name="Path 2" d="M-814.945,680.454q-.057.332-.113.664a9.172,9.172,0,0,1-.836,2.671,2.86,2.86,0,0,1-2.568,1.653c-1.287.046-2.579.056-3.866,0a2.931,2.931,0,0,1-2.748-2.033,11.237,11.237,0,0,1-.409-1.327,1.1,1.1,0,0,1,.788-1.348,1.119,1.119,0,0,1,1.383.732c.122.358.216.725.341,1.081a.826.826,0,0,0,.894.638q1.678,0,3.355,0a.816.816,0,0,0,.887-.6,6.381,6.381,0,0,0,.548-3.545,16.762,16.762,0,0,0-.61-2.147.7.7,0,0,0-.716-.466q-1.777-.011-3.554,0a.739.739,0,0,0-.75.543c-.108.323-.22.645-.317.971a1.177,1.177,0,0,1-1.322.985q-3.682,0-7.365,0a.6.6,0,0,0-.469.2c-.213.215-.457.4-.759.656.365.334.642.6.936.848a.488.488,0,0,0,.29.063c.986,0,1.971,0,2.957,0a1.1,1.1,0,0,1,1.023.6,1.075,1.075,0,0,1-.037,1.135,1.051,1.051,0,0,1-.92.531c-1.26.01-2.521.007-3.782,0a1.122,1.122,0,0,1-.8-.373c-.645-.655-1.294-1.306-1.93-1.97a1.111,1.111,0,0,1,0-1.628c.625-.661,1.265-1.308,1.9-1.961a1.278,1.278,0,0,1,.975-.378c2.341,0,4.682,0,7.023.008a.35.35,0,0,0,.4-.28,3.034,3.034,0,0,1,3.155-2.228q1.606,0,3.213,0a3.081,3.081,0,0,1,3.037,2.051,9.6,9.6,0,0,1,.722,2.792.847.847,0,0,0,.047.162Z" transform="translate(-108.169 -232.108)" fill="#fff"/>
    <path id="Path_3" data-name="Path 3" d="M-622.887,737.258a1.142,1.142,0,0,1,1.127,1.151,1.142,1.142,0,0,1-1.159,1.12,1.142,1.142,0,0,1-1.113-1.137A1.141,1.141,0,0,1-622.887,737.258Z" transform="translate(-304.826 -290.73)" fill="#fff"/>
  </g>
</svg>
