<svg id="Logo" xmlns="http://www.w3.org/2000/svg" width="600.959" height="137.536" viewBox="0 0 600.959 137.536">
  <path id="Path_272" data-name="Path 272" d="M202.077,28.473a50.84,50.84,0,0,1,32.14,10.953l-8.439,14.9c-4.848-5.027-14.005-9.337-23.7-9.337-7.721,0-12.569,3.232-12.569,7.721,0,11.85,47.581,1.8,47.581,34.115,0,14.723-12.569,25.5-34.833,25.5-14.005,0-27.471-4.668-35.91-12.389L175.5,84.673c5.925,5.566,17.776,11.132,27.651,11.132,9.157,0,13.466-3.411,13.466-8.439,0-13.107-47.4-2.334-47.4-33.935,0-13.287,11.671-24.958,32.858-24.958m0-10.773c-12.569,0-23.342,3.411-31.242,10.055A33.475,33.475,0,0,0,158.446,53.61c0,9.337,3.232,17.237,9.337,23.162l-1.436,2.514-9.157,15.262-4.489,7.541,6.464,5.925c10.414,9.516,26.574,15.262,43.092,15.262,31.6,0,45.606-18.314,45.606-36.269,0-11.312-4.489-20.469-12.928-26.933l.359-.539,8.439-14.9,4.489-8.08-7.182-5.746A62.219,62.219,0,0,0,202.077,17.7Z" transform="translate(121.475 14.081)" fill="#fff"/>
  <path id="Path_273" data-name="Path 273" d="M224.462,10.773a12.453,12.453,0,0,1,12.569,12.389,12.605,12.605,0,0,1-12.569,12.569,12.453,12.453,0,0,1-12.389-12.569,12.3,12.3,0,0,1,12.389-12.389m10.594,33.756v80.26H214.048V44.529h21.007M224.462,0A23.219,23.219,0,0,0,201.3,23.162a22.311,22.311,0,0,0,2.514,10.414h-.539V135.382h42.554V33.756h-.539A22.856,22.856,0,0,0,247.8,23.342,23.41,23.41,0,0,0,224.462,0Z" transform="translate(160.137)" fill="#fff"/>
  <path id="Path_274" data-name="Path 274" d="M315.19,12.573V123.356H294V113.122a30.948,30.948,0,0,1-24.778,12.209c-20.11,0-35.551-15.262-35.551-42.195,0-26.035,15.082-42.015,35.551-42.015A30.427,30.427,0,0,1,294,53.331V12.573H315.19m-39.5,93.905c7,0,14.544-3.771,18.135-9.157V68.952c-3.411-5.387-11.132-9.157-18.135-9.157-12.209,0-20.469,9.516-20.469,23.162.18,14.005,8.439,23.521,20.469,23.521M325.962,1.8H283.229V32.683a44.908,44.908,0,0,0-14.005-2.334c-27.292,0-46.324,21.726-46.324,52.788,0,15.441,4.489,28.728,12.928,38.244s20.289,14.544,33.4,14.544a45.8,45.8,0,0,0,14.005-2.334v.359h42.733V1.8ZM275.688,95.705c-8.978,0-9.7-9.7-9.7-12.569s.718-12.389,9.7-12.389a12.967,12.967,0,0,1,7.362,2.514v20.11a13.777,13.777,0,0,1-7.362,2.334Z" transform="translate(177.32 1.432)" fill="#fff"/>
  <path id="Path_275" data-name="Path 275" d="M329.349,28.473c24.06,0,40.219,17.955,40.219,43.99v5.027H309.958c1.436,9.875,9.516,17.955,23.162,17.955,6.823,0,16.16-2.873,21.187-7.721l9.516,14.005c-7.9,7.362-20.649,11.132-33.038,11.132-24.419,0-42.913-16.519-42.913-42.195-.18-23.521,17.237-42.195,41.476-42.195M309.778,62.767h39.5c-.718-7.721-5.925-17.057-19.93-17.057-13.107,0-18.853,9.157-19.571,17.057M329.349,17.7a51.5,51.5,0,0,0-37.526,15.621A53.007,53.007,0,0,0,277.1,70.488c0,30.7,22.624,52.968,53.686,52.968,15.98,0,30.7-5.027,40.4-14.005l6.823-6.284L372.8,95.446l-4.848-7.182h12.569v-15.8C380.162,40.144,359.335,17.7,329.349,17.7Z" transform="translate(220.437 14.081)" fill="#fff"/>
  <path id="Path_276" data-name="Path 276" d="M68.768,11.473c33.4,0,57.816,23.88,57.816,57.277s-24.419,57.277-57.816,57.277c-33.576,0-58-23.88-58-57.277s24.419-57.277,58-57.277m0,93.726c20.469,0,33.576-15.8,33.576-36.449,0-20.828-13.107-36.269-33.576-36.269C48.12,32.481,35.013,48.1,35.013,68.75S48.12,105.2,68.768,105.2m0-104.5c-19.032,0-36.449,6.823-49.2,19.212C7,32.481,0,49.718,0,68.75S7,105.2,19.571,117.588,49.556,136.8,68.768,136.8c19.032,0,36.449-6.823,49.018-19.212s19.571-29.806,19.571-48.838-7-36.269-19.571-48.838C105.217,7.523,87.8.7,68.768.7Zm0,93.726C51.89,94.426,45.786,80.6,45.786,68.75c0-15.621,8.978-25.5,22.983-25.5,13.825,0,22.8,10.055,22.8,25.5,0,12.748-7.182,25.676-22.8,25.676Z" transform="translate(0 0.557)" fill="#fff"/>
  <path id="Path_277" data-name="Path 277" d="M159.405,29.573v80.26H138.4V99.778a38.453,38.453,0,0,1-28.19,12.209c-17.6,0-25.855-9.7-25.855-25.317v-57.1H105.36V78.232c0,11.132,5.746,14.723,14.723,14.723,8.08,0,14.544-4.489,18.314-9.157V29.573h21.007M170.178,18.8H127.625V79.488a11.677,11.677,0,0,1-7.541,2.693,8.717,8.717,0,0,1-3.591-.539,7.982,7.982,0,0,1-.539-3.591V18.8H73.4V86.491c0,22.264,14.005,36.09,36.629,36.09a50.736,50.736,0,0,0,17.416-3.052v1.077H170V18.8Z" transform="translate(58.391 14.956)" fill="#fff"/>
  <path id="Path_278" data-name="Path 278" d="M167.068,17.373V39.278h16.339V57.593H167.068v36.09c0,5.207,2.693,8.978,7.361,8.978,3.232,0,6.1-1.077,7.362-2.514l4.489,16.16c-3.232,2.873-8.8,5.207-17.6,5.207-14.723,0-22.624-7.721-22.624-22.085V57.593H132.773V39.278H146.06V17.373h21.008M177.841,6.6H135.287V28.505H122v39.86h13.287V99.249c0,20.289,12.748,32.858,33.4,32.858,13.107,0,20.828-4.309,24.778-7.9l5.027-4.489-1.8-6.464L192.2,97.094l-5.387-19.212-8.8,10.055V68.366h16.339V28.505H178.02V6.6Z" transform="translate(97.053 5.25)" fill="#fff"/>
  <path id="Path_279" data-name="Path 279" d="M160.3,95.421l9.157-15.262c5.925,5.566,17.776,11.132,27.651,11.132,9.157,0,13.466-3.411,13.466-8.439,0-13.107-47.4-2.334-47.4-33.935,0-13.466,11.671-25.317,32.858-25.317a50.84,50.84,0,0,1,32.14,10.953l-8.439,14.9c-4.848-5.027-14-9.337-23.7-9.337-7.721,0-12.569,3.232-12.569,7.721,0,11.85,47.581,1.8,47.581,34.115,0,14.723-12.569,25.5-34.833,25.5C182.205,107.81,168.918,103.321,160.3,95.421Z" transform="translate(127.521 18.774)" fill="#86bf08"/>
  <path id="Path_280" data-name="Path 280" d="M6,63.977C6,30.76,30.419,6.7,64,6.7c33.4,0,57.816,23.88,57.816,57.277S97.392,121.254,64,121.254C30.419,121.254,6,97.374,6,63.977Zm91.571,0c0-20.828-13.107-36.269-33.576-36.269-20.648,0-33.756,15.621-33.756,36.269S43.347,100.426,64,100.426C84.284,100.426,97.571,84.625,97.571,63.977Z" transform="translate(4.773 5.33)" fill="#0b9ade"/>
  <path id="Path_281" data-name="Path 281" d="M133.545,104.88V94.825a38.454,38.454,0,0,1-28.19,12.21c-17.6,0-25.855-9.7-25.855-25.317V24.8h21.007V73.458c0,11.132,5.746,14.723,14.723,14.723,8.08,0,14.544-4.489,18.314-9.157V24.8h21.008v80.26H133.545Z" transform="translate(63.243 19.729)" fill="#0b9ade"/>
  <path id="Path_282" data-name="Path 282" d="M141.287,94.476V52.82H128V34.505h13.287V12.6h21.008V34.505h16.339V52.82H162.294v36.09c0,5.207,2.693,8.978,7.362,8.978,3.232,0,6.1-1.077,7.362-2.514l4.489,16.16c-3.232,2.873-8.8,5.207-17.6,5.207C149.008,116.56,141.287,109.019,141.287,94.476Z" transform="translate(101.826 10.023)" fill="#0b9ade"/>
  <path id="Path_283" data-name="Path 283" d="M207.2,18.389A12.3,12.3,0,0,1,219.589,6a12.453,12.453,0,0,1,12.569,12.389,12.605,12.605,0,0,1-12.569,12.569C212.946,31.137,207.2,25.392,207.2,18.389Zm1.975,101.447V39.756h21.008v80.26H209.175Z" transform="translate(164.831 4.773)" fill="#86bf08"/>
  <path id="Path_284" data-name="Path 284" d="M289.129,118.4V108.169a30.948,30.948,0,0,1-24.778,12.21c-20.11,0-35.551-15.262-35.551-42.195,0-26.035,15.082-42.015,35.551-42.015a30.427,30.427,0,0,1,24.778,12.21V7.8h21.187V118.583H289.129Zm0-25.855V64.179c-3.411-5.387-11.132-9.157-18.135-9.157-12.209,0-20.469,9.516-20.469,23.162,0,14.005,8.26,23.342,20.469,23.342C278,101.705,285.718,97.935,289.129,92.548Z" transform="translate(182.014 6.205)" fill="#86bf08"/>
  <path id="Path_285" data-name="Path 285" d="M283,65.715C283,42.553,300.237,23.7,324.476,23.7c24.06,0,40.219,17.955,40.219,43.99v5.027H305.085c1.436,9.875,9.516,17.955,23.162,17.955,6.823,0,16.16-2.873,21.187-7.721l9.516,14.005c-7.9,7.362-20.648,11.132-33.037,11.132C301.494,107.73,283,91.391,283,65.715Zm41.656-24.778c-13.107,0-18.673,9.157-19.571,17.057h39.5C343.868,50.274,338.481,40.937,324.656,40.937Z" transform="translate(225.131 18.854)" fill="#86bf08"/>
</svg>
