<svg xmlns="http://www.w3.org/2000/svg" width="13.846" height="13.843" viewBox="0 0 13.846 13.843">
  <path id="Log_out" data-name="Log out" d="M6.518,0h.811c.04.007.079.018.119.022.368.058.743.09,1.107.173a6.917,6.917,0,0,1,5.187,5.534c.043.252.072.508.1.761v.865c-.007.04-.018.079-.025.119a10.36,10.36,0,0,1-.26,1.388A6.808,6.808,0,0,1,8.1,13.738c-.256.05-.515.072-.771.1H6.518a.436.436,0,0,0-.065-.018c-.418-.065-.844-.1-1.251-.2A6.893,6.893,0,0,1,.1,8.1C.058,7.855.032,7.6,0,7.354V6.489c.007-.043.018-.087.025-.13.083-.451.126-.912.249-1.352A6.894,6.894,0,0,1,5.743.1C6,.061,6.258.036,6.518,0Zm.389,10.941c.2-.018.4-.022.606-.054a3.974,3.974,0,0,0,3.111-5.364A3.893,3.893,0,0,0,9.906,4.34a.446.446,0,0,0-.541-.112.439.439,0,0,0-.249.49A.729.729,0,0,0,9.265,5a3,3,0,0,1,.678,2.4A3.053,3.053,0,1,1,4.56,5.025a.462.462,0,1,0-.714-.58A3.882,3.882,0,0,0,3.01,7.66,3.973,3.973,0,0,0,6.907,10.941ZM7.376,3.8H7.361c0-.429,0-.854,0-1.283a.46.46,0,1,0-.919,0c0,.872,0,1.748.018,2.621a.544.544,0,0,0,.119.292.426.426,0,0,0,.49.123.457.457,0,0,0,.3-.451C7.379,4.668,7.376,4.236,7.376,3.8Z" fill="#039ce0"/>
</svg>
