<svg xmlns="http://www.w3.org/2000/svg" xmlns:xlink="http://www.w3.org/1999/xlink" width="24" height="24" viewBox="0 0 24 24">
  <defs>
    <linearGradient id="linear-gradient" x1="0.5" x2="0.5" y2="1" gradientUnits="objectBoundingBox">
      <stop offset="0" stop-color="#109fc8"/>
      <stop offset="1" stop-color="#7dbd19"/>
    </linearGradient>
  </defs>
  <g id="Group_105" data-name="Group 105" transform="translate(-1152 -399)">
    <path id="Rectangle_12_-_Outline" data-name="Rectangle 12 - Outline" d="M3,2A1,1,0,0,0,2,3v7a1,1,0,0,0,1,1H7a1,1,0,0,0,1-1V3A1,1,0,0,0,7,2H3M3,0H7a3,3,0,0,1,3,3v7a3,3,0,0,1-3,3H3a3,3,0,0,1-3-3V3A3,3,0,0,1,3,0Z" transform="translate(1153 400)" fill="#bcbcbc"/>
    <path id="Rectangle_14_-_Outline" data-name="Rectangle 14 - Outline" d="M3,2A1,1,0,0,0,2,3V8A1,1,0,0,0,3,9H7A1,1,0,0,0,8,8V3A1,1,0,0,0,7,2H3M3,0H7a3,3,0,0,1,3,3V8a3,3,0,0,1-3,3H3A3,3,0,0,1,0,8V3A3,3,0,0,1,3,0Z" transform="translate(1165 400)" fill="#bcbcbc"/>
    <path id="Rectangle_13_-_Outline" data-name="Rectangle 13 - Outline" d="M3,2A1,1,0,0,0,2,3V4A1,1,0,0,0,3,5H7A1,1,0,0,0,8,4V3A1,1,0,0,0,7,2H3M3,0H7a3,3,0,0,1,3,3V4A3,3,0,0,1,7,7H3A3,3,0,0,1,0,4V3A3,3,0,0,1,3,0Z" transform="translate(1153 415)" fill="#bcbcbc"/>
    <path id="Rectangle_15_-_Outline" data-name="Rectangle 15 - Outline" d="M3,2A1,1,0,0,0,2,3V6A1,1,0,0,0,3,7H7A1,1,0,0,0,8,6V3A1,1,0,0,0,7,2H3M3,0H7a3,3,0,0,1,3,3V6A3,3,0,0,1,7,9H3A3,3,0,0,1,0,6V3A3,3,0,0,1,3,0Z" transform="translate(1165 413)" fill="#bcbcbc"/>
    <g id="Group_103" data-name="Group 103">
      <path id="Rectangle_12_-_Outline_-_Outline" data-name="Rectangle 12 - Outline - Outline" d="M3,0A3,3,0,0,0,0,3v7a3,3,0,0,0,3,3H7a3,3,0,0,0,3-3V3A3,3,0,0,0,7,0H3M7,11H3a1,1,0,0,1-1-1V3A1,1,0,0,1,3,2H7A1,1,0,0,1,8,3v7a1,1,0,0,1-1,1M3-1H7a4,4,0,0,1,4,4v7a4,4,0,0,1-4,4H3a4,4,0,0,1-4-4V3A4,4,0,0,1,3-1ZM7,10H7V3H3v7Z" transform="translate(1153 400)" fill="url(#linear-gradient)"/>
      <path id="Rectangle_14_-_Outline_-_Outline" data-name="Rectangle 14 - Outline - Outline" d="M3,0A3,3,0,0,0,0,3V8a3,3,0,0,0,3,3H7a3,3,0,0,0,3-3V3A3,3,0,0,0,7,0H3M7,9H3A1,1,0,0,1,2,8V3A1,1,0,0,1,3,2H7A1,1,0,0,1,8,3V8A1,1,0,0,1,7,9M3-1H7a4,4,0,0,1,4,4V8a4,4,0,0,1-4,4H3A4,4,0,0,1-1,8V3A4,4,0,0,1,3-1ZM7,8H7V3H3V8Z" transform="translate(1165 400)" fill="url(#linear-gradient)"/>
      <path id="Rectangle_13_-_Outline_-_Outline" data-name="Rectangle 13 - Outline - Outline" d="M3,0A3,3,0,0,0,0,3V4A3,3,0,0,0,3,7H7a3,3,0,0,0,3-3V3A3,3,0,0,0,7,0H3M7,5H3A1,1,0,0,1,2,4V3A1,1,0,0,1,3,2H7A1,1,0,0,1,8,3V4A1,1,0,0,1,7,5M3-1H7a4,4,0,0,1,4,4V4A4,4,0,0,1,7,8H3A4,4,0,0,1-1,4V3A4,4,0,0,1,3-1ZM7,4H7V3H3V4Z" transform="translate(1153 415)" fill="url(#linear-gradient)"/>
      <path id="Rectangle_15_-_Outline_-_Outline" data-name="Rectangle 15 - Outline - Outline" d="M3,0A3,3,0,0,0,0,3V6A3,3,0,0,0,3,9H7a3,3,0,0,0,3-3V3A3,3,0,0,0,7,0H3M7,7H3A1,1,0,0,1,2,6V3A1,1,0,0,1,3,2H7A1,1,0,0,1,8,3V6A1,1,0,0,1,7,7M3-1H7a4,4,0,0,1,4,4V6a4,4,0,0,1-4,4H3A4,4,0,0,1-1,6V3A4,4,0,0,1,3-1ZM7,6H7V3H3V6Z" transform="translate(1165 413)" fill="url(#linear-gradient)"/>
    </g>
  </g>
</svg>
