<svg version="1.2" xmlns="http://www.w3.org/2000/svg" viewBox="0 0 281 228" width="281" height="228">
	<title>no-data-svg</title>
	<defs>
		<linearGradient id="g1" x1="139.8" y1="147.8" x2="139.8" y2="225.7" gradientUnits="userSpaceOnUse">
			<stop offset="0" stop-color="#e5e5e5"/>
			<stop offset=".4" stop-color="#f0f0ef"/>
			<stop offset="1" stop-color="#ffffff"/>
		</linearGradient>
		<linearGradient id="g2" x1="129.9" y1="41" x2="145.6" y2="95.1" gradientUnits="userSpaceOnUse">
			<stop offset="0" stop-color="#6594ce"/>
			<stop offset="1" stop-color="#386ab4"/>
		</linearGradient>
		<linearGradient id="g3" x1="138.9" y1="50.4" x2="141.4" y2="59.2" gradientUnits="userSpaceOnUse">
			<stop offset="0" stop-color="#f1bead"/>
			<stop offset="1" stop-color="#f2dad3"/>
		</linearGradient>
		<linearGradient id="g4" x1="-1345.6" y1="166.9" x2="-1342.3" y2="178.3" gradientUnits="userSpaceOnUse">
			<stop offset="0" stop-color="#6594ce"/>
			<stop offset="1" stop-color="#386ab4"/>
		</linearGradient>
		<linearGradient id="g5" x1="132.7" y1="166.9" x2="136.1" y2="178.3" gradientUnits="userSpaceOnUse">
			<stop offset="0" stop-color="#6594ce"/>
			<stop offset="1" stop-color="#386ab4"/>
		</linearGradient>
	</defs>
	<style>
		.s0 { fill: #eeedee } 
		.s1 { fill: #bdbdbd } 
		.s2 { fill: url(#g1) } 
		.s3 { fill: #f2dad3 } 
		.s4 { fill: #1c2d59 } 
		.s5 { fill: url(#g2) } 
		.s6 { fill: url(#g3) } 
		.s7 { fill: #e54e4e } 
		.s8 { fill: url(#g4) } 
		.s9 { fill: url(#g5) } 
	</style>
	<g id="No_data">
		<g id="Group_3124">
			<g id="Group_3122">
				<path id="Path_197" class="s0" d="m83.1 123.1c1.9 2.7 0.3 6.1-1.6 8.1c-2.3 2.4-4.6 2-5.7 4.1c-1.3 2.6 1.5 4.5 0.1 7.1c-0.9 1.7-2.1 1.3-3.9 3.4c-2.1 2.5 0 3.3-1.5 5.1c-4.9 6-6.8 1.8-9.8 3.4c-3.8 2.1-6.4 3.8-8.3 3.4c-7.3-1.6-5.1-6.5-8.6-8.3c-4.9-2.6-7.2-12.9-3.9-16.5c1.7-1.9 3.5-2.2 3.6-3.7c0.2-2.3-3.2-3-3.6-5.8c-0.4-3.1 3.8-4.6 3.2-7.2c-0.6-2.6-4.9-2.5-5.2-4.4c-0.4-2.8 8.7-7.8 18.1-7.5c4.5 0.2 11.8 1.6 13.1 5.4c0.7 2.2-1.2 3.6-0.1 6.4c0.7 2 2.4 3.1 4.6 4.6c2 1.4 6.1-2.3 9.5 2.4z" />
				<path id="Path_198" class="s1" d="m60.6 121.4c1.5 0 2.2 9.8 1.4 11.1c-0.9 1.3-2.5 2.3-2.6 3.7c-0.1 1.4 0.5 26.4 1.1 26.1c0.5-0.4 4.8-7 3.9-8.5c-0.8-1.5-1.8-3.9-1.6-5.8c0.2-2 0.2-4.9 0.8-4.8c0.5 0 0.1 5 0.5 5.9c0.3 0.9 0.4 1.7 1 1.7c0.5 0 0.6-5.2 1.4-5.1c0.9 0.1 0.3 7.7 0 9.2c-0.3 1.4-1.3 6.2-2.3 8c-0.9 1.8-3.7 3.7-3.8 4.3c0 0.6 0.4 15.2 0.4 15.2l-7.3 0.1c0 0 2.7-28.7 2.1-29.7c-0.6-0.9-4.5-8.7-5.3-9.5c-0.8-0.8-1.3-5.6-0.8-5.7c0.4-0.1 0.6 4.6 1.5 4.7c0.9 0.1 1.4-9.1 2.1-9c0.6 0.1-0.7 9.5-0.3 10.1c0.3 0.6 2.4 4.1 3.1 4c0.6-0.1-0.4-25.9 0.2-26.1c0.6-0.3 1-0.1 1.4 2.6c0.3 2.7 1 8.6 1.5 8.6q0.2-0.1 0.4-0.2q0.3-0.2 0.5-0.3q0.1-0.2 0.3-0.5q0.1-0.2 0.2-0.5c-0.1-0.5-0.5-9.5 0.2-9.6z" />
			</g>
			<g id="Group_3123">
				<path id="Path_199" class="s0" d="m225.6 149.4c1.2-0.9 2.1-1.5 2.6-2.7c0.5-1.5-0.5-2.3-0.1-3.6c0.7-2.1 4.8-2.9 7.4-3c5.3-0.1 10.4 2.7 10.2 4.3c-0.1 1-2.5 1-2.9 2.4c-0.4 1.5 2 2.3 1.8 4.1c-0.2 1.6-2.2 2-2.1 3.3c0.1 0.9 1.1 1 2.1 2.1c1.9 2 0.5 7.9-2.2 9.3c-2 1.1-0.7 3.8-4.9 4.7c-1.1 0.3-2.5-0.7-4.7-1.9c-1.7-0.9-2.7 1.5-5.5-1.9c-0.8-1.1 0.4-1.5-0.9-2.9c-1-1.2-1.6-1-2.1-1.9c-0.9-1.6 0.7-2.6 0-4.1c-0.7-1.2-2-1-3.3-2.3c-1-1.1-1.9-3.1-0.9-4.6c1.9-2.7 4.2-0.6 5.5-1.3z" />
				<path id="Path_200" class="s1" d="m233.1 155.2c0 0.3 0.6 0.8 0.8 0.8c0.2 0 0.7-3.3 0.8-4.8c0.2-1.6 0.5-1.7 0.8-1.5c0.4 0.1-0.2 14.7 0.1 14.8c0.4 0 1.6-2 1.8-2.3c0.2-0.3-0.6-5.7-0.2-5.8c0.4 0 0.7 5.2 1.2 5.2c0.5-0.1 0.6-2.7 0.9-2.7q0 0.4 0 0.8q0 0.4 0 0.9q-0.1 0.4-0.2 0.8q-0.2 0.4-0.3 0.7c-0.5 0.5-2.7 4.9-3 5.4c-0.4 0.6 1.2 16.9 1.2 16.9l-4.2-0.1c0 0 0.2-8.3 0.2-8.6c0-0.4-1.6-1.4-2.1-2.5q-0.2-0.5-0.4-1.1q-0.2-0.5-0.4-1.1q-0.1-0.6-0.3-1.2q-0.1-0.6-0.2-1.1c-0.1-0.8-0.5-5.1 0-5.2c0.5 0 0.5 2.9 0.8 2.9c0.3 0 0.4-0.4 0.6-1c0.2-0.5-0.1-3.3 0.2-3.3c0.3 0 0.3 1.6 0.5 2.7q0 0.4-0.1 0.9q0 0.4-0.2 0.8q-0.1 0.4-0.3 0.8q-0.1 0.4-0.4 0.8c-0.5 0.9 2 4.6 2.3 4.8c0.3 0.2 0.6-14 0.6-14.8c-0.1-0.8-1-1.3-1.5-2c-0.5-0.8-0.1-6.4 0.7-6.3c0.4 0 0.2 5.1 0.3 5.4z" />
			</g>
			<path id="Ellipse_17" class="s2" d="m140.1 269.4c-77.5 0-140.1-22.1-140.1-49.6c0-27.4 62.6-49.5 140.1-49.5c77.4 0 140.1 22.1 140.1 49.5c0 27.5-62.7 49.6-140.1 49.6z" />
		</g>
		<g id="Group_3125">
			<path id="Path_201" class="s3" d="m148.8 166.6q0.1 0.4 0.1 0.8q0 0.5 0 0.9q0 0.4 0 0.8q0 0.5-0.1 0.9q-0.1 0.2-0.3 0.4q-0.2 0.2-0.5 0.3q-0.2 0.2-0.5 0.3q-0.2 0.1-0.5 0.1q-0.4 0-0.8 0q-0.4 0-0.8-0.1q-0.4 0-0.8-0.2q-0.4-0.1-0.8-0.2c0-0.2 0-2.1 0-2.6q0.1-0.3 0.1-0.5q0.1-0.3 0.2-0.5q0.1-0.3 0.2-0.5q0.1-0.2 0.2-0.4c0 0 4.1 0.2 4.3 0.5z" />
			<path id="Path_202" class="s3" d="m137.7 166.4c0.4 0.1 0.9 0.8 1.1 1.2c0.1 0.4-0.3 1.2-0.3 1.6q0 0.2 0 0.4q0 0.3 0 0.5q0 0.2-0.1 0.4q0 0.3-0.1 0.5c-0.2 0.4-4.5 0.4-4.5-0.2q0-0.2-0.1-0.4q0-0.2-0.1-0.4q-0.1-0.2-0.1-0.4q-0.1-0.2-0.2-0.4q0-0.2 0-0.5q0-0.3 0-0.6q0-0.2 0-0.5q0.1-0.3 0.1-0.6c0 0 3.8-0.7 4.3-0.6z" />
			<path id="Path_203" class="s4" d="m153.5 104c1 1.2 1.4 6.8 1.4 8.6c0 1.8-0.8 9.6-1.1 11.4c-0.2 1.9-1.3 8.9-1.2 11.2c0.1 2.3 0.8 11.7 0.7 14.1c-0.2 2.5-2.8 12.6-3.1 13.6c-0.3 0.9 0 2.9-0.2 3.5c-0.3 0.5-2 0.9-3.1 0.9q-0.4 0-0.8-0.1q-0.3-0.1-0.7-0.2q-0.4-0.1-0.8-0.3q-0.3-0.2-0.6-0.4c-0.3-0.4-0.3-14.7 0-16.6c0.2-1.8 0.8-6.7 0.4-7.5c-0.4-0.8-2-14.9-2.4-17c-0.3-2.2-2.5-8.9-2.9-8.8c-0.3 0-1.2 5.5-1.6 6.7c-0.3 1.1-0.9 9.7-1 12.1c-0.2 2.3-1.4 6.4-1.3 7.6c0 1.1 1.4 9.8 1.6 11.8c0.3 2.1 1.6 10.7 1.6 11.4c-0.1 0.8-0.6 1.3-2.5 1.6q-0.4 0.1-0.9 0.1q-0.4 0.1-0.9 0q-0.4 0-0.8-0.1q-0.5-0.2-0.9-0.3c-0.6-0.1-1.8-6.8-2.7-9.7c-0.8-3-2.5-11.2-2.5-16.2c0-5.1-1.6-16.4-2.2-20.6c-0.6-4.1 0.2-14.4 1.1-17.6c0 0 26.3-0.4 27.4 0.8z" />
			<path id="Path_204" class="s3" d="m169.1 73q0.2-0.1 0.4-0.3q0.2-0.1 0.3-0.2q0.2-0.2 0.3-0.4q0.2-0.2 0.3-0.4c0.1-0.3 0.6-1.4 1.1-1.7q0.2-0.1 0.5-0.2q0.2-0.1 0.5-0.2q0.2 0 0.5-0.1q0.3-0.1 0.5-0.2c0.5-0.2 1.7-0.9 1.9-1c0.3-0.1 1-0.2 1.2 0.2q0 0.2 0 0.4q0 0.2-0.1 0.4q-0.1 0.2-0.2 0.3q-0.1 0.2-0.3 0.3c-0.5 0.1-1.7 0.5-1.6 0.8q0.3 0.1 0.5 0.2q0.3 0.1 0.6 0.1q0.3 0 0.5 0q0.3-0.1 0.6-0.2c0.9-0.5 2.4-0.8 2.8-1q0.4-0.2 0.8-0.4q0.4-0.2 0.8-0.3q0.4-0.2 0.8-0.3q0.4-0.2 0.9-0.3q0.1 0 0.2 0q0.1 0 0.2 0.1q0 0 0.1 0.1q0.1 0.1 0.1 0.2c0.2 0.2 1-0.4 1.2 0c0.2 0.4-0.3 0.7-0.4 0.8c0 0.2 0.4 0.3 0.4 0.6c0 0.3-0.5 0.5-1.3 0.8c-0.7 0.4-4.1 2.5-4.6 2.8q-0.4 0.2-0.7 0.4q-0.4 0.1-0.8 0.2q-0.3 0.2-0.7 0.3q-0.4 0-0.8 0.1c-1.4 0.1-3 0.2-3.4 0.7q-0.2 0.2-0.4 0.5q-0.1 0.2-0.3 0.4q-0.2 0.3-0.4 0.5q-0.2 0.2-0.4 0.5c-0.3 0.1-1.8 0.3-2.2-0.7c-0.4-0.9 0.6-3.8 0.6-3.8z" />
			<path id="Path_205" class="s3" d="m111.2 71.4q0 0.4 0 0.8q0 0.4 0 0.8q-0.1 0.4-0.2 0.8c-0.4 0.9-1.9 0.7-2.1 0.6c-0.2-0.1-0.5-0.7-0.9-1.2c-0.4-0.5-2-0.6-3.4-0.7q-0.4 0-0.8-0.1q-0.4-0.1-0.8-0.2q-0.3-0.2-0.7-0.3q-0.4-0.2-0.7-0.4c-0.5-0.3-3.9-2.4-4.7-2.7c-0.7-0.4-1.2-0.5-1.2-0.9c0-0.3 0.4-0.4 0.3-0.5c0-0.2-0.6-0.4-0.3-0.8c0.2-0.5 1 0.1 1.2-0.1q0-0.1 0.1-0.2q0 0 0.1-0.1q0.1 0 0.2-0.1q0.1 0 0.2 0q0.4 0.1 0.9 0.3q0.4 0.1 0.8 0.3q0.4 0.1 0.8 0.3q0.4 0.2 0.8 0.4c0.4 0.2 1.9 0.6 2.8 1q0.3 0.1 0.5 0.2q0.3 0.1 0.6 0.1q0.3-0.1 0.6-0.1q0.2-0.1 0.5-0.3c0.1-0.2-1.1-0.6-1.6-0.8q-0.2-0.1-0.3-0.3q-0.2-0.1-0.2-0.3q-0.1-0.2-0.1-0.4q0-0.2 0-0.4c0.2-0.4 0.9-0.2 1.1-0.1c0.3 0.1 1.5 0.8 2 0.9q0.2 0.1 0.5 0.2q0.2 0.1 0.5 0.2q0.2 0.1 0.5 0.2q0.2 0.1 0.5 0.2c0.5 0.2 1 1.3 1.1 1.7q0.1 0.2 0.2 0.3q0.2 0.2 0.3 0.4q0.2 0.1 0.4 0.3q0.2 0.1 0.4 0.2q0 0.4 0.1 0.8z" />
			<path id="Path_206" class="s5" d="m146 55.8c1.1 0 7.6 2.3 9 3.1c1.4 0.7 3.1 9.1 3.3 10.4c0.3 1.3 3.6 7.4 3.8 7.8c0.2 0.4 1.9-0.6 3-1.2c1.1-0.6 3.7-2.9 4.1-3.1c0.3-0.2 0.2 1 0.2 1.9c0 0.9 1.3 2 1.7 2.2c0.4 0.2-1 1.5-1.7 2.7c-0.6 1.2-6.9 7.5-9.9 7.7c-3.1 0.2-6.2-8.5-6.7-8.5c-0.4 0.1 0.3 11.5 0.3 14.7c0 3.2 2.5 11.1 2.3 12.6c-0.2 1.4-11.5 3.5-17.1 3.3c-5.5-0.1-12.7-2.6-13.4-3.4c-0.6-0.8 1.8-10.3 2.4-12.5c0.6-2.1 1.3-12.4 1-12.4c-0.4 0-4.7 6.5-6 6.5c-1.3 0.1-6.4-4.1-7.6-5.7c-1.2-1.6-5.8-7.1-5.9-7.6c-0.2-0.5 0.5-0.2 1.5-1.2c1-1 0.6-2.6 0.8-2.6c0.1 0 8.5 6.5 9 6.5c0.6 0 1.7-4.2 2.3-6c0.6-1.8 1.8-8.2 3-10.9c1.3-2.7 8.6-3.6 10.5-3.8c0 0 9-0.5 10.1-0.5z" />
			<path id="Path_207" class="s6" d="m144.6 53.4q0.1 0.3 0.1 0.7q0.1 0.3 0.1 0.7q0 0.3 0 0.7q0.1 0.4 0.1 0.7c-0.1 0.6-3.5 6-5.5 5.9c-1.9-0.2-3.9-5.5-3.5-5.8c0.3-0.2-0.2-1.4-0.2-2.3c0 0 8.9-0.7 8.9-0.6z" />
			<path id="Path_208" class="s7" d="m133.1 46.8c-0.3-2.3-1-4.5-0.5-6.8c0.5-2.2 2.1-5 5.5-5.4c3.3-0.3 4.9 1 6.6 3.1c1.6 2.2 1.4 8.9 1 9.4q-0.8 0.4-1.5 0.8q-0.8 0.3-1.7 0.5q-0.8 0.3-1.6 0.4q-0.9 0.1-1.7 0.1q-0.8 0-1.6-0.2q-0.8-0.1-1.6-0.4q-0.8-0.3-1.5-0.6q-0.7-0.4-1.4-0.9z" />
			<path id="Path_209" class="s3" d="m133.8 50.5c-0.2 0-0.9-0.7-1.1-2c-0.2-1.2-0.1-3.1 0.3-3.1c0.4 0 1 1.8 1.4 1.8c0.4 0-0.1-2.3-0.1-2.3c2.8-0.5 5-3.3 5.5-3.3c0.5 0 3.9 0.6 4.4 1.3c0.6 0.6 0.6 3.5 0.9 3.5c0.3 0 0.6-2 1.1-2c0.5 0.1 0.5 2.2 0.4 3.6c-0.2 1.3-1.1 1.2-1.2 1.2c-0.1 0 0.1 2.5-0.1 3.8c-0.2 1.3-3.5 3.6-5.1 3.6c-1.6 0.1-4.1-1.9-4.6-2.3c-0.5-0.4-1.1-4-1.1-4c-0.3-0.2-0.5 0.2-0.7 0.2z" />
			<path id="Path_210" class="s8" d="m149.1 170.8c0.3 0.6 0.3 2.1 1.1 3.6q0.3 0.4 0.5 0.8q0.2 0.5 0.4 1q0.2 0.4 0.3 0.9q0.1 0.5 0.2 1q0 0.5-0.2 1q-0.3 0.5-0.6 0.9q-0.3 0.4-0.8 0.7q-0.4 0.2-0.9 0.3c-1.5 0.3-3.2 0.4-4 0q-0.3-0.1-0.6-0.4q-0.3-0.2-0.5-0.5q-0.2-0.3-0.3-0.6q-0.2-0.3-0.2-0.7q0-0.4 0.1-0.9q0-0.4 0-0.9q0-0.4 0-0.9q-0.1-0.4-0.1-0.9q-0.1-0.2-0.1-0.5q-0.1-0.2-0.1-0.5q-0.1-0.2-0.1-0.5q0-0.2 0-0.5q-0.1-0.3-0.1-0.6q0-0.3 0-0.7q0-0.3 0.1-0.6q0-0.3 0.1-0.6q0.3-0.3 0.6-0.5q0.3-0.2 0.7-0.4q0.3-0.1 0.7-0.2q0.4-0.1 0.8-0.1q0.4 0 0.8 0.1q0.4 0.1 0.8 0.3q0.4 0.1 0.7 0.4q0.4 0.2 0.7 0.5z" />
			<path id="Path_211" class="s9" d="m133.9 170.3q0.4-0.2 0.8-0.4q0.4-0.2 0.8-0.3q0.4-0.1 0.8-0.1q0.4 0 0.8 0.1q0.3 0.1 0.7 0.2q0.3 0.2 0.7 0.4q0.3 0.2 0.6 0.5q0 0.3 0.1 0.6q0 0.3 0 0.6q0.1 0.4 0.1 0.7q-0.1 0.3-0.1 0.6q0 0.3 0 0.5q0 0.3-0.1 0.5q0 0.3-0.1 0.5q-0.1 0.3-0.1 0.5q-0.1 0.5-0.1 0.9q0 0.5 0 0.9q0 0.5 0 0.9q0 0.5 0.1 0.9q-0.1 0.4-0.2 0.7q-0.1 0.3-0.3 0.6q-0.3 0.3-0.6 0.5q-0.2 0.3-0.6 0.4c-0.7 0.4-2.4 0.3-3.9 0q-0.5-0.1-0.9-0.3q-0.5-0.3-0.8-0.7q-0.4-0.4-0.6-0.9q-0.2-0.5-0.2-1q0-0.5 0.2-1q0.1-0.5 0.3-0.9q0.2-0.5 0.4-1q0.2-0.4 0.5-0.8c0.8-1.5 0.7-3 1.1-3.6q0.3-0.3 0.6-0.5z" />
		</g>
		<g id="Group_3127">
			<g id="Group_3126">
				<path id="Path_212" class="s0" d="m105.1 69.9l-55.1-21.4q-0.6-0.3-1.1-0.7q-0.5-0.5-0.7-1.1q-0.3-0.6-0.3-1.2q0-0.7 0.2-1.3l16.4-42.1q0.3-0.6 0.7-1.1q0.5-0.4 1.1-0.7q0.6-0.3 1.2-0.3q0.7 0 1.3 0.2l55.1 21.5q0.6 0.2 1.1 0.7q0.5 0.4 0.8 1q0.2 0.6 0.2 1.3q0.1 0.6-0.2 1.3l-16.4 42.1q-0.2 0.6-0.7 1.1q-0.4 0.4-1 0.7q-0.6 0.3-1.3 0.3q-0.7 0-1.3-0.3z" />
				<path id="Path_213" class="s1" d="m56.3 33.6l11.1-28.6q0.2-0.4 0.4-0.7q0.3-0.3 0.7-0.4q0.3-0.2 0.7-0.2q0.4 0 0.8 0.1l50.6 19.7q0.4 0.2 0.7 0.5q0.3 0.2 0.4 0.6q0.2 0.4 0.2 0.7q0 0.4-0.1 0.8l-11.2 28.7l-8.6-25.1q-0.3-0.6-0.8-1.1q-0.5-0.5-1.1-0.8q-0.7-0.2-1.4-0.1q-0.7 0-1.3 0.4l-18 10.5q-0.5 0.4-1.2 0.4q-0.6 0.1-1.2-0.2q-0.6-0.2-1.1-0.7q-0.4-0.5-0.6-1.1l-2.6-8.5q-0.2-0.8-0.8-1.3q-0.5-0.6-1.2-0.9q-0.7-0.2-1.5-0.2q-0.7 0.1-1.4 0.5z" />
				<path id="Path_214" class="s0" d="m89.1 22.3c-0.8 2.2-2.9 3.6-5.2 3.6c-2.2 0.1-4.3-1.3-5.3-3.4c-0.9-2.1-0.4-4.5 1.1-6.1c1.6-1.7 4-2.2 6.2-1.4q1 0.4 1.8 1.2q0.8 0.8 1.3 1.8q0.4 1 0.5 2.2q0 1.1-0.4 2.1z" />
			</g>
		</g>
	</g>
</svg>