<svg id="Group_3099" data-name="Group 3099" xmlns="http://www.w3.org/2000/svg" xmlns:xlink="http://www.w3.org/1999/xlink" width="337.381" height="315.961" viewBox="0 0 337.381 315.961">
  <defs>
    <clipPath id="clip-path">
      <rect id="Rectangle_364" data-name="Rectangle 364" width="337.381" height="315.961" fill="none"/>
    </clipPath>
    <clipPath id="clip-path-3">
      <rect id="Rectangle_328" data-name="Rectangle 328" width="309.533" height="300.771" fill="none"/>
    </clipPath>
    <clipPath id="clip-path-4">
      <rect id="Rectangle_329" data-name="Rectangle 329" width="38.476" height="38.477" fill="none"/>
    </clipPath>
    <clipPath id="clip-path-5">
      <rect id="Rectangle_330" data-name="Rectangle 330" width="31.842" height="33.754" fill="none"/>
    </clipPath>
    <clipPath id="clip-path-6">
      <rect id="Rectangle_331" data-name="Rectangle 331" width="3.512" height="3.512" fill="none"/>
    </clipPath>
    <clipPath id="clip-path-8">
      <rect id="Rectangle_333" data-name="Rectangle 333" width="5.76" height="5.76" fill="none"/>
    </clipPath>
    <clipPath id="clip-path-9">
      <rect id="Rectangle_334" data-name="Rectangle 334" width="7.692" height="7.692" fill="none"/>
    </clipPath>
    <clipPath id="clip-path-10">
      <rect id="Rectangle_335" data-name="Rectangle 335" width="33.778" height="33.778" fill="none"/>
    </clipPath>
    <clipPath id="clip-path-11">
      <rect id="Rectangle_336" data-name="Rectangle 336" width="27.975" height="30.701" fill="none"/>
    </clipPath>
    <clipPath id="clip-path-12">
      <rect id="Rectangle_337" data-name="Rectangle 337" width="64.414" height="87.639" fill="none"/>
    </clipPath>
    <clipPath id="clip-path-13">
      <rect id="Rectangle_338" data-name="Rectangle 338" width="189.051" height="218.313" fill="none"/>
    </clipPath>
    <clipPath id="clip-path-14">
      <rect id="Rectangle_339" data-name="Rectangle 339" width="22.724" height="31.953" fill="none"/>
    </clipPath>
    <clipPath id="clip-path-15">
      <rect id="Rectangle_340" data-name="Rectangle 340" width="30.412" height="63.253" fill="none"/>
    </clipPath>
    <clipPath id="clip-path-16">
      <rect id="Rectangle_341" data-name="Rectangle 341" width="8.587" height="7.885" fill="none"/>
    </clipPath>
    <clipPath id="clip-path-17">
      <rect id="Rectangle_342" data-name="Rectangle 342" width="1.871" height="4.847" fill="none"/>
    </clipPath>
    <clipPath id="clip-path-18">
      <rect id="Rectangle_343" data-name="Rectangle 343" width="29.766" height="17.069" fill="none"/>
    </clipPath>
    <clipPath id="clip-path-19">
      <rect id="Rectangle_344" data-name="Rectangle 344" width="7.849" height="7.648" fill="none"/>
    </clipPath>
    <clipPath id="clip-path-20">
      <rect id="Rectangle_345" data-name="Rectangle 345" width="29.205" height="36.212" fill="none"/>
    </clipPath>
    <clipPath id="clip-path-21">
      <rect id="Rectangle_346" data-name="Rectangle 346" width="6.146" height="6.787" fill="none"/>
    </clipPath>
    <clipPath id="clip-path-22">
      <rect id="Rectangle_347" data-name="Rectangle 347" width="17.617" height="18.425" fill="none"/>
    </clipPath>
    <clipPath id="clip-path-23">
      <rect id="Rectangle_348" data-name="Rectangle 348" width="51.825" height="46.134" fill="none"/>
    </clipPath>
    <clipPath id="clip-path-24">
      <rect id="Rectangle_349" data-name="Rectangle 349" width="3.486" height="10.177" fill="none"/>
    </clipPath>
    <clipPath id="clip-path-25">
      <rect id="Rectangle_350" data-name="Rectangle 350" width="3.24" height="3.547" fill="none"/>
    </clipPath>
    <clipPath id="clip-path-26">
      <rect id="Rectangle_351" data-name="Rectangle 351" width="20.454" height="9.922" fill="none"/>
    </clipPath>
    <clipPath id="clip-path-27">
      <rect id="Rectangle_352" data-name="Rectangle 352" width="29.279" height="26.581" fill="none"/>
    </clipPath>
    <clipPath id="clip-path-28">
      <rect id="Rectangle_353" data-name="Rectangle 353" width="7.406" height="7.703" fill="none"/>
    </clipPath>
    <clipPath id="clip-path-29">
      <rect id="Rectangle_354" data-name="Rectangle 354" width="12.231" height="15.972" fill="none"/>
    </clipPath>
    <clipPath id="clip-path-30">
      <rect id="Rectangle_355" data-name="Rectangle 355" width="4.532" height="4.533" fill="none"/>
    </clipPath>
    <clipPath id="clip-path-31">
      <rect id="Rectangle_356" data-name="Rectangle 356" width="1.495" height="1.493" fill="none"/>
    </clipPath>
    <clipPath id="clip-path-32">
      <rect id="Rectangle_357" data-name="Rectangle 357" width="1.508" height="1.553" fill="none"/>
    </clipPath>
    <clipPath id="clip-path-33">
      <rect id="Rectangle_358" data-name="Rectangle 358" width="8.605" height="4.803" fill="none"/>
    </clipPath>
    <clipPath id="clip-path-34">
      <rect id="Rectangle_359" data-name="Rectangle 359" width="60.946" height="59.594" fill="none"/>
    </clipPath>
    <clipPath id="clip-path-35">
      <rect id="Rectangle_360" data-name="Rectangle 360" width="115.904" height="115.913" fill="none"/>
    </clipPath>
    <clipPath id="clip-path-36">
      <rect id="Rectangle_361" data-name="Rectangle 361" width="46.932" height="46.932" fill="none"/>
    </clipPath>
    <clipPath id="clip-path-37">
      <rect id="Rectangle_362" data-name="Rectangle 362" width="61.923" height="58.014" fill="none"/>
    </clipPath>
  </defs>
  <g id="Group_3098" data-name="Group 3098" clip-path="url(#clip-path)">
    <path id="Path_77" data-name="Path 77" d="M54.708,100.57l1.422,2.871,3.179.465-2.3,2.239.544,3.161-2.845-1.493-2.836,1.493.544-3.161-2.3-2.239,3.179-.465Z" transform="translate(-6.111 -12.264)" fill="#ebebeb"/>
    <path id="Path_78" data-name="Path 78" d="M376.944,257.68l-3.179.465,2.3,2.23-.544,3.171,2.836-1.493,2.845,1.493-.544-3.171,2.3-2.23-3.179-.465-1.422-2.88Z" transform="translate(-45.577 -31.07)" fill="#f5f5f5"/>
    <path id="Path_79" data-name="Path 79" d="M312.835,352.761l-3.17.465,2.292,2.239-.536,3.161,2.836-1.493,2.836,1.493-.544-3.161,2.3-2.239-3.17-.465-1.422-2.872Z" transform="translate(-37.761 -42.666)" fill="#f5f5f5"/>
    <g id="Group_3097" data-name="Group 3097">
      <g id="Group_3096" data-name="Group 3096" clip-path="url(#clip-path)">
        <path id="Path_80" data-name="Path 80" d="M167.859,42.433l.527,1.071,1.185.176a.351.351,0,0,1,.193.606l-.878.834.2,1.177a.36.36,0,0,1-.3.412.356.356,0,0,1-.219-.034l-1.054-.562-1.054.562a.36.36,0,0,1-.518-.378l.193-1.177-.878-.834a.352.352,0,0,1,.2-.606l1.177-.176.527-1.071a.36.36,0,0,1,.694,0" transform="translate(-20.138 -5.142)" fill="#ebebeb"/>
        <path id="Path_81" data-name="Path 81" d="M2.7,334.285l.527,1.063,1.177.176a.36.36,0,0,1,.2.615l-.878.825.2,1.177a.36.36,0,0,1-.3.412.356.356,0,0,1-.219-.034l-1.054-.553-1.054.553a.36.36,0,0,1-.518-.378l.2-1.177-.878-.825a.36.36,0,0,1,.193-.615l1.177-.176.536-1.062a.36.36,0,0,1,.685,0" transform="translate(0 -40.733)" fill="#f5f5f5"/>
        <path id="Path_82" data-name="Path 82" d="M29.669,29.59l.527,1.071,1.185.167a.36.36,0,0,1,.193.615l-.878.878.2,1.168a.351.351,0,0,1-.518.378l-1.054-.553-1.054.553a.351.351,0,0,1-.518-.378l.193-1.168-.878-.878a.36.36,0,0,1,.2-.615l1.177-.167.562-1.071a.36.36,0,0,1,.659,0" transform="translate(-3.288 -3.582)" fill="#ebebeb"/>
        <path id="Path_83" data-name="Path 83" d="M28.1,270.479a1.168,1.168,0,1,1-1.177-1.159h.009a1.167,1.167,0,0,1,1.168,1.159" transform="translate(-3.142 -32.841)" fill="#ebebeb"/>
        <path id="Path_84" data-name="Path 84" d="M217.641,104.049a1.168,1.168,0,1,1-1.177-1.159h.009a1.159,1.159,0,0,1,1.168,1.15v.009" transform="translate(-26.254 -12.546)" fill="#ebebeb"/>
        <path id="Path_85" data-name="Path 85" d="M148.681,30.558a1.168,1.168,0,1,1-1.168-1.168,1.167,1.167,0,0,1,1.168,1.168" transform="translate(-17.845 -3.584)" fill="#f5f5f5"/>
        <path id="Path_86" data-name="Path 86" d="M147.044,340.533a6.454,6.454,0,1,1-4.8,7.764,6.454,6.454,0,0,1,4.8-7.764" transform="translate(-17.324 -41.504)" fill="#f0f0f0"/>
        <path id="Path_87" data-name="Path 87" d="M146.309,343.41a6.224,6.224,0,0,0-3.679,1.194,6.445,6.445,0,0,0,9.22,8.1,6.3,6.3,0,0,0-5.541-9.29Z" transform="translate(-17.327 -41.876)" fill="#e6e6e6"/>
        <path id="Path_88" data-name="Path 88" d="M82.555,207.789H29.125v-24.12l53.43-63.519h25.569v64.889h13.25v22.751h-13.25v19.739H82.555Zm0-22.751V151.813L54.317,185.039Z" transform="translate(-3.552 -14.651)" fill="#039ce0"/>
        <path id="Path_89" data-name="Path 89" d="M144.595,174.306q0-30.109,10.835-42.147t33.024-12.029q10.651,0,17.5,2.634a32.3,32.3,0,0,1,11.16,6.84,36.517,36.517,0,0,1,6.8,8.86,45.994,45.994,0,0,1,4,10.835,101.3,101.3,0,0,1,2.95,24.586q0,28.73-9.72,42.05t-33.48,13.329q-13.329,0-21.539-4.25a34.913,34.913,0,0,1-13.461-12.46q-3.82-5.831-5.944-15.954a109.155,109.155,0,0,1-2.125-22.294m29.1.07q0,20.195,3.556,27.545t10.335,7.384a10.837,10.837,0,0,0,7.744-3.135q3.283-3.135,4.829-9.9t1.545-21.073q0-21.021-3.565-28.265t-10.695-7.235q-7.27,0-10.537,7.384t-3.214,27.3" transform="translate(-17.632 -14.649)" fill="#039ce0"/>
        <path id="Path_90" data-name="Path 90" d="M306.615,207.789h-53.43v-24.12l53.43-63.519h25.569v64.889h13.294v22.751H332.184v19.739H306.615Zm0-22.751V151.813l-28.23,33.226Z" transform="translate(-30.874 -14.651)" fill="#039ce0"/>
        <g id="Group_2993" data-name="Group 2993" transform="translate(12.245)" opacity="0.3">
          <g id="Group_2992" data-name="Group 2992">
            <g id="Group_2991" data-name="Group 2991" clip-path="url(#clip-path-3)">
              <path id="Path_91" data-name="Path 91" d="M142.839,77.712A1.642,1.642,0,1,1,141.2,76.07h.009a1.633,1.633,0,0,1,1.633,1.633v.009" transform="translate(-29.262 -9.276)" fill="#039ce0"/>
              <path id="Path_92" data-name="Path 92" d="M15.1,147.13a1.159,1.159,0,1,1-1.159,1.159A1.159,1.159,0,0,1,15.1,147.13" transform="translate(-13.945 -17.941)" fill="#039ce0"/>
              <path id="Path_93" data-name="Path 93" d="M233.115,338.76a1.66,1.66,0,1,1-1.66,1.66,1.659,1.659,0,0,1,1.66-1.66" transform="translate(-40.469 -41.309)" fill="#039ce0"/>
              <path id="Path_94" data-name="Path 94" d="M278.634,263a1.159,1.159,0,1,1-1.159,1.159A1.159,1.159,0,0,1,278.634,263" transform="translate(-46.08 -32.07)" fill="#039ce0"/>
              <path id="Path_95" data-name="Path 95" d="M366.143,27.779a1.159,1.159,0,1,1-1.159-1.159,1.159,1.159,0,0,1,1.159,1.159" transform="translate(-56.61 -3.246)" fill="#039ce0"/>
              <path id="Path_96" data-name="Path 96" d="M114.723,1.159A1.159,1.159,0,1,1,113.564,0a1.159,1.159,0,0,1,1.159,1.159" transform="translate(-25.952 0)" fill="#039ce0"/>
              <path id="Path_97" data-name="Path 97" d="M219.834,67.94a1.159,1.159,0,1,1-1.159,1.159,1.159,1.159,0,0,1,1.159-1.159" transform="translate(-38.91 -8.285)" fill="#039ce0"/>
            </g>
          </g>
        </g>
        <path id="Path_98" data-name="Path 98" d="M80.853,26.77A19.238,19.238,0,1,1,61.615,46.008,19.238,19.238,0,0,1,80.853,26.77" transform="translate(-7.513 -3.264)" fill="#039ce0"/>
        <g id="Group_2996" data-name="Group 2996" transform="translate(54.102 23.506)" opacity="0.7" style="mix-blend-mode: normal;isolation: isolate">
          <g id="Group_2995" data-name="Group 2995">
            <g id="Group_2994" data-name="Group 2994" clip-path="url(#clip-path-4)">
              <path id="Path_99" data-name="Path 99" d="M80.853,26.77A19.238,19.238,0,1,1,61.615,46.008,19.238,19.238,0,0,1,80.853,26.77" transform="translate(-61.615 -26.77)" fill="#fff"/>
            </g>
          </g>
        </g>
        <g id="Group_2999" data-name="Group 2999" transform="translate(54.078 28.23)" opacity="0.2" style="mix-blend-mode: normal;isolation: isolate">
          <g id="Group_2998" data-name="Group 2998">
            <g id="Group_2997" data-name="Group 2997" clip-path="url(#clip-path-5)">
              <path id="Path_100" data-name="Path 100" d="M74.221,32.15A19.175,19.175,0,0,0,66.6,33.7,19.247,19.247,0,0,0,88.436,64.34,19.247,19.247,0,0,0,74.186,32.159Z" transform="translate(-61.589 -32.15)" fill="#039ce0"/>
            </g>
          </g>
        </g>
        <g id="Group_3002" data-name="Group 3002" transform="translate(61.285 31.557)" opacity="0.2" style="mix-blend-mode: normal;isolation: isolate">
          <g id="Group_3001" data-name="Group 3001">
            <g id="Group_3000" data-name="Group 3000" clip-path="url(#clip-path-6)">
              <path id="Path_101" data-name="Path 101" d="M73.307,37.7a1.756,1.756,0,1,1-1.756-1.756A1.756,1.756,0,0,1,73.307,37.7" transform="translate(-69.795 -35.94)" fill="#039ce0"/>
            </g>
          </g>
        </g>
        <g id="Group_3005" data-name="Group 3005" transform="translate(81.972 29.801)" opacity="0.2" style="mix-blend-mode: normal;isolation: isolate">
          <g id="Group_3004" data-name="Group 3004">
            <g id="Group_3003" data-name="Group 3003" clip-path="url(#clip-path-6)">
              <path id="Path_102" data-name="Path 102" d="M96.867,35.7a1.756,1.756,0,1,1-1.756-1.756A1.756,1.756,0,0,1,96.867,35.7" transform="translate(-93.355 -33.94)" fill="#039ce0"/>
            </g>
          </g>
        </g>
        <g id="Group_3008" data-name="Group 3008" transform="translate(76.212 41.216)" opacity="0.2" style="mix-blend-mode: normal;isolation: isolate">
          <g id="Group_3007" data-name="Group 3007">
            <g id="Group_3006" data-name="Group 3006" clip-path="url(#clip-path-8)">
              <path id="Path_103" data-name="Path 103" d="M92.555,49.82a2.88,2.88,0,1,1-2.88-2.88,2.881,2.881,0,0,1,2.88,2.88" transform="translate(-86.795 -46.94)" fill="#039ce0"/>
            </g>
          </g>
        </g>
        <g id="Group_3011" data-name="Group 3011" transform="translate(65.13 48.46)" opacity="0.2" style="mix-blend-mode: normal;isolation: isolate">
          <g id="Group_3010" data-name="Group 3010">
            <g id="Group_3009" data-name="Group 3009" clip-path="url(#clip-path-9)">
              <path id="Path_104" data-name="Path 104" d="M81.867,59.036a3.846,3.846,0,1,1-3.846-3.846,3.846,3.846,0,0,1,3.846,3.846" transform="translate(-74.175 -55.19)" fill="#039ce0"/>
            </g>
          </g>
        </g>
        <path id="Path_105" data-name="Path 105" d="M305.7,302.324a16.885,16.885,0,1,1,12.554,20.312A16.886,16.886,0,0,1,305.7,302.324" transform="translate(-37.222 -35.279)" fill="#039ce0"/>
        <g id="Group_3014" data-name="Group 3014" transform="translate(268.023 254.035)" opacity="0.3" style="mix-blend-mode: normal;isolation: isolate">
          <g id="Group_3013" data-name="Group 3013">
            <g id="Group_3012" data-name="Group 3012" clip-path="url(#clip-path-10)">
              <path id="Path_106" data-name="Path 106" d="M305.7,302.324a16.885,16.885,0,1,1,12.554,20.312A16.886,16.886,0,0,1,305.7,302.324" transform="translate(-305.245 -289.314)" fill="#fff"/>
            </g>
          </g>
        </g>
        <g id="Group_3017" data-name="Group 3017" transform="translate(273.824 257.127)" opacity="0.4" style="mix-blend-mode: normal;isolation: isolate">
          <g id="Group_3016" data-name="Group 3016">
            <g id="Group_3015" data-name="Group 3015" clip-path="url(#clip-path-11)">
              <path id="Path_107" data-name="Path 107" d="M333.6,293.559a16.876,16.876,0,0,0-15.515,29.257,16.664,16.664,0,0,0,4.856.72,16.885,16.885,0,0,0,10.66-29.977Z" transform="translate(-311.851 -292.835)" fill="#039ce0"/>
            </g>
          </g>
        </g>
        <path id="Path_108" data-name="Path 108" d="M304.975,312.857c-18.027,8.482-4.583,15.024,20.819,5.892,23.523-8.456,32.488-19.115,11.415-15.805,1.133,4.434-28.326,15.91-32.234,9.913" transform="translate(-36.179 -36.866)" fill="#039ce0"/>
        <g id="Group_3020" data-name="Group 3020" transform="translate(230.96 105.499)" opacity="0.2" style="mix-blend-mode: normal;isolation: isolate">
          <g id="Group_3019" data-name="Group 3019">
            <g id="Group_3018" data-name="Group 3018" clip-path="url(#clip-path-12)">
              <path id="Path_109" data-name="Path 109" d="M327.449,120.15c-23.611,15.954-54.176,37.028-62.614,87.639h-1.8c8.21-50.049,37.66-71.623,61.28-87.639Z" transform="translate(-263.035 -120.15)"/>
            </g>
          </g>
        </g>
        <path id="Path_110" data-name="Path 110" d="M191.543,270.272c-14.927,0-29.687-6.735-36.878-17.728-4.434-6.8-9.588-21.029,5.76-40.022l1.361,1.106c-10.853,13.434-12.855,26.913-5.646,37.959,8.781,13.434,29.494,20.2,47.178,15.384,18.114-4.926,29.108-20.678,30.17-43.218,3.626-77.1,44.588-100.854,74.495-118.2C326.571,94.783,340,87,337.046,70.575a6.826,6.826,0,0,0-2.783-4.812c-3.82-2.52-11.283-.773-19.923,1.238-16.955,3.951-40.171,9.36-54-14.163l1.519-.878c13.171,22.417,34.745,17.386,52.086,13.347,9.035-2.1,16.832-3.916,21.284-.992a8.322,8.322,0,0,1,3.512,5.971c3.17,17.631-11.415,26.1-29.9,36.808-29.564,17.14-70.043,40.61-73.625,116.782-1.106,23.356-12.574,39.7-31.47,44.834a46.443,46.443,0,0,1-12.205,1.563" transform="translate(-18.306 -6.336)" fill="#039ce0"/>
        <g id="Group_3023" data-name="Group 3023" transform="translate(131.819 45.624)" opacity="0.2" style="mix-blend-mode: normal;isolation: isolate">
          <g id="Group_3022" data-name="Group 3022">
            <g id="Group_3021" data-name="Group 3021" clip-path="url(#clip-path-13)">
              <path id="Path_111" data-name="Path 111" d="M191.543,270.272c-14.927,0-29.687-6.735-36.878-17.728-4.434-6.8-9.588-21.029,5.76-40.022l1.361,1.106c-10.853,13.434-12.855,26.913-5.646,37.959,8.781,13.434,29.494,20.2,47.178,15.384,18.114-4.926,29.108-20.678,30.17-43.218,3.626-77.1,44.588-100.854,74.495-118.2C326.571,94.783,340,87,337.046,70.575a6.826,6.826,0,0,0-2.783-4.812c-3.82-2.52-11.283-.773-19.923,1.238-16.955,3.951-40.171,9.36-54-14.163l1.519-.878c13.171,22.417,34.745,17.386,52.086,13.347,9.035-2.1,16.832-3.916,21.284-.992a8.322,8.322,0,0,1,3.512,5.971c3.17,17.631-11.415,26.1-29.9,36.808-29.564,17.14-70.043,40.61-73.625,116.782-1.106,23.356-12.574,39.7-31.47,44.834a46.443,46.443,0,0,1-12.205,1.563" transform="translate(-150.125 -51.96)" fill="#fff"/>
            </g>
          </g>
        </g>
        <path id="Path_112" data-name="Path 112" d="M255.055,29.32a40.459,40.459,0,0,1,11.924,1.87s9.659,16.481,10.8,20.257c-.4,3.723-6.682,9.825-6.682,9.825Z" transform="translate(-31.102 -3.575)" fill="#039ce0"/>
        <g id="Group_3026" data-name="Group 3026" transform="translate(223.953 25.745)" opacity="0.3" style="mix-blend-mode: normal;isolation: isolate">
          <g id="Group_3025" data-name="Group 3025">
            <g id="Group_3024" data-name="Group 3024" clip-path="url(#clip-path-14)">
              <path id="Path_113" data-name="Path 113" d="M255.055,29.32a40.459,40.459,0,0,1,11.924,1.87s9.659,16.481,10.8,20.257c-.4,3.723-6.682,9.825-6.682,9.825Z" transform="translate(-255.055 -29.32)" fill="#fff"/>
            </g>
          </g>
        </g>
        <path id="Path_114" data-name="Path 114" d="M283.5,113.351a124.167,124.167,0,0,1-10.15-14.383q-1.106-1.906-2.1-3.881c-.378-.746-.738-1.493-1.089-2.248a9.448,9.448,0,0,1-1.062-2.362c-1.054-11.125,2.757-19.317-.878-28.247l-14.47,5.655s1.229,15.91,4.039,25.464c1.756,5.909,5.69,11.02,9.492,15.752,1.185,1.475,2.327,2.994,3.512,4.478s2.38,2.687,3.512,4.083c1.712,2.116,2.274,4.144.983,6.638l-.22.4c-.369.65,1.352,1.387,2.441,0,1.756-2.265,1.51-2.125,3.038-4.057.931-1.168,1.993-2.441,2.915-3.512a2.959,2.959,0,0,0,.035-3.776" transform="translate(-30.943 -7.588)" fill="#039ce0"/>
        <g id="Group_3029" data-name="Group 3029" transform="translate(222.812 54.642)" opacity="0.7" style="mix-blend-mode: normal;isolation: isolate">
          <g id="Group_3028" data-name="Group 3028">
            <g id="Group_3027" data-name="Group 3027" clip-path="url(#clip-path-15)">
              <path id="Path_115" data-name="Path 115" d="M283.5,113.351a124.167,124.167,0,0,1-10.15-14.383q-1.106-1.906-2.1-3.881c-.378-.746-.738-1.493-1.089-2.248a9.448,9.448,0,0,1-1.062-2.362c-1.054-11.125,2.757-19.317-.878-28.247l-14.47,5.655s1.229,15.91,4.039,25.464c1.756,5.909,5.69,11.02,9.492,15.752,1.185,1.475,2.327,2.994,3.512,4.478s2.38,2.687,3.512,4.083c1.712,2.116,2.274,4.144.983,6.638l-.22.4c-.369.65,1.352,1.387,2.441,0,1.756-2.265,1.51-2.125,3.038-4.057.931-1.168,1.993-2.441,2.915-3.512a2.959,2.959,0,0,0,.035-3.776" transform="translate(-253.755 -62.23)" fill="#fff"/>
            </g>
          </g>
        </g>
        <g id="Group_3032" data-name="Group 3032" transform="translate(241.418 101.188)" opacity="0.3" style="mix-blend-mode: normal;isolation: isolate">
          <g id="Group_3031" data-name="Group 3031">
            <g id="Group_3030" data-name="Group 3030" clip-path="url(#clip-path-16)">
              <path id="Path_116" data-name="Path 116" d="M282.549,115.24a48.03,48.03,0,0,1-7.6,6.6c.378.421.746.878,1.124,1.282a38.565,38.565,0,0,0,7.464-6.594Z" transform="translate(-274.945 -115.24)" fill="#039ce0"/>
            </g>
          </g>
        </g>
        <g id="Group_3035" data-name="Group 3035" transform="translate(251.326 105.639)" opacity="0.3" style="mix-blend-mode: normal;isolation: isolate">
          <g id="Group_3034" data-name="Group 3034">
            <g id="Group_3033" data-name="Group 3033" clip-path="url(#clip-path-17)">
              <path id="Path_117" data-name="Path 117" d="M287.464,120.433l-.105-.123a4.552,4.552,0,0,0-1.115,2.783,4.393,4.393,0,0,0,.334,2.063l.834-.992a2.958,2.958,0,0,0,.053-3.732" transform="translate(-286.229 -120.31)" fill="#039ce0"/>
            </g>
          </g>
        </g>
        <path id="Path_118" data-name="Path 118" d="M247.075,40.395a31.088,31.088,0,0,1-5.593,6.313,20.428,20.428,0,0,1-3.881,2.634,16.659,16.659,0,0,1-2.265.957l-.6.193-.193.053-.413.114a5.223,5.223,0,0,1-.773.123,6.612,6.612,0,0,1-2.2-.2,10.769,10.769,0,0,1-2.581-1.115,21.952,21.952,0,0,1-1.888-1.238,35.443,35.443,0,0,1-3.143-2.634,46.687,46.687,0,0,1-5.268-5.918,2.2,2.2,0,0,1,2.941-3.179h.07c2.072,1.317,4.162,2.7,6.2,3.942,1.036.606,2.037,1.221,3.029,1.695a13.562,13.562,0,0,0,1.4.632,2.756,2.756,0,0,0,.939.228c.053,0,0-.061-.325-.053a2.56,2.56,0,0,0-.307,0l-.193.044.29-.149a11.96,11.96,0,0,0,1.133-.694,16.147,16.147,0,0,0,2.2-1.861,55.9,55.9,0,0,0,4.3-5.084A4.39,4.39,0,0,1,246.97,40.4Z" transform="translate(-26.564 -4.113)" fill="#039ce0"/>
        <g id="Group_3038" data-name="Group 3038" transform="translate(191.279 29.619)" opacity="0.7" style="mix-blend-mode: normal;isolation: isolate">
          <g id="Group_3037" data-name="Group 3037">
            <g id="Group_3036" data-name="Group 3036" clip-path="url(#clip-path-18)">
              <path id="Path_119" data-name="Path 119" d="M247.075,40.395a31.088,31.088,0,0,1-5.593,6.313,20.428,20.428,0,0,1-3.881,2.634,16.659,16.659,0,0,1-2.265.957l-.6.193-.193.053-.413.114a5.223,5.223,0,0,1-.773.123,6.612,6.612,0,0,1-2.2-.2,10.769,10.769,0,0,1-2.581-1.115,21.952,21.952,0,0,1-1.888-1.238,35.443,35.443,0,0,1-3.143-2.634,46.687,46.687,0,0,1-5.268-5.918,2.2,2.2,0,0,1,2.941-3.179h.07c2.072,1.317,4.162,2.7,6.2,3.942,1.036.606,2.037,1.221,3.029,1.695a13.562,13.562,0,0,0,1.4.632,2.756,2.756,0,0,0,.939.228c.053,0,0-.061-.325-.053a2.56,2.56,0,0,0-.307,0l-.193.044.29-.149a11.96,11.96,0,0,0,1.133-.694,16.147,16.147,0,0,0,2.2-1.861,55.9,55.9,0,0,0,4.3-5.084A4.39,4.39,0,0,1,246.97,40.4Z" transform="translate(-217.843 -33.732)" fill="#fff"/>
            </g>
          </g>
        </g>
        <path id="Path_120" data-name="Path 120" d="M214.557,34.3l1.027,1.756s.781,2.3,2.353,2.722L222.2,37.4l-.219-.36c-.544-.825-.483-2.432-.3-3.767s-.5-1.379-1.01-1.045a3.349,3.349,0,0,0-.738,1.449,6.915,6.915,0,0,0-.694-.817l-1.3-1.3a1.51,1.51,0,0,0-2.055-.053l-1.054.94a1.5,1.5,0,0,0-.281,1.853" transform="translate(-26.139 -3.796)" fill="#039ce0"/>
        <g id="Group_3041" data-name="Group 3041" transform="translate(188.217 27.334)" opacity="0.7" style="mix-blend-mode: normal;isolation: isolate">
          <g id="Group_3040" data-name="Group 3040">
            <g id="Group_3039" data-name="Group 3039" clip-path="url(#clip-path-19)">
              <path id="Path_121" data-name="Path 121" d="M214.557,34.3l1.027,1.756s.781,2.3,2.353,2.722L222.2,37.4l-.219-.36c-.544-.825-.483-2.432-.3-3.767s-.5-1.379-1.01-1.045a3.349,3.349,0,0,0-.738,1.449,6.915,6.915,0,0,0-.694-.817l-1.3-1.3a1.51,1.51,0,0,0-2.055-.053l-1.054.94a1.5,1.5,0,0,0-.281,1.853" transform="translate(-214.356 -31.13)" fill="#fff"/>
            </g>
          </g>
        </g>
        <path id="Path_122" data-name="Path 122" d="M257.847,27.526a52.381,52.381,0,0,0-13.469,5.681,3.794,3.794,0,0,0-1.7,3.978c1.695,8.289,5.549,19.388,9.711,26.456L271.8,55.607c.132-3.424-4.583-14.506-9.386-25.218-.861-1.923-2.52-3.354-4.566-2.862" transform="translate(-29.582 -3.345)" fill="#039ce0"/>
        <g id="Group_3044" data-name="Group 3044" transform="translate(213.015 24.084)" opacity="0.8" style="mix-blend-mode: normal;isolation: isolate">
          <g id="Group_3043" data-name="Group 3043">
            <g id="Group_3042" data-name="Group 3042" clip-path="url(#clip-path-20)">
              <path id="Path_123" data-name="Path 123" d="M257.847,27.526a52.381,52.381,0,0,0-13.469,5.681,3.794,3.794,0,0,0-1.7,3.978c1.695,8.289,5.549,19.388,9.711,26.456L271.8,55.607c.132-3.424-4.583-14.506-9.386-25.218-.861-1.923-2.52-3.354-4.566-2.862" transform="translate(-242.597 -27.429)" fill="#fff"/>
            </g>
          </g>
        </g>
        <g id="Group_3047" data-name="Group 3047" transform="translate(231.988 32.541)" opacity="0.3" style="mix-blend-mode: normal;isolation: isolate">
          <g id="Group_3046" data-name="Group 3046">
            <g id="Group_3045" data-name="Group 3045" clip-path="url(#clip-path-21)">
              <path id="Path_124" data-name="Path 124" d="M268.06,38.351,264.2,37.06c.878,2.257,3.978,5.11,6.146,6.787-.7-1.756-1.484-3.6-2.292-5.5" transform="translate(-264.205 -37.06)" fill="#039ce0"/>
            </g>
          </g>
        </g>
        <path id="Path_125" data-name="Path 125" d="M256.36,17.043c-1.607-3.056-5.075-4.592-9.237-4.25-3.512.3-6.621,3.881-6.252,5.813s3.319,2.757,3.881,3.424l-2.432,1.756a2.635,2.635,0,0,0-.594,3.677c.022.031.045.061.068.09,1.027,1.3,2.38,2.634,3.161,3.618,6.726-.176,11.7-2.74,13.5-5.207-.676-3.126-.536-5.883-2.1-8.921" transform="translate(-29.368 -1.554)" fill="#039ce0"/>
        <g id="Group_3050" data-name="Group 3050" transform="translate(211.473 11.192)" opacity="0.8" style="mix-blend-mode: normal;isolation: isolate">
          <g id="Group_3049" data-name="Group 3049">
            <g id="Group_3048" data-name="Group 3048" clip-path="url(#clip-path-22)">
              <path id="Path_126" data-name="Path 126" d="M256.36,17.043c-1.607-3.056-5.075-4.592-9.237-4.25-3.512.3-6.621,3.881-6.252,5.813s3.319,2.757,3.881,3.424l-2.432,1.756a2.635,2.635,0,0,0-.594,3.677c.022.031.045.061.068.09,1.027,1.3,2.38,2.634,3.161,3.618,6.726-.176,11.7-2.74,13.5-5.207-.676-3.126-.536-5.883-2.1-8.921" transform="translate(-240.841 -12.746)" fill="#fff"/>
            </g>
          </g>
        </g>
        <path id="Path_127" data-name="Path 127" d="M252.972,19.212a6.647,6.647,0,1,1-8.614-3.776,6.647,6.647,0,0,1,8.614,3.776" transform="translate(-29.282 -1.827)" fill="#263238"/>
        <path id="Path_128" data-name="Path 128" d="M312.488,103.774c-.1-2.889-.228-2.634-.307-5.066-.053-1.493-.061-3.152-.07-4.583a2.95,2.95,0,0,0-2.371-2.88c-1.159-.237-2.327-.457-3.512-.7-1.519-.325-3.021-.676-4.5-1.106-1.159-.334-2.3-.7-3.433-1.115s-2.406-.878-3.583-1.422c-1.387-.588-2.757-1.221-4.109-1.879-1.519-.72-3.021-1.475-4.522-2.239-5.778-9.562-5.9-15.867-12.1-23.26l-13.311,6.023s9.782,17.35,16.437,24.709c3.837,4.232,9.852,6.146,15.217,7.534,3.872.992,7.8,1.756,11.722,2.485,1.528.281,3.187.386,4.5,1.3a5.039,5.039,0,0,1,1.879,3.029q.088.369.158.738c.167.738,1.967.176,1.905-1.563" transform="translate(-31.786 -7.258)" fill="#039ce0"/>
        <g id="Group_3053" data-name="Group 3053" transform="translate(228.879 52.262)" opacity="0.8" style="mix-blend-mode: normal;isolation: isolate">
          <g id="Group_3052" data-name="Group 3052">
            <g id="Group_3051" data-name="Group 3051" clip-path="url(#clip-path-23)">
              <path id="Path_129" data-name="Path 129" d="M312.488,103.774c-.1-2.889-.228-2.634-.307-5.066-.053-1.493-.061-3.152-.07-4.583a2.95,2.95,0,0,0-2.371-2.88c-1.159-.237-2.327-.457-3.512-.7-1.519-.325-3.021-.676-4.5-1.106-1.159-.334-2.3-.7-3.433-1.115s-2.406-.878-3.583-1.422c-1.387-.588-2.757-1.221-4.109-1.879-1.519-.72-3.021-1.475-4.522-2.239-5.778-9.562-5.9-15.867-12.1-23.26l-13.311,6.023s9.782,17.35,16.437,24.709c3.837,4.232,9.852,6.146,15.217,7.534,3.872.992,7.8,1.756,11.722,2.485,1.528.281,3.187.386,4.5,1.3a5.039,5.039,0,0,1,1.879,3.029q.088.369.158.738c.167.738,1.967.176,1.905-1.563" transform="translate(-260.665 -59.52)" fill="#fff"/>
            </g>
          </g>
        </g>
        <g id="Group_3056" data-name="Group 3056" transform="translate(270.464 82.81)" opacity="0.3" style="mix-blend-mode: normal;isolation: isolate">
          <g id="Group_3055" data-name="Group 3055">
            <g id="Group_3054" data-name="Group 3054" clip-path="url(#clip-path-24)">
              <path id="Path_130" data-name="Path 130" d="M311.511,94.67c-.527-.114-1.054-.228-1.589-.36.044,3.038-1.379,8.271-1.9,9.861l1.668.316a33.463,33.463,0,0,0,1.818-9.817" transform="translate(-308.025 -94.31)" fill="#039ce0"/>
            </g>
          </g>
        </g>
        <g id="Group_3059" data-name="Group 3059" transform="translate(277.12 83.82)" opacity="0.3" style="mix-blend-mode: normal;isolation: isolate">
          <g id="Group_3058" data-name="Group 3058">
            <g id="Group_3057" data-name="Group 3057" clip-path="url(#clip-path-25)">
              <path id="Path_131" data-name="Path 131" d="M318.845,98.507a2.95,2.95,0,0,0-2.362-2.88l-.878-.167a4.02,4.02,0,0,0,1.431,2.546,4.465,4.465,0,0,0,1.756,1,1.592,1.592,0,0,0,.053-.5" transform="translate(-315.605 -95.46)" fill="#039ce0"/>
            </g>
          </g>
        </g>
        <path id="Path_132" data-name="Path 132" d="M252.461,19.394c.351,1.335-1.141,2.731-2.327,1.581a27.07,27.07,0,0,0-3.618-3.24c-1.22-.764.4-2.1,2.327-1.581a5.217,5.217,0,0,1,3.618,3.24" transform="translate(-30.009 -1.956)" fill="#fff"/>
        <path id="Path_133" data-name="Path 133" d="M253.429,66.98c-.615.228.509,1.282.509,1.282s12.293-4.206,19.756-8.535a1.651,1.651,0,0,0-.6-1.387,189.54,189.54,0,0,1-19.669,8.64" transform="translate(-30.881 -7.114)" fill="#039ce0"/>
        <g id="Group_3062" data-name="Group 3062" transform="translate(222.365 51.226)" opacity="0.5" style="mix-blend-mode: normal;isolation: isolate">
          <g id="Group_3061" data-name="Group 3061">
            <g id="Group_3060" data-name="Group 3060" clip-path="url(#clip-path-26)">
              <path id="Path_134" data-name="Path 134" d="M253.429,66.98c-.615.228.509,1.282.509,1.282s12.293-4.206,19.756-8.535a1.651,1.651,0,0,0-.6-1.387,189.54,189.54,0,0,1-19.669,8.64" transform="translate(-253.246 -58.34)" fill="#fff"/>
            </g>
          </g>
        </g>
        <path id="Path_135" data-name="Path 135" d="M262.867,26.8c2.423,1.229,4.7,2.52,7.024,3.951,1.133.72,2.257,1.449,3.372,2.239s2.221,1.6,3.337,2.511l.413.342.518.474a11.182,11.182,0,0,1,.878.878c.281.307.518.606.746.878s.474.6.676.878a38.537,38.537,0,0,1,2.265,3.512,51.833,51.833,0,0,1,3.512,7.332,2.213,2.213,0,0,1-3.679,2.3l-.044-.053c-1.756-1.87-3.451-3.837-5.154-5.672a25.979,25.979,0,0,0-4.864-4.513c-1.993-1.238-4.215-2.476-6.419-3.688l-6.638-3.688a4.391,4.391,0,1,1,4.109-7.762Z" transform="translate(-31.274 -3.196)" fill="#039ce0"/>
        <g id="Group_3065" data-name="Group 3065" transform="translate(225.199 23.012)" opacity="0.8" style="mix-blend-mode: normal;isolation: isolate">
          <g id="Group_3064" data-name="Group 3064">
            <g id="Group_3063" data-name="Group 3063" clip-path="url(#clip-path-27)">
              <path id="Path_136" data-name="Path 136" d="M262.867,26.8c2.423,1.229,4.7,2.52,7.024,3.951,1.133.72,2.257,1.449,3.372,2.239s2.221,1.6,3.337,2.511l.413.342.518.474a11.182,11.182,0,0,1,.878.878c.281.307.518.606.746.878s.474.6.676.878a38.537,38.537,0,0,1,2.265,3.512,51.833,51.833,0,0,1,3.512,7.332,2.213,2.213,0,0,1-3.679,2.3l-.044-.053c-1.756-1.87-3.451-3.837-5.154-5.672a25.979,25.979,0,0,0-4.864-4.513c-1.993-1.238-4.215-2.476-6.419-3.688l-6.638-3.688a4.391,4.391,0,1,1,4.109-7.762Z" transform="translate(-256.473 -26.208)" fill="#fff"/>
            </g>
          </g>
        </g>
        <path id="Path_137" data-name="Path 137" d="M291.011,57.376l-.746-1.87s-.413-2.388-1.9-3.056l-4.39.694.149.386c.4.878.1,2.485-.3,3.767s.272,1.449.834,1.194c.316-.14.623-.711.957-1.317a7.355,7.355,0,0,0,.553.878l1.08,1.484a1.511,1.511,0,0,0,2.02.386l1.194-.764a1.493,1.493,0,0,0,.544-1.782" transform="translate(-34.596 -6.396)" fill="#039ce0"/>
        <g id="Group_3068" data-name="Group 3068" transform="translate(249.114 46.054)" opacity="0.8" style="mix-blend-mode: normal;isolation: isolate">
          <g id="Group_3067" data-name="Group 3067">
            <g id="Group_3066" data-name="Group 3066" clip-path="url(#clip-path-28)">
              <path id="Path_138" data-name="Path 138" d="M291.011,57.376l-.746-1.87s-.413-2.388-1.9-3.056l-4.39.694.149.386c.4.878.1,2.485-.3,3.767s.272,1.449.834,1.194c.316-.14.623-.711.957-1.317a7.355,7.355,0,0,0,.553.878l1.08,1.484a1.511,1.511,0,0,0,2.02.386l1.194-.764a1.493,1.493,0,0,0,.544-1.782" transform="translate(-283.71 -52.45)" fill="#fff"/>
            </g>
          </g>
        </g>
        <g id="Group_3071" data-name="Group 3071" transform="translate(220.239 33.7)" opacity="0.3" style="mix-blend-mode: normal;isolation: isolate">
          <g id="Group_3070" data-name="Group 3070">
            <g id="Group_3069" data-name="Group 3069" clip-path="url(#clip-path-29)">
              <path id="Path_139" data-name="Path 139" d="M258.473,38.38l-1.071.088-6.577,15.875a3.518,3.518,0,0,0,1.071-.088s8.57-3.2,11.16-4.39c-1.739-3.591-4.583-11.485-4.583-11.485" transform="translate(-250.825 -38.38)" fill="#039ce0"/>
            </g>
          </g>
        </g>
        <path id="Path_140" data-name="Path 140" d="M245.865,42.554a38.121,38.121,0,0,0,4.39,11.8c3.214-1.106,8.57-3.2,11.169-4.39a118.791,118.791,0,0,1-4.645-11.485,29.991,29.991,0,0,0-10.914,4.074" transform="translate(-29.981 -4.692)" fill="#fff"/>
        <g id="Group_3074" data-name="Group 3074" transform="translate(217.972 38.38)" opacity="0.3" style="mix-blend-mode: normal;isolation: isolate">
          <g id="Group_3073" data-name="Group 3073">
            <g id="Group_3072" data-name="Group 3072" clip-path="url(#clip-path-30)">
              <path id="Path_141" data-name="Path 141" d="M252.679,46.625a2.265,2.265,0,1,1-1.522-2.819h0a2.265,2.265,0,0,1,1.519,2.819" transform="translate(-248.243 -43.71)" fill="#039ce0"/>
            </g>
          </g>
        </g>
        <g id="Group_3077" data-name="Group 3077" transform="translate(222.612 37.359)" opacity="0.6" style="mix-blend-mode: normal;isolation: isolate">
          <g id="Group_3076" data-name="Group 3076">
            <g id="Group_3075" data-name="Group 3075" clip-path="url(#clip-path-31)">
              <path id="Path_142" data-name="Path 142" d="M255,43.463a.746.746,0,1,1-.557-.9l.065.018a.738.738,0,0,1,.492.878" transform="translate(-253.527 -42.547)" fill="#039ce0"/>
            </g>
          </g>
        </g>
        <g id="Group_3080" data-name="Group 3080" transform="translate(224.574 36.556)" opacity="0.6" style="mix-blend-mode: normal;isolation: isolate">
          <g id="Group_3079" data-name="Group 3079">
            <g id="Group_3078" data-name="Group 3078" clip-path="url(#clip-path-32)">
              <path id="Path_143" data-name="Path 143" d="M257.24,42.587a.746.746,0,1,1-1.463-.3.718.718,0,0,1,.04-.134.738.738,0,0,1,.919-.493h0a.747.747,0,0,1,.5.922" transform="translate(-255.762 -41.633)" fill="#039ce0"/>
            </g>
          </g>
        </g>
        <g id="Group_3083" data-name="Group 3083" transform="translate(220.204 42.753)" opacity="0.5" style="mix-blend-mode: normal;isolation: isolate">
          <g id="Group_3082" data-name="Group 3082">
            <g id="Group_3081" data-name="Group 3081" clip-path="url(#clip-path-33)">
              <path id="Path_144" data-name="Path 144" d="M259.39,50.288l-8.122,3.2-.483-1.6,8.113-3.2Z" transform="translate(-250.785 -48.69)" fill="#039ce0"/>
            </g>
          </g>
        </g>
        <g id="Group_3086" data-name="Group 3086" transform="translate(139.923 155.057)" opacity="0.2" style="mix-blend-mode: normal;isolation: isolate">
          <g id="Group_3085" data-name="Group 3085">
            <g id="Group_3084" data-name="Group 3084" clip-path="url(#clip-path-34)">
              <path id="Path_145" data-name="Path 145" d="M203.434,187.917a82.522,82.522,0,0,1-1.475,15.234q-1.554,6.77-4.829,9.9a10.8,10.8,0,0,1-7.736,3.135q-6.77,0-10.335-7.384A20.822,20.822,0,0,1,178,206.075a126.768,126.768,0,0,0-13.979,14.049l-4.663,5.5a33.924,33.924,0,0,0,8.579,6.313q8.2,4.241,21.53,4.25c1.563,0,3.073-.044,4.54-.132a125.864,125.864,0,0,0,13.259-25.464l13.039-34Z" transform="translate(-159.355 -176.59)"/>
            </g>
          </g>
        </g>
        <path id="Path_146" data-name="Path 146" d="M75.685,238.662l15.366,15.366,43.025-40.54c-14.83-5.663-43.666,10.414-58.391,25.174" transform="translate(-9.229 -25.891)" fill="#263238"/>
        <path id="Path_147" data-name="Path 147" d="M134.581,295.211c-4.908-4.917-15.366-15.366-15.366-15.366l40.54-43.025c5.628,14.8-10.449,43.657-25.174,58.391" transform="translate(-14.537 -28.878)" fill="#263238"/>
        <path id="Path_148" data-name="Path 148" d="M189.927,188.531l16.762-32.321-32.321,16.78a126.612,126.612,0,0,0-28.484,20.2l-55.1,51.867,27.071,27.071,51.867-55.1a126.626,126.626,0,0,0,20.2-28.493" transform="translate(-11.07 -19.048)" fill="#039ce0"/>
        <g id="Group_3089" data-name="Group 3089" transform="translate(79.715 137.162)" opacity="0.6" style="mix-blend-mode: normal;isolation: isolate">
          <g id="Group_3088" data-name="Group 3088">
            <g id="Group_3087" data-name="Group 3087" clip-path="url(#clip-path-35)">
              <path id="Path_149" data-name="Path 149" d="M189.927,188.531l16.762-32.321-32.321,16.78a126.612,126.612,0,0,0-28.484,20.2l-55.1,51.867,27.071,27.071,51.867-55.1a126.626,126.626,0,0,0,20.2-28.493" transform="translate(-90.785 -156.21)" fill="#fff"/>
            </g>
          </g>
        </g>
        <path id="Path_150" data-name="Path 150" d="M162.922,201.6A11.327,11.327,0,1,1,151.6,212.927,11.328,11.328,0,0,1,162.922,201.6" transform="translate(-18.486 -24.583)" fill="#fff"/>
        <path id="Path_151" data-name="Path 151" d="M163.484,206.21a7.279,7.279,0,1,1-7.279,7.279,7.28,7.28,0,0,1,7.279-7.279" transform="translate(-19.048 -25.145)" fill="#039ce0"/>
        <g id="Group_3092" data-name="Group 3092" transform="translate(89.435 196.413)" opacity="0.3" style="mix-blend-mode: normal;isolation: isolate">
          <g id="Group_3091" data-name="Group 3091">
            <g id="Group_3090" data-name="Group 3090" clip-path="url(#clip-path-36)">
              <path id="Path_152" data-name="Path 152" d="M128.364,270.622l-26.509-26.509,21.706-20.424,25.227,25.235Z" transform="translate(-101.855 -223.69)" fill="#039ce0"/>
            </g>
          </g>
        </g>
        <path id="Path_153" data-name="Path 153" d="M77.153,269.94c-19.844,1.607-26.421,14.312-28.669,31.2-1.141,8.614-1.651,17.333-8.877,22.373a2.432,2.432,0,0,0,1.431,4.443c26.64-.834,39.065-13.873,40.628-19.317a37.823,37.823,0,0,1-2.186,8.315,2.423,2.423,0,0,0,3.512,2.977c7.472-4.68,16.85-13.3,17.473-27.29-5.5-7.788-23.312-22.7-23.312-22.7" transform="translate(-4.7 -32.917)" fill="#039ce0"/>
        <g id="Group_3095" data-name="Group 3095" transform="translate(33.842 237.023)" opacity="0.2" style="mix-blend-mode: normal;isolation: isolate">
          <g id="Group_3094" data-name="Group 3094">
            <g id="Group_3093" data-name="Group 3093" clip-path="url(#clip-path-37)">
              <path id="Path_154" data-name="Path 154" d="M77.153,269.94c-19.844,1.607-26.421,14.312-28.669,31.2-1.141,8.614-1.651,17.333-8.877,22.373a2.432,2.432,0,0,0,1.431,4.443c26.64-.834,39.065-13.873,40.628-19.317a37.823,37.823,0,0,1-2.186,8.315,2.423,2.423,0,0,0,3.512,2.977c7.472-4.68,16.85-13.3,17.473-27.29-5.5-7.788-23.312-22.7-23.312-22.7" transform="translate(-38.542 -269.94)" fill="#fff"/>
            </g>
          </g>
        </g>
        <path id="Path_155" data-name="Path 155" d="M108.161,297.7,76.375,265.911,93.3,262.25l18.518,18.518Z" transform="translate(-9.313 -31.979)" fill="#039ce0"/>
      </g>
    </g>
  </g>
</svg>
