<svg id="Group_16" data-name="Group 16" xmlns="http://www.w3.org/2000/svg" xmlns:xlink="http://www.w3.org/1999/xlink" width="16" height="15.993" viewBox="0 0 16 15.993">
  <defs>
    <clipPath id="clip-path">
      <rect id="Rectangle_11" data-name="Rectangle 11" width="16" height="15.993" fill="#039ce0"/>
    </clipPath>
  </defs>
  <g id="Group_15" data-name="Group 15" clip-path="url(#clip-path)">
    <path id="Path_26" data-name="Path 26" d="M172.2,100.849v-.2q0-3.729,0-7.459a.219.219,0,0,1,.135-.234q3.751-1.885,7.5-3.778c.041-.021.084-.04.152-.072v.21q0,3.711,0,7.423a.256.256,0,0,1-.159.275q-3.72,1.867-7.434,3.745c-.057.028-.115.054-.192.091" transform="translate(-163.984 -84.856)" fill="#039ce0"/>
    <path id="Path_27" data-name="Path 27" d="M7.773,100.828l-.92-.461Q3.5,98.675.15,96.986A.218.218,0,0,1,0,96.761Q.007,93,0,89.248c0-.046,0-.091.007-.161l.316.158c.785.4,1.569.8,2.358,1.184a.279.279,0,0,1,.179.3c-.008.835,0,1.67,0,2.5v.221c.288,0,.567.016.843-.005a.6.6,0,0,1,.525.222c.286.307.594.594.913.909V91.686c.069.029.118.046.164.069l2.34,1.18c.08.04.146.07.145.191q-.008,3.82,0,7.639a.5.5,0,0,1-.012.062" transform="translate(0 -84.838)" fill="#039ce0"/>
    <path id="Path_28" data-name="Path 28" d="M123.272,53.4l-2.032,1.025q-2.777,1.4-5.553,2.807a.305.305,0,0,1-.313,0c-.761-.391-1.526-.775-2.289-1.161-.052-.026-.1-.055-.173-.092l2.061-1.1q2.656-1.424,5.314-2.845a.306.306,0,0,1,.238-.025c.89.44,1.775.889,2.66,1.337a1,1,0,0,1,.087.057" transform="translate(-107.527 -49.513)" fill="#039ce0"/>
    <path id="Path_29" data-name="Path 29" d="M15.657,1.284c-.146.08-.258.143-.372.2Q11.8,3.358,8.311,5.23a.323.323,0,0,1-.343.006C7.123,4.8,6.274,4.376,5.425,3.947L5.3,3.879l.7-.354Q9.438,1.788,12.881.047a.317.317,0,0,1,.327,0c.8.413,1.609.817,2.449,1.241" transform="translate(-5.045 0)" fill="#039ce0"/>
  </g>
</svg>
