<svg id="Group_2988" data-name="Group 2988" xmlns="http://www.w3.org/2000/svg" xmlns:xlink="http://www.w3.org/1999/xlink" width="23.83" height="19.848" viewBox="0 0 23.83 19.848">
  <defs>
    <clipPath id="clip-path">
      <rect id="Rectangle_326" data-name="Rectangle 326" width="23.83" height="19.848" fill="#9f9f9f"/>
    </clipPath>
  </defs>
  <g id="Group_2985" data-name="Group 2985" clip-path="url(#clip-path)">
    <path id="Path_75" data-name="Path 75" d="M0,8.753a3.026,3.026,0,0,1,.32-.447Q4.447,4.289,8.588.287a1.071,1.071,0,0,1,.56-.281.7.7,0,0,1,.774.685c.005.085,0,.171,0,.256q0,1.862,0,3.723v.269c.39.029.76.049,1.128.084A14.137,14.137,0,0,1,23.83,18.99a.752.752,0,0,1-1.441.389A12.568,12.568,0,0,0,14.3,13.251a11.786,11.786,0,0,0-2.762-.352c-.527-.007-1.054,0-1.616,0v.281q0,1.955,0,3.91a.711.711,0,0,1-.462.713.719.719,0,0,1-.814-.169c-.051-.048-.1-.1-.151-.145L.918,10.128c-.15-.146-.309-.284-.45-.439C.3,9.509.155,9.314,0,9.126V8.753m8.436,6.6v-.312c0-.939,0-1.877,0-2.816a.725.725,0,0,1,.693-.808,37.987,37.987,0,0,1,3.926.114,13.806,13.806,0,0,1,8.8,4.567,1.041,1.041,0,0,1,.1.151.144.144,0,0,0,.027-.128,12.551,12.551,0,0,0-7.143-8.572,11.922,11.922,0,0,0-5.351-1.1c-.846.017-1.082-.383-1.059-1.072.03-.86.007-1.722.007-2.583V2.5L1.815,8.924l6.622,6.427" transform="translate(0 0)" fill="#9f9f9f"/>
  </g>
</svg>
