<svg xmlns="http://www.w3.org/2000/svg" width="28.886" height="32.996" viewBox="0 0 28.886 32.996">
  <g id="Group_361" data-name="Group 361" transform="translate(422.732 -250.692)">
    <path id="Path_6" data-name="Path 6" d="M-407.645,250.692a18.745,18.745,0,0,1,2,.474,7.548,7.548,0,0,1,5.091,7.182c.008,1.47,0,2.941,0,4.459a12.864,12.864,0,0,1,1.384.01,9.167,9.167,0,0,1,1.952.333,5.041,5.041,0,0,1,3.354,4.6c.037,1.653.018,3.307.009,4.961a1.276,1.276,0,0,1-1.277,1.3,1.28,1.28,0,0,1-1.293-1.321c-.009-1.546,0-3.093-.005-4.639a2.557,2.557,0,0,0-1.927-2.576,3.052,3.052,0,0,0-.8-.094q-9.133-.008-18.267,0a2.584,2.584,0,0,0-2.722,2.706q-.008,5.155,0,10.309a2.584,2.584,0,0,0,2.721,2.706q9.133,0,18.267,0a2.585,2.585,0,0,0,2.724-2.543,1.3,1.3,0,0,1,1.363-1.318,1.3,1.3,0,0,1,1.212,1.462,5.173,5.173,0,0,1-4.928,4.971q-.177.007-.354.007-9.149,0-18.3,0a5.112,5.112,0,0,1-5-3.5,5.566,5.566,0,0,1-.277-1.7q-.037-5.235-.009-10.47a5.15,5.15,0,0,1,5.22-5.2c.481,0,.962,0,1.478,0v-.371c0-1.353,0-2.706,0-4.059a7.635,7.635,0,0,1,6.2-7.535c.294-.059.591-.1.887-.15Zm-5.75,12.093h10.242c0-1.663.037-3.305-.02-4.944a4.364,4.364,0,0,0-.438-1.631,5.156,5.156,0,0,0-5.625-2.857,4.89,4.89,0,0,0-4.127,4.268C-413.521,259.322-413.4,261.048-413.4,262.785Z" transform="translate(0 0)" fill="#fff"/>
    <path id="Path_7" data-name="Path 7" d="M-346.6,512.312a1.294,1.294,0,0,1-1.308,1.274,1.294,1.294,0,0,1-1.266-1.316,1.294,1.294,0,0,1,1.291-1.258A1.293,1.293,0,0,1-346.6,512.312Z" transform="translate(-67.625 -239.31)" fill="#fff"/>
    <path id="Path_8" data-name="Path 8" d="M-288,511.013a1.293,1.293,0,0,1,1.286,1.3,1.294,1.294,0,0,1-1.3,1.278,1.294,1.294,0,0,1-1.27-1.279A1.293,1.293,0,0,1-288,511.013Z" transform="translate(-122.677 -239.31)" fill="#fff"/>
    <path id="Path_9" data-name="Path 9" d="M-228.1,513.586a1.293,1.293,0,0,1-1.3-1.281,1.293,1.293,0,0,1,1.289-1.292,1.294,1.294,0,0,1,1.284,1.265A1.294,1.294,0,0,1-228.1,513.586Z" transform="translate(-177.727 -239.31)" fill="#fff"/>
    <path id="Path_10" data-name="Path 10" d="M-166.146,512.291a1.293,1.293,0,0,1-1.287,1.294,1.293,1.293,0,0,1-1.286-1.3,1.294,1.294,0,0,1,1.271-1.278A1.293,1.293,0,0,1-166.146,512.291Z" transform="translate(-233.51 -239.309)" fill="#fff"/>
  </g>
</svg>
