<svg xmlns="http://www.w3.org/2000/svg" width="22.376" height="22.063" viewBox="0 0 22.376 22.063">
  <path id="Search" d="M22.353,20.51a1.965,1.965,0,0,1-.59,1.109,1.814,1.814,0,0,1-2.6-.142l-4.79-4.79a.592.592,0,0,1-.118-.189c-.59.307-1.133.637-1.675.873a8.8,8.8,0,0,1-7.315-.094,8.879,8.879,0,0,1-4.153-3.846A8.79,8.79,0,0,1,.006,8.381,8.8,8.8,0,0,1,2.6,2.694,8.8,8.8,0,0,1,7.958.1a8.837,8.837,0,0,1,5.309,1.015,9.086,9.086,0,0,1,4.767,7.622,8.662,8.662,0,0,1-1.251,4.932.3.3,0,0,0,.047.425c1.557,1.534,3.091,3.091,4.649,4.649a2.7,2.7,0,0,1,.85,1.369A2.035,2.035,0,0,1,22.353,20.51ZM15.132,9.066A6.112,6.112,0,1,0,9.02,15.177,6.143,6.143,0,0,0,15.132,9.066Z" transform="translate(0.023 -0.037)" fill="#afafaf"/>
</svg>
