<svg xmlns="http://www.w3.org/2000/svg" width="29.282" height="29.308" viewBox="0 0 29.282 29.308">
  <g id="Signup" transform="translate(-0.064 0.1)">
    <path id="Path_4" data-name="Path 4" d="M15.269-.093c.437.079.889.122,1.319.244a7.515,7.515,0,0,1,5.727,6.078,7.462,7.462,0,0,1-2.623,7.411c-.093.079-.186.158-.323.265.186.072.337.129.487.194.394.165.8.315,1.183.495a1.132,1.132,0,0,1,.595,1.505,1.109,1.109,0,0,1-1.505.573,14.13,14.13,0,0,0-3.118-1,12.682,12.682,0,0,0-13.547,6.68A11.994,11.994,0,0,0,2.36,25.5a1.153,1.153,0,0,0,.96,1.383,2.428,2.428,0,0,0,.459.029H17.462a1.179,1.179,0,0,1,1.218.724,1.147,1.147,0,0,1-.946,1.563c-.086.007-.172.007-.258.007H3.622A3.413,3.413,0,0,1,.152,26.5,3.521,3.521,0,0,1,.138,25a14.743,14.743,0,0,1,9.6-10.974c.072-.029.143-.05.215-.086.014-.007.029-.029.043-.043-.287-.265-.595-.523-.867-.81A7.442,7.442,0,0,1,6.976,6.9,7.53,7.53,0,0,1,11.864.459a13.616,13.616,0,0,1,2.1-.516L14.129-.1C14.5-.093,14.882-.093,15.269-.093ZM20.186,7.7a5.494,5.494,0,1,0-5.591,5.49A5.512,5.512,0,0,0,20.186,7.7Z" transform="translate(0)" fill="#fff"/>
    <path id="Path_5" data-name="Path 5" d="M267.772,262.676a1.3,1.3,0,0,1-1.426.925c-.939-.029-1.885-.007-2.867-.007v3.039a1.148,1.148,0,1,1-2.286-.007v-3.039h-3.039a1.151,1.151,0,1,1,0-2.294h3.039v-3.039a1.148,1.148,0,1,1,2.286-.007v3.039h.315c.846,0,1.7.022,2.544-.007a1.285,1.285,0,0,1,1.426.925C267.772,262.368,267.772,262.518,267.772,262.676Z" transform="translate(-238.426 -238.671)" fill="#fff"/>
  </g>
</svg>
