<svg id="post" xmlns="http://www.w3.org/2000/svg" xmlns:xlink="http://www.w3.org/1999/xlink" width="660" height="300" viewBox="0 0 660 300">
  <defs>
    <clipPath id="clip-path">
      <path id="Path_108" data-name="Path 108" d="M650,300H10A10.029,10.029,0,0,1,0,290V10A10.029,10.029,0,0,1,10,0H650a10.029,10.029,0,0,1,10,10V290A10.029,10.029,0,0,1,650,300Z"/>
    </clipPath>
    <clipPath id="clip-path-2">
      <rect id="Rectangle_36" data-name="Rectangle 36" width="660" height="300"/>
    </clipPath>
    <linearGradient id="linear-gradient" x1="0.5" x2="0.5" y2="1" gradientUnits="objectBoundingBox">
      <stop offset="0" stop-color="#f4ffff"/>
      <stop offset="1" stop-color="#e1d9d9"/>
    </linearGradient>
    <linearGradient id="linear-gradient-2" y1="0.499" x2="1" y2="0.499" gradientUnits="objectBoundingBox">
      <stop offset="0" stop-color="#cfd3dc"/>
      <stop offset="1" stop-color="#d9d9d9"/>
    </linearGradient>
    <linearGradient id="linear-gradient-3" x1="0" y1="0.499" x2="1" y2="0.499" xlink:href="#linear-gradient-2"/>
    <linearGradient id="linear-gradient-4" x1="0" y1="0.499" x2="1" y2="0.499" xlink:href="#linear-gradient-2"/>
    <linearGradient id="linear-gradient-5" x1="0" y1="0.5" x2="1" y2="0.5" xlink:href="#linear-gradient-2"/>
    <linearGradient id="linear-gradient-6" x1="0" y1="0.5" x2="1" y2="0.5" xlink:href="#linear-gradient-2"/>
    <clipPath id="clip-path-10">
      <rect id="Rectangle_44" data-name="Rectangle 44" width="660" height="300" transform="translate(-142 -73.1)"/>
    </clipPath>
    <clipPath id="clip-path-11">
      <rect id="Rectangle_45" data-name="Rectangle 45" width="660" height="300" transform="translate(-515.5 -148.4)"/>
    </clipPath>
  </defs>
  <g id="Group_48" data-name="Group 48" clip-path="url(#clip-path)">
    <g id="Group_32" data-name="Group 32" clip-path="url(#clip-path-2)">
      <rect id="Rectangle_35" data-name="Rectangle 35" width="660" height="300" fill="url(#linear-gradient)"/>
    </g>
    <g id="Group_33" data-name="Group 33" clip-path="url(#clip-path-2)">
      <path id="Path_81" data-name="Path 81" d="M600.6,327.2c-6.6-13-4.8-27.2-1.3-40.7s8.6-27,8.4-40.7c-.4-22.4-16.2-44.5-42-58.5-25.7-14-61-19.5-93-14.4-20.3,3.2-39.3,10.4-60.1,11-21.3.6-41.6-5.8-62.6-8.5-49.9-6.2-103.4,10.9-131.3,39.8s-30.6,67.6-10.1,99.3,62.3,55.9,110.3,67.2c48,11.2,101.4,9.9,149.5-1,23.6-5.4,46.1-13,70-17.6s50.4-6.1,73.1.8l33-11.9C624.2,351.5,607.2,340.1,600.6,327.2Z" opacity="0.2" fill="url(#linear-gradient-2)"/>
    </g>
    <g id="Group_34" data-name="Group 34" clip-path="url(#clip-path-2)">
      <path id="Path_82" data-name="Path 82" d="M204.9,404.3c-6.6-13-4.8-27.2-1.3-40.7s8.6-27,8.4-40.7c-.4-22.4-16.2-44.5-42-58.5-25.7-14-61-19.5-93-14.4-20.3,3.2-39.3,10.4-60.1,11-21.3.6-41.6-5.8-62.6-8.5-49.9-6.2-103.4,10.9-131.3,39.8s-30.6,67.6-10.1,99.3c20.4,31.7,62.3,55.9,110.3,67.2,48,11.2,101.4,9.9,149.5-1,23.6-5.4,46.1-13,70-17.6s50.4-6.1,73.1.8l33-11.9C228.5,428.6,211.5,417.2,204.9,404.3Z" opacity="0.2" fill="url(#linear-gradient-3)"/>
    </g>
    <g id="Group_35" data-name="Group 35" clip-path="url(#clip-path-2)">
      <path id="Path_83" data-name="Path 83" d="M750.5-5c-6.6-13-4.8-27.2-1.3-40.7s8.6-27,8.4-40.7c-.4-22.4-16.2-44.5-42-58.5-25.7-14-61-19.5-93-14.4-20.3,3.2-39.3,10.4-60.1,11-21.3.6-41.6-5.8-62.6-8.5C450-163,396.5-145.9,368.6-117S338-49.4,358.5-17.7C378.9,14,420.8,38.2,468.8,49.5c48,11.2,101.4,9.9,149.5-1,23.6-5.4,46.1-13,70-17.6s50.4-6.1,73.1.8l33-11.9C774.1,19.3,757.1,7.9,750.5-5Z" opacity="0.2" fill="url(#linear-gradient-4)"/>
    </g>
    <g id="Group_36" data-name="Group 36" clip-path="url(#clip-path-2)">
      <path id="Path_84" data-name="Path 84" d="M436.3,0c-3.7,15.1-12.7,29.6-26.5,41.8-27.2,23.9-72.4,37.8-116.7,35.8-4.7-.2-9.5-.6-14.2-1-24.9-2.3-50.2-6.4-72.6.7-19,6-31.1,18.9-48.2,27.1-22.4,10.7-52.5,12.5-78.5,6.8A138.18,138.18,0,0,1,15.4,77.9C9.8,72.6,4.9,67,0,61.5V0Z" opacity="0.2" fill="url(#linear-gradient-5)"/>
    </g>
    <g id="Group_37" data-name="Group 37" clip-path="url(#clip-path-2)">
      <path id="Path_85" data-name="Path 85" d="M536.1,0a68.21,68.21,0,0,1-19,8.2c-12.9,3.4-27.4,4-39,9-15.4,6.6-22.5,19.2-26.4,31.3s-5.6,24.8-14.4,35.7c-18.1,22.5-63.1,30.2-98.8,22.1a141.879,141.879,0,0,1-59.6-29.7,159.028,159.028,0,0,1-21.2-21.5C243.9,38.1,233.8,19.5,215,5c-2.3-1.7-4.7-3.4-7.3-5H536.1Z" fill="#f7e4c9"/>
    </g>
    <g id="Group_38" data-name="Group 38" clip-path="url(#clip-path-2)">
      <path id="Path_86" data-name="Path 86" d="M660,147.5V300H338.1a74.8,74.8,0,0,1,6-19c10-21,31.8-39.3,59.4-50.5a160.729,160.729,0,0,1,47.8-11.2c22.1-1.7,47,.3,64.1-9.4,10.3-5.9,15.2-14.8,21.6-22.8,18.2-22.8,52.5-40.3,90.5-42.1A126.01,126.01,0,0,1,660,147.5Z" fill="#f7e4c9"/>
    </g>
    <g id="Group_39" data-name="Group 39" clip-path="url(#clip-path-2)">
      <path id="Path_87" data-name="Path 87" d="M569.6,300H142a70.977,70.977,0,0,1,8.7-24,76.649,76.649,0,0,1,58.9-37.8c12.1-1.2,23.9.4,35.4,3.3,16.5,4.2,34.9.8,46.2-8.4a80.339,80.339,0,0,1,29.7-14.7c21.3-5.8,46.6-4.4,66.2,3.7a126.39,126.39,0,0,1,16.4,8.4c14.7,8.8,27.9,19.2,46.4,23,19.2,4,40.3,0,60,2.7,28.9,3.9,50.2,21.9,58.5,41.2A12.271,12.271,0,0,1,569.6,300Z" fill="url(#linear-gradient-6)"/>
    </g>
    <g id="Group_40" data-name="Group 40" transform="translate(142 73.1)" clip-path="url(#clip-path-10)">
      <ellipse id="Ellipse_1" data-name="Ellipse 1" cx="30" cy="20.4" rx="30" ry="20.4" fill="#f7e4c9"/>
    </g>
    <g id="Group_41" data-name="Group 41" transform="translate(515.5 148.4)" clip-path="url(#clip-path-11)">
      <ellipse id="Ellipse_2" data-name="Ellipse 2" cx="10.3" cy="7" rx="10.3" ry="7" fill="#f7e4c9"/>
    </g>
    <g id="Group_42" data-name="Group 42" clip-path="url(#clip-path-2)">
      <path id="Path_88" data-name="Path 88" d="M91,237.9c0,1.9-2.3,3.5-5.1,3.5s-5.1-1.6-5.1-3.5,2.3-3.5,5.1-3.5S91,236,91,237.9Z" fill="#f7e4c9"/>
    </g>
    <g id="Group_43" data-name="Group 43" clip-path="url(#clip-path-2)">
      <path id="Path_89" data-name="Path 89" d="M579.9,128.2c0,1.9-2.3,3.5-5.1,3.5s-5.1-1.6-5.1-3.5,2.3-3.5,5.1-3.5S579.9,126.2,579.9,128.2Z" fill="#f7e4c9"/>
    </g>
    <g id="Group_44" data-name="Group 44" clip-path="url(#clip-path-2)">
      <path id="Path_90" data-name="Path 90" d="M78.1-7.3c36.6,0,72.8,11.5,96.4,30.5,20.4,16.5,30.9,37.7,48.5,55.7,17.5,18,47.1,33.8,78.3,29.9a73.35,73.35,0,0,0,48.5-27.5c10.1-13.2,14.4-27.9,19.8-42.3s12.2-29,26.2-40.4c17.7-14.5,46.4-22.3,73.8-20.1" fill="none" stroke="#d6d6d6" stroke-width="1"/>
      <path id="Path_91" data-name="Path 91" d="M90.3-8.2c34.3,0,68.3,10.7,90.4,28.6,19.1,15.5,29,35.3,45.4,52.2s44.2,31.7,73.4,28A68.644,68.644,0,0,0,345,74.8c9.4-12.3,13.5-26.2,18.6-39.7C368.6,21.7,375,8,388.1-2.7c16.6-13.5,43.5-20.9,69.2-18.8" fill="none" stroke="#d6d6d6" stroke-width="1"/>
      <path id="Path_92" data-name="Path 92" d="M102.6-9.1c32,0,63.7,10,84.3,26.7,17.9,14.5,27.1,33,42.4,48.7,15.3,15.8,41.2,29.6,68.5,26.1a64.1,64.1,0,0,0,42.4-24.1c8.8-11.5,12.6-24.4,17.3-37C362.3,18.8,368.3,6,380.5-4c15.5-12.6,40.6-19.5,64.6-17.5" fill="none" stroke="#d6d6d6" stroke-width="1"/>
      <path id="Path_93" data-name="Path 93" d="M114.8-10c29.7,0,59.2,9.3,78.3,24.8,16.6,13.4,25.1,30.6,39.4,45.2s38.3,27.5,63.6,24.3a59.392,59.392,0,0,0,39.4-22.4c8.2-10.7,11.7-22.7,16.1-34.4s9.9-23.6,21.3-32.8c14.4-11.7,37.7-18.1,60-16.3" fill="none" stroke="#d6d6d6" stroke-width="1"/>
      <path id="Path_94" data-name="Path 94" d="M127.1-10.9c27.4,0,54.6,8.6,72.3,22.9,15.3,12.4,23.2,28.2,36.3,41.8,13.1,13.5,35.3,25.4,58.7,22.4a54.989,54.989,0,0,0,36.4-20.6c7.5-9.9,10.8-20.9,14.9-31.7,4-10.8,9.2-21.7,19.6-30.3,13.3-10.8,34.8-16.7,55.3-15" fill="none" stroke="#d6d6d6" stroke-width="1"/>
    </g>
    <g id="Group_45" data-name="Group 45" clip-path="url(#clip-path-2)">
      <path id="Path_95" data-name="Path 95" d="M269.3,343.5c-6.1-15.1-10.5-31.5-2-46,11.1-19,41.8-29.7,71.6-32.1s59.8,1.6,89.7,3.1c29.9,1.6,62,.2,86.6-11.4,34.2-16.2,45.4-47.7,76.3-66.7,25.7-15.9,64.6-21.1,97.2-13.1" fill="none" stroke="#d6d6d6" stroke-width="1"/>
      <path id="Path_96" data-name="Path 96" d="M291.9,343.5c-5.7-14.2-9.9-29.8-1.9-43.5,10.5-18,39.6-28.1,67.8-30.4s56.6,1.5,84.9,3,58.6.2,81.9-10.8c32.4-15.3,43-45.1,72.2-63.1,24.3-15,61.1-20,92-12.4" fill="none" stroke="#d6d6d6" stroke-width="1"/>
      <path id="Path_97" data-name="Path 97" d="M314.6,343.5c-5.4-13.4-9.3-28.1-1.8-41,9.9-17,37.3-26.5,63.9-28.6,26.6-2.2,53.3,1.4,80,2.8s55.3.2,77.3-10.2c30.5-14.4,40.5-42.5,68-59.5,23-14.2,57.6-18.8,86.7-11.7" fill="none" stroke="#d6d6d6" stroke-width="1"/>
      <path id="Path_98" data-name="Path 98" d="M337.3,343.5c-5.1-12.6-8.8-26.4-1.7-38.5,9.3-15.9,35.1-24.9,60-26.9s50.1,1.3,75.2,2.6,51.9.2,72.6-9.6c28.7-13.5,38.1-39.9,63.9-55.9,21.6-13.3,54.1-17.7,81.5-11" fill="none" stroke="#d6d6d6" stroke-width="1"/>
      <path id="Path_99" data-name="Path 99" d="M359.9,343.5c-4.7-11.8-8.2-24.7-1.6-36,8.7-14.9,32.8-23.2,56.2-25.2,23.4-1.9,46.9,1.2,70.3,2.5,23.5,1.2,48.6.2,67.9-9,26.8-12.7,35.6-37.4,59.8-52.3,20.2-12.4,50.6-16.5,76.2-10.3" fill="none" stroke="#d6d6d6" stroke-width="1"/>
    </g>
    <g id="Group_46" data-name="Group 46" clip-path="url(#clip-path-2)">
      <path id="Path_100" data-name="Path 100" d="M-6.5,119.8c-4.4,10.5,3.4,21.8,14.9,29.5,11.4,7.7,26,12.6,39.4,18.6s26.4,13.5,31.5,23.9c9,18.4-9.4,37.2-18.2,55.6-13.3,27.9-2.9,60.5,26.2,82.2" fill="none" stroke="#d6d6d6" stroke-width="1"/>
      <path id="Path_101" data-name="Path 101" d="M-17,121.9c-4.4,10.5,3.4,21.8,14.9,29.5,11.4,7.7,26,12.6,39.4,18.6s26.4,13.5,31.5,23.9c9,18.4-9.4,37.2-18.2,55.6-13.3,27.9-2.9,60.5,26.2,82.2" fill="none" stroke="#d6d6d6" stroke-width="1"/>
      <path id="Path_102" data-name="Path 102" d="M-27.4,124.1c-4.4,10.5,3.4,21.8,14.9,29.5,11.4,7.7,26,12.6,39.4,18.6s26.4,13.5,31.5,23.9c9,18.4-9.4,37.2-18.2,55.6-13.3,27.9-2.9,60.5,26.2,82.2" fill="none" stroke="#d6d6d6" stroke-width="1"/>
      <path id="Path_103" data-name="Path 103" d="M-37.9,126.3c-4.4,10.5,3.4,21.8,14.9,29.5,11.4,7.7,26,12.6,39.4,18.6s26.4,13.5,31.5,23.9c9,18.4-9.4,37.2-18.2,55.6-13.3,27.9-2.9,60.5,26.2,82.2" fill="none" stroke="#d6d6d6" stroke-width="1"/>
    </g>
    <g id="Group_47" data-name="Group 47" clip-path="url(#clip-path-2)">
      <path id="Path_104" data-name="Path 104" d="M506.7-112.1c2.2,10.8,16.2,19,31.2,22.8s31.3,4.3,47.1,6,32.2,5,43,13.1c19.3,14.3,13.6,36.5,16.6,55.9,4.5,29.2,33.5,56.1,73,67.8" fill="none" stroke="#d6d6d6" stroke-width="1"/>
      <path id="Path_105" data-name="Path 105" d="M498.5-107.2c2.2,10.8,16.2,19,31.2,22.8s31.3,4.3,47.1,6,32.2,5,43,13.1C639-51,633.4-28.8,636.4-9.5c4.5,29.2,33.5,56.1,73,67.8" fill="none" stroke="#d6d6d6" stroke-width="1"/>
      <path id="Path_106" data-name="Path 106" d="M490.3-102.4c2.2,10.8,16.2,19,31.2,22.8s31.3,4.3,47.1,6,32.2,5,43,13.1C630.9-46.2,625.2-24,628.2-4.6c4.5,29.2,33.5,56.1,73,67.8" fill="none" stroke="#d6d6d6" stroke-width="1"/>
      <path id="Path_107" data-name="Path 107" d="M482-97.5c2.2,10.8,16.2,19,31.2,22.8s31.3,4.3,47.1,6,32.2,5,43,13.1C622.6-41.3,616.9-19.1,619.9.3c4.5,29.2,33.5,56.1,73,67.8" fill="none" stroke="#d6d6d6" stroke-width="1"/>
    </g>
  </g>
</svg>
