<svg id="Group_143" data-name="Group 143" xmlns="http://www.w3.org/2000/svg" xmlns:xlink="http://www.w3.org/1999/xlink" width="660.414" height="300.013" viewBox="0 0 660.414 300.013">
  <defs>
    <clipPath id="clip-path">
      <rect id="Rectangle_90" data-name="Rectangle 90" width="660.414" height="300.013" fill="none"/>
    </clipPath>
    <clipPath id="clip-path-3">
      <rect id="Rectangle_88" data-name="Rectangle 88" width="452.312" height="237.759" transform="translate(106.37 38.911)" fill="none"/>
    </clipPath>
  </defs>
  <g id="Group_142" data-name="Group 142" clip-path="url(#clip-path)">
    <g id="Group_141" data-name="Group 141">
      <g id="Group_140" data-name="Group 140" clip-path="url(#clip-path)">
        <path id="Path_187" data-name="Path 187" d="M650.23,300.013h-640a10,10,0,0,1-10-10v-280a10,10,0,0,1,10-10h640a10,10,0,0,1,10,10v280a10,10,0,0,1-10,10" fill="#fcfcfc"/>
        <g id="Group_139" data-name="Group 139" opacity="0.15">
          <g id="Group_138" data-name="Group 138">
            <g id="Group_137" data-name="Group 137" clip-path="url(#clip-path-3)">
              <path id="Path_188" data-name="Path 188" d="M552.005,87.368H517.218a6.677,6.677,0,1,1,0-13.354h.361a6.674,6.674,0,0,1,7.712-6.105,9.584,9.584,0,0,1,9.32-7.574,9.47,9.47,0,0,1,8.681,5.612,7.711,7.711,0,0,1,9.43,7.52c0,.193-.008.389-.023.585a6.676,6.676,0,0,1-.694,13.316M517.218,74.991a5.7,5.7,0,1,0,0,11.4h34.787a5.7,5.7,0,0,0,.141-11.4.488.488,0,0,1-.472-.558,6.82,6.82,0,0,0,.071-.97,6.737,6.737,0,0,0-8.6-6.472.489.489,0,0,1-.589-.289,8.5,8.5,0,0,0-7.941-5.394,8.593,8.593,0,0,0-8.444,7.247.487.487,0,0,1-.6.4,5.774,5.774,0,0,0-1.332-.158,5.706,5.706,0,0,0-5.7,5.7.488.488,0,0,1-.488.489Z" fill="#f0f2f7"/>
              <path id="Path_189" data-name="Path 189" d="M169.165,188.754H134.379a6.677,6.677,0,0,1,0-13.354h.361a6.686,6.686,0,0,1,6.659-6.189,6.766,6.766,0,0,1,1.053.084,9.584,9.584,0,0,1,9.32-7.574,9.47,9.47,0,0,1,8.681,5.612,7.715,7.715,0,0,1,9.43,7.52c0,.193-.008.389-.023.585a6.676,6.676,0,0,1-.7,13.316m-34.786-12.377a5.7,5.7,0,0,0,0,11.4h34.786a5.7,5.7,0,0,0,.142-11.4.491.491,0,0,1-.362-.174.486.486,0,0,1-.11-.384,6.736,6.736,0,0,0-8.533-7.442.487.487,0,0,1-.589-.289,8.5,8.5,0,0,0-7.941-5.394,8.593,8.593,0,0,0-8.444,7.247.489.489,0,0,1-.6.4,5.7,5.7,0,0,0-7.032,5.541.489.489,0,0,1-.489.489Z" fill="#f0f2f7"/>
              <path id="Path_190" data-name="Path 190" d="M550.592,166.6H528.85a4.356,4.356,0,0,1,0-8.713h.059a4.362,4.362,0,0,1,4.329-3.868,4.255,4.255,0,0,1,.516.031,6.176,6.176,0,0,1,5.967-4.712,6.1,6.1,0,0,1,5.53,3.481,5,5,0,0,1,5.972,4.909c0,.068,0,.137,0,.206a4.356,4.356,0,0,1-.627,8.666m-21.742-7.736a3.38,3.38,0,0,0,0,6.759h21.742a3.379,3.379,0,0,0,.083-6.757.488.488,0,0,1-.471-.558,4.027,4.027,0,0,0-3.985-4.607,4.023,4.023,0,0,0-1.116.158.489.489,0,0,1-.59-.289,5.13,5.13,0,0,0-4.792-3.255,5.186,5.186,0,0,0-5.1,4.373.489.489,0,0,1-.6.4,3.378,3.378,0,0,0-4.169,3.285.489.489,0,0,1-.488.489Z" fill="#f0f2f7"/>
              <path id="Path_191" data-name="Path 191" d="M152.153,71.822H130.411a4.356,4.356,0,0,1,0-8.713h.059a4.362,4.362,0,0,1,4.329-3.868,4.253,4.253,0,0,1,.516.031,6.176,6.176,0,0,1,5.967-4.712,6.1,6.1,0,0,1,5.53,3.481,5,5,0,0,1,5.972,4.909c0,.068,0,.136,0,.2a4.357,4.357,0,0,1-.627,8.668m-21.742-7.736a3.38,3.38,0,0,0,0,6.759h21.742a3.379,3.379,0,0,0,.084-6.757.488.488,0,0,1-.472-.558,4.073,4.073,0,0,0,.042-.58,4.027,4.027,0,0,0-5.144-3.869.487.487,0,0,1-.589-.289,5.13,5.13,0,0,0-4.792-3.255,5.186,5.186,0,0,0-5.1,4.373.488.488,0,0,1-.6.4,3.419,3.419,0,0,0-.79-.094A3.382,3.382,0,0,0,131.42,63.6a.489.489,0,0,1-.489.489Z" fill="#f0f2f7"/>
              <path id="Path_192" data-name="Path 192" d="M493.646,55.048V235.777a6.455,6.455,0,0,1-6.455,6.455H177.37a6.458,6.458,0,0,1-6.455-6.455V55.048Z" fill="#f0f2f7"/>
              <path id="Path_193" data-name="Path 193" d="M219.326,80.721H193.508a6.455,6.455,0,1,1,0-12.909h25.818a6.455,6.455,0,1,1,0,12.909" fill="#36ccc4"/>
              <path id="Path_194" data-name="Path 194" d="M241.594,203.181H190.28a3.228,3.228,0,1,1,0-6.455h51.314a3.228,3.228,0,0,1,0,6.455" fill="#fff"/>
              <path id="Path_195" data-name="Path 195" d="M474.283,203.181H448.465a3.228,3.228,0,1,1,0-6.455h25.818a3.228,3.228,0,0,1,0,6.455" fill="#fff"/>
              <path id="Path_196" data-name="Path 196" d="M435.556,80.866H419.419a6.454,6.454,0,0,1,0-12.909h16.137a6.454,6.454,0,1,1,0,12.909" fill="#fff"/>
              <path id="Path_197" data-name="Path 197" d="M471.056,80.866H454.919a6.454,6.454,0,0,1,0-12.909h16.137a6.454,6.454,0,1,1,0,12.909" fill="#806eff"/>
              <path id="Path_198" data-name="Path 198" d="M396.828,80.721H241.917a6.455,6.455,0,0,1,0-12.909H396.828a6.455,6.455,0,1,1,0,12.909" fill="#fff"/>
              <path id="Path_199" data-name="Path 199" d="M275.8,229H195.121a8.068,8.068,0,0,1,0-16.137H275.8a8.068,8.068,0,0,1,0,16.137" fill="#fff"/>
              <path id="Path_200" data-name="Path 200" d="M275.8,223.352H206.417a2.421,2.421,0,1,1,0-4.841H275.8a2.421,2.421,0,0,1,0,4.841" fill="#d7d7ff"/>
              <path id="Path_201" data-name="Path 201" d="M200.769,220.931a4.034,4.034,0,1,1-4.034-4.034,4.034,4.034,0,0,1,4.034,4.034" fill="#b3b3ff"/>
              <path id="Path_202" data-name="Path 202" d="M382.3,229H301.622a8.068,8.068,0,0,1,0-16.137H382.3a8.068,8.068,0,0,1,0,16.137" fill="#fff"/>
              <path id="Path_203" data-name="Path 203" d="M382.3,223.352H312.918a2.421,2.421,0,1,1,0-4.841H382.3a2.421,2.421,0,1,1,0,4.841" fill="#d7d7ff"/>
              <path id="Path_204" data-name="Path 204" d="M307.27,220.931a4.034,4.034,0,1,1-4.034-4.034,4.034,4.034,0,0,1,4.034,4.034" fill="#b3b3ff"/>
              <path id="Path_205" data-name="Path 205" d="M493.646,212.863V229H403.281a3.229,3.229,0,0,1-3.227-3.228V216.09a3.229,3.229,0,0,1,3.227-3.227Z" fill="#fff"/>
              <path id="Path_206" data-name="Path 206" d="M488.806,223.352H419.419a2.421,2.421,0,1,1,0-4.841h69.387a2.421,2.421,0,1,1,0,4.841" fill="#d7d7ff"/>
              <path id="Path_207" data-name="Path 207" d="M413.771,220.931a4.034,4.034,0,1,1-4.034-4.034,4.034,4.034,0,0,1,4.034,4.034" fill="#b3b3ff"/>
              <path id="Path_208" data-name="Path 208" d="M477.511,38.911H187.053a16.136,16.136,0,0,0-16.136,16.137H493.648a16.137,16.137,0,0,0-16.137-16.137" fill="#806eff"/>
              <path id="Path_209" data-name="Path 209" d="M217.426,149.047H154.778V115.871a19.03,19.03,0,0,1,19.03-19.03H198.4a19.03,19.03,0,0,1,19.03,19.03Z" fill="#d7d7ff"/>
              <path id="Path_210" data-name="Path 210" d="M198.4,183.852H173.808a19.03,19.03,0,0,1-19.03-19.03V149.048h62.648v15.774a19.03,19.03,0,0,1-19.03,19.03" fill="#fff"/>
              <path id="Path_211" data-name="Path 211" d="M210.465,157.749H161.739a1.74,1.74,0,1,1,0-3.48h48.726a1.74,1.74,0,1,1,0,3.48" fill="#b3b3ff"/>
              <path id="Path_212" data-name="Path 212" d="M200.024,164.709H161.739a1.74,1.74,0,1,1,0-3.48h38.285a1.74,1.74,0,1,1,0,3.48" fill="#d7d7ff"/>
              <path id="Path_213" data-name="Path 213" d="M186.1,171.67H161.739a1.74,1.74,0,1,1,0-3.48H186.1a1.74,1.74,0,0,1,0,3.48" fill="#36ccc4"/>
              <path id="Path_214" data-name="Path 214" d="M162.389,175.238l.592,1.146,1.322.183-.957.892.226,1.259-1.183-.594-1.183.594.226-1.259-.957-.892,1.322-.183Z" fill="#ffc800"/>
              <path id="Path_215" data-name="Path 215" d="M168.827,175.238l.592,1.146,1.322.183-.957.892.226,1.259-1.183-.594-1.183.594.226-1.259-.957-.892,1.322-.183Z" fill="#ffc800"/>
              <path id="Path_216" data-name="Path 216" d="M175.266,175.238l.592,1.146,1.322.183-.957.892.226,1.259-1.183-.594-1.183.594.226-1.259-.957-.892,1.322-.183Z" fill="#ffc800"/>
              <path id="Path_217" data-name="Path 217" d="M181.705,175.238l.592,1.146,1.322.183-.957.892.226,1.259-1.183-.594-1.183.594.226-1.259-.957-.892,1.322-.183Z" fill="#ffc800"/>
              <path id="Path_218" data-name="Path 218" d="M190.058,176.568l-1.323-.184-.591-1.146-.592,1.146-1.322.184.957.891-.226,1.26,1.183-.6,1.183.6-.226-1.26Zm-1.768,1.265a.322.322,0,0,0-.292,0l-.6.3.111-.618a.325.325,0,0,0-.1-.3l-.457-.425.645-.09a.325.325,0,0,0,.245-.173l.3-.585.3.585a.324.324,0,0,0,.245.173l.644.09-.456.425a.328.328,0,0,0-.1.3l.111.618Z" fill="#ffc800"/>
              <path id="Path_219" data-name="Path 219" d="M186.128,106.76h7.013l.655,32.369h-3.237l-1.912-14.306-2.519-13.4Z" fill="#fff"/>
              <path id="Path_220" data-name="Path 220" d="M186.128,106.76h-7.013l-.655,32.369H181.7l1.912-14.306,2.519-13.4Z" fill="#fff"/>
              <path id="Path_221" data-name="Path 221" d="M193.142,105.974H179.115a.393.393,0,1,0,0,.786h14.027a.393.393,0,1,0,0-.786" fill="#b3b3ff"/>
              <path id="Path_222" data-name="Path 222" d="M181.67,139.129h-3.243a.393.393,0,1,0,0,.786h3.243a.393.393,0,1,0,0-.786" fill="#b3b3ff"/>
              <path id="Path_223" data-name="Path 223" d="M193.777,139.129h-3.243a.393.393,0,0,0,0,.786h3.243a.393.393,0,1,0,0-.786" fill="#b3b3ff"/>
              <path id="Path_224" data-name="Path 224" d="M290.515,149.047H227.867V115.871a19.03,19.03,0,0,1,19.03-19.03h24.588a19.03,19.03,0,0,1,19.03,19.03Z" fill="#d7d7ff"/>
              <path id="Path_225" data-name="Path 225" d="M271.485,183.852H246.9a19.03,19.03,0,0,1-19.03-19.03V149.048h62.648v15.774a19.03,19.03,0,0,1-19.03,19.03" fill="#fff"/>
              <path id="Path_226" data-name="Path 226" d="M283.554,157.749H234.828a1.74,1.74,0,1,1,0-3.48h48.726a1.74,1.74,0,1,1,0,3.48" fill="#b3b3ff"/>
              <path id="Path_227" data-name="Path 227" d="M280.074,164.709H234.828a1.74,1.74,0,1,1,0-3.48h45.246a1.74,1.74,0,0,1,0,3.48" fill="#d7d7ff"/>
              <path id="Path_228" data-name="Path 228" d="M259.191,171.67H234.828a1.74,1.74,0,1,1,0-3.48h24.363a1.74,1.74,0,0,1,0,3.48" fill="#36ccc4"/>
              <path id="Path_229" data-name="Path 229" d="M235.478,175.238l.592,1.146,1.322.183-.957.892.226,1.259-1.183-.594-1.183.594.226-1.259-.957-.892,1.322-.183Z" fill="#ffc800"/>
              <path id="Path_230" data-name="Path 230" d="M241.917,175.238l.592,1.146,1.322.183-.957.892.226,1.259-1.183-.594-1.183.594.226-1.259-.957-.892,1.322-.183Z" fill="#ffc800"/>
              <path id="Path_231" data-name="Path 231" d="M248.355,175.238l.592,1.146,1.322.183-.957.892.226,1.259-1.183-.594-1.183.594.226-1.259-.957-.892,1.322-.183Z" fill="#ffc800"/>
              <path id="Path_232" data-name="Path 232" d="M256.708,176.568l-1.323-.184-.591-1.146-.592,1.146-1.322.184.957.891-.226,1.26,1.183-.6,1.183.6-.226-1.26Zm-1.768,1.265-.146-.073-.146.073-.6.3.111-.618.032-.175-.13-.121-.457-.425.645-.09.167-.023.078-.15.3-.585.3.585.077.15.168.023.644.09-.456.425-.13.121.031.175.111.618Z" fill="#ffc800"/>
              <path id="Path_233" data-name="Path 233" d="M263.147,176.568l-1.323-.184-.591-1.146-.592,1.146-1.322.184.957.891-.226,1.26,1.183-.6,1.183.6-.226-1.26Zm-1.768,1.265-.146-.073-.146.073-.6.3.111-.618.032-.175-.13-.121-.457-.425.645-.09.167-.023.078-.15.3-.585.3.585.077.15.168.023.644.09-.456.425-.13.121.031.175.111.618Z" fill="#ffc800"/>
              <path id="Path_234" data-name="Path 234" d="M279.681,117.652l-2.167,2.165a1.74,1.74,0,0,1-2.461,0l-3.729-3.73a36.439,36.439,0,0,0-1.614,10.241,45.855,45.855,0,0,0,1.614,11,1.741,1.741,0,0,1-1.74,1.741H248.816a1.741,1.741,0,0,1-1.74-1.741,62.743,62.743,0,0,0,1.613-11.4,39.775,39.775,0,0,0-1.613-9.859l-3.75,3.75a1.739,1.739,0,0,1-2.461,0l-2.165-2.164a1.74,1.74,0,0,1,0-2.461l4.567-4.565a13,13,0,0,1,9.192-3.807h13.464a13,13,0,0,1,9.194,3.808l4.563,4.563a1.741,1.741,0,0,1,0,2.462" fill="#fff"/>
              <path id="Path_235" data-name="Path 235" d="M253.981,106.819a5.22,5.22,0,1,0,10.441,0Z" fill="#d7d7ff"/>
              <path id="Path_236" data-name="Path 236" d="M263.382,106.819a4.18,4.18,0,1,1-8.36,0Z" fill="#fff"/>
              <path id="Path_237" data-name="Path 237" d="M363.6,149.047H300.956V115.871a19.03,19.03,0,0,1,19.03-19.03h24.588a19.03,19.03,0,0,1,19.03,19.03Z" fill="#d7d7ff"/>
              <path id="Path_238" data-name="Path 238" d="M344.574,183.852H319.986a19.03,19.03,0,0,1-19.03-19.03V149.048H363.6v15.774a19.03,19.03,0,0,1-19.03,19.03" fill="#fff"/>
              <path id="Path_239" data-name="Path 239" d="M356.643,157.749H307.917a1.74,1.74,0,0,1,0-3.48h48.726a1.74,1.74,0,0,1,0,3.48" fill="#b3b3ff"/>
              <path id="Path_240" data-name="Path 240" d="M342.721,164.709h-34.8a1.74,1.74,0,1,1,0-3.48h34.8a1.74,1.74,0,0,1,0,3.48" fill="#d7d7ff"/>
              <path id="Path_241" data-name="Path 241" d="M332.28,171.67H307.917a1.74,1.74,0,0,1,0-3.48H332.28a1.74,1.74,0,0,1,0,3.48" fill="#36ccc4"/>
              <path id="Path_242" data-name="Path 242" d="M308.567,175.238l.592,1.146,1.322.183-.957.892.226,1.259-1.183-.594-1.183.594.226-1.259-.957-.892,1.322-.183Z" fill="#ffc800"/>
              <path id="Path_243" data-name="Path 243" d="M315.006,175.238l.592,1.146,1.322.183-.957.892.226,1.259-1.183-.594-1.183.594.226-1.259-.957-.892,1.322-.183Z" fill="#ffc800"/>
              <path id="Path_244" data-name="Path 244" d="M321.444,175.238l.592,1.146,1.322.183-.957.892.226,1.259-1.183-.594-1.183.594.226-1.259-.957-.892,1.322-.183Z" fill="#ffc800"/>
              <path id="Path_245" data-name="Path 245" d="M327.883,175.238l.592,1.146,1.322.183-.957.892.226,1.259-1.183-.594-1.183.594.226-1.259-.957-.892,1.322-.183Z" fill="#ffc800"/>
              <path id="Path_246" data-name="Path 246" d="M336.236,176.568l-1.323-.184-.591-1.146-.592,1.146-1.323.184.958.891-.226,1.26,1.183-.6,1.183.6-.226-1.26Zm-1.768,1.265-.146-.073-.146.073-.6.3.111-.618.032-.175-.13-.121-.457-.425.645-.09.167-.023.078-.15.3-.585.3.585.077.15.167.023.645.09-.456.425-.13.121.031.175.111.618Z" fill="#ffc800"/>
              <rect id="Rectangle_64" data-name="Rectangle 64" width="21.605" height="3.108" transform="translate(321.478 110.035)" fill="#b3b3ff"/>
              <path id="Path_247" data-name="Path 247" d="M351.474,133.058s-.687.252-1.962.6a61.681,61.681,0,0,1-10.273,1.853c-1.371.135-2.84.239-4.389.3-.832.029-1.691.045-2.569.045a64.678,64.678,0,0,1-18.118-2.45c-.7-.209-1.074-.345-1.074-.345l.584-1.6,3.456-9.485,1.475-4.054,2.872-7.881a29.829,29.829,0,0,0,11.05,2.2,25.774,25.774,0,0,0,10.557-2.2l1.559,4.28,1,2.73,5.215,14.31Z" fill="#f0f2f7"/>
              <path id="Path_248" data-name="Path 248" d="M324.94,115.813a1.506,1.506,0,1,1-1.506-1.506,1.506,1.506,0,0,1,1.506,1.506" fill="#d7d7ff"/>
              <path id="Path_249" data-name="Path 249" d="M351.474,133.058s-.687.252-1.962.6a1.473,1.473,0,0,1-.233-.8,1.506,1.506,0,0,1,1.5-1.507.553.553,0,0,1,.071,0Z" fill="#b3b3ff"/>
              <path id="Path_250" data-name="Path 250" d="M345.64,117.044a1.477,1.477,0,0,1-.865.274,1.5,1.5,0,0,1-.132-3Z" fill="#b3b3ff"/>
              <path id="Path_251" data-name="Path 251" d="M336.889,119.421a1.506,1.506,0,1,1-1.506-1.506,1.506,1.506,0,0,1,1.506,1.506" fill="#d7d7ff"/>
              <path id="Path_252" data-name="Path 252" d="M324.49,131.035a1.506,1.506,0,1,1-1.506-1.506,1.506,1.506,0,0,1,1.506,1.506" fill="#d7d7ff"/>
              <path id="Path_253" data-name="Path 253" d="M340.944,128.655a1.506,1.506,0,1,1-1.506-1.506,1.506,1.506,0,0,1,1.506,1.506" fill="#d7d7ff"/>
              <path id="Path_254" data-name="Path 254" d="M339.24,135.511c-1.372.136-2.84.239-4.389.3a1.342,1.342,0,0,1-.013-.2,2.2,2.2,0,0,1,4.4-.1" fill="#b3b3ff"/>
              <path id="Path_255" data-name="Path 255" d="M320.224,120.01a2.17,2.17,0,0,1-2.169,2.169,2.115,2.115,0,0,1-.926-.21l1.475-4.054a2.163,2.163,0,0,1,1.62,2.1" fill="#b3b3ff"/>
              <path id="Path_256" data-name="Path 256" d="M325.109,123.536A1.107,1.107,0,1,1,324,122.429a1.107,1.107,0,0,1,1.107,1.107" fill="#d7d7ff"/>
              <path id="Path_257" data-name="Path 257" d="M345.881,128.283a1.107,1.107,0,1,1-1.107-1.107,1.107,1.107,0,0,1,1.107,1.107" fill="#d7d7ff"/>
              <path id="Path_258" data-name="Path 258" d="M335.837,124.643a1.107,1.107,0,1,1-1.107-1.107,1.107,1.107,0,0,1,1.107,1.107" fill="#b3b3ff"/>
              <path id="Path_259" data-name="Path 259" d="M314.577,132.541a1.1,1.1,0,0,1-.413.862c-.7-.21-1.075-.346-1.075-.346l.584-1.6a1.108,1.108,0,0,1,.9,1.088" fill="#b3b3ff"/>
              <path id="Path_260" data-name="Path 260" d="M346.084,123.237a1.107,1.107,0,1,1-1.107-1.107,1.107,1.107,0,0,1,1.107,1.107" fill="#b3b3ff"/>
              <path id="Path_261" data-name="Path 261" d="M331,127.862a1.107,1.107,0,1,1-1.107-1.107A1.107,1.107,0,0,1,331,127.862" fill="#d7d7ff"/>
              <path id="Path_262" data-name="Path 262" d="M329.1,117.312a.91.91,0,1,1-.91-.91.91.91,0,0,1,.91.91" fill="#b3b3ff"/>
              <path id="Path_263" data-name="Path 263" d="M319.341,127.373a.91.91,0,1,1-.91-.91.91.91,0,0,1,.91.91" fill="#b3b3ff"/>
              <path id="Path_264" data-name="Path 264" d="M330.514,132.541a.91.91,0,1,1-.91-.91.91.91,0,0,1,.91.91" fill="#b3b3ff"/>
              <path id="Path_265" data-name="Path 265" d="M344.178,132.261a.91.91,0,1,1-.91-.91.91.91,0,0,1,.91.91" fill="#b3b3ff"/>
              <path id="Path_266" data-name="Path 266" d="M339.752,115.016a.91.91,0,1,1-.91-.91.91.91,0,0,1,.91.91" fill="#b3b3ff"/>
              <path id="Path_267" data-name="Path 267" d="M333.624,115.255a.672.672,0,1,1-.672-.672.672.672,0,0,1,.672.672" fill="#d7d7ff"/>
              <path id="Path_268" data-name="Path 268" d="M330.276,122.429a.672.672,0,1,1-.672-.672.672.672,0,0,1,.672.672" fill="#d7d7ff"/>
              <path id="Path_269" data-name="Path 269" d="M335.22,129.852a.672.672,0,1,1-.672-.672.672.672,0,0,1,.672.672" fill="#d7d7ff"/>
              <path id="Path_270" data-name="Path 270" d="M341.1,121.757a.671.671,0,1,1-.672-.672.672.672,0,0,1,.672.672" fill="#d7d7ff"/>
              <path id="Path_271" data-name="Path 271" d="M436.693,149.047H374.045V115.871a19.03,19.03,0,0,1,19.03-19.03h24.588a19.03,19.03,0,0,1,19.03,19.03Z" fill="#d7d7ff"/>
              <path id="Path_272" data-name="Path 272" d="M417.663,183.852H393.075a19.03,19.03,0,0,1-19.03-19.03V149.048h62.648v15.774a19.03,19.03,0,0,1-19.03,19.03" fill="#fff"/>
              <path id="Path_273" data-name="Path 273" d="M429.732,157.749H381.006a1.74,1.74,0,1,1,0-3.48h48.726a1.74,1.74,0,0,1,0,3.48" fill="#b3b3ff"/>
              <path id="Path_274" data-name="Path 274" d="M422.772,164.709H381.007a1.74,1.74,0,0,1,0-3.48h41.765a1.74,1.74,0,0,1,0,3.48" fill="#d7d7ff"/>
              <path id="Path_275" data-name="Path 275" d="M405.369,171.67H381.006a1.74,1.74,0,1,1,0-3.48h24.363a1.74,1.74,0,1,1,0,3.48" fill="#36ccc4"/>
              <path id="Path_276" data-name="Path 276" d="M381.656,175.238l.592,1.146,1.322.183-.957.892.226,1.259-1.183-.594-1.183.594.226-1.259-.957-.892,1.322-.183Z" fill="#ffc800"/>
              <path id="Path_277" data-name="Path 277" d="M388.095,175.238l.592,1.146,1.322.183-.957.892.226,1.259-1.183-.594-1.183.594.226-1.259-.957-.892,1.322-.183Z" fill="#ffc800"/>
              <path id="Path_278" data-name="Path 278" d="M394.533,175.238l.592,1.146,1.322.183-.957.892.226,1.259-1.183-.594-1.183.594.226-1.259-.957-.892,1.322-.183Z" fill="#ffc800"/>
              <path id="Path_279" data-name="Path 279" d="M400.972,175.238l.592,1.146,1.322.183-.957.892.226,1.259-1.183-.594-1.183.594.226-1.259-.957-.892,1.322-.183Z" fill="#ffc800"/>
              <path id="Path_280" data-name="Path 280" d="M409.325,176.568,408,176.384l-.591-1.146-.592,1.146-1.322.184.957.891-.226,1.26,1.183-.6,1.183.6-.226-1.26Zm-1.768,1.265-.146-.073-.146.073-.6.3.111-.618.032-.175-.13-.121-.456-.425.644-.09.167-.023.078-.15.3-.585.3.585.077.15.168.023.644.09-.456.425-.13.121.031.175.111.618Z" fill="#ffc800"/>
              <path id="Path_281" data-name="Path 281" d="M405.369,124.481a7.63,7.63,0,1,1,7.63-7.63,7.639,7.639,0,0,1-7.63,7.63m0-13.632a6,6,0,1,0,6,6,6.009,6.009,0,0,0-6-6" fill="#b3b3ff"/>
              <path id="Path_282" data-name="Path 282" d="M415.912,135.853H394.827a4.75,4.75,0,0,1-4.609-5.9l2.825-11.3a2.374,2.374,0,0,1,2.3-1.8h20.044a2.376,2.376,0,0,1,2.305,1.8l2.825,11.3a4.751,4.751,0,0,1-4.609,5.9" fill="#fff"/>
              <path id="Path_283" data-name="Path 283" d="M408.6,123.457l0,0a2.282,2.282,0,0,1,0,3.226l-3.23,3.23-3.228-3.228a2.282,2.282,0,0,1,0-3.226l0,0a2.28,2.28,0,0,1,3.224,0l0,0a2.285,2.285,0,0,1,3.228,0" fill="#e83d6a"/>
              <path id="Path_284" data-name="Path 284" d="M509.782,149.047H447.134V111.734a14.893,14.893,0,0,1,14.893-14.893h32.862a14.893,14.893,0,0,1,14.893,14.893Z" fill="#d7d7ff"/>
              <path id="Path_285" data-name="Path 285" d="M494.889,183.852H462.027a14.893,14.893,0,0,1-14.893-14.893V149.048h62.648v19.911a14.893,14.893,0,0,1-14.893,14.893" fill="#fff"/>
              <path id="Path_286" data-name="Path 286" d="M502.821,157.749H454.1a1.74,1.74,0,0,1,0-3.48h48.726a1.74,1.74,0,0,1,0,3.48" fill="#b3b3ff"/>
              <path id="Path_287" data-name="Path 287" d="M502.821,164.709H454.1a1.74,1.74,0,0,1,0-3.48h48.726a1.74,1.74,0,0,1,0,3.48" fill="#d7d7ff"/>
              <path id="Path_288" data-name="Path 288" d="M478.458,171.67H454.1a1.74,1.74,0,0,1,0-3.48h24.363a1.74,1.74,0,0,1,0,3.48" fill="#36ccc4"/>
              <path id="Path_289" data-name="Path 289" d="M454.745,175.238l.592,1.146,1.322.183-.957.892.226,1.259-1.183-.594-1.183.594.226-1.259-.957-.892,1.322-.183Z" fill="#ffc800"/>
              <path id="Path_290" data-name="Path 290" d="M461.184,175.238l.592,1.146,1.322.183-.957.892.226,1.259-1.183-.594-1.183.594.226-1.259-.957-.892,1.322-.183Z" fill="#ffc800"/>
              <path id="Path_291" data-name="Path 291" d="M467.622,175.238l.592,1.146,1.322.183-.957.892.226,1.259-1.183-.594-1.183.594.226-1.259-.957-.892,1.322-.183Z" fill="#ffc800"/>
              <path id="Path_292" data-name="Path 292" d="M474.061,175.238l.592,1.146,1.322.183-.957.892.226,1.259-1.183-.594-1.183.594.226-1.259-.957-.892,1.322-.183Z" fill="#ffc800"/>
              <path id="Path_293" data-name="Path 293" d="M480.5,175.238l.592,1.146,1.322.183-.957.892.226,1.259-1.183-.594-1.183.594.226-1.259-.957-.892,1.322-.183Z" fill="#ffc800"/>
              <path id="Path_294" data-name="Path 294" d="M464.189,138.9h0a4.351,4.351,0,0,1-4.351-4.35V131.9a4.351,4.351,0,0,1,8.7,0v2.649a4.351,4.351,0,0,1-4.351,4.351" fill="#b3b3ff"/>
              <path id="Path_295" data-name="Path 295" d="M467.429,127.546h-6.48V119.5a2.455,2.455,0,0,1,2.455-2.455h1.57a2.455,2.455,0,0,1,2.455,2.455Z" fill="#fff"/>
              <path id="Path_296" data-name="Path 296" d="M466.56,117.047h-4.742v-6.866a1.411,1.411,0,0,1,.694-1.21l3.164-1.9a.581.581,0,0,1,.884.484Z" fill="#e83d6a"/>
              <rect id="Rectangle_65" data-name="Rectangle 65" width="19.49" height="26.799" transform="translate(477.589 110.605)" fill="#b3b3ff"/>
              <rect id="Rectangle_66" data-name="Rectangle 66" width="19.49" height="26.799" transform="translate(472.716 110.605)" fill="#fff"/>
              <path id="Path_297" data-name="Path 297" d="M486.029,120.8l0,0a2.523,2.523,0,0,1,0,3.567l-3.571,3.57-3.568-3.568a2.522,2.522,0,0,1,0-3.566l0,0a2.52,2.52,0,0,1,3.564,0l0,0a2.526,2.526,0,0,1,3.569,0" fill="#e83d6a"/>
              <path id="Path_298" data-name="Path 298" d="M191.894,46.979a2.421,2.421,0,1,1-2.42-2.42,2.42,2.42,0,0,1,2.42,2.42" fill="#e83d6a"/>
              <path id="Path_299" data-name="Path 299" d="M201.576,46.979a2.421,2.421,0,1,1-2.42-2.42,2.42,2.42,0,0,1,2.42,2.42" fill="#ffc800"/>
              <path id="Path_300" data-name="Path 300" d="M211.258,46.979a2.42,2.42,0,1,1-2.42-2.42,2.42,2.42,0,0,1,2.42,2.42" fill="#36ccc4"/>
              <path id="Path_301" data-name="Path 301" d="M399.866,78.068h0a.646.646,0,0,1-.913,0L395.3,74.417a.646.646,0,1,1,.913-.913l3.651,3.651a.646.646,0,0,1,0,.913" fill="#f0f2f7"/>
              <path id="Path_302" data-name="Path 302" d="M397.584,71.222a3.227,3.227,0,1,1-4.564,0,3.228,3.228,0,0,1,4.564,0" fill="#f0f2f7"/>
              <path id="Path_303" data-name="Path 303" d="M396.9,71.906a2.26,2.26,0,1,1-3.2,0,2.261,2.261,0,0,1,3.2,0" fill="#fff"/>
              <path id="Path_304" data-name="Path 304" d="M422.8,75.541v-2.73h.5v2.32h1.274v.41Z" fill="#806eff"/>
              <path id="Path_305" data-name="Path 305" d="M425.253,75.452a.832.832,0,0,1-.339-.344,1.083,1.083,0,0,1-.12-.523,1.069,1.069,0,0,1,.12-.521.83.83,0,0,1,.339-.343,1.139,1.139,0,0,1,1.018,0,.82.82,0,0,1,.337.343,1.091,1.091,0,0,1,.118.521,1.105,1.105,0,0,1-.118.523.822.822,0,0,1-.337.344,1.131,1.131,0,0,1-1.018,0m.865-.41a.9.9,0,0,0,0-.912.426.426,0,0,0-.356-.157.433.433,0,0,0-.359.157.9.9,0,0,0,0,.912.492.492,0,0,0,.717,0" fill="#806eff"/>
              <path id="Path_306" data-name="Path 306" d="M428.969,73.647v1.719a.873.873,0,0,1-.246.674,1.028,1.028,0,0,1-.726.229,1.749,1.749,0,0,1-.477-.064,1.351,1.351,0,0,1-.4-.18l.136-.341a1.391,1.391,0,0,0,.728.213.441.441,0,0,0,.5-.5v-.247a.592.592,0,0,1-.247.246.791.791,0,0,1-.372.087.822.822,0,0,1-.44-.119.81.81,0,0,1-.3-.331,1.072,1.072,0,0,1-.108-.491,1.1,1.1,0,0,1,.106-.494.783.783,0,0,1,.3-.333.833.833,0,0,1,.442-.118.78.78,0,0,1,.372.087.586.586,0,0,1,.247.246v-.287Zm-.61,1.313a.618.618,0,0,0,.129-.414.625.625,0,0,0-.129-.419.507.507,0,0,0-.722,0,.616.616,0,0,0-.132.419.609.609,0,0,0,.132.412.5.5,0,0,0,.722,0" fill="#806eff"/>
              <path id="Path_307" data-name="Path 307" d="M429.441,72.768h.535v.476h-.535Zm.027.879h.484v1.894h-.484Z" fill="#806eff"/>
              <path id="Path_308" data-name="Path 308" d="M432.06,73.794a.878.878,0,0,1,.166.585V75.54h-.484V74.406a.5.5,0,0,0-.083-.322.32.32,0,0,0-.262-.1.443.443,0,0,0-.334.131.491.491,0,0,0-.126.353V75.54h-.485V73.647h.473v.282a.653.653,0,0,1,.26-.243.776.776,0,0,1,.367-.086.634.634,0,0,1,.508.194" fill="#806eff"/>
              <path id="Path_309" data-name="Path 309" d="M195.224,75.4v-2.73h1.828v.4h-1.34v.751h1.263V74.2h-1.263V75h1.34V75.4Z" fill="#fff"/>
              <rect id="Rectangle_67" data-name="Rectangle 67" width="1.154" height="0.383" transform="translate(197.463 74.169)" fill="#fff"/>
              <path id="Path_310" data-name="Path 310" d="M199.711,75.259a1.149,1.149,0,0,1-.461-.49,1.774,1.774,0,0,1,0-1.477,1.156,1.156,0,0,1,.461-.488,1.385,1.385,0,0,1,.7-.173,1.561,1.561,0,0,1,.519.086,1.137,1.137,0,0,1,.41.24l-.166.364a1.373,1.373,0,0,0-.368-.215,1.11,1.11,0,0,0-.387-.068.75.75,0,0,0-.61.256,1.372,1.372,0,0,0,0,1.475.75.75,0,0,0,.61.256,1.11,1.11,0,0,0,.387-.068,1.373,1.373,0,0,0,.368-.215l.166.364a1.137,1.137,0,0,1-.41.24,1.561,1.561,0,0,1-.519.085,1.385,1.385,0,0,1-.7-.172" fill="#fff"/>
              <path id="Path_311" data-name="Path 311" d="M202.074,75.308a.843.843,0,0,1-.34-.345,1.2,1.2,0,0,1,0-1.044.851.851,0,0,1,.34-.343,1.14,1.14,0,0,1,1.018,0,.831.831,0,0,1,.337.343,1.214,1.214,0,0,1,0,1.044.824.824,0,0,1-.337.345,1.139,1.139,0,0,1-1.018,0m.865-.411a.9.9,0,0,0,0-.912.426.426,0,0,0-.356-.157.433.433,0,0,0-.359.157.9.9,0,0,0,0,.912.492.492,0,0,0,.717,0" fill="#fff"/>
              <path id="Path_312" data-name="Path 312" d="M206.676,73.648a.906.906,0,0,1,.159.587V75.4h-.484V74.254a.537.537,0,0,0-.074-.316.277.277,0,0,0-.236-.1.371.371,0,0,0-.3.131.561.561,0,0,0-.109.368V75.4h-.484V74.254a.555.555,0,0,0-.071-.316.278.278,0,0,0-.239-.1.367.367,0,0,0-.3.131.566.566,0,0,0-.109.368V75.4h-.484V73.5h.473v.267a.572.572,0,0,1,.236-.234.731.731,0,0,1,.345-.079.55.55,0,0,1,.569.356.658.658,0,0,1,.256-.262.74.74,0,0,1,.372-.094.587.587,0,0,1,.48.191" fill="#fff"/>
              <path id="Path_313" data-name="Path 313" d="M210.057,73.648a.906.906,0,0,1,.159.587V75.4h-.484V74.254a.537.537,0,0,0-.074-.316.277.277,0,0,0-.236-.1.371.371,0,0,0-.3.131.561.561,0,0,0-.109.368V75.4h-.484V74.254a.555.555,0,0,0-.071-.316.278.278,0,0,0-.239-.1.367.367,0,0,0-.3.131.566.566,0,0,0-.108.368V75.4h-.485V73.5h.473v.267a.572.572,0,0,1,.236-.234.731.731,0,0,1,.345-.079.55.55,0,0,1,.569.356.658.658,0,0,1,.256-.262.74.74,0,0,1,.372-.094.587.587,0,0,1,.48.191" fill="#fff"/>
              <path id="Path_314" data-name="Path 314" d="M212.368,74.537h-1.289a.584.584,0,0,0,.159.391.542.542,0,0,0,.387.128.92.92,0,0,0,.574-.2l.14.333a1.033,1.033,0,0,1-.332.175,1.305,1.305,0,0,1-.4.065,1,1,0,0,1-.733-.263.96.96,0,0,1-.268-.72,1.1,1.1,0,0,1,.115-.515.848.848,0,0,1,.327-.349.921.921,0,0,1,.478-.124.791.791,0,0,1,.619.252,1,1,0,0,1,.225.693Zm-1.143-.616a.6.6,0,0,0-.146.356h.875a.558.558,0,0,0-.115-.358.387.387,0,0,0-.3-.122.408.408,0,0,0-.311.124" fill="#fff"/>
              <path id="Path_315" data-name="Path 315" d="M214.011,73.859l-.283.027c-.32.034-.48.2-.48.488V75.4h-.484V73.5h.461v.333a.645.645,0,0,1,.608-.372l.147-.012Z" fill="#fff"/>
              <path id="Path_316" data-name="Path 316" d="M214.555,75.307a.81.81,0,0,1-.335-.341,1.187,1.187,0,0,1,.006-1.036.852.852,0,0,1,.346-.35,1.055,1.055,0,0,1,.52-.124,1.242,1.242,0,0,1,.392.063.834.834,0,0,1,.308.173l-.139.341a.884.884,0,0,0-.254-.147.737.737,0,0,0-.265-.051.494.494,0,0,0-.391.157.792.792,0,0,0,0,.9.5.5,0,0,0,.391.156A.736.736,0,0,0,215.4,75a.907.907,0,0,0,.254-.147l.139.337a.87.87,0,0,1-.317.176,1.269,1.269,0,0,1-.4.064,1.059,1.059,0,0,1-.517-.12" fill="#fff"/>
              <path id="Path_317" data-name="Path 317" d="M217.759,74.537H216.47a.584.584,0,0,0,.159.391.543.543,0,0,0,.387.128.915.915,0,0,0,.573-.2l.14.333a1.013,1.013,0,0,1-.332.175,1.294,1.294,0,0,1-.4.065,1,1,0,0,1-.733-.263.96.96,0,0,1-.269-.72,1.1,1.1,0,0,1,.116-.515.841.841,0,0,1,.327-.349.921.921,0,0,1,.478-.124.789.789,0,0,1,.618.252,1,1,0,0,1,.226.693Zm-1.144-.616a.6.6,0,0,0-.145.356h.875a.553.553,0,0,0-.116-.358.384.384,0,0,0-.3-.122.41.41,0,0,0-.312.124" fill="#fff"/>
              <path id="Path_318" data-name="Path 318" d="M456.48,75.491a1.372,1.372,0,0,1-.465-.24l.167-.364a1.383,1.383,0,0,0,.416.221,1.572,1.572,0,0,0,.475.069.8.8,0,0,0,.435-.1.31.31,0,0,0,.153-.276.258.258,0,0,0-.141-.237,1.827,1.827,0,0,0-.471-.154,2.757,2.757,0,0,1-.554-.171.78.78,0,0,1-.321-.248.635.635,0,0,1-.108-.383.736.736,0,0,1,.131-.43.866.866,0,0,1,.372-.3,1.355,1.355,0,0,1,.554-.107,1.706,1.706,0,0,1,.546.087,1.2,1.2,0,0,1,.426.238l-.167.365a1.26,1.26,0,0,0-.805-.291.714.714,0,0,0-.417.107.34.34,0,0,0-.153.3.273.273,0,0,0,.136.244,1.576,1.576,0,0,0,.461.159,3.089,3.089,0,0,1,.56.172.829.829,0,0,1,.329.242.589.589,0,0,1,.114.372.723.723,0,0,1-.13.428.822.822,0,0,1-.375.282,1.551,1.551,0,0,1-.58.1,1.967,1.967,0,0,1-.588-.085" fill="#fff"/>
              <path id="Path_319" data-name="Path 319" d="M458.544,72.768h.535v.476h-.535Zm.027.879h.484v1.894h-.484Z" fill="#fff"/>
              <path id="Path_320" data-name="Path 320" d="M461.4,73.647v1.719a.873.873,0,0,1-.246.674,1.028,1.028,0,0,1-.726.229,1.749,1.749,0,0,1-.477-.064,1.351,1.351,0,0,1-.4-.18l.136-.341a1.391,1.391,0,0,0,.728.213.441.441,0,0,0,.5-.5v-.247a.592.592,0,0,1-.247.246.789.789,0,0,1-.372.087.822.822,0,0,1-.44-.119.81.81,0,0,1-.3-.331,1.072,1.072,0,0,1-.108-.491,1.1,1.1,0,0,1,.106-.494.784.784,0,0,1,.3-.333.833.833,0,0,1,.442-.118.777.777,0,0,1,.372.087.586.586,0,0,1,.247.246v-.287Zm-.61,1.313a.618.618,0,0,0,.129-.414.625.625,0,0,0-.129-.419.507.507,0,0,0-.722,0,.615.615,0,0,0-.132.419.609.609,0,0,0,.132.412.5.5,0,0,0,.722,0" fill="#fff"/>
              <path id="Path_321" data-name="Path 321" d="M463.505,73.794a.878.878,0,0,1,.166.585V75.54h-.484V74.406a.5.5,0,0,0-.083-.322.32.32,0,0,0-.262-.1.443.443,0,0,0-.334.131.491.491,0,0,0-.126.353V75.54H461.9V73.647h.472v.282a.653.653,0,0,1,.26-.243A.776.776,0,0,1,463,73.6a.634.634,0,0,1,.508.194" fill="#fff"/>
              <path id="Path_322" data-name="Path 322" d="M465.53,75.286a1.147,1.147,0,0,1-.29-.848V72.811h.488v1.654a.762.762,0,0,0,.166.533.636.636,0,0,0,.488.18.621.621,0,0,0,.484-.183.759.759,0,0,0,.167-.53V72.811h.487v1.627a1.205,1.205,0,0,1-1.99.848" fill="#fff"/>
              <path id="Path_323" data-name="Path 323" d="M469.575,73.724a.824.824,0,0,1,.3.351,1.209,1.209,0,0,1,.107.521,1.172,1.172,0,0,1-.107.515.781.781,0,0,1-.733.461.754.754,0,0,1-.36-.085.6.6,0,0,1-.245-.237v.988h-.484V73.647h.477v.286a.587.587,0,0,1,.246-.245.745.745,0,0,1,.366-.088.79.79,0,0,1,.435.124m-.207,1.315a.684.684,0,0,0,.128-.443.723.723,0,0,0-.128-.457.476.476,0,0,0-.714,0,.714.714,0,0,0-.126.453.706.706,0,0,0,.126.449.482.482,0,0,0,.714,0" fill="#fff"/>
              <path id="Path_324" data-name="Path 324" d="M557.386,243.845H107.176a.807.807,0,0,1,0-1.614h450.21a.807.807,0,1,1,0,1.614" fill="#f0f2f7"/>
              <path id="Path_325" data-name="Path 325" d="M528.638,225.023c-2.661,0-5.8-5.912-10.076-13.981l-.035-.066c-4.2-8.036-5.716-12.866-4.756-15.2a2.44,2.44,0,0,1,1.582-1.453c1.849-.616,4.683.579,7.578,3.2a27.189,27.189,0,0,1,7.083,10.727c2.529,6.933,2.086,12.825.6,15.365a2.56,2.56,0,0,1-1.68,1.387,1.777,1.777,0,0,1-.3.025M516.4,194.735a2.743,2.743,0,0,0-.865.13,1.873,1.873,0,0,0-1.23,1.125c-.877,2.139.671,6.953,4.734,14.718l.034.065c3.884,7.322,7.254,13.676,9.567,13.677a1.178,1.178,0,0,0,.206-.018,2.026,2.026,0,0,0,1.281-1.11c1.93-3.31,1.135-9.992-.649-14.881v0a26.584,26.584,0,0,0-6.927-10.495c-2.264-2.049-4.52-3.209-6.15-3.209" fill="#a7eae5"/>
              <path id="Path_326" data-name="Path 326" d="M532.565,213.257a1.133,1.133,0,0,1-.184-.016,1.543,1.543,0,0,1-1.021-.831c-.837-1.435-1.092-4.751.326-8.639,1.78-5,6.126-8.533,8.3-7.808a1.478,1.478,0,0,1,.955.878c.555,1.354-.261,3.99-2.645,8.548l-.02.037c-2.4,4.518-4.153,7.831-5.712,7.831m6.808-16.814c-1.894,0-5.557,3.055-7.147,7.522v0c-.98,2.686-1.421,6.35-.369,8.154a1.006,1.006,0,0,0,.621.554c1.2.2,3.186-3.546,5.293-7.518l.019-.036c.821-1.57,3.324-6.352,2.622-8.062a.918.918,0,0,0-.6-.551,1.372,1.372,0,0,0-.436-.065" fill="#a7eae5"/>
              <path id="Path_327" data-name="Path 327" d="M533.381,207.52c0,9.348-2.285,16.926-5.1,16.926s-5.1-7.578-5.1-16.926,2.285-16.926,5.1-16.926,5.1,7.578,5.1,16.926" fill="#36ccc4"/>
              <path id="Path_328" data-name="Path 328" d="M528.277,221.24a.287.287,0,0,1-.287-.287V194.087a.287.287,0,0,1,.574,0v26.866a.286.286,0,0,1-.287.287" fill="#a7eae5"/>
              <path id="Path_329" data-name="Path 329" d="M541.733,214.389c-5.285,5.8-8.582,10.71-10.631,10.158-1.959-.49-3.135-6.622.766-13.675,3.831-7.13,12.426-10.922,15.721-9.08,3.383,1.817-.671,6.834-5.856,12.6" fill="#36ccc4"/>
              <path id="Path_330" data-name="Path 330" d="M531.93,222.246a.276.276,0,0,1-.1-.017.287.287,0,0,1-.173-.367,42.8,42.8,0,0,1,13.2-18.322.287.287,0,1,1,.365.442A42.234,42.234,0,0,0,532.2,222.056a.287.287,0,0,1-.27.19" fill="#a7eae5"/>
              <path id="Path_331" data-name="Path 331" d="M523.809,213.671c3.507,5.775,3.387,11.121,1.7,11.757-1.736.666-4.971-3.313-9.142-8.435-4.117-5.112-7.053-9.755-4.666-11.077,2.335-1.329,8.642,1.948,12.105,7.755" fill="#36ccc4"/>
              <path id="Path_332" data-name="Path 332" d="M524.594,223.552a.286.286,0,0,1-.261-.168,51.7,51.7,0,0,0-10.909-15.455.287.287,0,1,1,.4-.409,52.27,52.27,0,0,1,11.028,15.626.287.287,0,0,1-.143.38.273.273,0,0,1-.118.026" fill="#a7eae5"/>
              <path id="Path_333" data-name="Path 333" d="M534.109,242.231H522.238a2.721,2.721,0,0,1-2.669-2.189l-3.321-16.6a1.361,1.361,0,0,1,1.335-1.628h21.181a1.361,1.361,0,0,1,1.335,1.628l-3.32,16.6a2.723,2.723,0,0,1-2.67,2.189" fill="#f0f2f7"/>
              <rect id="Rectangle_68" data-name="Rectangle 68" width="21.282" height="21.282" transform="translate(464.191 226.25)" fill="#b3b3ff"/>
              <rect id="Rectangle_69" data-name="Rectangle 69" width="21.282" height="21.282" transform="translate(457.643 226.25)" fill="#ccf"/>
              <rect id="Rectangle_70" data-name="Rectangle 70" width="3.274" height="21.282" transform="translate(466.647 226.25)" fill="#b3b3ff"/>
              <rect id="Rectangle_71" data-name="Rectangle 71" width="21.282" height="3.274" transform="translate(457.643 235.254)" fill="#b3b3ff"/>
              <rect id="Rectangle_72" data-name="Rectangle 72" width="6.548" height="3.274" transform="translate(478.925 235.254)" fill="#a9a9ff"/>
              <rect id="Rectangle_73" data-name="Rectangle 73" width="21.282" height="21.282" transform="translate(479.351 204.968)" fill="#b3b3ff"/>
              <rect id="Rectangle_74" data-name="Rectangle 74" width="21.282" height="21.282" transform="translate(472.803 204.968)" fill="#ccf"/>
              <rect id="Rectangle_75" data-name="Rectangle 75" width="3.274" height="21.282" transform="translate(481.807 204.968)" fill="#b3b3ff"/>
              <rect id="Rectangle_76" data-name="Rectangle 76" width="21.282" height="3.274" transform="translate(472.803 213.972)" fill="#b3b3ff"/>
              <rect id="Rectangle_77" data-name="Rectangle 77" width="6.548" height="3.274" transform="translate(494.085 213.972)" fill="#a9a9ff"/>
              <rect id="Rectangle_78" data-name="Rectangle 78" width="21.282" height="21.282" transform="translate(490.202 226.25)" fill="#b3b3ff"/>
              <rect id="Rectangle_79" data-name="Rectangle 79" width="21.282" height="21.282" transform="translate(483.654 226.25)" fill="#ccf"/>
              <rect id="Rectangle_80" data-name="Rectangle 80" width="3.274" height="21.282" transform="translate(492.658 226.25)" fill="#b3b3ff"/>
              <rect id="Rectangle_81" data-name="Rectangle 81" width="21.282" height="3.274" transform="translate(483.654 235.254)" fill="#b3b3ff"/>
              <rect id="Rectangle_82" data-name="Rectangle 82" width="6.548" height="3.274" transform="translate(504.936 235.254)" fill="#a9a9ff"/>
              <path id="Path_334" data-name="Path 334" d="M417.149,270.009s.522-25.137,3.212-45.134v-31h10.28s-2.249,23.771-3.694,31l-6.264,45.134Z" fill="#efb600"/>
              <path id="Path_335" data-name="Path 335" d="M426.794,152.594s2.413,1.889,3.377,7.852H427.22Z" fill="#ed7caa"/>
              <path id="Path_336" data-name="Path 336" d="M430.172,160.446a59.578,59.578,0,0,0,1.324,10c1.025,3.734,6.987,19.515,8.553,22.044s3.735,4.4,3.313,4.939-2.048-.3-3.673-2.288a71.758,71.758,0,0,1-6.2-10.481,135.165,135.165,0,0,1-6.023-16.8,32.968,32.968,0,0,1-.241-7.409Z" fill="#feccc6"/>
              <path id="Path_337" data-name="Path 337" d="M423.627,131.354a7.933,7.933,0,0,0-6.181-3.14c-3.357,0-6.188,2.619-6.188,5.489,0,3.795,1.326,5.963-.3,9.1s-13.2,25.07,2.53,25.07c12.528,0,11.444-10.012,11.384-15.613s-2.168-7.891-3.253-11.685,2.009-9.216,2.009-9.216" fill="#481aa0"/>
              <path id="Path_338" data-name="Path 338" d="M416.86,159.061V142.076a6.585,6.585,0,0,1-1.747-4.458,4.715,4.715,0,0,1,4.819-4.939c2.891,0,3.855,2.229,3.674,5.722s-2.289,4.156-2.951,4.4c0,0-.8,4.4,2.6,6.988v9.275Z" fill="#feccc6"/>
              <path id="Path_339" data-name="Path 339" d="M423.627,137.5a5.645,5.645,0,0,1-3.394-3.132,8.106,8.106,0,0,1-3.373,4.776v2.934h-3.012V131.354h9.779s1.034,1.731,0,6.144" fill="#481aa0"/>
              <path id="Path_340" data-name="Path 340" d="M417.149,270.009v6.334h2.028V274.3s.964,1.837,5.3,1.837h4.159a.715.715,0,0,0,.531-1.2,1.039,1.039,0,0,0-.5-.278c-1.054-.271-2.68-1.958-4.336-1.958s-3.644-1.164-3.644-2.69Z" fill="#481aa0"/>
              <path id="Path_341" data-name="Path 341" d="M408.235,270.009s.522-25.137,3.212-45.134v-31h10.28s-2.249,23.771-3.694,31l-6.264,45.134Z" fill="#ffd13e"/>
              <path id="Path_342" data-name="Path 342" d="M408.235,270.009v6.334h2.028V274.3s.964,1.837,5.3,1.837h4.213a.69.69,0,0,0,.612-1.02.982.982,0,0,0-.639-.456c-1.054-.271-2.68-1.958-4.336-1.958s-3.644-1.164-3.644-2.69Z" fill="#481aa0"/>
              <path id="Path_343" data-name="Path 343" d="M411.447,193.875s5.381,1.767,8.914,1.767,8.031-1.767,10.28-1.767c0,0,.562-11.8-.562-18.07s-2.249-9.235-1.687-15.1-2.168-10.44-5.14-10.922a14.642,14.642,0,0,0-1.525,5.381s-2.731-5.461-6.024-5.381c0,0-7.87-.642-8.673,11.725v1.266l4.337.118.132-.972s.59-2.66,1.112-4.186a22.724,22.724,0,0,1,3.976,8.914c.8,4.819-.4,9.718-2.008,14.215s-3.132,6.987-3.132,13.01" fill="#ff92b9"/>
              <path id="Path_344" data-name="Path 344" d="M461,271.861a4.809,4.809,0,1,1-4.809-4.809A4.809,4.809,0,0,1,461,271.861" fill="#481aa0"/>
              <path id="Path_345" data-name="Path 345" d="M458.6,271.861a2.41,2.41,0,1,1-2.409-2.409,2.409,2.409,0,0,1,2.409,2.409" fill="#fff"/>
              <path id="Path_346" data-name="Path 346" d="M507.138,271.861a4.809,4.809,0,1,1-4.809-4.809,4.809,4.809,0,0,1,4.809,4.809" fill="#481aa0"/>
              <path id="Path_347" data-name="Path 347" d="M504.738,271.861a2.41,2.41,0,1,1-2.409-2.409,2.409,2.409,0,0,1,2.409,2.409" fill="#fff"/>
              <path id="Path_348" data-name="Path 348" d="M512.932,248.048H456.193a.324.324,0,0,1-.31-.228l-13.857-44.34,0-.007-1.573-5.035a11.653,11.653,0,0,0-11.171-8.212h-5.491a.326.326,0,0,1,0-.652h5.491a12.3,12.3,0,0,1,11.792,8.67l1.507,4.822L520.9,207.4a.325.325,0,0,1,.3.388l-7.951,39.994a.324.324,0,0,1-.319.262m-56.5-.651h56.232l7.825-39.364-77.7-4.3Z" fill="#481aa0"/>
              <path id="Path_349" data-name="Path 349" d="M504.936,253.71H456.194a.326.326,0,0,1-.326-.326v-5.662a.326.326,0,0,1,.652,0v5.337h48.416a.326.326,0,1,1,0,.651" fill="#481aa0"/>
              <path id="Path_350" data-name="Path 350" d="M511.366,266.961H448a.326.326,0,0,1-.326-.326v-5.059a8.527,8.527,0,0,1,8.518-8.517.326.326,0,0,1,0,.651,7.875,7.875,0,0,0-7.866,7.866v4.734h63.038a.326.326,0,1,1,0,.651" fill="#481aa0"/>
              <path id="Path_351" data-name="Path 351" d="M432.221,192.108H421.058a1.727,1.727,0,1,1,0-3.453h11.163a1.727,1.727,0,1,1,0,3.453" fill="#b3b3ff"/>
              <path id="Path_352" data-name="Path 352" d="M463.233,248.048a.326.326,0,0,1-.324-.292l-4.462-43.435a.326.326,0,0,1,.648-.067l4.462,43.435a.325.325,0,0,1-.29.357l-.034,0" fill="#481aa0"/>
              <path id="Path_353" data-name="Path 353" d="M473.69,248.048a.325.325,0,0,1-.325-.309l-2.2-42.731a.326.326,0,0,1,.309-.342.335.335,0,0,1,.342.309l2.2,42.73a.327.327,0,0,1-.309.343h-.017" fill="#481aa0"/>
              <path id="Path_354" data-name="Path 354" d="M484.141,248.048a.326.326,0,0,1-.326-.326V205.7a.326.326,0,1,1,.652,0v42.027a.326.326,0,0,1-.326.326" fill="#481aa0"/>
              <path id="Path_355" data-name="Path 355" d="M494.593,248.048h-.017a.327.327,0,0,1-.309-.343l2.125-41.333a.326.326,0,0,1,.651.033l-2.125,41.334a.326.326,0,0,1-.325.309" fill="#481aa0"/>
              <path id="Path_356" data-name="Path 356" d="M505.049,248.048l-.034,0a.325.325,0,0,1-.29-.357l4.177-40.64a.326.326,0,1,1,.649.067l-4.178,40.64a.326.326,0,0,1-.324.292" fill="#481aa0"/>
              <path id="Path_357" data-name="Path 357" d="M519.375,215.643h-73.31a.326.326,0,0,1,0-.651h73.31a.326.326,0,1,1,0,.651" fill="#481aa0"/>
              <path id="Path_358" data-name="Path 358" d="M517.173,226.726H449.53a.326.326,0,1,1,0-.651h67.643a.326.326,0,1,1,0,.651" fill="#481aa0"/>
              <path id="Path_359" data-name="Path 359" d="M514.966,237.809H452.995a.326.326,0,1,1,0-.651h61.971a.326.326,0,1,1,0,.651" fill="#481aa0"/>
              <path id="Path_360" data-name="Path 360" d="M407.03,161.51v15.5c0,1.607,15.211,8.513,16.5,10.442a4.311,4.311,0,0,1,.883,3.532,2.192,2.192,0,0,0,1.847,2.089c.964,0,1.606-1.124,1.606-2.168s-.488-3.96-1.934-4.644a48.647,48.647,0,0,1-6.177-4.23c-1.526-1.205-8.031-6.151-9.115-6.995a112.117,112.117,0,0,1,.863-13.113,5.627,5.627,0,0,1-2.4.333,3.537,3.537,0,0,1-2.068-.745" fill="#feccc6"/>
              <rect id="Rectangle_83" data-name="Rectangle 83" width="21.282" height="21.282" transform="translate(147.68 224.865)" fill="#b3b3ff"/>
              <rect id="Rectangle_84" data-name="Rectangle 84" width="21.282" height="21.282" transform="translate(141.131 224.865)" fill="#ccf"/>
              <rect id="Rectangle_85" data-name="Rectangle 85" width="3.274" height="21.282" transform="translate(150.135 224.865)" fill="#b3b3ff"/>
              <rect id="Rectangle_86" data-name="Rectangle 86" width="21.282" height="3.274" transform="translate(141.131 233.869)" fill="#b3b3ff"/>
              <rect id="Rectangle_87" data-name="Rectangle 87" width="6.548" height="3.274" transform="translate(162.414 233.869)" fill="#a9a9ff"/>
              <path id="Path_361" data-name="Path 361" d="M175.935,270.477a4.809,4.809,0,1,0,4.809-4.809,4.809,4.809,0,0,0-4.809,4.809" fill="#481aa0"/>
              <path id="Path_362" data-name="Path 362" d="M178.334,270.477a2.41,2.41,0,1,0,2.409-2.409,2.409,2.409,0,0,0-2.409,2.409" fill="#fff"/>
              <path id="Path_363" data-name="Path 363" d="M129.8,270.477a4.809,4.809,0,1,0,4.809-4.809,4.809,4.809,0,0,0-4.809,4.809" fill="#481aa0"/>
              <path id="Path_364" data-name="Path 364" d="M132.2,270.477a2.41,2.41,0,1,0,2.409-2.409,2.409,2.409,0,0,0-2.409,2.409" fill="#fff"/>
              <path id="Path_365" data-name="Path 365" d="M180.743,246.663H124a.326.326,0,0,1-.32-.262l-7.95-39.994a.325.325,0,0,1,.3-.388l78.321-4.338,1.507-4.822a12.3,12.3,0,0,1,11.793-8.67h5.491a.326.326,0,1,1,0,.652h-5.491a11.653,11.653,0,0,0-11.171,8.212l-1.573,5.036,0,0-13.857,44.342a.324.324,0,0,1-.311.228m-56.471-.651H180.5l13.646-43.667-77.7,4.3Z" fill="#481aa0"/>
              <path id="Path_366" data-name="Path 366" d="M180.743,252.325H132a.326.326,0,1,1,0-.651h48.416v-5.336a.326.326,0,1,1,.652,0V252a.326.326,0,0,1-.326.326" fill="#481aa0"/>
              <path id="Path_367" data-name="Path 367" d="M188.935,265.576H125.571a.326.326,0,1,1,0-.651h63.038v-4.734a7.874,7.874,0,0,0-7.865-7.866.326.326,0,1,1,0-.652,8.527,8.527,0,0,1,8.517,8.518v5.059a.326.326,0,0,1-.326.326" fill="#481aa0"/>
              <path id="Path_368" data-name="Path 368" d="M204.716,190.723h11.163a1.727,1.727,0,1,0,0-3.453H204.716a1.727,1.727,0,1,0,0,3.453" fill="#b3b3ff"/>
              <path id="Path_369" data-name="Path 369" d="M173.7,246.663l-.033,0a.325.325,0,0,1-.291-.357l4.461-43.435a.33.33,0,0,1,.358-.29.326.326,0,0,1,.291.357l-4.462,43.434a.326.326,0,0,1-.324.293" fill="#481aa0"/>
              <path id="Path_370" data-name="Path 370" d="M163.248,246.663h-.017a.327.327,0,0,1-.309-.343l2.2-42.73a.331.331,0,0,1,.341-.309.326.326,0,0,1,.309.342l-2.2,42.731a.326.326,0,0,1-.325.309" fill="#481aa0"/>
              <path id="Path_371" data-name="Path 371" d="M152.8,246.663a.326.326,0,0,1-.326-.326V204.31a.326.326,0,1,1,.652,0v42.027a.326.326,0,0,1-.326.326" fill="#481aa0"/>
              <path id="Path_372" data-name="Path 372" d="M142.344,246.663a.326.326,0,0,1-.325-.309l-2.125-41.334a.326.326,0,0,1,.309-.342.333.333,0,0,1,.342.309l2.125,41.333a.327.327,0,0,1-.309.343h-.017" fill="#481aa0"/>
              <path id="Path_373" data-name="Path 373" d="M131.888,246.663a.326.326,0,0,1-.324-.293l-4.178-40.639a.326.326,0,0,1,.649-.067l4.177,40.64a.325.325,0,0,1-.291.357l-.033,0" fill="#481aa0"/>
              <path id="Path_374" data-name="Path 374" d="M190.872,214.258h-73.31a.326.326,0,0,1,0-.651h73.31a.326.326,0,1,1,0,.651" fill="#481aa0"/>
              <path id="Path_375" data-name="Path 375" d="M187.408,225.341H119.765a.326.326,0,1,1,0-.651h67.643a.326.326,0,0,1,0,.651" fill="#481aa0"/>
              <path id="Path_376" data-name="Path 376" d="M183.943,236.424H121.971a.326.326,0,0,1,0-.651h61.972a.326.326,0,1,1,0,.651" fill="#481aa0"/>
              <path id="Path_377" data-name="Path 377" d="M251.638,207.831l1.254-4.886-4.8-3.108-1.291,5.728Z" fill="#feccc6"/>
              <path id="Path_378" data-name="Path 378" d="M248.346,202.894l3.292,4.938s-5.237,20.385-5.237,29.214-1.661,30.49-1.661,30.49h-5.372l-3.806-51.175-8.411,52.074H222.33V202.894Z" fill="#ffd13e"/>
              <path id="Path_379" data-name="Path 379" d="M239.368,267.458v2.563a2.124,2.124,0,0,0,.812,1.673c1.4,1.1,4.377,3.245,6.946,3.8,3.5.756,4.827-1.574,2.98-3.085s-5.366-2.512-5.366-4.95Z" fill="#481aa0"/>
              <path id="Path_380" data-name="Path 380" d="M227.144,268.434h-4.793a28.14,28.14,0,0,0-.557,4.618c0,1.938.44,3.618,2.514,3.618s3.43-1.776,3.3-4.118a34.929,34.929,0,0,0-.465-4.118" fill="#481aa0"/>
              <path id="Path_381" data-name="Path 381" d="M241.747,149.024a18.081,18.081,0,0,1-1.959-7.465h-6.455s-.161,5.567-1.064,7.465Z" fill="#feccc6"/>
              <path id="Path_382" data-name="Path 382" d="M222.331,159.41V202.9a85.169,85.169,0,0,0,13.588.968,62.15,62.15,0,0,0,12.427-.968l.188-1.946,4.193,2.843,1.935-9.934a46.16,46.16,0,0,0,.255-10.388l-1.633-18.37a19.229,19.229,0,0,0-9.727-15.056l-.268-.151-1.439-.81-.1-.058h-9.478l-1.475.6-2.585,1.052a9.424,9.424,0,0,0-5.877,8.733" fill="#806eff"/>
              <path id="Path_383" data-name="Path 383" d="M222.33,159.409l-2.663,18.514-8.036,7.654,3.421,2.938,7.278-5Z" fill="#806eff"/>
              <path id="Path_384" data-name="Path 384" d="M252.727,203.954a.162.162,0,0,1-.091-.028l-4.2-2.843a.164.164,0,0,1-.071-.135V190.08a17.735,17.735,0,0,0-.733-5.045,33.8,33.8,0,0,1-1.4-9.63V161.743a.162.162,0,1,1,.325,0V175.4a33.474,33.474,0,0,0,1.386,9.537,18.022,18.022,0,0,1,.747,5.138v10.782l4.122,2.794a.163.163,0,0,1-.091.3" fill="#481aa0"/>
              <path id="Path_385" data-name="Path 385" d="M231.672,136.822s-2.988-2.857-2.141-4.112,4.047-.408,4.047-.408a6.031,6.031,0,0,1,6.181-1.129c3.546,1.412,4.948,3.4,4.215,7.834h-7.2Z" fill="#481aa0"/>
              <path id="Path_386" data-name="Path 386" d="M231.791,142.6c.346,2.829,1.3,5.47,3.775,5.47,4.225,0,5.731-5.608,5.731-5.608.858,1.152,1.945-.354,2.239-1s.856-1.883.439-2.447a1.038,1.038,0,0,0-1-.44,22.916,22.916,0,0,0-1.893-1.664,8.093,8.093,0,0,0-1.915-1.18c-1.548-.585-7.447-1.714-7.53,1.464a36.836,36.836,0,0,0,.158,5.409" fill="#feccc6"/>
              <path id="Path_387" data-name="Path 387" d="M231.791,142.6c.346,2.829,1.3,5.47,3.775,5.47,4.225,0,5.731-5.608,5.731-5.608a2.392,2.392,0,0,1,0-1.935,3.628,3.628,0,0,1,1.674-1.956l-1.8-2.844s-.025.462-.093,1.18c-.065.673-.163,1.569-.313,2.523a7.88,7.88,0,0,1-1.757,4.141c-.819.942-1.629.128-2.125-.753-.648-1.15-1.706-1.036-2.991-.941a5.478,5.478,0,0,0-2.1.723" fill="#481aa0"/>
              <path id="Path_388" data-name="Path 388" d="M230.793,149.624a6.292,6.292,0,0,0,12.5.268l-1.439-.81-.1-.058h-9.478Z" fill="#fff"/>
              <path id="Path_389" data-name="Path 389" d="M232.268,149.024a4.791,4.791,0,0,0,9.582.058l-.1-.058Z" fill="#feccc6"/>
              <path id="Path_390" data-name="Path 390" d="M222.331,183.678a.163.163,0,0,1-.163-.163V159.409a.163.163,0,0,1,.326,0v24.106a.163.163,0,0,1-.163.163" fill="#481aa0"/>
              <path id="Path_391" data-name="Path 391" d="M251.638,207.994a.163.163,0,0,1-.136-.073l-3.233-4.849a83.1,83.1,0,0,1-25.966-.018.163.163,0,1,1,.057-.32,82.715,82.715,0,0,0,25.956,0,.167.167,0,0,1,.166.07l3.291,4.938a.162.162,0,0,1-.135.253" fill="#481aa0"/>
              <path id="Path_392" data-name="Path 392" d="M211.631,185.577s-3.681,2.716-2.471,4.9,4.2.215,4.2.215a1.557,1.557,0,0,1,.363-1.062,6.008,6.008,0,0,1,1.333-1.11Z" fill="#feccc6"/>
              <path id="Path_393" data-name="Path 393" d="M215.052,188.678a.164.164,0,0,1-.106-.039l-3.421-2.938a.163.163,0,0,1,.212-.247l3.421,2.938a.162.162,0,0,1,.017.229.159.159,0,0,1-.123.057" fill="#481aa0"/>
              <path id="Path_394" data-name="Path 394" d="M235.563,216.524h-.019a.164.164,0,0,1-.143-.181l.787-6.725a.163.163,0,1,1,.324.038l-.787,6.725a.164.164,0,0,1-.162.144" fill="#481aa0"/>
              <path id="Path_395" data-name="Path 395" d="M222.33,210.16a.166.166,0,0,1-.09-.027.164.164,0,0,1-.046-.226,14.724,14.724,0,0,0,2.034-5.4.163.163,0,1,1,.323.042,15.092,15.092,0,0,1-2.085,5.535.163.163,0,0,1-.136.073" fill="#481aa0"/>
            </g>
          </g>
        </g>
        <path id="Path_396" data-name="Path 396" d="M.23,182.768s44.18,14.718,48.8-57.018,4.616-90.421,36.923-78.77S125.245.013,125.245.013H10.23S-1.8-1.063.23,16.167s0,166.6,0,166.6" fill="#f4f4f4"/>
        <path id="Path_397" data-name="Path 397" d="M538.485,300.013s68.079-9.5,47.771-107.9,41.539-36.02,37.846-86.134S660.23,73.452,660.23,73.452V283.859s2.384,16.154-10,16.154Z" fill="#f4f4f4"/>
      </g>
    </g>
  </g>
</svg>
