<svg xmlns="http://www.w3.org/2000/svg" width="20.872" height="20" viewBox="0 0 20.872 20">
  <path id="Star_1" d="M-.1,7.7a1.114,1.114,0,0,1,.728-.835,6.025,6.025,0,0,1,.986-.139q2.565-.239,5.13-.462a.28.28,0,0,0,.266-.2Q8.138,3.418,9.273.769a1.152,1.152,0,0,1,.761-.732,1.1,1.1,0,0,1,1.342.675Q12.143,2.5,12.9,4.284c.258.6.516,1.195.765,1.8a.253.253,0,0,0,.233.18c1.256.11,2.516.221,3.772.335.691.061,1.379.127,2.07.192a1.052,1.052,0,0,1,.966.753,1.072,1.072,0,0,1-.352,1.211q-2.166,1.9-4.337,3.8a.347.347,0,0,0-.139.393c.434,1.87.855,3.739,1.281,5.613a1.091,1.091,0,0,1-.413,1.211,1.08,1.08,0,0,1-1.281.025c-1.649-.986-3.3-1.968-4.942-2.962a.313.313,0,0,0-.38,0q-2.461,1.479-4.926,2.95a1.116,1.116,0,0,1-1.722-1.2c.425-1.87.847-3.744,1.281-5.613a.375.375,0,0,0-.139-.43Q2.477,10.662.33,8.772A1.565,1.565,0,0,1-.1,8.1C-.1,7.966-.1,7.831-.1,7.7Z" transform="translate(0.1 0.009)" fill="#d6d6d6"/>
</svg>
