<svg id="Group_3109" data-name="Group 3109" xmlns="http://www.w3.org/2000/svg" xmlns:xlink="http://www.w3.org/1999/xlink" width="17.301" height="17.334" viewBox="0 0 17.301 17.334">
  <defs>
    <clipPath id="clip-path">
      <rect id="Rectangle_369" data-name="Rectangle 369" width="17.301" height="17.334" fill="#8b8b8b"/>
    </clipPath>
  </defs>
  <g id="Group_3108" data-name="Group 3108" clip-path="url(#clip-path)">
    <path id="Path_157" data-name="Path 157" d="M87.929,0a1.911,1.911,0,0,1,.829.58q1.758,1.77,3.523,3.533a1.093,1.093,0,0,1,.132,1.472,1.079,1.079,0,0,1-1.635.085c-.605-.6-1.2-1.2-1.8-1.807a1.521,1.521,0,0,1-.115-.146l-.05.021v.191q0,4.037,0,8.074a1.081,1.081,0,1,1-2.16.086c-.007-.276,0-.553,0-.829q0-3.665,0-7.329V3.714c-.065.06-.11.1-.151.138-.606.606-1.206,1.217-1.818,1.818a1.076,1.076,0,0,1-1.828-.494,1.04,1.04,0,0,1,.278-1.014c.191-.2.389-.392.584-.588q1.5-1.5,3-3.006A1.92,1.92,0,0,1,87.524,0Z" transform="translate(-79.075)" fill="#8b8b8b"/>
    <path id="Path_158" data-name="Path 158" d="M0,336.851c.021-.051.043-.1.062-.152a1.072,1.072,0,0,1,1-.726c.349-.005.7,0,1.047,0H16.145a1.085,1.085,0,0,1,.373,2.126c-.043.013-.085.027-.127.041H.912a1.143,1.143,0,0,1-.7-.45,3.872,3.872,0,0,1-.21-.431v-.406" transform="translate(0 -320.803)" fill="#8b8b8b"/>
  </g>
</svg>
