<svg xmlns="http://www.w3.org/2000/svg" width="50" height="50" viewBox="0 0 50 50">
  <g id="Solid" transform="translate(-24 -23.999)">
    <path id="Path_70" data-name="Path 70" d="M145.905,38.167l5.338-5.338V61.068a2.586,2.586,0,0,0,5.172,0V32.829l5.338,5.338a2.586,2.586,0,1,0,3.657-3.657l-9.753-9.753a2.586,2.586,0,0,0-3.658,0l-9.753,9.753a2.586,2.586,0,0,0,3.657,3.657Z" transform="translate(-104.83)" fill="#b9b9b9"/>
    <path id="Path_71" data-name="Path 71" d="M71.414,232a2.586,2.586,0,0,0-2.586,2.586v19.828H29.172V234.586a2.586,2.586,0,0,0-5.172,0v20.69a4.31,4.31,0,0,0,4.31,4.31H69.69a4.31,4.31,0,0,0,4.31-4.31v-20.69A2.586,2.586,0,0,0,71.414,232Z" transform="translate(0 -185.587)" fill="#b9b9b9"/>
  </g>
</svg>
