<svg xmlns="http://www.w3.org/2000/svg" width="12.769" height="15.305" viewBox="0 0 12.769 15.305">
  <g id="user" transform="translate(0 0)">
    <path id="Path_51" data-name="Path 51" d="M90.718,7.373a3.567,3.567,0,0,0,2.606-1.08A3.567,3.567,0,0,0,94.4,3.686a3.567,3.567,0,0,0-1.08-2.606,3.685,3.685,0,0,0-5.213,0,3.567,3.567,0,0,0-1.08,2.606,3.567,3.567,0,0,0,1.08,2.606A3.568,3.568,0,0,0,90.718,7.373Zm0,0" transform="translate(-84.43 0)" fill="#039ce0"/>
    <path id="Path_52" data-name="Path 52" d="M12.738,251.692a9.106,9.106,0,0,0-.124-.967,7.619,7.619,0,0,0-.238-.972,4.8,4.8,0,0,0-.4-.907,3.422,3.422,0,0,0-.6-.786,2.657,2.657,0,0,0-.866-.544,2.992,2.992,0,0,0-1.105-.2,1.122,1.122,0,0,0-.6.254c-.18.117-.39.253-.624.4a3.576,3.576,0,0,1-.808.356,3.136,3.136,0,0,1-1.975,0,3.569,3.569,0,0,1-.807-.356c-.232-.148-.442-.284-.625-.4a1.12,1.12,0,0,0-.6-.254,2.988,2.988,0,0,0-1.105.2,2.655,2.655,0,0,0-.866.544,3.422,3.422,0,0,0-.6.785,4.812,4.812,0,0,0-.4.907,7.637,7.637,0,0,0-.238.972,9.073,9.073,0,0,0-.124.967c-.02.293-.031.6-.031.9a2.541,2.541,0,0,0,.755,1.923,2.717,2.717,0,0,0,1.945.709h7.369a2.717,2.717,0,0,0,1.945-.709,2.54,2.54,0,0,0,.755-1.923c0-.308-.011-.613-.031-.9Zm0,0" transform="translate(0 -239.923)" fill="#039ce0"/>
  </g>
</svg>
