<?xml version="1.0" standalone="no"?>
<!DOCTYPE svg PUBLIC "-//W3C//DTD SVG 1.1//EN" "http://www.w3.org/Graphics/SVG/1.1/DTD/svg11.dtd" >
<svg xmlns="http://www.w3.org/2000/svg" xmlns:xlink="http://www.w3.org/1999/xlink" version="1.1">
<metadata>
Created by FontForge 20170731 at Thu Oct 14 08:25:26 2021
 By Aleksey,,,
Copyright (c) Mark Simonson, 2005. All rights reserved.
</metadata>
<defs>
<font id="ProximaNovaACond-BoldIt" horiz-adv-x="1026" >
  <font-face 
    font-family="Proxima Nova Alt Cn Rg"
    font-weight="700"
    font-style="italic"
    font-stretch="normal"
    units-per-em="2048"
    panose-1="2 0 5 6 3 0 0 2 0 4"
    ascent="1618"
    descent="-430"
    x-height="989"
    cap-height="1366"
    bbox="-387 -408 1954 1817"
    underline-thickness="40"
    underline-position="-312"
    unicode-range="U+000D-FB02"
  />
<missing-glyph horiz-adv-x="960" 
d="M881 -184h-719v1724h719v-1724zM815 -123v1602h-590v-1602h590z" />
    <glyph glyph-name="fi" unicode="fi" horiz-adv-x="1056" 
d="M291 0h-246l172 774h-127l47 215h125l17 68q71 329 333 329q109 0 185 -43l-84 -186q-27 21 -70 21q-94 0 -119 -121l-14 -68h162l-47 -215h-162zM969 1100q-58 0 -95.5 37t-37.5 90q0 77 52.5 123.5t115.5 46.5q56 0 94.5 -37.5t38.5 -89.5q0 -77 -52.5 -123.5
t-115.5 -46.5zM834 0h-246l219 989h246z" />
    <glyph glyph-name="fl" unicode="fl" horiz-adv-x="1132" 
d="M291 0h-246l172 774h-127l47 215h125l17 68q71 329 333 329q109 0 185 -43l-84 -186q-27 21 -70 21q-94 0 -119 -121l-14 -68h162l-47 -215h-162zM895 -25q-123 0 -192.5 49t-69.5 142q0 43 8 84l248 1116h246l-234 -1063q-6 -18 -6 -43q0 -32 21 -49.5t55 -17.5
q39 0 61 22l6 -201q-49 -39 -143 -39z" />
    <glyph glyph-name=".notdef" horiz-adv-x="960" 
d="M881 -184h-719v1724h719v-1724zM815 -123v1602h-590v-1602h590z" />
    <glyph glyph-name=".null" horiz-adv-x="0" 
 />
    <glyph glyph-name="nonmarkingreturn" horiz-adv-x="682" 
 />
    <glyph glyph-name="NUL" horiz-adv-x="0" 
 />
    <glyph glyph-name="NUL" horiz-adv-x="0" 
 />
    <glyph glyph-name="CR" unicode="&#xd;" horiz-adv-x="0" 
 />
    <glyph glyph-name="space" unicode=" " horiz-adv-x="428" 
 />
    <glyph glyph-name="exclam" unicode="!" horiz-adv-x="516" 
d="M350 436h-215l164 930h299zM162 -23q-60 0 -103 43t-43 103q0 70 51.5 121t122.5 51q60 0 102 -43t42 -105q0 -70 -50.5 -120t-121.5 -50z" />
    <glyph glyph-name="quotedbl" unicode="&#x22;" horiz-adv-x="815" 
d="M340 778h-107q19 416 21 451q1 67 46 112t110 45q48 0 83 -34.5t35 -85.5q0 -25 -14 -60zM702 778h-106q20 416 20 451q1 67 46 112t110 45q48 0 83.5 -34.5t35.5 -85.5q0 -25 -14 -60z" />
    <glyph glyph-name="numbersign" unicode="#" horiz-adv-x="1099" 
d="M508 0h-182l178 350h-162l-176 -350h-184l178 350h-160l78 158h162l174 348h-162l76 158h166l176 352h184l-176 -352h160l176 352h182l-176 -352h160l-74 -158h-166l-176 -348h168l-78 -158h-170zM582 508l176 348h-162l-174 -348h160z" />
    <glyph glyph-name="dollar" unicode="$" horiz-adv-x="1032" 
d="M281 -205l43 197q-109 22 -197 71.5t-139 118.5l164 203q77 -112 225 -152l80 355q-48 28 -81 49t-73 55.5t-64.5 68.5t-41.5 81.5t-17 101.5q0 175 128.5 305.5t326.5 139.5l41 184h184l-45 -203q175 -43 277 -160l-160 -200q-67 82 -172 114l-72 -327q47 -27 79.5 -49
t72 -56.5t64 -69t41 -82t16.5 -100.5q0 -186 -125.5 -320t-331.5 -143l-39 -182h-184zM672 389q0 57 -80 117l-64 -283q67 12 105.5 58t38.5 108zM471 995q0 -58 80 -114l59 262q-62 -9 -100.5 -51t-38.5 -97z" />
    <glyph glyph-name="percent" unicode="%" horiz-adv-x="1376" 
d="M283 0h-129l1024 1366h129zM946 -25q-122 0 -200 75.5t-78 195.5q0 174 104 291.5t244 117.5q122 0 200 -75t78 -195q0 -174 -103.5 -292t-244.5 -118zM956 127q65 0 116.5 71.5t51.5 172.5q0 62 -31 97.5t-85 35.5q-66 0 -118 -71t-52 -173q0 -62 31.5 -97.5t86.5 -35.5
zM440 707q-123 0 -201.5 75t-78.5 195q0 174 104 291.5t244 117.5q123 0 201.5 -75t78.5 -195q0 -173 -104 -291t-244 -118zM449 858q65 0 117 71.5t52 172.5q0 61 -32 97t-86 36q-66 0 -118 -71t-52 -173q0 -61 32.5 -97t86.5 -36z" />
    <glyph glyph-name="ampersand" unicode="&#x26;" horiz-adv-x="1126" 
d="M983 0h-270q-7 13 -22 38.5t-19 33.5q-151 -97 -297 -97q-163 0 -264 85t-101 245q0 76 20 141.5t51 112.5t79.5 89.5t94.5 71t107 58.5q-28 112 -28 207q0 167 110.5 284t264.5 117q129 0 213 -69.5t84 -196.5q0 -37 -7.5 -71.5t-18 -62t-31.5 -55t-38.5 -47
t-48.5 -42.5t-52.5 -37t-59.5 -34.5t-60 -31t-63 -30.5q13 -33 59 -136q39 -89 70 -155q87 119 151 248l176 -109q-113 -194 -231 -326q63 -117 131 -231zM424 170q74 0 160 63q-70 132 -92 191q-1 2 -72 172q-150 -104 -150 -256q0 -77 43.5 -123.5t110.5 -46.5zM565 981
q0 -46 10 -104q105 51 159 103t54 128q0 51 -23.5 75.5t-62.5 24.5q-53 0 -95 -66.5t-42 -160.5z" />
    <glyph glyph-name="quotesingle" unicode="'" horiz-adv-x="454" 
d="M340 778h-107q19 416 21 451q1 67 46 112t110 45q48 0 83 -34.5t35 -85.5q0 -25 -14 -60z" />
    <glyph glyph-name="parenleft" unicode="(" horiz-adv-x="569" 
d="M350 -326l-184 -82q-57 114 -88 260.5t-31 297.5q0 344 135.5 665.5t380.5 587.5l146 -115q-190 -269 -298 -591.5t-108 -643.5q0 -78 13.5 -186t33.5 -193z" />
    <glyph glyph-name="parenright" unicode=")" horiz-adv-x="569" 
d="M217 1321l186 82q56 -114 86.5 -260t30.5 -297q0 -345 -135.5 -666.5t-380.5 -587.5l-145 115q190 269 297.5 591.5t107.5 643.5q0 78 -13.5 186t-33.5 193z" />
    <glyph glyph-name="asterisk" unicode="*" horiz-adv-x="690" 
d="M463 756h-127l63 233l-219 -98l-35 113l222 79l-177 123l86 99l162 -140l39 221h127l-65 -233l219 100l37 -112l-222 -80l177 -123l-88 -98l-162 139z" />
    <glyph glyph-name="plus" unicode="+" horiz-adv-x="909" 
d="M874 614h-311l-80 -358h-168l80 358h-311l35 154h309l76 342h170l-76 -342h309z" />
    <glyph glyph-name="comma" unicode="," horiz-adv-x="518" 
d="M344 133q0 -112 -84 -224t-209 -173l-88 92q61 27 118 74.5t79 97.5q-4 -2 -21 -2q-52 0 -86.5 34t-34.5 93q0 69 53.5 119.5t121.5 50.5q62 0 106.5 -43t44.5 -119z" />
    <glyph glyph-name="hyphen" unicode="-" horiz-adv-x="555" 
d="M469 391h-432l45 209h432z" />
    <glyph glyph-name="period" unicode="." horiz-adv-x="516" 
d="M162 -23q-60 0 -102 43t-42 103q0 70 52 121t123 51q60 0 101.5 -43t41.5 -105q0 -70 -51.5 -120t-122.5 -50z" />
    <glyph glyph-name="slash" unicode="/" horiz-adv-x="569" 
d="M59 -41h-182l713 1448h184z" />
    <glyph glyph-name="zero" unicode="0" horiz-adv-x="1105" 
d="M487 -25q-188 0 -298.5 130t-110.5 366q0 165 46 328.5t125.5 294t197 211.5t249.5 81q188 0 299 -129t111 -364q0 -131 -29 -264t-84.5 -249.5t-129.5 -207.5t-172 -144t-204 -53zM514 219q70 0 133 77t102.5 189t62 230t22.5 209q0 219 -164 219q-70 0 -133 -76.5
t-102.5 -188.5t-62 -229.5t-22.5 -208.5q0 -221 164 -221z" />
    <glyph glyph-name="one" unicode="1" horiz-adv-x="776" 
d="M545 0h-275l224 1012l-252 -213l-123 166l489 401h238z" />
    <glyph glyph-name="two" unicode="2" horiz-adv-x="1073" 
d="M874 0h-894l59 266q380 282 461 347q207 164 269 265q38 62 38 119q0 67 -53 107.5t-140 40.5q-159 0 -284 -125l-125 186q83 84 196.5 132t237.5 48q127 0 229 -40.5t164 -124.5t62 -199q0 -76 -30 -151.5t-79 -142.5t-138.5 -151t-179.5 -156.5t-231 -178.5h490z" />
    <glyph glyph-name="three" unicode="3" horiz-adv-x="1054" 
d="M481 -25q-170 0 -311.5 75t-196.5 206l203 152q41 -89 125 -139t178 -50q102 0 158.5 64t56.5 153q0 65 -50.5 101t-147.5 36q-99 0 -119 -2l55 246q18 -2 148 -2q102 0 162.5 52.5t60.5 136.5q0 66 -56 102.5t-155 36.5q-70 0 -139.5 -29t-124.5 -82l-123 174
q80 82 190 131t234 49q205 0 330.5 -87t125.5 -242q0 -139 -102 -242t-235 -123q102 -29 158.5 -102.5t56.5 -177.5q0 -183 -140 -310t-342 -127z" />
    <glyph glyph-name="four" unicode="4" horiz-adv-x="1056" 
d="M764 0h-275l64 291h-557l55 252l651 823h363l-184 -834h139l-53 -241h-140zM606 532l123 551l-434 -551h311z" />
    <glyph glyph-name="five" unicode="5" horiz-adv-x="1085" 
d="M498 -25q-175 0 -297 70.5t-187 198.5l205 155q40 -86 113 -133t168 -47q100 0 166.5 79.5t66.5 186.5q0 76 -51.5 120t-140.5 44q-64 0 -113 -21t-100 -67l-183 72l162 733h823l-53 -242h-547l-75 -340q93 90 237 90t237 -94.5t93 -259.5q0 -107 -38 -206t-105 -174
t-166.5 -120t-214.5 -45z" />
    <glyph glyph-name="six" unicode="6" horiz-adv-x="1081" 
d="M514 -25q-212 0 -328 127.5t-116 354.5q0 83 13 171.5t41 179.5t67.5 175t95.5 157.5t122.5 128t152 86t179.5 31.5q126 0 224.5 -48.5t158.5 -135.5l-174 -188q-31 61 -89.5 95t-135.5 34q-60 0 -115 -31.5t-96.5 -85t-72 -116t-50.5 -132.5q-12 -33 -14 -53
q52 67 134 110.5t171 43.5q149 0 245.5 -92t96.5 -248q0 -106 -38 -207.5t-104 -180.5t-162.5 -127.5t-205.5 -48.5zM516 219q95 0 159 89t64 188q0 71 -51.5 116t-134.5 45q-112 0 -209 -127q-8 -50 -8 -104q0 -95 48.5 -151t131.5 -56z" />
    <glyph glyph-name="seven" unicode="7" horiz-adv-x="962" 
d="M387 0h-307l661 1124h-561l53 242h881l-41 -190z" />
    <glyph glyph-name="eight" unicode="8" horiz-adv-x="1077" 
d="M494 -25q-82 0 -153 12t-130.5 38.5t-101.5 65.5t-65.5 95.5t-23.5 126.5q0 136 93 250.5t262 165.5q-78 37 -130 109.5t-52 160.5q0 90 41.5 164.5t109 122.5t151.5 74t173 26q86 0 164.5 -19t144 -56.5t104.5 -102.5t39 -149q0 -139 -93 -241.5t-239 -135.5
q90 -49 144.5 -128.5t54.5 -172.5q0 -119 -66.5 -212.5t-178.5 -143.5t-248 -50zM604 801q100 16 162.5 69t62.5 140q0 60 -48.5 96.5t-125.5 36.5q-80 0 -136 -53t-56 -132q0 -52 43.5 -94.5t97.5 -62.5zM498 219q85 0 150 58t65 145q0 64 -48.5 111t-105.5 63
q-105 -14 -177.5 -75.5t-72.5 -153.5q0 -72 51.5 -110t137.5 -38z" />
    <glyph glyph-name="nine" unicode="9" horiz-adv-x="1081" 
d="M647 1389q211 0 327 -127.5t116 -354.5q0 -97 -18.5 -201.5t-54.5 -209t-93.5 -197.5t-129.5 -165.5t-169.5 -114.5t-206.5 -42q-125 0 -224 49t-159 136l176 188q31 -61 89.5 -95t133.5 -34q61 0 116 31.5t96 85t71.5 116t50.5 132.5q10 28 16 53q-53 -68 -135.5 -111
t-171.5 -43q-149 0 -245.5 92t-96.5 248q0 106 38 207.5t104.5 180.5t163.5 127.5t206 48.5zM643 1145q-95 0 -158 -89t-63 -188q0 -71 50.5 -116t133.5 -45q116 0 209 127q8 33 8 104q0 96 -48 151.5t-132 55.5z" />
    <glyph glyph-name="colon" unicode=":" horiz-adv-x="505" 
d="M164 -23q-61 0 -103.5 43t-42.5 103q0 70 52 121t123 51q60 0 101.5 -43t41.5 -105q0 -70 -51 -120t-121 -50zM319 686q-60 0 -101.5 42.5t-41.5 102.5q0 71 51 122t121 51q60 0 102 -43t42 -103q0 -70 -51 -121t-122 -51z" />
    <glyph glyph-name="semicolon" unicode=";" horiz-adv-x="516" 
d="M344 133q0 -112 -84 -224t-209 -173l-88 92q61 27 118 74.5t79 97.5q-4 -2 -21 -2q-52 0 -86.5 34t-34.5 93q0 69 53.5 119.5t121.5 50.5q62 0 106.5 -43t44.5 -119zM319 686q-60 0 -101.5 42.5t-41.5 102.5q0 71 51 122t121 51q60 0 102 -43t42 -103q0 -70 -51 -121
t-122 -51z" />
    <glyph glyph-name="less" unicode="&#x3c;" horiz-adv-x="909" 
d="M793 250l-713 348l39 176l866 348l-41 -192l-668 -254l555 -250z" />
    <glyph glyph-name="equal" unicode="=" horiz-adv-x="909" 
d="M915 801h-790l35 153h788zM829 414h-790l35 153h790z" />
    <glyph glyph-name="greater" unicode="&#x3e;" horiz-adv-x="909" 
d="M868 598l-866 -348l43 192l668 250l-555 254l39 176l712 -348z" />
    <glyph glyph-name="question" unicode="?" horiz-adv-x="802" 
d="M508 481l-223 -67q-27 56 -27 133q0 59 19.5 110t50 86.5t68 66.5t75 57.5t68 52t50 57.5t19.5 67q0 48 -35 77.5t-100 29.5q-101 0 -184 -74l-96 183q153 126 344 126q155 0 257.5 -76.5t102.5 -199.5q0 -67 -22.5 -124t-58.5 -97t-79.5 -75t-87 -65.5t-79.5 -60
t-58.5 -65.5t-22.5 -76q0 -34 19 -66zM305 -23q-60 0 -101.5 43t-41.5 103q0 70 51.5 121t122.5 51q60 0 101.5 -43t41.5 -105q0 -70 -51.5 -120t-122.5 -50z" />
    <glyph glyph-name="at" unicode="@" horiz-adv-x="1458" 
d="M680 -143q-169 0 -298.5 78t-199 217t-69.5 317q0 163 62.5 317t166.5 268t246 183.5t293 69.5q243 0 393.5 -158t150.5 -404q0 -125 -32 -234t-85 -181.5t-119.5 -114t-135.5 -41.5q-79 0 -128.5 40.5t-60.5 104.5l-2 15q-49 -72 -117 -116t-149 -44q-113 0 -184.5 78.5
t-71.5 224.5q0 137 57 262t156.5 203t214.5 78q75 0 127 -36.5t76 -98.5l22 106h219l-108 -510q-4 -20 -4 -51q0 -88 67 -88q59 0 116.5 109.5t57.5 291.5q0 223 -127 354.5t-340 131.5q-135 0 -262 -64.5t-217.5 -169t-145 -242.5t-54.5 -280q0 -153 58 -275t171.5 -194
t265.5 -72q169 0 340 115l41 -61q-187 -129 -391 -129zM694 348q106 0 191 133l55 258q-14 44 -46.5 75.5t-82.5 31.5q-71 0 -128.5 -54.5t-86.5 -131.5t-29 -154q0 -72 33 -115t94 -43z" />
    <glyph glyph-name="A" unicode="A" horiz-adv-x="1140" 
d="M1032 0h-284l-13 242h-424l-116 -242h-310l711 1366h330zM735 483l-28 594l-289 -594h317z" />
    <glyph glyph-name="B" unicode="B" horiz-adv-x="1144" 
d="M616 0h-606l301 1366h504q163 0 255.5 -89t92.5 -222q0 -137 -86 -247.5t-211 -125.5q85 -22 131.5 -96t46.5 -166q0 -77 -25.5 -149.5t-75 -134t-134.5 -99t-193 -37.5zM696 815q59 0 100 29.5t57.5 70t16.5 86.5q0 56 -37 89.5t-96 33.5h-205l-67 -309h231zM578 242
q87 0 139.5 58.5t52.5 143.5q0 62 -36.5 96.5t-102.5 34.5h-219l-74 -333h240z" />
    <glyph glyph-name="C" unicode="C" horiz-adv-x="1146" 
d="M594 -25q-232 0 -375 143t-143 384q0 110 22 219t62.5 207.5t102 183t136 146t169.5 96.5t198 35q84 0 155.5 -21.5t122.5 -58t91 -87.5t64 -106t38 -117l-258 -71q-24 102 -82.5 159.5t-144.5 57.5q-108 0 -200 -98t-142 -244t-50 -297q0 -134 66.5 -210.5t181.5 -76.5
q67 0 132 42.5t116 119.5l215 -119q-90 -143 -214 -215t-263 -72z" />
    <glyph glyph-name="D" unicode="D" horiz-adv-x="1226" 
d="M451 0h-441l301 1366h432q92 0 177 -35.5t151.5 -100.5t106 -164.5t39.5 -217.5q0 -80 -12 -160.5t-40 -165t-69.5 -159.5t-103.5 -142t-139 -116t-180 -77t-222 -28zM532 1124l-194 -882h162q103 0 188 55.5t137.5 144t80.5 191.5t28 205q0 131 -68.5 208.5t-173.5 77.5
h-160z" />
    <glyph glyph-name="E" unicode="E" horiz-adv-x="987" 
d="M795 0h-785l301 1366h785l-54 -242h-510l-67 -309h496l-54 -240h-495l-74 -333h510z" />
    <glyph glyph-name="F" unicode="F" horiz-adv-x="970" 
d="M285 0h-275l301 1366h785l-54 -242h-510l-67 -309h496l-54 -240h-495z" />
    <glyph glyph-name="G" unicode="G" horiz-adv-x="1206" 
d="M565 -25q-217 0 -353 144t-136 383q0 133 31.5 262.5t93.5 242t147.5 198t201 135t245.5 49.5q174 0 284 -100.5t142 -250.5l-240 -82q-21 82 -80.5 135.5t-138.5 53.5q-82 0 -158 -56.5t-128.5 -146.5t-84 -205t-31.5 -231q0 -133 64.5 -210t177.5 -77q106 0 184 83
t117 206h-307l55 242h580q-73 -405 -233.5 -590t-432.5 -185z" />
    <glyph glyph-name="H" unicode="H" horiz-adv-x="1249" 
d="M1018 0h-275l127 582h-456l-129 -582h-275l301 1366h275l-119 -543h459l118 543h275z" />
    <glyph glyph-name="I" unicode="I" horiz-adv-x="516" 
d="M285 0h-275l301 1366h275z" />
    <glyph glyph-name="J" unicode="J" horiz-adv-x="858" 
d="M258 -25q-98 0 -185 31t-141 90l131 213q28 -41 75.5 -65.5t99.5 -24.5q162 0 204 187l211 960h275l-213 -969q-50 -219 -159.5 -320.5t-297.5 -101.5z" />
    <glyph glyph-name="K" unicode="K" horiz-adv-x="1136" 
d="M1024 0h-307l-211 541l-137 -160l-84 -381h-275l301 1366h275l-129 -592l501 592h334l-579 -643z" />
    <glyph glyph-name="L" unicode="L" horiz-adv-x="903" 
d="M739 0h-735l301 1366h275l-248 -1124h461z" />
    <glyph glyph-name="M" unicode="M" horiz-adv-x="1509" 
d="M1278 0h-272l202 920l-512 -920h-104l-105 920l-202 -920h-275l301 1366h359l90 -803l448 803h371z" />
    <glyph glyph-name="N" unicode="N" horiz-adv-x="1247" 
d="M1016 0h-262l-283 842l-186 -842h-275l301 1366h279l272 -811l180 811h275z" />
    <glyph glyph-name="O" unicode="O" horiz-adv-x="1280" 
d="M594 -25q-235 0 -376.5 146t-141.5 381q0 128 29.5 255t89 240.5t140.5 201t193 139t238 51.5q233 0 374.5 -146.5t141.5 -380.5q0 -128 -29.5 -255t-88.5 -240.5t-140 -201t-192.5 -139t-237.5 -51.5zM608 219q81 0 155.5 58t125 149.5t80.5 205t30 224.5
q0 132 -68 210.5t-181 78.5q-109 0 -200.5 -98t-140.5 -244t-49 -297q0 -132 67.5 -209.5t180.5 -77.5z" />
    <glyph glyph-name="P" unicode="P" horiz-adv-x="1095" 
d="M285 0h-275l301 1366h484q155 0 254.5 -104.5t99.5 -260.5q0 -72 -18 -141.5t-59 -136t-101 -116.5t-150 -80.5t-200 -30.5h-228zM641 735h-2q102 0 163.5 71t61.5 169q0 68 -40 108.5t-105 40.5h-187l-86 -389h195z" />
    <glyph glyph-name="Q" unicode="Q" horiz-adv-x="1280" 
d="M594 -25q-235 0 -376.5 146t-141.5 381q0 128 29.5 255t89 240.5t140.5 201t193 139t238 51.5q233 0 374.5 -146.5t141.5 -380.5q0 -235 -95.5 -451t-264.5 -333l32 -82l-211 -72l-26 66q-73 -15 -123 -15zM608 219h17l-88 221l213 72l71 -182q81 93 129.5 237t48.5 289
q0 132 -68 210.5t-181 78.5q-109 0 -200.5 -98t-140.5 -244t-49 -297q0 -132 67.5 -209.5t180.5 -77.5z" />
    <glyph glyph-name="R" unicode="R" horiz-adv-x="1132" 
d="M950 0h-295l-102 494h-160l-108 -494h-275l301 1366h463q158 0 267.5 -103.5t109.5 -263.5q0 -173 -96.5 -305.5t-233.5 -165.5zM641 735q102 0 162.5 69t60.5 169q0 70 -42.5 110.5t-104.5 40.5h-185l-86 -389h195z" />
    <glyph glyph-name="S" unicode="S" horiz-adv-x="1024" 
d="M465 -25q-154 0 -286.5 57.5t-201.5 149.5l164 203q54 -76 145 -121t191 -45q85 0 135 49.5t50 120.5q0 37 -27 70t-70.5 60.5t-96 56.5t-105 63.5t-96 75.5t-70.5 100t-27 129q0 88 35.5 169t97.5 142t153 97.5t195 36.5q127 0 242.5 -47t187.5 -132l-159 -200
q-52 65 -131 100t-162 35q-73 0 -120.5 -44t-47.5 -106q0 -35 27 -67t70 -59.5t95.5 -56.5t104.5 -64.5t95 -77t70 -101t27 -129.5q0 -125 -58 -230t-170 -170t-257 -65z" />
    <glyph glyph-name="T" unicode="T" horiz-adv-x="974" 
d="M514 0h-274l247 1124h-305l54 242h884l-53 -242h-305z" />
    <glyph glyph-name="U" unicode="U" horiz-adv-x="1251" 
d="M580 -25q-219 0 -346.5 112t-127.5 300q0 36 9 92l196 887h277l-199 -897q-6 -36 -6 -63q0 -84 55.5 -136.5t151.5 -52.5q104 0 165.5 63.5t90.5 188.5l198 897h277l-199 -893q-111 -498 -542 -498z" />
    <glyph glyph-name="V" unicode="V" horiz-adv-x="1140" 
d="M625 0h-330l-109 1366h287l47 -1040l506 1040h307z" />
    <glyph glyph-name="W" unicode="W" horiz-adv-x="1576" 
d="M1141 0h-285l23 907l-379 -907h-285l-12 1366h289l-31 -946l405 946h215l-12 -946l387 946h299z" />
    <glyph glyph-name="X" unicode="X" horiz-adv-x="1142" 
d="M1034 0h-299l-164 471l-354 -471h-332l566 715l-240 651h301l143 -442l326 442h332l-535 -682z" />
    <glyph glyph-name="Y" unicode="Y" horiz-adv-x="1107" 
d="M582 0h-275l123 563l-248 803h289l139 -549l381 549h316l-602 -803z" />
    <glyph glyph-name="Z" unicode="Z" horiz-adv-x="995" 
d="M813 0h-850l49 227l684 897h-485l53 242h836l-49 -221l-691 -903h506z" />
    <glyph glyph-name="bracketleft" unicode="[" horiz-adv-x="495" 
d="M260 -389h-375l396 1778h374l-37 -164h-196l-322 -1450h199z" />
    <glyph glyph-name="backslash" unicode="\" horiz-adv-x="569" 
d="M272 -41l-82 1448h177l82 -1448h-177z" />
    <glyph glyph-name="bracketright" unicode="]" horiz-adv-x="495" 
d="M213 -389h-373l35 164h197l321 1450h-196l36 164h375z" />
    <glyph glyph-name="asciicircum" unicode="^" horiz-adv-x="796" 
d="M797 682h-172l-70 502l-289 -502h-188l422 684h180z" />
    <glyph glyph-name="underscore" unicode="_" horiz-adv-x="864" 
d="M702 -246h-872l37 164h874z" />
    <glyph glyph-name="grave" unicode="`" horiz-adv-x="440" 
d="M582 1139h-164l-211 295h219z" />
    <glyph glyph-name="a" unicode="a" horiz-adv-x="985" 
d="M782 0h-245l22 98q-99 -123 -256 -123q-119 0 -198.5 71.5t-79.5 199.5q0 164 98 271.5t242 107.5q188 0 280 -129l29 120q6 48 6 58q0 62 -53.5 99.5t-137.5 37.5q-122 0 -239 -88l-57 178q148 113 354 113q168 0 277.5 -71.5t109.5 -211.5q0 -47 -12 -100zM418 141
q104 0 170 88l28 133q-22 46 -68 71.5t-106 25.5q-76 0 -122 -57.5t-46 -133.5q0 -62 39 -94.5t105 -32.5z" />
    <glyph glyph-name="b" unicode="b" horiz-adv-x="1038" 
d="M532 -25q-88 0 -155.5 39.5t-102.5 114.5l-28 -129h-246l301 1366h246l-109 -498q110 146 256 146q140 0 219.5 -94.5t79.5 -270.5q0 -86 -18.5 -178t-57 -180.5t-92 -159t-130 -113.5t-163.5 -43zM485 193q74 0 134 71t89 164.5t29 179.5q0 88 -43 138.5t-116 50.5
q-51 0 -99.5 -33t-83.5 -84l-82 -371q21 -52 66.5 -84t105.5 -32z" />
    <glyph glyph-name="c" unicode="c" horiz-adv-x="868" 
d="M459 -25q-189 0 -300.5 110t-111.5 302q0 158 65 300.5t187 234.5t272 92q113 0 197.5 -40t130.5 -108l-149 -161q-58 92 -168 92q-83 0 -149.5 -60t-100 -148.5t-33.5 -182.5q0 -102 55.5 -157.5t145.5 -55.5q96 0 166 77l86 -178q-121 -117 -293 -117z" />
    <glyph glyph-name="d" unicode="d" horiz-adv-x="1038" 
d="M502 1014q89 0 156.5 -39t103.5 -115l110 506h246l-303 -1366h-246l29 121q-110 -146 -256 -146q-140 0 -219.5 95t-79.5 270q0 86 18.5 178t57 180.5t91.5 159t129 113.5t163 43zM551 797q-75 0 -135.5 -71.5t-89.5 -165t-29 -179.5q0 -88 44.5 -138t117.5 -50
q51 0 99 33t81 83l82 371q-21 52 -66 84.5t-104 32.5z" />
    <glyph glyph-name="e" unicode="e" horiz-adv-x="987" 
d="M473 -25q-198 0 -313 110t-115 302q0 86 22.5 174.5t68 169.5t107 144.5t145.5 101t177 37.5q175 0 276 -105t101 -286q0 -93 -31 -209h-624q-4 -16 -4 -52q0 -73 56.5 -129.5t168.5 -56.5q55 0 112 21.5t99 56.5l80 -162q-64 -55 -151.5 -86t-174.5 -31zM711 586h4
q6 27 6 57q0 74 -45.5 122t-128.5 48q-89 0 -151 -69t-79 -158h394z" />
    <glyph glyph-name="f" unicode="f" horiz-adv-x="587" 
d="M291 0h-246l172 774h-127l47 215h125l17 68q71 329 333 329q109 0 185 -43l-84 -186q-27 21 -70 21q-94 0 -119 -121l-14 -68h162l-47 -215h-162z" />
    <glyph glyph-name="g" unicode="g" horiz-adv-x="1036" 
d="M344 -401q-266 0 -401 149l135 176q41 -55 110.5 -86t149.5 -31q186 0 237 226l29 125q-105 -148 -260 -148q-136 0 -217.5 88t-81.5 264q0 84 18 173t55.5 175t90 153.5t128.5 109t163 41.5q76 0 151 -42t109 -112l28 129h246l-211 -956q-97 -434 -479 -434zM463 227
q50 0 98.5 33t83.5 82l74 334q-22 55 -70.5 88t-107.5 33q-55 0 -102.5 -37.5t-77 -96t-46 -124.5t-16.5 -127q0 -89 44 -137t120 -48z" />
    <glyph glyph-name="h" unicode="h" 
d="M805 0h-246l143 651q7 35 7 49q0 97 -117 97q-97 0 -197 -125l-147 -672h-248l301 1366h248l-113 -504q140 152 293 152q115 0 181.5 -57.5t66.5 -153.5q0 -20 -10 -70z" />
    <glyph glyph-name="i" unicode="i" horiz-adv-x="466" 
d="M381 1100q-58 0 -95.5 37t-37.5 90q0 77 52.5 123.5t115.5 46.5q56 0 94.5 -37.5t38.5 -89.5q0 -77 -52.5 -123.5t-115.5 -46.5zM246 0h-246l219 989h246z" />
    <glyph glyph-name="j" unicode="j" horiz-adv-x="466" 
d="M-113 -401q-148 0 -211 69l99 180q30 -41 88 -41q96 0 125 138l231 1044h246l-232 -1044q-39 -174 -118.5 -260t-227.5 -86zM381 1100q-58 0 -95.5 37t-37.5 90q0 77 52.5 123.5t115.5 46.5q56 0 94.5 -37.5t38.5 -89.5q0 -77 -52.5 -123.5t-115.5 -46.5z" />
    <glyph glyph-name="k" unicode="k" horiz-adv-x="964" 
d="M848 0h-281l-125 393l-143 -151l-53 -242h-246l301 1366h246l-178 -809l393 432h295l-414 -444z" />
    <glyph glyph-name="l" unicode="l" horiz-adv-x="544" 
d="M307 -25q-123 0 -192.5 49t-69.5 142q0 43 8 84l248 1116h246l-234 -1063q-6 -18 -6 -43q0 -32 21 -49.5t55 -17.5q39 0 61 22l7 -201q-49 -39 -144 -39z" />
    <glyph glyph-name="m" unicode="m" horiz-adv-x="1527" 
d="M1307 0h-246l143 653q6 24 6 47q0 45 -28.5 71t-73.5 26q-49 0 -97.5 -36.5t-86.5 -88.5l-148 -672h-246l144 653q8 32 8 49q-2 44 -28 69.5t-76 25.5q-92 0 -183 -125l-149 -672h-246l219 989h246l-29 -127q51 62 123.5 107t153.5 45q104 0 167.5 -56t63.5 -114v-10
q59 79 135.5 129.5t163.5 50.5q100 0 167 -56t67 -153l-9 -72z" />
    <glyph glyph-name="n" unicode="n" 
d="M805 0h-246l143 649q7 49 7 51q0 48 -31.5 72.5t-85.5 24.5q-53 0 -105 -36.5t-92 -88.5l-149 -672h-246l219 989h246l-29 -127q140 152 293 152q114 0 181 -57t67 -154q0 -30 -10 -70z" />
    <glyph glyph-name="o" unicode="o" horiz-adv-x="1019" 
d="M453 -25q-195 0 -301.5 111t-106.5 299q0 112 37 223t102.5 202t165 147.5t213.5 56.5q195 0 301.5 -111t106.5 -299q0 -112 -37 -223t-102.5 -202t-165 -147.5t-213.5 -56.5zM465 193q74 0 135 70.5t91 163t30 175.5q0 95 -44.5 145t-123.5 50q-57 0 -107 -41.5
t-81.5 -104.5t-49.5 -133t-18 -131q0 -95 44.5 -144.5t123.5 -49.5z" />
    <glyph glyph-name="p" unicode="p" horiz-adv-x="1034" 
d="M532 -25q-88 0 -155.5 39.5t-102.5 114.5l-112 -506h-246l303 1366h246l-27 -121q110 146 256 146q140 0 219.5 -94.5t79.5 -270.5q0 -86 -18.5 -178t-57 -180.5t-92 -159t-130 -113.5t-163.5 -43zM485 193q74 0 134 71t89 164.5t29 179.5q0 88 -43 138.5t-116 50.5
q-51 0 -99.5 -33t-83.5 -84l-82 -371q21 -52 66.5 -84t105.5 -32z" />
    <glyph glyph-name="q" unicode="q" horiz-adv-x="1034" 
d="M502 1014q89 0 156.5 -39t103.5 -115l26 129h246l-303 -1366h-246l113 498q-110 -146 -256 -146q-140 0 -219.5 95t-79.5 270q0 86 18.5 178t57 180.5t91.5 159t129 113.5t163 43zM551 797q-75 0 -135.5 -71.5t-89.5 -165t-29 -179.5q0 -88 44.5 -138t117.5 -50
q51 0 99 33t81 83l82 371q-21 52 -66 84.5t-104 32.5z" />
    <glyph glyph-name="r" unicode="r" horiz-adv-x="655" 
d="M246 0h-246l219 989h246l-29 -129q118 154 305 154l-55 -244q-35 10 -74 10q-62 0 -121 -34.5t-100 -90.5z" />
    <glyph glyph-name="s" unicode="s" horiz-adv-x="845" 
d="M362 -25q-123 0 -229.5 45t-165.5 119l137 164q38 -53 113.5 -93t157.5 -40q61 0 99 32.5t38 78.5q0 30 -30 56.5t-74.5 45t-97 46t-97 57.5t-74.5 81t-30 115q0 137 99.5 234.5t272.5 97.5q106 0 203.5 -40.5t159.5 -109.5l-129 -157q-30 43 -98.5 77.5t-139.5 34.5
q-59 0 -94 -27.5t-35 -70.5q0 -27 30.5 -52t76 -43.5t98.5 -46t98.5 -58.5t76 -83t30.5 -116q0 -144 -108 -245.5t-288 -101.5z" />
    <glyph glyph-name="t" unicode="t" horiz-adv-x="608" 
d="M348 -25q-125 0 -193.5 49t-68.5 148q0 39 10 78l117 524h-127l47 215h127l59 271h248l-59 -271h162l-49 -215h-162l-105 -471q-4 -24 -4 -39q0 -71 74 -71q39 0 61 22l7 -201q-53 -39 -144 -39z" />
    <glyph glyph-name="u" unicode="u" 
d="M219 989h246l-143 -649q-9 -36 -9 -49q0 -49 32 -73.5t87 -24.5q96 0 197 122l147 674h248l-219 -989h-248l31 127q-140 -152 -293 -152q-114 0 -181 57t-67 154q0 30 10 70z" />
    <glyph glyph-name="v" unicode="v" horiz-adv-x="921" 
d="M481 0h-264l-113 989h254l48 -694l358 694h270z" />
    <glyph glyph-name="w" unicode="w" horiz-adv-x="1417" 
d="M1034 0h-260l-29 672l-325 -672h-258l-47 989h245l11 -670l321 670h228l28 -670l307 670h265z" />
    <glyph glyph-name="x" unicode="x" horiz-adv-x="901" 
d="M788 0h-262l-104 330l-254 -330h-274l403 504l-170 485h260l94 -311l234 311h274l-385 -485z" />
    <glyph glyph-name="y" unicode="y" 
d="M332 -401q-275 0 -400 149l136 176q38 -55 110 -86t150 -31q98 0 154.5 58t82.5 168l29 131q-138 -150 -291 -150q-112 0 -180 55.5t-68 155.5q0 28 11 68l153 696h246l-135 -612q-6 -27 -6 -49q0 -97 116 -97q99 0 197 123l139 635h248l-213 -956q-97 -434 -479 -434z
" />
    <glyph glyph-name="z" unicode="z" horiz-adv-x="837" 
d="M657 0h-696l39 184l498 590h-367l49 215h688l-41 -176l-503 -598h378z" />
    <glyph glyph-name="braceleft" unicode="{" horiz-adv-x="518" 
d="M285 -389h-66q-99 0 -172.5 63.5t-73.5 161.5q0 28 7 60l88 397q4 20 4 37q0 44 -21.5 72t-58.5 28l31 139q109 0 137 138l88 399q32 140 120.5 211.5t221.5 71.5h90l-35 -164h-92q-47 0 -80.5 -31t-46.5 -88l-96 -442q-33 -147 -133 -183q59 -30 59 -114q0 -37 -8 -70
l-88 -395q-4 -24 -4 -37q0 -40 24 -65t60 -25h84z" />
    <glyph glyph-name="bar" unicode="|" horiz-adv-x="405" 
d="M326 -41h-164v1448h164v-1448z" />
    <glyph glyph-name="braceright" unicode="}" horiz-adv-x="518" 
d="M231 1389h68q99 0 172.5 -64.5t73.5 -163.5q0 -25 -8 -57l-88 -397q-5 -25 -5 -37q0 -44 22.5 -72.5t59.5 -28.5l-32 -139q-106 0 -138 -137l-88 -399q-32 -141 -120 -212t-222 -71h-90l37 164h90q48 0 81.5 31t45.5 88l98 442q16 72 47 117.5t87 64.5q-60 29 -60 115
q0 36 8 69l88 396q4 24 4 37q0 41 -23.5 65.5t-59.5 24.5h-84z" />
    <glyph glyph-name="asciitilde" unicode="~" horiz-adv-x="950" 
d="M920 1366l165 -16q-106 -502 -362 -502q-55 0 -91.5 20t-53.5 52t-25.5 71t-11 78t-6.5 71t-15.5 52t-34.5 20q-52 0 -100.5 -96t-85.5 -270l-166 16q19 95 46 175.5t69.5 158.5t106 123t141.5 45q63 0 102.5 -27t53 -68t21 -88.5t8.5 -88.5t13.5 -68t38.5 -27
q52 0 101 97t86 272z" />
    <glyph glyph-name="uni00A0" unicode="&#xa0;" horiz-adv-x="428" 
 />
    <glyph glyph-name="exclamdown" unicode="&#xa1;" horiz-adv-x="516" 
d="M162 553h215l-162 -930h-299zM352 1012q60 0 102 -43t42 -103q0 -70 -51.5 -121t-122.5 -51q-60 0 -102 43t-42 105q0 70 51.5 120t122.5 50z" />
    <glyph glyph-name="cent" unicode="&#xa2;" horiz-adv-x="868" 
d="M428 -205h-178l45 205q-118 42 -183 141.5t-65 245.5q0 110 34.5 217t95 193t150 144t193.5 69l33 147h178l-37 -158q138 -37 205 -133l-149 -161q-38 60 -103 81l-131 -593q82 6 150 77l86 -178q-120 -114 -285 -117zM299 406q0 -113 70 -170l118 538
q-86 -41 -137 -146.5t-51 -221.5z" />
    <glyph glyph-name="sterling" unicode="&#xa3;" horiz-adv-x="999" 
d="M66 559l34 158h133q-47 111 -47 203q0 98 41.5 185.5t110 148.5t158.5 96.5t184 35.5q157 0 269.5 -74.5t133.5 -209.5l-241 -86q-9 69 -50.5 108t-105.5 39q-84 0 -143.5 -81t-59.5 -197q0 -23 4.5 -48t9.5 -39.5t15 -42.5t14 -38h217l-34 -158h-168q-14 -93 -67.5 -174
t-119.5 -123q47 17 82 17q53 0 129.5 -30t122.5 -30q86 0 154 68l41 -221q-91 -91 -232 -91q-71 0 -141.5 21.5t-132 43t-111.5 21.5q-93 0 -203 -75l-43 188q113 58 187 155t74 201q0 19 -2 29h-213z" />
    <glyph glyph-name="yen" unicode="&#xa5;" horiz-adv-x="1107" 
d="M584 0h-275l51 238h-370l35 153h370l37 172h-369l33 154h289l-201 649h289l139 -549l381 549h316l-488 -649h285l-35 -154h-364l-37 -172h362l-35 -153h-362z" />
    <glyph glyph-name="brokenbar" unicode="&#xa6;" horiz-adv-x="405" 
d="M326 -41h-164v647h164v-647zM326 760h-164v647h164v-647z" />
    <glyph glyph-name="section" unicode="&#xa7;" horiz-adv-x="854" 
d="M834 684q0 -101 -59 -181.5t-165 -121.5q111 -73 111 -201q0 -145 -108.5 -245.5t-276.5 -100.5q-134 0 -243 40t-171 114l137 151q42 -59 113.5 -93t155.5 -34q66 0 108.5 39t42.5 94q0 32 -22 58t-57 45.5t-77 38.5t-84.5 43.5t-77.5 54t-57 75.5t-22 103
q0 102 64 179.5t180 107.5q-61 36 -97 92.5t-36 122.5q0 138 105 229.5t263 91.5q252 0 379 -143l-129 -133q-40 49 -104 75.5t-134 26.5q-64 0 -102.5 -34.5t-38.5 -83.5q0 -41 41.5 -74t100.5 -60t118 -59t100.5 -87.5t41.5 -129.5zM592 627q0 87 -105 139
q-87 -14 -127.5 -56.5t-40.5 -99.5q0 -88 138 -147q69 24 102 67t33 97z" />
    <glyph glyph-name="dieresis" unicode="&#xa8;" horiz-adv-x="585" 
d="M784 1264q0 -58 -45 -103t-104 -45q-50 0 -83.5 34t-33.5 85q0 58 45.5 102.5t104.5 44.5q50 0 83 -33.5t33 -84.5zM399 1264q0 -58 -45 -103t-104 -45q-51 0 -85 34t-34 85q0 58 45.5 102.5t104.5 44.5q51 0 84.5 -33.5t33.5 -84.5z" />
    <glyph glyph-name="copyright" unicode="&#xa9;" horiz-adv-x="1593" 
d="M1544 684q0 -143 -56 -274t-151 -226t-226 -151t-275 -56q-191 0 -353.5 95t-257 258t-94.5 354q0 192 94.5 355t257 257.5t353.5 94.5q192 0 355 -94.5t258 -257.5t95 -355zM1470 684q0 171 -85.5 317t-231.5 231t-317 85q-128 0 -245 -50.5t-201.5 -135.5t-134.5 -202
t-50 -245t50 -245t134.5 -202t201.5 -135.5t245 -50.5q171 0 317 85t231.5 231t85.5 317zM1036 430l49 -68q-129 -110 -282 -110q-178 0 -284.5 107t-106.5 270q0 103 40 194.5t106 155.5t153 101.5t178 37.5q223 0 325 -166l-73 -53q-37 67 -103 103t-153 36
q-70 0 -138.5 -30.5t-123 -83t-88 -130t-33.5 -163.5q0 -125 83 -212t220 -87q64 0 126 27.5t105 70.5z" />
    <glyph glyph-name="ordfeminine" unicode="&#xaa;" horiz-adv-x="747" 
d="M506 1186q-71 0 -121.5 -84.5t-50.5 -181.5q0 -60 29 -92.5t77 -32.5q66 0 119 73l55 252q-14 29 -43.5 47.5t-64.5 18.5zM657 1311h179l-142 -643h-180l16 80q-73 -97 -172 -97q-92 0 -150 63.5t-58 186.5q0 104 38.5 201t111.5 161t161 64q123 0 178 -94z" />
    <glyph glyph-name="guillemotleft" unicode="&#xab;" horiz-adv-x="931" 
d="M436 129h-203l-174 369l338 362h215l-344 -371zM780 129h-202l-175 369l338 362h215l-346 -371z" />
    <glyph glyph-name="logicalnot" unicode="&#xac;" horiz-adv-x="919" 
d="M948 954l-119 -540h-159l86 387h-631l35 153h788z" />
    <glyph glyph-name="registered" unicode="&#xae;" horiz-adv-x="1011" 
d="M1040 952q0 -180 -127.5 -307t-308.5 -127q-180 0 -306 127t-126 307q0 181 127 307.5t307 126.5q119 0 219 -57.5t157.5 -157.5t57.5 -219zM977 952q0 155 -109.5 263t-263.5 108t-261 -108t-107 -263q0 -153 107.5 -261.5t260.5 -108.5q154 0 263.5 109t109.5 261z
M756 702h-82l-86 197h-90l-43 -197h-70l109 498h188q65 0 106 -36.5t41 -94.5q0 -71 -50.5 -119.5t-112.5 -48.5zM756 1063q0 35 -23 56.5t-63 21.5h-119l-41 -180h133q47 0 80 29.5t33 72.5z" />
    <glyph glyph-name="macron" unicode="&#xaf;" horiz-adv-x="636" 
d="M793 1210h-635l30 142h635z" />
    <glyph glyph-name="degree" unicode="&#xb0;" horiz-adv-x="630" 
d="M723 1112q0 -112 -79.5 -192t-192.5 -80q-114 0 -193.5 79.5t-79.5 192.5q0 114 79.5 194t193.5 80q113 0 192.5 -80t79.5 -194zM588 1112q0 57 -40.5 98t-96.5 41q-57 0 -97.5 -41t-40.5 -98t39.5 -96t96.5 -39q56 0 97.5 39.5t41.5 95.5z" />
    <glyph glyph-name="plusminus" unicode="&#xb1;" horiz-adv-x="909" 
d="M881 641h-312l-80 -358h-167l77 358h-309l35 154h309l76 342h170l-76 -342h309zM743 25h-788l33 153h788z" />
    <glyph glyph-name="twosuperior" unicode="&#xb2;" horiz-adv-x="710" 
d="M735 862h-579l32 146q295 203 389.5 288t94.5 156q0 43 -32.5 67.5t-84.5 24.5q-114 0 -195 -90l-84 123q58 55 134 86t157 31q127 0 211 -59.5t84 -164.5q0 -45 -19.5 -89.5t-50 -83.5t-88.5 -88.5t-115 -91.5t-149 -105h328z" />
    <glyph glyph-name="threesuperior" unicode="&#xb3;" horiz-adv-x="710" 
d="M788 1100q0 -99 -82.5 -175.5t-216.5 -76.5q-109 0 -195 39t-126 108l125 109q30 -51 79.5 -79t106.5 -28q60 0 93.5 37t33.5 86q0 42 -37 64t-100 22q-51 0 -63 -2l32 148q16 -2 99 -2q64 0 99.5 28.5t35.5 79.5q0 40 -36.5 63t-92.5 23q-103 0 -181 -78l-77 113
q54 54 126 84.5t148 30.5q137 0 219 -55t82 -154q0 -79 -56.5 -141.5t-152.5 -71.5q64 -17 100.5 -62.5t36.5 -109.5z" />
    <glyph glyph-name="acute" unicode="&#xb4;" horiz-adv-x="440" 
d="M647 1434l-342 -295h-168l287 295h223z" />
    <glyph glyph-name="mu" unicode="&#xb5;" 
d="M162 -377h-246l303 1366h246l-143 -653q-17 -76 7.5 -109.5t88.5 -33.5q57 0 113.5 34.5t95.5 83.5l149 678h248l-219 -989h-248l27 123q-57 -62 -145 -105t-179 -43h-20z" />
    <glyph glyph-name="paragraph" unicode="&#xb6;" horiz-adv-x="919" 
d="M659 -205h-122l321 1448h-164l-321 -1448h-123l192 867q-116 0 -198 91t-82 228q0 97 50.5 185t143 144t203.5 56h449z" />
    <glyph glyph-name="periodcentered" unicode="&#xb7;" horiz-adv-x="516" 
d="M244 342q-61 0 -103.5 42.5t-42.5 102.5q0 70 51.5 121t122.5 51q60 0 102 -42.5t42 -102.5q0 -70 -51 -121t-121 -51z" />
    <glyph glyph-name="cedilla" unicode="&#xb8;" horiz-adv-x="413" 
d="M35 -399q-135 0 -217 82l67 94q63 -70 150 -70q43 0 68.5 21.5t25.5 54.5q0 22 -13.5 35.5t-39.5 13.5q-31 0 -56 -29l-77 52l98 168h123l-80 -129q22 20 55 20q50 0 82.5 -33.5t32.5 -89.5q0 -84 -62 -137t-157 -53z" />
    <glyph glyph-name="onesuperior" unicode="&#xb9;" horiz-adv-x="540" 
d="M516 862h-188l127 574l-150 -125l-86 114l316 256h161z" />
    <glyph glyph-name="ordmasculine" unicode="&#xba;" horiz-adv-x="733" 
d="M438 651q-132 0 -208 76t-76 199q0 156 103 278.5t253 122.5q134 0 209.5 -75.5t75.5 -198.5q0 -101 -45 -193t-128 -150.5t-184 -58.5zM444 795q52 0 92.5 48t58 106.5t17.5 109.5q0 58 -28.5 89.5t-79.5 31.5q-40 0 -73.5 -27.5t-53 -69t-30.5 -85t-11 -80.5
q0 -58 28.5 -90.5t79.5 -32.5z" />
    <glyph glyph-name="guillemotright" unicode="&#xbb;" horiz-adv-x="931" 
d="M154 860h202l174 -368l-337 -363h-216l347 373zM498 860h202l174 -368l-337 -363h-215l344 373z" />
    <glyph glyph-name="onequarter" unicode="&#xbc;" horiz-adv-x="1519" 
d="M1348 1366l-1026 -1366h-127l1024 1366h129zM1409 180h-88l-39 -180h-186l39 180h-355l31 135l410 504h241l-108 -493h88zM1167 326l68 305l-250 -305h182zM446 547h-188l127 573l-149 -125l-86 115l315 256h162z" />
    <glyph glyph-name="onehalf" unicode="&#xbd;" horiz-adv-x="1591" 
d="M1348 1366l-1026 -1366h-127l1024 1366h129zM1425 0h-579l33 145q293 202 388 288t95 157q0 43 -32.5 67.5t-84.5 24.5q-113 0 -194 -90l-84 123q58 55 133.5 85.5t156.5 30.5q127 0 211 -59t84 -164q0 -45 -19.5 -89.5t-50 -83.5t-88.5 -88.5t-115 -91.5t-149 -105h328z
M446 547h-188l127 573l-149 -125l-86 115l315 256h162z" />
    <glyph glyph-name="threequarters" unicode="&#xbe;" horiz-adv-x="1648" 
d="M1477 1366l-1026 -1366h-127l1024 1366h129zM1538 180h-88l-39 -180h-186l39 180h-355l31 135l410 504h241l-108 -493h88zM1296 326l68 305l-250 -305h182zM719 784q0 -99 -82.5 -175.5t-216.5 -76.5q-109 0 -195.5 39.5t-126.5 108.5l125 108q30 -51 80 -78.5t107 -27.5
q60 0 93.5 37t33.5 86q0 42 -37.5 64t-100.5 22q-51 0 -63 -2l33 147q16 -2 98 -2q64 0 99.5 29t35.5 80q0 40 -36.5 63t-92.5 23q-102 0 -180 -78l-78 113q54 54 126 84t148 30q137 0 219.5 -55t82.5 -154q0 -79 -56.5 -141.5t-152.5 -71.5q64 -17 100.5 -62.5t36.5 -109.5
z" />
    <glyph glyph-name="questiondown" unicode="&#xbf;" horiz-adv-x="704" 
d="M291 506l223 69q29 -60 29 -135q0 -59 -19.5 -110t-50 -86.5t-68 -66.5t-75 -57.5t-68 -52t-50 -57.5t-19.5 -67q0 -46 34.5 -75.5t98.5 -29.5q107 0 184 74l96 -184q-150 -127 -344 -127q-154 0 -257 77t-103 199q0 67 22.5 124t58.5 97t80 75t87.5 65.5t79.5 60
t58.5 65.5t22.5 76t-20 66zM494 1012q61 0 103 -43t42 -103q0 -70 -51.5 -121t-122.5 -51q-60 0 -101.5 43t-41.5 103q0 70 51.5 121t120.5 51z" />
    <glyph glyph-name="Agrave" unicode="&#xc0;" horiz-adv-x="1140" 
d="M940 1491h-164l-211 295h219zM1032 0h-284l-13 242h-424l-116 -242h-310l711 1366h330zM735 483l-28 594l-289 -594h317z" />
    <glyph glyph-name="Aacute" unicode="&#xc1;" horiz-adv-x="1140" 
d="M1149 1786l-342 -295h-168l287 295h223zM1032 0h-284l-13 242h-424l-116 -242h-310l711 1366h330zM735 483l-28 594l-289 -594h317z" />
    <glyph glyph-name="Acircumflex" unicode="&#xc2;" horiz-adv-x="1140" 
d="M1063 1491h-139l-90 186l-166 -186h-148l223 295h222zM1032 0h-284l-13 242h-424l-116 -242h-310l711 1366h330zM735 483l-28 594l-289 -594h317z" />
    <glyph glyph-name="Atilde" unicode="&#xc3;" horiz-adv-x="1140" 
d="M911 1487q-37 0 -63.5 15t-41 36.5t-27 42.5t-30 36t-40.5 15q-59 0 -88 -133h-132q58 275 234 275q37 0 63.5 -15t41.5 -36.5t28 -43t31 -36.5t41 -15q29 0 50 31.5t38 101.5h131q-61 -274 -236 -274zM1032 0h-284l-13 242h-424l-116 -242h-310l711 1366h330zM735 483
l-28 594l-289 -594h317z" />
    <glyph glyph-name="Adieresis" unicode="&#xc4;" horiz-adv-x="1140" 
d="M1141 1618q0 -58 -45.5 -103t-104.5 -45q-50 0 -83.5 34t-33.5 85q0 58 45.5 103t104.5 45q50 0 83.5 -34t33.5 -85zM756 1618q0 -58 -45.5 -103t-104.5 -45q-51 0 -85 34t-34 85q0 58 45.5 103t104.5 45q51 0 85 -34t34 -85zM1032 0h-284l-13 242h-424l-116 -242h-310
l711 1366h330zM735 483l-28 594l-289 -594h317z" />
    <glyph glyph-name="Aring" unicode="&#xc5;" horiz-adv-x="1140" 
d="M797 1417q-80 0 -130.5 50.5t-50.5 129.5q0 88 66.5 154t155.5 66q78 0 128 -51t50 -130q0 -89 -65.5 -154t-153.5 -65zM807 1528q40 0 69 29t29 69q0 35 -21.5 57.5t-56.5 22.5q-40 0 -69 -29t-29 -69q0 -34 22 -57t56 -23zM1032 0h-284l-13 242h-424l-116 -242h-310
l711 1366h330zM735 483l-28 594l-289 -594h317z" />
    <glyph glyph-name="AE" unicode="&#xc6;" horiz-adv-x="1617" 
d="M1434 0h-785l53 242h-352l-160 -242h-305l951 1366h899l-54 -242h-510l-67 -309h495l-53 -240h-495l-74 -333h510zM756 483l127 574l-381 -574h254z" />
    <glyph glyph-name="Ccedilla" unicode="&#xc7;" horiz-adv-x="1146" 
d="M594 -25h-23l-51 -81q22 20 55 20q50 0 82.5 -33.5t32.5 -89.5q0 -84 -62 -137t-157 -53q-135 0 -217 82l68 94q63 -70 149 -70q43 0 68.5 21.5t25.5 54.5q0 22 -13.5 35.5t-39.5 13.5q-30 0 -55 -29l-78 52l78 135q-176 39 -278.5 174t-102.5 338q0 110 22 219
t62.5 207.5t102 183t136 146t169.5 96.5t198 35q84 0 155.5 -21.5t122.5 -58t91 -87.5t64 -106t38 -117l-258 -71q-24 102 -82.5 159.5t-144.5 57.5q-108 0 -200 -98t-142 -244t-50 -297q0 -134 66.5 -210.5t181.5 -76.5q67 0 132 42.5t116 119.5l215 -119
q-90 -143 -214 -215t-263 -72z" />
    <glyph glyph-name="Egrave" unicode="&#xc8;" horiz-adv-x="987" 
d="M885 1491h-164l-211 295h219zM795 0h-785l301 1366h785l-54 -242h-510l-67 -309h496l-54 -240h-495l-74 -333h510z" />
    <glyph glyph-name="Eacute" unicode="&#xc9;" horiz-adv-x="987" 
d="M1094 1786l-342 -295h-168l286 295h224zM795 0h-785l301 1366h785l-54 -242h-510l-67 -309h496l-54 -240h-495l-74 -333h510z" />
    <glyph glyph-name="Ecircumflex" unicode="&#xca;" horiz-adv-x="987" 
d="M1004 1491h-140l-90 186l-166 -186h-147l223 295h221zM795 0h-785l301 1366h785l-54 -242h-510l-67 -309h496l-54 -240h-495l-74 -333h510z" />
    <glyph glyph-name="Edieresis" unicode="&#xcb;" horiz-adv-x="987" 
d="M1085 1618q0 -58 -45 -103t-104 -45q-50 0 -83.5 34t-33.5 85q0 58 45.5 103t104.5 45q50 0 83 -34t33 -85zM700 1618q0 -58 -45 -103t-104 -45q-51 0 -85 34t-34 85q0 58 45.5 103t104.5 45q51 0 84.5 -34t33.5 -85zM795 0h-785l301 1366h785l-54 -242h-510l-67 -309
h496l-54 -240h-495l-74 -333h510z" />
    <glyph glyph-name="Igrave" unicode="&#xcc;" horiz-adv-x="516" 
d="M625 1491h-164l-211 295h219zM285 0h-275l301 1366h275z" />
    <glyph glyph-name="Iacute" unicode="&#xcd;" horiz-adv-x="516" 
d="M840 1786l-342 -295h-168l286 295h224zM285 0h-275l301 1366h275z" />
    <glyph glyph-name="Icircumflex" unicode="&#xce;" horiz-adv-x="516" 
d="M748 1491h-140l-90 186l-166 -186h-147l223 295h221zM285 0h-275l301 1366h275z" />
    <glyph glyph-name="Idieresis" unicode="&#xcf;" horiz-adv-x="516" 
d="M829 1616q0 -58 -45 -103t-104 -45q-50 0 -83.5 34t-33.5 85q0 58 45.5 103t104.5 45q50 0 83 -34t33 -85zM444 1616q0 -58 -45 -103t-104 -45q-51 0 -85 34t-34 85q0 58 45.5 103t104.5 45q51 0 84.5 -34t33.5 -85zM285 0h-275l301 1366h275z" />
    <glyph glyph-name="Eth" unicode="&#xd0;" horiz-adv-x="1275" 
d="M500 0h-441l125 573h-143l49 220h143l127 573h433q92 0 177 -35.5t151 -100.5t105.5 -164.5t39.5 -217.5q0 -80 -12 -160.5t-40 -165t-69.5 -159.5t-103.5 -142t-139 -116t-180 -77t-222 -28zM684 573h-225l-72 -331h162q103 0 188 55.5t137.5 144t80.5 191.5t28 205
q0 131 -68.5 208.5t-173.5 77.5h-159l-74 -331h225z" />
    <glyph glyph-name="Ntilde" unicode="&#xd1;" horiz-adv-x="1247" 
d="M965 1487q-37 0 -63.5 15t-41 36.5t-27.5 42.5t-30.5 36t-40.5 15q-59 0 -88 -133h-131q58 275 233 275q37 0 63.5 -15t41.5 -36.5t28 -43t31 -36.5t41 -15q29 0 50 31.5t38 101.5h131q-61 -274 -235 -274zM1016 0h-262l-283 842l-186 -842h-275l301 1366h279l272 -811
l180 811h275z" />
    <glyph glyph-name="Ograve" unicode="&#xd2;" horiz-adv-x="1280" 
d="M1012 1491h-164l-211 295h219zM594 -25q-235 0 -376.5 146t-141.5 381q0 128 29.5 255t89 240.5t140.5 201t193 139t238 51.5q233 0 374.5 -146.5t141.5 -380.5q0 -128 -29.5 -255t-88.5 -240.5t-140 -201t-192.5 -139t-237.5 -51.5zM608 219q81 0 155.5 58t125 149.5
t80.5 205t30 224.5q0 132 -68 210.5t-181 78.5q-109 0 -200.5 -98t-140.5 -244t-49 -297q0 -132 67.5 -209.5t180.5 -77.5z" />
    <glyph glyph-name="Oacute" unicode="&#xd3;" horiz-adv-x="1280" 
d="M1219 1786l-342 -295h-168l286 295h224zM594 -25q-235 0 -376.5 146t-141.5 381q0 128 29.5 255t89 240.5t140.5 201t193 139t238 51.5q233 0 374.5 -146.5t141.5 -380.5q0 -128 -29.5 -255t-88.5 -240.5t-140 -201t-192.5 -139t-237.5 -51.5zM608 219q81 0 155.5 58
t125 149.5t80.5 205t30 224.5q0 132 -68 210.5t-181 78.5q-109 0 -200.5 -98t-140.5 -244t-49 -297q0 -132 67.5 -209.5t180.5 -77.5z" />
    <glyph glyph-name="Ocircumflex" unicode="&#xd4;" horiz-adv-x="1280" 
d="M1135 1491h-140l-90 186l-166 -186h-147l223 295h221zM594 -25q-235 0 -376.5 146t-141.5 381q0 128 29.5 255t89 240.5t140.5 201t193 139t238 51.5q233 0 374.5 -146.5t141.5 -380.5q0 -128 -29.5 -255t-88.5 -240.5t-140 -201t-192.5 -139t-237.5 -51.5zM608 219
q81 0 155.5 58t125 149.5t80.5 205t30 224.5q0 132 -68 210.5t-181 78.5q-109 0 -200.5 -98t-140.5 -244t-49 -297q0 -132 67.5 -209.5t180.5 -77.5z" />
    <glyph glyph-name="Otilde" unicode="&#xd5;" horiz-adv-x="1280" 
d="M985 1487q-37 0 -63.5 15t-41 36.5t-27.5 42.5t-30.5 36t-40.5 15q-59 0 -88 -133h-131q58 275 234 275q37 0 63.5 -15t41.5 -36.5t28 -43t30.5 -36.5t40.5 -15q56 0 89 133h131q-61 -274 -236 -274zM594 -25q-235 0 -376.5 146t-141.5 381q0 128 29.5 255t89 240.5
t140.5 201t193 139t238 51.5q233 0 374.5 -146.5t141.5 -380.5q0 -128 -29.5 -255t-88.5 -240.5t-140 -201t-192.5 -139t-237.5 -51.5zM608 219q81 0 155.5 58t125 149.5t80.5 205t30 224.5q0 132 -68 210.5t-181 78.5q-109 0 -200.5 -98t-140.5 -244t-49 -297
q0 -132 67.5 -209.5t180.5 -77.5z" />
    <glyph glyph-name="Odieresis" unicode="&#xd6;" horiz-adv-x="1280" 
d="M1212 1618q0 -58 -45 -103t-104 -45q-50 0 -83.5 34t-33.5 85q0 58 45.5 103t104.5 45q50 0 83 -34t33 -85zM827 1618q0 -58 -45 -103t-104 -45q-51 0 -85 34t-34 85q0 58 45.5 103t104.5 45q51 0 84.5 -34t33.5 -85zM594 -25q-235 0 -376.5 146t-141.5 381
q0 128 29.5 255t89 240.5t140.5 201t193 139t238 51.5q233 0 374.5 -146.5t141.5 -380.5q0 -128 -29.5 -255t-88.5 -240.5t-140 -201t-192.5 -139t-237.5 -51.5zM608 219q81 0 155.5 58t125 149.5t80.5 205t30 224.5q0 132 -68 210.5t-181 78.5q-109 0 -200.5 -98
t-140.5 -244t-49 -297q0 -132 67.5 -209.5t180.5 -77.5z" />
    <glyph glyph-name="multiply" unicode="&#xd7;" horiz-adv-x="909" 
d="M670 332l-189 243l-307 -251l-96 118l311 252l-190 242l123 100l186 -243l309 251l94 -118l-307 -252l187 -242z" />
    <glyph glyph-name="Oslash" unicode="&#xd8;" horiz-adv-x="1280" 
d="M594 -25q-199 0 -336 109l-70 -84h-178l156 184q-90 131 -90 318q0 128 29.5 255t89 240.5t140.5 201t193 139t238 51.5q192 0 326 -103l67 80h178l-151 -180q96 -135 96 -324q0 -128 -29.5 -255t-88.5 -240.5t-140 -201t-192.5 -139t-237.5 -51.5zM608 219
q81 0 155.5 58t125 149.5t80.5 205t30 224.5q0 51 -12 94l-555 -659q66 -72 176 -72zM360 506q0 -35 7 -82l551 655q-69 66 -168 66q-109 0 -200.5 -98t-140.5 -244t-49 -297z" />
    <glyph glyph-name="Ugrave" unicode="&#xd9;" horiz-adv-x="1251" 
d="M997 1491h-163l-211 295h219zM580 -25q-219 0 -346.5 112t-127.5 300q0 36 9 92l196 887h277l-199 -897q-6 -36 -6 -63q0 -84 55.5 -136.5t151.5 -52.5q104 0 165.5 63.5t90.5 188.5l198 897h277l-199 -893q-111 -498 -542 -498z" />
    <glyph glyph-name="Uacute" unicode="&#xda;" horiz-adv-x="1251" 
d="M1204 1786l-342 -295h-168l287 295h223zM580 -25q-219 0 -346.5 112t-127.5 300q0 36 9 92l196 887h277l-199 -897q-6 -36 -6 -63q0 -84 55.5 -136.5t151.5 -52.5q104 0 165.5 63.5t90.5 188.5l198 897h277l-199 -893q-111 -498 -542 -498z" />
    <glyph glyph-name="Ucircumflex" unicode="&#xdb;" horiz-adv-x="1251" 
d="M1124 1491h-139l-90 186l-166 -186h-147l223 295h221zM580 -25q-219 0 -346.5 112t-127.5 300q0 36 9 92l196 887h277l-199 -897q-6 -36 -6 -63q0 -84 55.5 -136.5t151.5 -52.5q104 0 165.5 63.5t90.5 188.5l198 897h277l-199 -893q-111 -498 -542 -498z" />
    <glyph glyph-name="Udieresis" unicode="&#xdc;" horiz-adv-x="1251" 
d="M1198 1618q0 -58 -45 -103t-104 -45q-50 0 -83.5 34t-33.5 85q0 58 45 103t104 45q50 0 83.5 -34t33.5 -85zM813 1618q0 -58 -45 -103t-104 -45q-51 0 -85 34t-34 85q0 58 45 103t104 45q51 0 85 -34t34 -85zM580 -25q-219 0 -346.5 112t-127.5 300q0 36 9 92l196 887
h277l-199 -897q-6 -36 -6 -63q0 -84 55.5 -136.5t151.5 -52.5q104 0 165.5 63.5t90.5 188.5l198 897h277l-199 -893q-111 -498 -542 -498z" />
    <glyph glyph-name="Yacute" unicode="&#xdd;" horiz-adv-x="1107" 
d="M1137 1786l-342 -295h-168l286 295h224zM582 0h-275l123 563l-248 803h289l139 -549l381 549h316l-602 -803z" />
    <glyph glyph-name="Thorn" unicode="&#xde;" horiz-adv-x="1095" 
d="M285 0h-275l301 1366h275l-49 -223h206q154 0 255.5 -105t101.5 -260q0 -72 -18 -142t-59.5 -136.5t-101 -117t-150 -81.5t-200.5 -31h-227zM590 512q101 0 163 71.5t62 168.5q0 68 -40.5 108.5t-104.5 40.5h-187l-86 -389h193z" />
    <glyph glyph-name="germandbls" unicode="&#xdf;" horiz-adv-x="1191" 
d="M1124 319q0 -135 -107 -239.5t-276 -104.5q-125 0 -217 39t-162 123l132 158q93 -123 237 -123q58 0 96.5 33.5t38.5 81.5q0 25 -19.5 46.5t-50.5 38t-69 33.5t-76 39.5t-69 49t-50.5 68t-19.5 91.5q0 64 23 115t57.5 81.5t75 59t75 48t57.5 47t23 59.5q0 47 -43.5 76.5
t-111.5 29.5q-75 0 -126.5 -45.5t-72.5 -136.5l-217 -987h-246l217 987q39 178 157 288.5t304 110.5q103 0 193.5 -35t147 -101.5t56.5 -149.5q0 -53 -17.5 -97.5t-46 -75t-63 -56t-68.5 -45.5t-62.5 -39.5t-46 -43t-17.5 -49.5q0 -24 20 -44t52 -36t71 -33.5t78 -40t71 -51
t52 -72.5t20 -98z" />
    <glyph glyph-name="agrave" unicode="&#xe0;" horiz-adv-x="985" 
d="M788 1139h-163l-211 295h219zM782 0h-245l22 98q-99 -123 -256 -123q-119 0 -198.5 71.5t-79.5 199.5q0 164 98 271.5t242 107.5q188 0 280 -129l29 120q6 48 6 58q0 62 -53.5 99.5t-137.5 37.5q-122 0 -239 -88l-57 178q148 113 354 113q168 0 277.5 -71.5t109.5 -211.5
q0 -47 -12 -100zM418 141q104 0 170 88l28 133q-22 46 -68 71.5t-106 25.5q-76 0 -122 -57.5t-46 -133.5q0 -62 39 -94.5t105 -32.5z" />
    <glyph glyph-name="aacute" unicode="&#xe1;" horiz-adv-x="985" 
d="M1001 1434l-342 -295h-167l286 295h223zM782 0h-245l22 98q-99 -123 -256 -123q-119 0 -198.5 71.5t-79.5 199.5q0 164 98 271.5t242 107.5q188 0 280 -129l29 120q6 48 6 58q0 62 -53.5 99.5t-137.5 37.5q-122 0 -239 -88l-57 178q148 113 354 113q168 0 277.5 -71.5
t109.5 -211.5q0 -47 -12 -100zM418 141q104 0 170 88l28 133q-22 46 -68 71.5t-106 25.5q-76 0 -122 -57.5t-46 -133.5q0 -62 39 -94.5t105 -32.5z" />
    <glyph glyph-name="acircumflex" unicode="&#xe2;" horiz-adv-x="985" 
d="M918 1139h-140l-90 186l-166 -186h-147l223 295h221zM782 0h-245l22 98q-99 -123 -256 -123q-119 0 -198.5 71.5t-79.5 199.5q0 164 98 271.5t242 107.5q188 0 280 -129l29 120q6 48 6 58q0 62 -53.5 99.5t-137.5 37.5q-122 0 -239 -88l-57 178q148 113 354 113
q168 0 277.5 -71.5t109.5 -211.5q0 -47 -12 -100zM418 141q104 0 170 88l28 133q-22 46 -68 71.5t-106 25.5q-76 0 -122 -57.5t-46 -133.5q0 -62 39 -94.5t105 -32.5z" />
    <glyph glyph-name="atilde" unicode="&#xe3;" horiz-adv-x="985" 
d="M764 1135q-37 0 -63.5 15t-41 36.5t-27.5 42.5t-30.5 36t-40.5 15q-59 0 -88 -133h-131q58 274 233 274q37 0 63.5 -15t41.5 -36.5t28 -42.5t31 -36t41 -15q29 0 50 31.5t38 101.5h131q-61 -274 -235 -274zM782 0h-245l22 98q-99 -123 -256 -123q-119 0 -198.5 71.5
t-79.5 199.5q0 164 98 271.5t242 107.5q188 0 280 -129l29 120q6 48 6 58q0 62 -53.5 99.5t-137.5 37.5q-122 0 -239 -88l-57 178q148 113 354 113q168 0 277.5 -71.5t109.5 -211.5q0 -47 -12 -100zM418 141q104 0 170 88l28 133q-22 46 -68 71.5t-106 25.5
q-76 0 -122 -57.5t-46 -133.5q0 -62 39 -94.5t105 -32.5z" />
    <glyph glyph-name="adieresis" unicode="&#xe4;" horiz-adv-x="985" 
d="M989 1264q0 -58 -45 -103t-104 -45q-50 0 -83.5 34t-33.5 85q0 58 45 102.5t104 44.5q50 0 83.5 -33.5t33.5 -84.5zM604 1264q0 -58 -45 -103t-104 -45q-51 0 -85 34t-34 85q0 58 45 102.5t104 44.5q51 0 85 -33.5t34 -84.5zM782 0h-245l22 98q-99 -123 -256 -123
q-119 0 -198.5 71.5t-79.5 199.5q0 164 98 271.5t242 107.5q188 0 280 -129l29 120q6 48 6 58q0 62 -53.5 99.5t-137.5 37.5q-122 0 -239 -88l-57 178q148 113 354 113q168 0 277.5 -71.5t109.5 -211.5q0 -47 -12 -100zM418 141q104 0 170 88l28 133q-22 46 -68 71.5
t-106 25.5q-76 0 -122 -57.5t-46 -133.5q0 -62 39 -94.5t105 -32.5z" />
    <glyph glyph-name="aring" unicode="&#xe5;" horiz-adv-x="985" 
d="M657 1122q-79 0 -129.5 50.5t-50.5 130.5q0 88 66 153.5t155 65.5q78 0 128.5 -51t50.5 -130q0 -89 -66 -154t-154 -65zM668 1233q40 0 69 29t29 69q0 35 -21.5 57.5t-56.5 22.5q-40 0 -69 -29t-29 -69q0 -34 22 -57t56 -23zM782 0h-245l22 98q-99 -123 -256 -123
q-119 0 -198.5 71.5t-79.5 199.5q0 164 98 271.5t242 107.5q188 0 280 -129l29 120q6 48 6 58q0 62 -53.5 99.5t-137.5 37.5q-122 0 -239 -88l-57 178q148 113 354 113q168 0 277.5 -71.5t109.5 -211.5q0 -47 -12 -100zM418 141q104 0 170 88l28 133q-22 46 -68 71.5
t-106 25.5q-76 0 -122 -57.5t-46 -133.5q0 -62 39 -94.5t105 -32.5z" />
    <glyph glyph-name="ae" unicode="&#xe6;" horiz-adv-x="1570" 
d="M1495 414h-623q-4 -28 -4 -52q0 -75 60 -130.5t164 -55.5q53 0 110 21t101 59l79 -164q-135 -117 -313 -117q-245 0 -352 177q-181 -177 -393 -177q-126 0 -212.5 73.5t-86.5 201.5q0 166 99.5 270.5t242.5 104.5q86 0 163 -33t117 -92l27 116q6 35 6 56q0 65 -52 102
t-136 37q-126 0 -242 -88l-57 178q150 113 354 113q242 0 289 -174q60 79 143.5 126.5t185.5 47.5q161 0 261 -100t100 -291q0 -88 -31 -209zM905 586h393q7 21 7 55q0 75 -47 123.5t-125 48.5q-49 0 -89.5 -20.5t-67 -55.5t-44 -72t-27.5 -79zM616 262q-4 28 -4 55
q0 25 4 45q-19 47 -68 72t-106 25q-71 0 -119.5 -56t-48.5 -135q0 -62 39 -94.5t105 -32.5q113 0 198 121z" />
    <glyph glyph-name="ccedilla" unicode="&#xe7;" horiz-adv-x="868" 
d="M350 -399q-135 0 -217 82l68 94q63 -70 149 -70q43 0 68.5 21.5t25.5 54.5q0 22 -13.5 35.5t-39.5 13.5q-30 0 -55 -29l-78 52l78 135q-135 33 -212 136t-77 261t65 300.5t187 234.5t272 92q113 0 197.5 -40t130.5 -108l-149 -161q-58 92 -168 92q-83 0 -149.5 -60
t-100 -148.5t-33.5 -182.5q0 -102 55.5 -157.5t145.5 -55.5q96 0 166 77l86 -178q-121 -117 -293 -117h-8l-52 -81q23 20 56 20q50 0 82 -33.5t32 -89.5q0 -84 -62 -137t-157 -53z" />
    <glyph glyph-name="egrave" unicode="&#xe8;" horiz-adv-x="987" 
d="M473 -25q-198 0 -313 110t-115 302q0 86 22.5 174.5t68 169.5t107 144.5t145.5 101t177 37.5q175 0 276 -105t101 -286q0 -93 -31 -209h-624q-4 -16 -4 -52q0 -73 56.5 -129.5t168.5 -56.5q55 0 112 21.5t99 56.5l80 -162q-64 -55 -151.5 -86t-174.5 -31zM711 586h4
q6 27 6 57q0 74 -45.5 122t-128.5 48q-89 0 -151 -69t-79 -158h394zM797 1139h-164l-211 295h219z" />
    <glyph glyph-name="eacute" unicode="&#xe9;" horiz-adv-x="987" 
d="M473 -25q-198 0 -313 110t-115 302q0 86 22.5 174.5t68 169.5t107 144.5t145.5 101t177 37.5q175 0 276 -105t101 -286q0 -93 -31 -209h-624q-4 -16 -4 -52q0 -73 56.5 -129.5t168.5 -56.5q55 0 112 21.5t99 56.5l80 -162q-64 -55 -151.5 -86t-174.5 -31zM711 586h4
q6 27 6 57q0 74 -45.5 122t-128.5 48q-89 0 -151 -69t-79 -158h394zM1008 1434l-342 -295h-168l286 295h224z" />
    <glyph glyph-name="ecircumflex" unicode="&#xea;" horiz-adv-x="987" 
d="M473 -25q-198 0 -313 110t-115 302q0 86 22.5 174.5t68 169.5t107 144.5t145.5 101t177 37.5q175 0 276 -105t101 -286q0 -93 -31 -209h-624q-4 -16 -4 -52q0 -73 56.5 -129.5t168.5 -56.5q55 0 112 21.5t99 56.5l80 -162q-64 -55 -151.5 -86t-174.5 -31zM711 586h4
q6 27 6 57q0 74 -45.5 122t-128.5 48q-89 0 -151 -69t-79 -158h394zM918 1139h-140l-90 186l-166 -186h-147l223 295h221z" />
    <glyph glyph-name="edieresis" unicode="&#xeb;" horiz-adv-x="987" 
d="M473 -25q-198 0 -313 110t-115 302q0 86 22.5 174.5t68 169.5t107 144.5t145.5 101t177 37.5q175 0 276 -105t101 -286q0 -93 -31 -209h-624q-4 -16 -4 -52q0 -73 56.5 -129.5t168.5 -56.5q55 0 112 21.5t99 56.5l80 -162q-64 -55 -151.5 -86t-174.5 -31zM711 586h4
q6 27 6 57q0 74 -45.5 122t-128.5 48q-89 0 -151 -69t-79 -158h394zM995 1264q0 -58 -45 -103t-104 -45q-50 0 -83.5 34t-33.5 85q0 58 45.5 102.5t104.5 44.5q50 0 83 -33.5t33 -84.5zM610 1264q0 -58 -45 -103t-104 -45q-51 0 -85 34t-34 85q0 58 45.5 102.5t104.5 44.5
q51 0 84.5 -33.5t33.5 -84.5z" />
    <glyph glyph-name="igrave" unicode="&#xec;" horiz-adv-x="466" 
d="M524 1139h-164l-210 295h219zM246 0h-246l219 989h246z" />
    <glyph glyph-name="iacute" unicode="&#xed;" horiz-adv-x="466" 
d="M733 1434l-342 -295h-168l287 295h223zM246 0h-246l219 989h246z" />
    <glyph glyph-name="icircumflex" unicode="&#xee;" horiz-adv-x="466" 
d="M647 1139h-139l-90 186l-166 -186h-148l224 295h221zM246 0h-246l219 989h246z" />
    <glyph glyph-name="idieresis" unicode="&#xef;" horiz-adv-x="466" 
d="M725 1264q0 -58 -45.5 -103t-104.5 -45q-50 0 -83 34t-33 85q0 58 45 102.5t104 44.5q50 0 83.5 -33.5t33.5 -84.5zM340 1264q0 -58 -45.5 -103t-104.5 -45q-51 0 -84.5 34t-33.5 85q0 58 45 102.5t104 44.5q51 0 85 -33.5t34 -84.5zM246 0h-246l219 989h246z" />
    <glyph glyph-name="eth" unicode="&#xf0;" horiz-adv-x="1019" 
d="M360 1010l-26 116l246 74q-56 81 -95 125l207 127q72 -82 137 -178l179 53l24 -117l-141 -43q104 -198 104 -413q0 -110 -20.5 -219t-64.5 -210.5t-106 -179t-151.5 -124t-193.5 -46.5q-195 0 -306.5 108t-111.5 286q0 83 21 166t61.5 157t95 131.5t126 91t149.5 33.5
q97 0 165 -50.5t99 -141.5q-21 155 -117 338zM465 193q69 0 126.5 57t87.5 138.5t30 162.5q0 72 -44 126t-130 54q-68 0 -125 -58.5t-86 -139t-29 -156.5q0 -89 43.5 -136.5t126.5 -47.5z" />
    <glyph glyph-name="ntilde" unicode="&#xf1;" 
d="M811 0h-246l144 649q6 42 6 51q0 48 -31.5 72.5t-85.5 24.5q-53 0 -105 -36.5t-92 -88.5l-149 -672h-246l219 989h246l-29 -127q140 152 293 152q114 0 181 -57t67 -154q0 -30 -10 -70zM780 1135q-37 0 -63.5 15t-41 36.5t-27 42.5t-30 36t-40.5 15q-60 0 -89 -133h-131
q58 274 234 274q37 0 63.5 -15t41.5 -36.5t28 -42.5t31 -36t41 -15q29 0 50 31.5t38 101.5h131q-61 -274 -236 -274z" />
    <glyph glyph-name="ograve" unicode="&#xf2;" horiz-adv-x="1019" 
d="M453 -25q-195 0 -301.5 111t-106.5 299q0 112 37 223t102.5 202t165 147.5t213.5 56.5q195 0 301.5 -111t106.5 -299q0 -112 -37 -223t-102.5 -202t-165 -147.5t-213.5 -56.5zM465 193q74 0 135 70.5t91 163t30 175.5q0 95 -44.5 145t-123.5 50q-57 0 -107 -41.5
t-81.5 -104.5t-49.5 -133t-18 -131q0 -95 44.5 -144.5t123.5 -49.5zM801 1139h-164l-211 295h219z" />
    <glyph glyph-name="oacute" unicode="&#xf3;" horiz-adv-x="1019" 
d="M453 -25q-195 0 -301.5 111t-106.5 299q0 112 37 223t102.5 202t165 147.5t213.5 56.5q195 0 301.5 -111t106.5 -299q0 -112 -37 -223t-102.5 -202t-165 -147.5t-213.5 -56.5zM465 193q74 0 135 70.5t91 163t30 175.5q0 95 -44.5 145t-123.5 50q-57 0 -107 -41.5
t-81.5 -104.5t-49.5 -133t-18 -131q0 -95 44.5 -144.5t123.5 -49.5zM1010 1434l-342 -295h-168l286 295h224z" />
    <glyph glyph-name="ocircumflex" unicode="&#xf4;" horiz-adv-x="1019" 
d="M453 -25q-195 0 -301.5 111t-106.5 299q0 112 37 223t102.5 202t165 147.5t213.5 56.5q195 0 301.5 -111t106.5 -299q0 -112 -37 -223t-102.5 -202t-165 -147.5t-213.5 -56.5zM465 193q74 0 135 70.5t91 163t30 175.5q0 95 -44.5 145t-123.5 50q-57 0 -107 -41.5
t-81.5 -104.5t-49.5 -133t-18 -131q0 -95 44.5 -144.5t123.5 -49.5zM926 1139h-140l-90 186l-166 -186h-147l223 295h221z" />
    <glyph glyph-name="otilde" unicode="&#xf5;" horiz-adv-x="1019" 
d="M453 -25q-195 0 -301.5 111t-106.5 299q0 112 37 223t102.5 202t165 147.5t213.5 56.5q195 0 301.5 -111t106.5 -299q0 -112 -37 -223t-102.5 -202t-165 -147.5t-213.5 -56.5zM465 193q74 0 135 70.5t91 163t30 175.5q0 95 -44.5 145t-123.5 50q-57 0 -107 -41.5
t-81.5 -104.5t-49.5 -133t-18 -131q0 -95 44.5 -144.5t123.5 -49.5zM776 1135q-37 0 -63.5 15t-41 36.5t-27.5 42.5t-30.5 36t-40.5 15q-59 0 -88 -133h-131q58 274 234 274q37 0 63.5 -15t41.5 -36.5t28 -42.5t31 -36t41 -15q29 0 50 31.5t38 101.5h131q-61 -274 -236 -274
z" />
    <glyph glyph-name="odieresis" unicode="&#xf6;" horiz-adv-x="1019" 
d="M453 -25q-195 0 -301.5 111t-106.5 299q0 112 37 223t102.5 202t165 147.5t213.5 56.5q195 0 301.5 -111t106.5 -299q0 -112 -37 -223t-102.5 -202t-165 -147.5t-213.5 -56.5zM465 193q74 0 135 70.5t91 163t30 175.5q0 95 -44.5 145t-123.5 50q-57 0 -107 -41.5
t-81.5 -104.5t-49.5 -133t-18 -131q0 -95 44.5 -144.5t123.5 -49.5zM1001 1264q0 -58 -45 -103t-104 -45q-50 0 -83.5 34t-33.5 85q0 58 45.5 102.5t104.5 44.5q50 0 83 -33.5t33 -84.5zM616 1264q0 -58 -45 -103t-104 -45q-51 0 -85 34t-34 85q0 58 45.5 102.5t104.5 44.5
q51 0 84.5 -33.5t33.5 -84.5z" />
    <glyph glyph-name="divide" unicode="&#xf7;" horiz-adv-x="907" 
d="M872 614h-788l35 154h786zM410 233q-45 0 -78 33t-33 78q0 54 39.5 92.5t93.5 38.5q44 0 76.5 -33t32.5 -77q0 -54 -39 -93t-92 -39zM557 903q-44 0 -76 32.5t-32 76.5q0 54 38.5 92.5t92.5 38.5q45 0 76.5 -33t31.5 -78q0 -54 -38.5 -91.5t-92.5 -37.5z" />
    <glyph glyph-name="oslash" unicode="&#xf8;" horiz-adv-x="1019" 
d="M115 0h-152l139 147q-57 96 -57 238q0 112 37 223t102.5 202t165 147.5t213.5 56.5q166 0 275 -88l59 63h154l-140 -147q60 -102 60 -238q0 -112 -37 -223t-102.5 -202t-165 -147.5t-213.5 -56.5q-170 0 -279 88zM465 193q74 0 135 70.5t91 163t30 175.5q0 23 -2 37
l-377 -397q43 -49 123 -49zM297 387v-33l375 398q-45 45 -119 45q-57 0 -107 -41.5t-81.5 -104.5t-49.5 -133t-18 -131z" />
    <glyph glyph-name="ugrave" unicode="&#xf9;" 
d="M219 989h246l-143 -649q-9 -36 -9 -49q0 -49 32 -73.5t87 -24.5q96 0 197 122l147 674h248l-219 -989h-248l31 127q-140 -152 -293 -152q-114 0 -181 57t-67 154q0 30 10 70zM805 1139h-164l-211 295h219z" />
    <glyph glyph-name="uacute" unicode="&#xfa;" 
d="M219 989h246l-143 -649q-9 -36 -9 -49q0 -49 32 -73.5t87 -24.5q96 0 197 122l147 674h248l-219 -989h-248l31 127q-140 -152 -293 -152q-114 0 -181 57t-67 154q0 30 10 70zM1014 1434l-342 -295h-168l287 295h223z" />
    <glyph glyph-name="ucircumflex" unicode="&#xfb;" 
d="M219 989h246l-143 -649q-9 -36 -9 -49q0 -49 32 -73.5t87 -24.5q96 0 197 122l147 674h248l-219 -989h-248l31 127q-140 -152 -293 -152q-114 0 -181 57t-67 154q0 30 10 70zM928 1139h-140l-90 186l-166 -186h-147l223 295h221z" />
    <glyph glyph-name="udieresis" unicode="&#xfc;" 
d="M219 989h246l-143 -649q-9 -36 -9 -49q0 -49 32 -73.5t87 -24.5q96 0 197 122l147 674h248l-219 -989h-248l31 127q-140 -152 -293 -152q-114 0 -181 57t-67 154q0 30 10 70zM1010 1264q0 -58 -45.5 -103t-104.5 -45q-50 0 -83.5 34t-33.5 85q0 58 45.5 102.5t104.5 44.5
q50 0 83.5 -33.5t33.5 -84.5zM625 1264q0 -58 -45.5 -103t-104.5 -45q-51 0 -85 34t-34 85q0 58 45.5 102.5t104.5 44.5q51 0 85 -33.5t34 -84.5z" />
    <glyph glyph-name="yacute" unicode="&#xfd;" 
d="M1012 1434l-342 -295h-168l286 295h224zM332 -401q-275 0 -400 149l136 176q38 -55 110 -86t150 -31q98 0 154.5 58t82.5 168l29 131q-138 -150 -291 -150q-112 0 -180 55.5t-68 155.5q0 28 11 68l153 696h246l-135 -612q-6 -27 -6 -49q0 -97 116 -97q99 0 197 123
l139 635h248l-213 -956q-97 -434 -479 -434z" />
    <glyph glyph-name="thorn" unicode="&#xfe;" horiz-adv-x="1034" 
d="M532 -25q-88 0 -155.5 39.5t-102.5 114.5l-112 -506h-246l385 1743h246l-109 -498q110 146 256 146q140 0 219.5 -94.5t79.5 -270.5q0 -86 -18.5 -178t-57 -180.5t-92 -159t-130 -113.5t-163.5 -43zM485 193q74 0 134 71t89 164.5t29 179.5q0 88 -43 138.5t-116 50.5
q-51 0 -99.5 -33t-83.5 -84l-82 -371q21 -52 66.5 -84t105.5 -32z" />
    <glyph glyph-name="ydieresis" unicode="&#xff;" 
d="M1001 1264q0 -58 -45 -103t-104 -45q-50 0 -83.5 34t-33.5 85q0 58 45.5 102.5t104.5 44.5q50 0 83 -33.5t33 -84.5zM616 1264q0 -58 -45 -103t-104 -45q-51 0 -85 34t-34 85q0 58 45.5 102.5t104.5 44.5q51 0 84.5 -33.5t33.5 -84.5zM332 -401q-275 0 -400 149l136 176
q38 -55 110 -86t150 -31q98 0 154.5 58t82.5 168l29 131q-138 -150 -291 -150q-112 0 -180 55.5t-68 155.5q0 28 11 68l153 696h246l-135 -612q-6 -27 -6 -49q0 -97 116 -97q99 0 197 123l139 635h248l-213 -956q-97 -434 -479 -434z" />
    <glyph glyph-name="dotlessi" unicode="&#x131;" horiz-adv-x="466" 
d="M246 0h-246l219 989h246z" />
    <glyph glyph-name="Lslash" unicode="&#x141;" horiz-adv-x="933" 
d="M6 420l49 225l138 70l143 651h274l-108 -494l160 82l-50 -225l-161 -82l-89 -405h461l-53 -242h-735l106 489z" />
    <glyph glyph-name="lslash" unicode="&#x142;" horiz-adv-x="600" 
d="M12 446l41 183l148 76l147 661h246l-115 -520l152 78l-39 -181l-152 -77l-80 -363q-6 -18 -6 -43q0 -32 21 -49.5t55 -17.5q40 0 62 22l6 -201q-49 -39 -144 -39q-123 0 -192.5 49t-69.5 142q0 43 8 84l60 272z" />
    <glyph glyph-name="OE" unicode="&#x152;" horiz-adv-x="1767" 
d="M1581 0h-782l26 129q-60 -76 -144 -115t-179 -39q-185 0 -305.5 145.5t-120.5 381.5q0 123 31.5 249.5t92 240t141.5 202t188 140.5t223 52q105 0 188 -44.5t125 -137.5l35 162h782l-51 -242h-510l-68 -309h494l-53 -240h-494l-74 -333h508zM891 420l108 495
q-18 112 -80.5 170t-158.5 58q-86 0 -164 -63.5t-128.5 -159.5t-80 -206t-29.5 -208q0 -130 65 -208.5t175 -78.5q84 0 161.5 53t131.5 148z" />
    <glyph glyph-name="oe" unicode="&#x153;" horiz-adv-x="1632" 
d="M1559 414h-617q-4 -16 -4 -52q0 -77 56 -131.5t163 -54.5q55 0 111.5 21t97.5 59l80 -164q-65 -56 -149 -86.5t-173 -30.5q-126 0 -212.5 58t-118.5 143q-35 -45 -66 -76.5t-73.5 -62t-93.5 -46.5t-111 -16q-190 0 -297 109.5t-107 300.5q0 113 36.5 224.5t101 202
t163.5 146.5t213 56q115 0 196.5 -57t118.5 -142q144 199 343 199q167 0 269.5 -100t102.5 -291q0 -91 -30 -209zM973 586h389q6 21 6 57q0 75 -42.5 122.5t-127.5 47.5q-89 0 -150 -71t-75 -156zM713 602q0 94 -44.5 144.5t-121.5 50.5q-71 0 -130.5 -67.5t-89.5 -160.5
t-30 -182q0 -92 41.5 -143t122.5 -51q73 0 133 69.5t89.5 162t29.5 177.5z" />
    <glyph glyph-name="Scaron" unicode="&#x160;" horiz-adv-x="1017" 
d="M858 1491h-221l-98 295h139l90 -187l166 187h147zM465 -25q-154 0 -286.5 57.5t-201.5 149.5l164 203q54 -76 145 -121t191 -45q85 0 135 49.5t50 120.5q0 37 -27 70t-70.5 60.5t-96 56.5t-105 63.5t-96 75.5t-70.5 100t-27 129q0 88 35.5 169t97.5 142t153 97.5
t195 36.5q127 0 242.5 -47t187.5 -132l-159 -200q-52 65 -131 100t-162 35q-73 0 -120.5 -44t-47.5 -106q0 -35 27 -67t70 -59.5t95.5 -56.5t104.5 -64.5t95 -77t70 -101t27 -129.5q0 -125 -58 -230t-170 -170t-257 -65z" />
    <glyph glyph-name="scaron" unicode="&#x161;" horiz-adv-x="845" 
d="M362 -25q-123 0 -229.5 45t-165.5 119l137 164q38 -53 113.5 -93t157.5 -40q61 0 99 32.5t38 78.5q0 30 -30 56.5t-74.5 45t-97 46t-97 57.5t-74.5 81t-30 115q0 137 99.5 234.5t272.5 97.5q106 0 203.5 -40.5t159.5 -109.5l-129 -157q-30 43 -98.5 77.5t-139.5 34.5
q-59 0 -94 -27.5t-35 -70.5q0 -27 30.5 -52t76 -43.5t98.5 -46t98.5 -58.5t76 -83t30.5 -116q0 -144 -108 -245.5t-288 -101.5zM682 1139h-221l-99 295h140l90 -187l166 187h147z" />
    <glyph glyph-name="Ydieresis" unicode="&#x178;" horiz-adv-x="1107" 
d="M1128 1618q0 -58 -45 -103t-104 -45q-50 0 -83.5 34t-33.5 85q0 58 45.5 103t104.5 45q50 0 83 -34t33 -85zM743 1618q0 -58 -45 -103t-104 -45q-51 0 -85 34t-34 85q0 58 45.5 103t104.5 45q51 0 84.5 -34t33.5 -85zM582 0h-275l123 563l-248 803h289l139 -549l381 549
h316l-602 -803z" />
    <glyph glyph-name="Zcaron" unicode="&#x17d;" horiz-adv-x="995" 
d="M831 1491h-221l-98 295h139l90 -187l166 187h148zM813 0h-850l49 227l684 897h-485l53 242h836l-49 -221l-691 -903h506z" />
    <glyph glyph-name="zcaron" unicode="&#x17e;" horiz-adv-x="837" 
d="M657 0h-696l39 184l498 590h-367l49 215h688l-41 -176l-503 -598h378zM664 1139h-222l-98 295h139l90 -187l166 187h148z" />
    <glyph glyph-name="florin" unicode="&#x192;" horiz-adv-x="874" 
d="M193 -330h-281l180 824h-98v215h147l82 376q32 141 116.5 221t217.5 80q150 0 234 -73l-89 -203q-32 35 -86 35q-49 0 -80.5 -32.5t-43.5 -90.5l-70 -313h199v-215h-246z" />
    <glyph glyph-name="circumflex" unicode="&#x2c6;" horiz-adv-x="542" 
d="M684 1139h-139l-90 186l-166 -186h-148l224 295h221z" />
    <glyph glyph-name="caron" unicode="&#x2c7;" horiz-adv-x="542" 
d="M526 1139h-221l-98 295h139l90 -187l166 187h148z" />
    <glyph glyph-name="breve" unicode="&#x2d8;" horiz-adv-x="614" 
d="M791 1294q-69 -72 -157.5 -112.5t-182.5 -40.5q-92 0 -164 40.5t-111 112.5l125 90q24 -47 69 -74.5t105 -27.5q59 0 116.5 27t100.5 75z" />
    <glyph glyph-name="dotaccent" unicode="&#x2d9;" horiz-adv-x="339" 
d="M475 1282q0 -58 -46 -102.5t-105 -44.5q-51 0 -85 33.5t-34 84.5q0 59 45.5 103.5t105.5 44.5q51 0 85 -34t34 -85z" />
    <glyph glyph-name="ring" unicode="&#x2da;" horiz-adv-x="395" 
d="M358 1122q-79 0 -129.5 50.5t-50.5 130.5q0 88 66 153.5t155 65.5q78 0 128.5 -51t50.5 -130q0 -89 -66 -154t-154 -65zM369 1233q40 0 69 29t29 69q0 35 -21.5 57.5t-56.5 22.5q-40 0 -69 -29t-29 -69q0 -34 22 -57t56 -23z" />
    <glyph glyph-name="ogonek" unicode="&#x2db;" horiz-adv-x="358" 
d="M100 -213l88 -66q-73 -102 -176 -102q-75 0 -123.5 37.5t-48.5 107.5q0 77 53 154t166 141l84 -59q-83 -43 -131.5 -99t-48.5 -120q0 -55 57 -55q50 0 80 61z" />
    <glyph glyph-name="tilde" unicode="&#x2dc;" horiz-adv-x="600" 
d="M565 1135q-37 0 -63.5 15t-41 36.5t-27.5 42.5t-30.5 36t-40.5 15q-59 0 -88 -133h-131q58 274 234 274q37 0 63.5 -15t41.5 -36.5t28 -42.5t31 -36t41 -15q29 0 50 31.5t38 101.5h131q-61 -274 -236 -274z" />
    <glyph glyph-name="hungarumlaut" unicode="&#x2dd;" horiz-adv-x="620" 
d="M543 1434l-267 -295h-139l211 295h195zM827 1434l-266 -295h-139l211 295h194z" />
    <glyph glyph-name="pi" unicode="&#x3c0;" horiz-adv-x="1079" 
d="M813 0h-248l178 807h-272l-178 -807h-248l178 807h-110l47 217h989l-47 -217h-111z" />
    <glyph glyph-name="endash" unicode="&#x2013;" horiz-adv-x="1079" 
d="M993 391h-956l45 209h956z" />
    <glyph glyph-name="emdash" unicode="&#x2014;" horiz-adv-x="1509" 
d="M1423 391h-1386l45 209h1386z" />
    <glyph glyph-name="quoteleft" unicode="&#x2018;" horiz-adv-x="518" 
d="M195 989q0 113 84 226t208 174l88 -95q-61 -27 -117.5 -74t-78.5 -98q4 2 20 2q52 0 86.5 -34t34.5 -93q0 -69 -53.5 -119.5t-120.5 -50.5q-63 0 -107 43t-44 119z" />
    <glyph glyph-name="quoteright" unicode="&#x2019;" horiz-adv-x="518" 
d="M586 1227q0 -114 -84 -226.5t-209 -173.5l-88 93q61 27 117.5 74t78.5 98q-4 -2 -20 -2q-50 0 -85.5 34.5t-35.5 94.5q0 68 53.5 117.5t120.5 49.5q64 0 108 -42t44 -117z" />
    <glyph glyph-name="quotesinglbase" unicode="&#x201a;" horiz-adv-x="518" 
d="M344 133q0 -112 -84 -224t-209 -173l-88 92q61 27 118 74.5t79 97.5q-4 -2 -21 -2q-52 0 -86.5 34t-34.5 93q0 69 53.5 119.5t121.5 50.5q62 0 106.5 -43t44.5 -119z" />
    <glyph glyph-name="quotedblleft" unicode="&#x201c;" horiz-adv-x="923" 
d="M604 989q0 113 83.5 226t207.5 174l88 -95q-61 -27 -117.5 -74t-79.5 -98q6 2 21 2q52 0 87.5 -34t35.5 -93q0 -69 -53.5 -119.5t-120.5 -50.5q-64 0 -108 43t-44 119zM201 989q0 113 83.5 226t207.5 174l88 -95q-60 -28 -117 -75t-80 -97q6 2 23 2q50 0 85 -34t35 -93
q0 -69 -53.5 -119.5t-120.5 -50.5q-63 0 -107 43t-44 119z" />
    <glyph glyph-name="quotedblright" unicode="&#x201d;" horiz-adv-x="923" 
d="M586 1227q0 -114 -84 -226.5t-209 -173.5l-88 93q61 27 117.5 74t78.5 98q-4 -2 -20 -2q-50 0 -85.5 34.5t-35.5 94.5q0 68 53.5 117.5t120.5 49.5q64 0 108 -42t44 -117zM989 1227q0 -114 -84 -226.5t-209 -173.5l-88 93q61 27 118 74.5t79 97.5q-4 -2 -21 -2
q-52 0 -86 34t-34 95q0 68 53.5 117.5t120.5 49.5q63 0 107 -42t44 -117z" />
    <glyph glyph-name="quotedblbase" unicode="&#x201e;" horiz-adv-x="923" 
d="M344 133q0 -112 -84 -224t-209 -173l-88 92q61 27 118 74.5t79 97.5q-4 -2 -21 -2q-52 0 -86.5 34t-34.5 93q0 69 53.5 119.5t121.5 50.5q62 0 106.5 -43t44.5 -119zM748 133q0 -112 -84 -224t-209 -173l-88 92q61 27 117.5 74t78.5 98q-4 -2 -20 -2q-52 0 -86.5 34
t-34.5 93q0 69 53.5 119.5t120.5 50.5q62 0 107 -43t45 -119z" />
    <glyph glyph-name="dagger" unicode="&#x2020;" horiz-adv-x="563" 
d="M647 1071l-180 8l-82 -409h-133l100 409l-184 -8l27 123l180 -6l37 198h133l-53 -198l182 6z" />
    <glyph glyph-name="daggerdbl" unicode="&#x2021;" horiz-adv-x="563" 
d="M674 1194l-27 -123l-180 8l-90 -401l184 8l-26 -123l-181 6l-37 -200h-133l54 200l-183 -6l27 123l178 -8l90 401l-182 -8l27 123l180 -6l37 198h133l-53 -198z" />
    <glyph glyph-name="bullet" unicode="&#x2022;" horiz-adv-x="733" 
d="M608 520q0 -107 -80 -184.5t-188 -77.5q-92 0 -153.5 61.5t-61.5 153.5q0 107 80 184.5t188 77.5q92 0 153.5 -61.5t61.5 -153.5z" />
    <glyph glyph-name="ellipsis" unicode="&#x2026;" horiz-adv-x="1550" 
d="M162 -23q-60 0 -102 43t-42 103q0 70 52 121t123 51q60 0 101.5 -43t41.5 -105q0 -70 -51.5 -120t-122.5 -50zM680 -23q-61 0 -103 43t-42 103q0 70 51.5 121t122.5 51q60 0 101.5 -43t41.5 -105q0 -70 -51 -120t-121 -50zM1196 -23q-61 0 -103 43t-42 103q0 70 51.5 121
t122.5 51q60 0 101.5 -43t41.5 -105q0 -70 -50.5 -120t-121.5 -50z" />
    <glyph glyph-name="perthousand" unicode="&#x2030;" horiz-adv-x="2035" 
d="M283 0h-129l1024 1366h129zM946 -25q-122 0 -200 75.5t-78 195.5q0 174 104 291.5t244 117.5q122 0 200 -75t78 -195q0 -174 -103.5 -292t-244.5 -118zM956 127q65 0 116.5 71.5t51.5 172.5q0 62 -31 97.5t-85 35.5q-66 0 -118 -71t-52 -173q0 -62 31.5 -97.5t86.5 -35.5
zM440 707q-123 0 -201.5 75t-78.5 195q0 174 104 291.5t244 117.5q123 0 201.5 -75t78.5 -195q0 -173 -104 -291t-244 -118zM449 858q65 0 117 71.5t52 172.5q0 61 -32 97t-86 36q-66 0 -118 -71t-52 -173q0 -61 32.5 -97t86.5 -36zM1606 -25q-122 0 -200.5 75.5
t-78.5 195.5q0 175 103.5 292t244.5 117q122 0 200.5 -75.5t78.5 -194.5q0 -174 -103.5 -292t-244.5 -118zM1614 127q66 0 118 71t52 173q0 62 -32 97.5t-87 35.5q-65 0 -116.5 -71.5t-51.5 -172.5q0 -61 31.5 -97t85.5 -36z" />
    <glyph glyph-name="guilsinglleft" unicode="&#x2039;" horiz-adv-x="587" 
d="M436 129h-203l-174 369l338 362h215l-344 -371z" />
    <glyph glyph-name="guilsinglright" unicode="&#x203a;" horiz-adv-x="587" 
d="M154 860h202l174 -368l-337 -363h-216l347 373z" />
    <glyph glyph-name="fraction" unicode="&#x2044;" horiz-adv-x="299" 
d="M766 1366l-1026 -1366h-127l1024 1366h129z" />
    <glyph glyph-name="Euro" unicode="&#x20ac;" horiz-adv-x="1187" 
d="M639 -25q-223 0 -364.5 132t-153.5 358h-92l34 153h64q7 73 20 134h-55l35 153h70q84 216 244 350t370 134q84 0 155.5 -21.5t122.5 -58t91 -87.5t64 -106t38 -117l-258 -71q-24 102 -82.5 159.5t-144.5 57.5q-89 0 -165.5 -65t-131.5 -175h366l-37 -153h-389
q-19 -70 -28 -134h389l-33 -153h-360q9 -115 74 -180.5t171 -65.5q67 0 132 42.5t116 119.5l215 -119q-90 -143 -214 -215t-263 -72z" />
    <glyph glyph-name="trademark" unicode="&#x2122;" horiz-adv-x="847" 
d="M868 915h-57l82 373l-215 -373h-16l-52 373l-82 -373h-57l98 451h88l41 -324l181 324h88zM485 1313h-106l-88 -398h-58l89 398h-107l10 53h271z" />
    <glyph glyph-name="Omega" unicode="&#x2126;" horiz-adv-x="1271" 
d="M-18 0l53 242h233q-170 157 -170 393q0 100 27.5 204.5t84 202.5t133.5 175.5t184 124.5t227 47q113 0 208.5 -31.5t167.5 -91t113 -154.5t41 -215q0 -108 -30 -208.5t-83 -182t-119 -147t-145 -117.5h215l-53 -242h-451l54 242q92 40 167 149t113.5 233.5t38.5 231.5
q0 134 -63.5 210.5t-182.5 76.5q-83 0 -158 -61.5t-123.5 -155.5t-77 -203t-28.5 -207q0 -191 127 -274l-53 -242h-450z" />
    <glyph glyph-name="partialdiff" unicode="&#x2202;" horiz-adv-x="1019" 
d="M459 -25q-195 0 -307.5 108.5t-112.5 285.5q0 104 34 207t92.5 186t145 134.5t183.5 51.5t165 -50.5t99 -141.5q-18 136 -96.5 297.5t-176.5 271.5l207 127q156 -178 229.5 -346t73.5 -352q0 -110 -20.5 -219t-64.5 -210.5t-106 -179t-151.5 -124t-193.5 -46.5zM465 193
q69 0 126.5 57t87.5 138.5t30 162.5q0 72 -44 126t-130 54q-68 0 -125 -58.5t-86 -139t-29 -156.5q0 -89 43.5 -136.5t126.5 -47.5z" />
    <glyph glyph-name="Delta" unicode="&#x2206;" horiz-adv-x="1140" 
d="M1032 0h-1147l711 1366h330zM745 242l-38 835l-406 -835h444z" />
    <glyph glyph-name="product" unicode="&#x220f;" horiz-adv-x="1339" 
d="M983 -184h-274l288 1308h-381l-288 -1308h-275l289 1308h-160l54 242h1249l-53 -242h-160z" />
    <glyph glyph-name="summation" unicode="&#x2211;" horiz-adv-x="974" 
d="M528 1124l213 -528l-446 -539h506l-53 -241h-818l54 245l448 547l-211 518l53 240h816l-54 -242h-508z" />
    <glyph glyph-name="minus" unicode="&#x2212;" horiz-adv-x="909" 
d="M872 608h-790l35 154h788z" />
    <glyph glyph-name="radical" unicode="&#x221a;" horiz-adv-x="1181" 
d="M602 0h-166l-47 621l-246 -70l-4 149l400 107l34 -561l580 1120h174z" />
    <glyph glyph-name="infinity" unicode="&#x221e;" horiz-adv-x="1210" 
d="M334 328q-116 0 -180 74t-64 198q0 107 39 207.5t119.5 170t183.5 69.5q92 0 156.5 -57t89.5 -154q59 99 125.5 155t152.5 56q116 0 180 -74.5t64 -200.5q0 -78 -23.5 -156t-65.5 -142.5t-108.5 -105t-144.5 -40.5q-92 0 -157.5 56t-90.5 153q-59 -99 -124.5 -154
t-151.5 -55zM852 481q81 0 135.5 81.5t54.5 182.5q0 68 -33.5 108t-88.5 40q-110 0 -205 -215q8 -94 42.5 -145.5t94.5 -51.5zM373 481q107 0 207 213q-8 95 -43.5 147t-96.5 52q-81 0 -135.5 -81t-54.5 -183q0 -68 34.5 -108t88.5 -40z" />
    <glyph glyph-name="integral" unicode="&#x222b;" horiz-adv-x="630" 
d="M-33 -205h-88l35 164h90q50 0 83 32t44 87l270 1212q64 283 342 283h91l-39 -164h-90q-50 0 -82 -32t-43 -87l-271 -1212q-31 -139 -117 -211t-225 -72z" />
    <glyph glyph-name="approxequal" unicode="&#x2248;" horiz-adv-x="909" 
d="M39 414l37 164q79 -52 186 -52q56 0 108.5 14t88.5 31t94 31t123 14q114 0 188 -41l-35 -163q-77 51 -188 51q-69 0 -132 -22.5t-131 -45t-151 -22.5q-108 0 -188 41zM123 793l37 163q74 -51 186 -51q56 0 108.5 14t88.5 31t94 31t123 14q108 0 188 -41l-35 -163
q-77 51 -186 51q-56 0 -109 -14t-89 -31t-94 -31t-124 -14q-114 0 -188 41z" />
    <glyph glyph-name="notequal" unicode="&#x2260;" horiz-adv-x="909" 
d="M193 190h-138l168 224h-184l35 153h264l176 234h-389l35 153h469l166 222h137l-166 -222h182l-33 -153h-266l-174 -234h389l-35 -153h-469z" />
    <glyph glyph-name="lessequal" unicode="&#x2264;" horiz-adv-x="909" 
d="M797 268l-713 348l39 177l866 348l-41 -193l-667 -254l555 -250zM743 25h-788l33 153h788z" />
    <glyph glyph-name="greaterequal" unicode="&#x2265;" horiz-adv-x="909" 
d="M872 616l-866 -348l43 193l668 250l-555 254l39 176l712 -348zM743 25h-790l35 153h788z" />
    <glyph glyph-name="lozenge" unicode="&#x25ca;" horiz-adv-x="768" 
d="M295 0h-43l-172 684l473 682h43l174 -682zM291 92l403 600l-137 582l-401 -598z" />
    <glyph glyph-name="apple" unicode="&#xf8ff;" horiz-adv-x="1366" 
d="M408 313l30 140h-151q-63 0 -109.5 -46t-46.5 -108q0 -53 33 -88t84 -35q62 0 104 36.5t56 100.5zM541 913l26 119q4 24 4 37q0 55 -33 88t-89 33q-65 0 -110.5 -43.5t-45.5 -108.5q0 -58 37 -91.5t96 -33.5h115zM551 543h280l64 280h-281zM1151 328q0 58 -37 91.5
t-96 33.5h-113l-26 -119q-5 -15 -5 -37q0 -55 33.5 -88t87.5 -33q65 0 110.5 43.5t45.5 108.5zM1315 1067q0 53 -33.5 88t-85.5 35q-62 0 -104 -36.5t-56 -100.5l-30 -140h153q61 0 108.5 47t47.5 107zM1243 328q0 -98 -80 -170t-182 -72q-86 0 -143.5 57.5t-57.5 143.5
q0 29 6 59l25 107h-281l-34 -156q-22 -94 -92.5 -152.5t-163.5 -58.5q-85 0 -144 57.5t-59 141.5q0 100 77.5 179t178.5 79h166l63 280h-114q-93 0 -149 60t-56 155q0 98 79.5 170t180.5 72q86 0 143.5 -57.5t57.5 -143.5q0 -24 -7 -59l-24 -107h280l35 156
q22 94 92.5 152.5t163.5 58.5q85 0 145 -57.5t60 -141.5q0 -101 -77.5 -179.5t-178.5 -78.5h-166l-63 -280h108q93 0 152 -60.5t59 -154.5z" />
    </font>
</defs>
</svg>
