<?xml version="1.0" standalone="no"?>
<!DOCTYPE svg PUBLIC "-//W3C//DTD SVG 1.1//EN" "http://www.w3.org/Graphics/SVG/1.1/DTD/svg11.dtd" >
<svg xmlns="http://www.w3.org/2000/svg" xmlns:xlink="http://www.w3.org/1999/xlink" version="1.1">
<metadata>
Created by FontForge 20170731 at Thu Oct 14 08:25:27 2021
 By Aleksey,,,
Copyright (c) Mark Simonson, 2005. All rights reserved.
</metadata>
<defs>
<font id="ProximaNovaACond-SemiboldIt" horiz-adv-x="995" >
  <font-face 
    font-family="Proxima Nova Alt Cn Lt"
    font-weight="600"
    font-style="italic"
    font-stretch="normal"
    units-per-em="2048"
    panose-1="2 0 5 6 3 0 0 2 0 4"
    ascent="1618"
    descent="-430"
    x-height="989"
    cap-height="1366"
    bbox="-387 -408 1919 1804"
    underline-thickness="40"
    underline-position="-312"
    unicode-range="U+000D-FB02"
  />
<missing-glyph horiz-adv-x="980" 
d="M891 -184h-719v1724h719v-1724zM825 -123v1602h-589v-1602h589z" />
    <glyph glyph-name="fi" unicode="fi" horiz-adv-x="1003" 
d="M254 0h-203l180 811h-129l39 178h129l19 90q67 307 313 307q97 0 166 -38l-74 -158q-29 20 -71 20q-101 0 -129 -131l-21 -90h164l-39 -178h-164zM930 1114q-49 0 -82 32.5t-33 78.5q0 63 45.5 103t97.5 40q50 0 83.5 -31.5t33.5 -76.5q0 -65 -45.5 -105.5t-99.5 -40.5z
M772 0h-203l219 989h203z" />
    <glyph glyph-name="fl" unicode="fl" horiz-adv-x="1079" 
d="M254 0h-203l180 811h-129l39 178h129l19 90q67 307 313 307q97 0 166 -38l-74 -158q-29 20 -71 20q-101 0 -129 -131l-21 -90h164l-39 -178h-164zM846 -25q-111 0 -173.5 45.5t-62.5 131.5q0 38 8 77l252 1137h203l-242 -1094q-1 -5 -2.5 -15t-2.5 -18t-1 -14
q1 -33 21.5 -51t56.5 -18q44 0 70 26l12 -166q-55 -41 -139 -41z" />
    <glyph glyph-name=".notdef" horiz-adv-x="980" 
d="M891 -184h-719v1724h719v-1724zM825 -123v1602h-589v-1602h589z" />
    <glyph glyph-name=".null" horiz-adv-x="0" 
 />
    <glyph glyph-name="nonmarkingreturn" horiz-adv-x="682" 
 />
    <glyph glyph-name="NUL" horiz-adv-x="0" 
 />
    <glyph glyph-name="NUL" horiz-adv-x="0" 
 />
    <glyph glyph-name="CR" unicode="&#xd;" horiz-adv-x="0" 
 />
    <glyph glyph-name="space" unicode=" " horiz-adv-x="432" 
 />
    <glyph glyph-name="exclam" unicode="!" horiz-adv-x="495" 
d="M315 412h-176l174 954h250zM150 -23q-53 0 -89 37t-36 90q0 61 43.5 104.5t105.5 43.5q52 0 88.5 -36t36.5 -89q0 -61 -44.5 -105.5t-104.5 -44.5z" />
    <glyph glyph-name="quotedbl" unicode="&#x22;" horiz-adv-x="763" 
d="M328 809h-92q28 411 30 440q1 60 39 98.5t94 38.5q42 0 72.5 -30t30.5 -74q0 -27 -13 -53zM662 809h-93q29 411 31 440q1 60 39 98.5t94 38.5q42 0 72.5 -30t30.5 -74q0 -27 -13 -53z" />
    <glyph glyph-name="numbersign" unicode="#" horiz-adv-x="1073" 
d="M473 0h-156l185 360h-174l-181 -360h-157l182 360h-168l68 136h170l188 374h-170l64 134h174l180 362h158l-183 -362h172l181 362h155l-180 -362h168l-64 -134h-172l-190 -374h176l-65 -136h-179zM565 496l193 374h-172l-189 -374h168z" />
    <glyph glyph-name="dollar" unicode="$" horiz-adv-x="1001" 
d="M281 -205l43 193q-107 20 -193.5 69.5t-136.5 118.5l139 166q81 -119 234 -156l94 424q-48 29 -79 50t-71 56t-63.5 68.5t-40.5 81t-17 99.5q0 83 33.5 159.5t92 134t141.5 93t178 37.5l41 184h155l-45 -201q171 -39 267 -155l-135 -164q-69 87 -177 118l-86 -391
q59 -37 96.5 -65.5t80.5 -73t64.5 -98t21.5 -117.5q0 -117 -52.5 -217t-155 -164t-235.5 -70l-39 -180h-155zM680 387q0 70 -82 135l-76 -340q74 18 116 74.5t42 130.5zM432 1004q0 -70 86 -136l70 316q-69 -13 -112.5 -64.5t-43.5 -115.5z" />
    <glyph glyph-name="percent" unicode="%" horiz-adv-x="1357" 
d="M268 0h-114l1020 1366h116zM928 -25q-119 0 -195 75.5t-76 191.5q0 174 102.5 292.5t239.5 118.5q119 0 195 -75t76 -191q0 -175 -102.5 -293.5t-239.5 -118.5zM934 104q74 0 132 79t58 190q0 70 -36 109.5t-95 39.5q-74 0 -131 -77.5t-57 -188.5q0 -70 35 -111t94 -41z
M436 709q-119 0 -194.5 75t-75.5 191q0 174 102.5 292.5t239.5 118.5q119 0 194.5 -75t75.5 -191q0 -174 -102.5 -292.5t-239.5 -118.5zM444 840q73 0 131 77.5t58 188.5q0 70 -36 110.5t-95 40.5q-74 0 -131.5 -78.5t-57.5 -189.5q0 -70 35.5 -109.5t95.5 -39.5z" />
    <glyph glyph-name="ampersand" unicode="&#x26;" horiz-adv-x="1101" 
d="M944 0h-227q-36 60 -49 86q-150 -111 -303 -111q-155 0 -251 82.5t-96 235.5q0 76 20 142t51 113.5t79.5 91t94 73t106.5 61.5q-29 119 -29 211q0 165 105.5 283t248.5 118q120 0 196.5 -64t76.5 -185q0 -47 -12 -90t-29 -75.5t-48.5 -65.5t-58 -55t-71.5 -49.5
t-74.5 -43t-79.5 -41.5q-3 -1 -4 -2q36 -91 65 -156q33 -80 78 -176q90 119 164 270l147 -90q-112 -202 -229 -338q51 -97 129 -225zM401 139q90 0 191 88q-66 129 -98 205q-31 70 -76 186q-87 -60 -134.5 -130.5t-47.5 -168.5q0 -83 47 -131.5t118 -48.5zM532 979
q0 -54 13 -117q118 60 178.5 119t60.5 147q0 55 -25.5 81t-68.5 26q-60 0 -109 -76t-49 -180z" />
    <glyph glyph-name="quotesingle" unicode="'" horiz-adv-x="432" 
d="M328 809h-92q28 411 30 440q1 60 39 98.5t94 38.5q42 0 72.5 -30t30.5 -74q0 -27 -13 -53z" />
    <glyph glyph-name="parenleft" unicode="(" horiz-adv-x="526" 
d="M305 -340l-151 -68q-107 236 -107 537q0 347 131.5 672t372.5 602l119 -92q-192 -280 -302 -609.5t-110 -658.5q0 -78 13.5 -187.5t33.5 -195.5z" />
    <glyph glyph-name="parenright" unicode=")" horiz-adv-x="526" 
d="M219 1335l152 68q106 -234 106 -537q0 -347 -131.5 -672t-372.5 -602l-118 93q192 280 301.5 608.5t109.5 658.5q0 78 -13.5 187.5t-33.5 195.5z" />
    <glyph glyph-name="asterisk" unicode="*" horiz-adv-x="675" 
d="M453 776h-111l64 236l-222 -101l-32 99l227 82l-180 122l73 89l166 -144l39 227h113l-66 -235l221 100l33 -98l-223 -82l178 -125l-78 -86l-163 141z" />
    <glyph glyph-name="plus" unicode="+" horiz-adv-x="903" 
d="M872 625h-321l-80 -367h-145l82 367h-322l31 133h319l78 350h145l-77 -350h319z" />
    <glyph glyph-name="comma" unicode="," horiz-adv-x="497" 
d="M307 111q0 -104 -77.5 -208t-190.5 -159l-76 80q60 28 112.5 75t71.5 97h-18q-43 0 -73.5 30t-30.5 80q0 59 45.5 102.5t103.5 43.5q56 0 94.5 -37t38.5 -104z" />
    <glyph glyph-name="hyphen" unicode="-" horiz-adv-x="552" 
d="M471 408h-430l37 176h430z" />
    <glyph glyph-name="period" unicode="." horiz-adv-x="495" 
d="M150 -23q-52 0 -88.5 37t-36.5 90q0 61 44.5 104.5t104.5 43.5q54 0 89.5 -36t35.5 -89q0 -62 -44 -106t-105 -44z" />
    <glyph glyph-name="slash" unicode="/" horiz-adv-x="542" 
d="M33 -41h-156l713 1448h158z" />
    <glyph glyph-name="zero" unicode="0" horiz-adv-x="1081" 
d="M475 -25q-179 0 -283 125.5t-104 352.5q0 129 27.5 262t81 252.5t125 213.5t167 149.5t199.5 55.5q179 0 282 -124t103 -353q0 -162 -44 -327.5t-120 -300.5t-190.5 -220.5t-243.5 -85.5zM494 176q78 0 147 81.5t112.5 201.5t69 248t25.5 229q0 250 -182 250
q-77 0 -146 -81.5t-112.5 -201t-69 -247t-25.5 -228.5q0 -117 43.5 -184.5t137.5 -67.5z" />
    <glyph glyph-name="one" unicode="1" horiz-adv-x="720" 
d="M479 0h-227l237 1073l-256 -219l-102 137l451 375h198z" />
    <glyph glyph-name="two" unicode="2" horiz-adv-x="1044" 
d="M829 0h-843l49 221q54 44 155 125q131 105 191.5 154.5t150.5 126.5t128.5 118.5t82.5 95.5t59 96t15 85q0 76 -55.5 120t-147.5 44q-165 0 -284 -131l-111 153q80 83 187.5 130.5t226.5 47.5q180 0 301 -91t121 -253q0 -49 -11 -96t-37.5 -97t-55 -93t-81.5 -99.5
t-97 -100.5t-121.5 -111.5t-135 -116t-156.5 -129.5h512z" />
    <glyph glyph-name="three" unicode="3" horiz-adv-x="1019" 
d="M453 -25q-160 0 -290.5 74.5t-180.5 204.5l172 123q39 -95 120.5 -148t178.5 -53q111 0 175 77.5t64 182.5q0 77 -55.5 119.5t-155.5 42.5q-68 0 -108 -4l45 205q18 -2 145 -2q108 0 176 64.5t68 164.5q0 74 -59 117t-160 43q-73 0 -143.5 -32t-125.5 -91l-106 143
q75 82 180.5 131t222.5 49q191 0 307.5 -84.5t116.5 -236.5q0 -141 -100 -246t-233 -125q98 -29 153 -103t55 -175q0 -182 -132.5 -311.5t-329.5 -129.5z" />
    <glyph glyph-name="four" unicode="4" horiz-adv-x="1009" 
d="M711 0h-226l68 315h-549l47 211l662 840h299l-189 -850h144l-43 -201h-144zM598 516l135 610l-479 -610h344z" />
    <glyph glyph-name="five" unicode="5" horiz-adv-x="1052" 
d="M475 -25q-325 0 -448 271l172 125q37 -95 108.5 -145t171.5 -50q108 0 184 96t76 222q0 87 -55 136.5t-149 49.5q-65 0 -117 -23.5t-107 -72.5l-149 63l157 719h771l-46 -199h-542l-86 -393q95 92 237 92q141 0 232.5 -92t91.5 -252q0 -107 -37 -206.5t-101.5 -175
t-159.5 -120.5t-204 -45z" />
    <glyph glyph-name="six" unicode="6" horiz-adv-x="1050" 
d="M489 -25q-197 0 -303 122.5t-106 338.5q0 91 17.5 193.5t50.5 210t88 204.5t123.5 174t163 122.5t200.5 45.5q123 0 216.5 -51t145.5 -143l-149 -152q-28 68 -87 107t-138 39q-68 0 -128.5 -38.5t-104.5 -103.5t-75.5 -137.5t-52.5 -154.5q-7 -19 -14 -52
q55 72 138.5 120t174.5 48q145 0 238.5 -89t93.5 -242q0 -138 -61 -266t-176 -212t-255 -84zM496 176q72 0 131 53.5t88.5 128t29.5 146.5q0 79 -53 128.5t-143 49.5q-128 0 -242 -152q-8 -62 -8 -122q0 -106 52 -169t145 -63z" />
    <glyph glyph-name="seven" unicode="7" horiz-adv-x="921" 
d="M338 0h-256l678 1167h-565l43 199h831l-35 -158z" />
    <glyph glyph-name="eight" unicode="8" horiz-adv-x="1042" 
d="M471 -25q-130 0 -226.5 33.5t-155 108.5t-58.5 186q0 140 94 254.5t264 167.5q-78 40 -131 113t-53 163q0 114 66 204t168 135.5t216 45.5q81 0 154.5 -19t133.5 -56t96 -99.5t36 -142.5q0 -146 -94.5 -247.5t-241.5 -135.5q90 -50 145.5 -130t55.5 -175
q0 -177 -135.5 -291.5t-333.5 -114.5zM584 786q110 19 182 81t72 163q0 68 -54.5 111t-138.5 43q-91 0 -154 -61t-63 -154q0 -61 48.5 -111t107.5 -72zM475 176q93 0 165.5 68t72.5 168q0 76 -52.5 130t-113.5 72q-117 -18 -198 -90.5t-81 -177.5q0 -82 57.5 -126t149.5 -44
z" />
    <glyph glyph-name="nine" unicode="9" horiz-adv-x="1050" 
d="M639 1389q198 0 304 -122t106 -339q0 -91 -17.5 -193.5t-50.5 -210t-88 -205t-123.5 -174.5t-163 -122.5t-200.5 -45.5q-122 0 -215.5 51.5t-145.5 143.5l148 152q30 -69 88.5 -107.5t136.5 -38.5q56 0 106.5 26t88.5 68t71 100t55.5 116.5t40.5 123.5q10 37 13 52
q-52 -71 -137 -119.5t-175 -48.5q-146 0 -238.5 89t-92.5 242q0 103 36 203.5t98.5 180t156 129t198.5 49.5zM635 1188q-73 0 -132 -53.5t-88.5 -128t-29.5 -146.5q0 -79 53.5 -128.5t143.5 -49.5q125 0 239 152q10 52 10 122q0 106 -52 169t-144 63z" />
    <glyph glyph-name="colon" unicode=":" horiz-adv-x="487" 
d="M150 -23q-52 0 -88.5 37t-36.5 90q0 61 44.5 104.5t106.5 43.5q52 0 88.5 -36t36.5 -89q0 -61 -44.5 -105.5t-106.5 -44.5zM315 729q-53 0 -89 36.5t-36 90.5q0 60 45 104t105 44q53 0 89 -37t36 -90q0 -61 -44 -104.5t-106 -43.5z" />
    <glyph glyph-name="semicolon" unicode=";" horiz-adv-x="495" 
d="M307 111q0 -104 -77.5 -208t-190.5 -159l-76 80q60 28 112.5 75t71.5 97h-18q-43 0 -73.5 30t-30.5 80q0 59 45.5 102.5t103.5 43.5q56 0 94.5 -37t38.5 -104zM315 729q-53 0 -89 36.5t-36 90.5q0 60 45 104t105 44q53 0 89 -37t36 -90q0 -61 -44 -104.5t-106 -43.5z" />
    <glyph glyph-name="less" unicode="&#x3c;" horiz-adv-x="903" 
d="M788 254l-706 358l35 146l864 360l-37 -164l-688 -276l565 -275z" />
    <glyph glyph-name="equal" unicode="=" horiz-adv-x="903" 
d="M913 813h-786l31 133h784zM827 422h-786l31 133h784z" />
    <glyph glyph-name="greater" unicode="&#x3e;" horiz-adv-x="903" 
d="M868 612l-864 -358l37 164l690 272l-569 277l33 151l706 -360z" />
    <glyph glyph-name="question" unicode="?" horiz-adv-x="798" 
d="M483 459l-184 -62q-31 60 -31 135q0 59 21 110t54.5 87t74 68t80.5 60.5t73.5 58t54.5 66.5t21 79q0 58 -42 94.5t-118 36.5q-111 0 -202 -82l-82 152q147 124 334 124q152 0 250 -76.5t98 -197.5q0 -67 -23.5 -125t-60.5 -99t-82 -77t-90 -67t-82 -61.5t-60.5 -68
t-23.5 -79.5q0 -47 20 -76zM299 -23q-52 0 -88.5 37t-36.5 90q0 61 45 104.5t107 43.5q52 0 88.5 -36t36.5 -89q0 -61 -45 -105.5t-107 -44.5z" />
    <glyph glyph-name="at" unicode="@" horiz-adv-x="1439" 
d="M676 -143q-251 0 -407 171.5t-156 442.5q0 109 28.5 215.5t78.5 198t121 170t153.5 134t179.5 87t196 31.5q240 0 389.5 -159t149.5 -409q0 -100 -20 -190t-54.5 -157t-79.5 -117t-96.5 -75.5t-103.5 -25.5q-76 0 -124.5 42.5t-56.5 107.5l-2 14q-50 -73 -118.5 -118.5
t-149.5 -45.5q-112 0 -183 77.5t-71 221.5q0 138 57 264.5t156.5 205.5t214.5 79q76 0 128 -39.5t77 -103.5l23 110h182l-113 -530q-4 -20 -4 -51q0 -45 19 -69t53 -24q27 0 58 27t60 76.5t48.5 134t19.5 186.5q0 226 -126.5 360t-336.5 134q-179 0 -336.5 -109t-248.5 -284
t-91 -367q0 -155 60 -278.5t174 -195t262 -71.5q172 0 336 115l39 -57q-184 -129 -385 -129zM680 322q119 0 215 149l59 281q-14 49 -50 85.5t-91 36.5q-79 0 -143 -60t-96.5 -146.5t-32.5 -173.5q0 -79 36 -125.5t103 -46.5z" />
    <glyph glyph-name="A" unicode="A" horiz-adv-x="1101" 
d="M985 0h-235l-17 270h-450l-136 -270h-251l710 1366h271zM733 471l-37 653l-323 -653h360z" />
    <glyph glyph-name="B" unicode="B" horiz-adv-x="1107" 
d="M573 0h-553l302 1366h460q153 0 243.5 -86.5t90.5 -218.5q0 -138 -84.5 -248t-208.5 -127q81 -24 127.5 -98.5t46.5 -163.5q0 -79 -26 -152.5t-75.5 -135t-133.5 -99t-189 -37.5zM674 797q67 0 114.5 36.5t66.5 85.5t19 103q0 65 -43.5 105t-111.5 40h-215l-82 -370h252z
M547 199q99 0 160 71.5t61 171.5q0 73 -42 114.5t-118 41.5h-229l-88 -399h256z" />
    <glyph glyph-name="C" unicode="C" horiz-adv-x="1124" 
d="M578 -25q-220 0 -355 138.5t-135 373.5q0 132 30 262.5t89.5 245.5t139.5 203t187 139.5t226 51.5q94 0 171.5 -29t131 -80t89 -113.5t54.5 -136.5l-213 -61q-30 105 -93.5 162t-154.5 57q-87 0 -167 -63.5t-135 -163.5t-88 -224.5t-33 -244.5q0 -148 71.5 -232
t196.5 -84q145 0 262 164l176 -100q-88 -131 -204 -198t-246 -67z" />
    <glyph glyph-name="D" unicode="D" horiz-adv-x="1196" 
d="M428 0h-408l302 1366h399q89 0 170.5 -35t144.5 -98.5t100.5 -161.5t37.5 -215q0 -111 -23.5 -224t-80.5 -228t-140 -203.5t-213 -144.5t-289 -56zM504 1167l-213 -968h176q90 0 169 41t133.5 108t94 152.5t58 174t18.5 173.5q0 146 -73.5 232.5t-188.5 86.5h-174z" />
    <glyph glyph-name="E" unicode="E" horiz-adv-x="968" 
d="M770 0h-750l302 1366h749l-45 -199h-522l-82 -370h510l-45 -199h-508l-88 -399h522z" />
    <glyph glyph-name="F" unicode="F" horiz-adv-x="950" 
d="M246 0h-226l302 1366h749l-45 -199h-522l-82 -370h510l-45 -199h-508z" />
    <glyph glyph-name="G" unicode="G" horiz-adv-x="1183" 
d="M551 -25q-206 0 -334.5 139t-128.5 373q0 132 30.5 262t91 245t143.5 203.5t195 140t238 51.5q160 0 266 -94t142 -236l-199 -68q-25 88 -88.5 142.5t-148.5 54.5q-118 0 -220.5 -105t-159 -265t-56.5 -326q0 -147 69.5 -231.5t192.5 -84.5q121 0 211 100.5t133 251.5
h-342l43 201h569q-140 -754 -647 -754z" />
    <glyph glyph-name="H" unicode="H" horiz-adv-x="1218" 
d="M977 0h-225l131 602h-504l-133 -602h-226l302 1366h225l-123 -563h504l125 563h225z" />
    <glyph glyph-name="I" unicode="I" horiz-adv-x="487" 
d="M246 0h-226l302 1366h225z" />
    <glyph glyph-name="J" unicode="J" horiz-adv-x="839" 
d="M250 -25q-96 0 -180 33t-133 96l112 172q29 -47 78 -73.5t106 -26.5q178 0 224 209l217 981h227l-219 -989q-46 -207 -150.5 -304.5t-281.5 -97.5z" />
    <glyph glyph-name="K" unicode="K" horiz-adv-x="1097" 
d="M973 0h-252l-240 571l-145 -165l-90 -406h-226l302 1366h225l-139 -633l553 633h278l-588 -645z" />
    <glyph glyph-name="L" unicode="L" horiz-adv-x="878" 
d="M715 0h-703l301 1366h226l-258 -1167h477z" />
    <glyph glyph-name="M" unicode="M" horiz-adv-x="1462" 
d="M1221 0h-224l220 999l-553 -999h-86l-111 999l-221 -999h-226l302 1366h299l98 -889l493 889h310z" />
    <glyph glyph-name="N" unicode="N" horiz-adv-x="1216" 
d="M975 0h-217l-305 930l-207 -930h-226l302 1366h229l297 -903l201 903h227z" />
    <glyph glyph-name="O" unicode="O" horiz-adv-x="1259" 
d="M578 -25q-222 0 -356 141t-134 371q0 127 29 255.5t87 244.5t137.5 206t188 143t230.5 53q221 0 355 -141.5t134 -370.5q0 -127 -29 -255.5t-87 -244.5t-137 -206t-187.5 -143t-230.5 -53zM590 176q117 0 217 106.5t154.5 265.5t54.5 322q0 146 -75 232t-196 86
q-89 0 -169.5 -63t-135 -163.5t-86.5 -224.5t-32 -245q0 -146 73.5 -231t194.5 -85z" />
    <glyph glyph-name="P" unicode="P" horiz-adv-x="1054" 
d="M246 0h-226l302 1366h444q147 0 242.5 -100.5t95.5 -249.5q0 -90 -29.5 -175t-88.5 -159t-160 -119t-230 -45h-236zM616 717h-2q116 0 184 82.5t68 195.5q0 77 -45 124.5t-116 47.5h-201l-101 -450h213z" />
    <glyph glyph-name="Q" unicode="Q" horiz-adv-x="1259" 
d="M578 -25q-222 0 -356 141t-134 371q0 127 29 255.5t87 244.5t137.5 206t188 143t230.5 53q221 0 355 -141.5t134 -370.5q0 -232 -92.5 -451t-253.5 -340l39 -96l-176 -62l-31 72q-87 -25 -157 -25zM590 176q40 0 69 10l-98 244l176 62l80 -197q90 101 144.5 258.5
t54.5 316.5q0 146 -75 232t-196 86q-89 0 -169.5 -63t-135 -163.5t-86.5 -224.5t-32 -245q0 -146 73.5 -231t194.5 -85z" />
    <glyph glyph-name="R" unicode="R" horiz-adv-x="1095" 
d="M903 0h-244l-118 516h-181l-114 -516h-226l302 1366h426q150 0 253 -98.5t103 -253.5q0 -178 -98.5 -309.5t-245.5 -159.5zM616 717q116 0 183 81t67 195q0 81 -46 127.5t-115 46.5h-201l-101 -450h213z" />
    <glyph glyph-name="S" unicode="S" horiz-adv-x="999" 
d="M446 -25q-146 0 -270 55.5t-188 145.5l139 166q53 -76 141 -121t187 -45q101 0 160 61t59 150q0 42 -27 79.5t-70 67.5t-95.5 60.5t-105 66.5t-95.5 77t-70 99.5t-27 127.5q0 173 131 298.5t326 125.5q123 0 232 -45.5t174 -126.5l-136 -164q-50 64 -127 99.5t-159 35.5
q-87 0 -143 -54.5t-56 -129.5q0 -35 21 -67t55 -57.5t77.5 -54.5t89 -55.5t89 -62.5t77.5 -74.5t55 -92t21 -114.5q0 -121 -55.5 -223t-163 -165t-246.5 -63z" />
    <glyph glyph-name="T" unicode="T" horiz-adv-x="950" 
d="M477 0h-225l256 1167h-313l43 199h854l-43 -199h-314z" />
    <glyph glyph-name="U" unicode="U" horiz-adv-x="1214" 
d="M559 -25q-205 0 -325.5 107t-120.5 289q0 52 10 94l199 901h227l-201 -909q-8 -56 -8 -70q2 -95 62.5 -154t164.5 -59q115 0 181 70.5t98 212.5l201 909h227l-201 -905q-53 -239 -178 -362.5t-336 -123.5z" />
    <glyph glyph-name="V" unicode="V" horiz-adv-x="1101" 
d="M575 0h-270l-108 1366h235l57 -1096l543 1096h254z" />
    <glyph glyph-name="W" unicode="W" horiz-adv-x="1529" 
d="M1090 0h-238l18 979l-413 -979h-236l-10 1366h238l-27 -1018l438 1018h182l-12 -1018l422 1018h248z" />
    <glyph glyph-name="X" unicode="X" horiz-adv-x="1101" 
d="M987 0h-248l-180 510l-391 -510h-272l565 711l-242 655h248l162 -481l360 481h275l-535 -680z" />
    <glyph glyph-name="Y" unicode="Y" horiz-adv-x="1073" 
d="M539 0h-226l125 569l-248 797h240l156 -584l415 584h263l-598 -797z" />
    <glyph glyph-name="Z" unicode="Z" horiz-adv-x="976" 
d="M788 0h-821l41 188l735 979h-518l43 199h807l-41 -184l-739 -983h536z" />
    <glyph glyph-name="bracketleft" unicode="[" horiz-adv-x="468" 
d="M236 -389h-353l393 1778h355l-33 -142h-201l-331 -1495h200z" />
    <glyph glyph-name="backslash" unicode="\" horiz-adv-x="542" 
d="M272 -41l-82 1448h152l82 -1448h-152z" />
    <glyph glyph-name="bracketright" unicode="]" horiz-adv-x="468" 
d="M190 -389h-352l33 141h201l331 1495h-202l30 142h355z" />
    <glyph glyph-name="asciicircum" unicode="^" horiz-adv-x="790" 
d="M791 682h-148l-86 530l-317 -530h-162l432 684h152z" />
    <glyph glyph-name="underscore" unicode="_" horiz-adv-x="864" 
d="M709 -223h-875l33 141h874z" />
    <glyph glyph-name="grave" unicode="`" horiz-adv-x="415" 
d="M557 1139h-139l-211 295h188z" />
    <glyph glyph-name="a" unicode="a" horiz-adv-x="960" 
d="M745 0h-202l20 100q-101 -125 -254 -125q-117 0 -196.5 70.5t-79.5 198.5q0 165 97.5 274t242.5 109q88 0 160.5 -34.5t115.5 -100.5l33 145q8 36 8 63q0 66 -53.5 105t-140.5 39q-129 0 -246 -94l-51 149q147 115 340 115q102 0 181.5 -27.5t130 -89.5t50.5 -152
q0 -37 -14 -98zM399 117q120 0 191 100l35 158q-23 53 -74.5 81.5t-118.5 28.5q-86 0 -138 -67t-52 -156q0 -72 42 -108.5t115 -36.5z" />
    <glyph glyph-name="b" unicode="b" horiz-adv-x="1013" 
d="M504 -25q-88 0 -156.5 42t-103.5 120l-31 -137h-203l301 1366h203l-111 -504q112 152 263 152q137 0 216 -94t79 -265q0 -86 -18.5 -179t-57 -182.5t-91.5 -160.5t-128.5 -114.5t-161.5 -43.5zM467 156q63 0 118.5 47t90.5 118.5t54.5 151.5t19.5 150q0 100 -48 155.5
t-129 55.5q-58 0 -113 -39t-93 -99l-91 -405q23 -59 74 -97t117 -38z" />
    <glyph glyph-name="c" unicode="c" horiz-adv-x="854" 
d="M446 -25q-179 0 -285 107t-106 297q0 92 23.5 184t69 172.5t106.5 143t142.5 99t170.5 36.5q107 0 187.5 -39.5t124.5 -106.5l-127 -133q-27 48 -74 73.5t-103 25.5q-92 0 -165.5 -70.5t-109.5 -170.5t-36 -202q0 -114 59.5 -174.5t155.5 -60.5q102 0 176 84l76 -148
q-117 -117 -285 -117z" />
    <glyph glyph-name="d" unicode="d" horiz-adv-x="1013" 
d="M508 1014q89 0 157.5 -41.5t104.5 -120.5l113 514h202l-303 -1366h-202l28 127q-109 -152 -260 -152q-138 0 -217.5 94.5t-79.5 264.5q0 86 18.5 179t57 182.5t91.5 160.5t128.5 114.5t161.5 43.5zM545 834q-51 0 -96.5 -31t-78.5 -81t-57.5 -112t-36.5 -125t-12 -118
q0 -100 47 -155.5t129 -55.5q59 0 114 39t91 98l90 405q-21 59 -72 97.5t-118 38.5z" />
    <glyph glyph-name="e" unicode="e" horiz-adv-x="974" 
d="M465 -25q-191 0 -300.5 107t-109.5 295q0 84 22 172.5t66 171.5t103.5 148.5t141.5 105t173 39.5q167 0 264 -102.5t97 -280.5q0 -89 -29 -203h-635q-6 -34 -6 -70q0 -88 60.5 -152.5t176.5 -64.5q58 0 118 24.5t104 65.5l69 -135q-63 -57 -146.5 -89t-168.5 -32z
M725 573h4q8 31 8 72q0 89 -50 146t-142 57q-67 0 -124 -43t-90.5 -104t-45.5 -128h440z" />
    <glyph glyph-name="f" unicode="f" horiz-adv-x="559" 
d="M254 0h-203l180 811h-129l39 178h129l19 90q67 307 313 307q97 0 166 -38l-74 -158q-29 20 -71 20q-101 0 -129 -131l-21 -90h164l-39 -178h-164z" />
    <glyph glyph-name="g" unicode="g" horiz-adv-x="1013" 
d="M334 -401q-255 0 -383 145l119 150q39 -57 108.5 -88t153.5 -31q199 0 252 241l30 140q-51 -74 -120.5 -114t-145.5 -40q-133 0 -214 88t-81 262q0 106 29.5 219.5t84 213.5t143.5 164.5t196 64.5q78 0 153 -44t109 -118l31 137h202l-215 -973q-93 -417 -452 -417z
M442 182q56 0 112 38.5t95 96.5l84 377q-24 61 -77.5 100.5t-118.5 39.5q-61 0 -114.5 -44t-87 -111.5t-52.5 -144t-19 -145.5q0 -101 47.5 -154t130.5 -53z" />
    <glyph glyph-name="h" unicode="h" 
d="M764 0h-203l148 674q8 24 8 53q0 55 -34 81t-93 26q-111 0 -223 -142l-152 -692h-205l301 1366h205l-113 -508q137 156 293 156q110 0 175 -55.5t65 -149.5q0 -22 -10 -72z" />
    <glyph glyph-name="i" unicode="i" horiz-adv-x="444" 
d="M371 1114q-49 0 -82 32.5t-33 78.5q0 63 45.5 103t97.5 40q50 0 83.5 -31.5t33.5 -76.5q0 -65 -45.5 -105.5t-99.5 -40.5zM213 0h-203l219 989h203z" />
    <glyph glyph-name="j" unicode="j" horiz-adv-x="444" 
d="M-119 -401q-138 0 -200 73l90 150q29 -47 92 -47q97 0 129 141l237 1073h203l-237 -1073q-37 -161 -109.5 -239t-204.5 -78zM371 1114q-49 0 -82 32.5t-33 78.5q0 63 45.5 103t97.5 40q50 0 83.5 -31.5t33.5 -76.5q0 -65 -45.5 -105.5t-99.5 -40.5z" />
    <glyph glyph-name="k" unicode="k" horiz-adv-x="935" 
d="M809 0h-231l-148 420l-162 -166l-55 -254h-203l301 1366h203l-186 -850l448 473h246l-428 -444z" />
    <glyph glyph-name="l" unicode="l" horiz-adv-x="520" 
d="M287 -25q-111 0 -173.5 45.5t-62.5 131.5q0 38 8 77l252 1137h203l-242 -1094q-1 -5 -2.5 -15t-2.5 -18t-1 -14q1 -33 21.5 -51t56.5 -18q44 0 70 26l12 -166q-55 -41 -139 -41z" />
    <glyph glyph-name="m" unicode="m" horiz-adv-x="1480" 
d="M1249 0h-202l149 678q6 24 6 49q0 51 -30.5 79t-81.5 28q-53 0 -108 -41t-97 -99l-154 -694h-203l150 678q6 27 6 53q0 48 -29 75.5t-84 27.5q-54 0 -108 -40.5t-96 -99.5l-154 -694h-203l219 989h203l-29 -131q51 64 123.5 110t153.5 46q100 0 160.5 -55t60.5 -115v-10
q59 79 135 129.5t162 50.5q97 0 160 -55t63 -150q0 -27 -10 -72z" />
    <glyph glyph-name="n" unicode="n" 
d="M764 0h-205l150 674q8 28 8 53q0 53 -34.5 80t-92.5 27q-110 0 -223 -140l-154 -694h-203l219 989h203l-29 -131q137 156 293 156q109 0 174.5 -55t65.5 -150q0 -32 -10 -72z" />
    <glyph glyph-name="o" unicode="o" horiz-adv-x="1003" 
d="M440 -25q-183 0 -285 106.5t-102 291.5q0 89 22.5 180.5t67 173.5t104.5 146.5t141 102.5t171 38q183 0 284 -106.5t101 -291.5q0 -89 -22.5 -180.5t-66.5 -173.5t-103.5 -146.5t-140.5 -102.5t-171 -38zM449 156q63 0 118.5 46t91 116t56 148.5t20.5 147.5
q0 107 -48.5 163.5t-135.5 56.5q-63 0 -118.5 -46t-91.5 -116t-56.5 -149t-20.5 -148q0 -107 48.5 -163t136.5 -56z" />
    <glyph glyph-name="p" unicode="p" horiz-adv-x="1011" 
d="M504 -25q-88 0 -156.5 42t-103.5 120l-115 -514h-203l303 1366h203l-29 -127q112 152 263 152q137 0 216 -94t79 -265q0 -86 -18.5 -179t-57 -182.5t-91.5 -160.5t-128.5 -114.5t-161.5 -43.5zM467 156q63 0 118.5 47t90.5 118.5t54.5 151.5t19.5 150q0 100 -48 155.5
t-129 55.5q-58 0 -113 -39t-93 -99l-91 -405q23 -59 74 -97t117 -38z" />
    <glyph glyph-name="q" unicode="q" horiz-adv-x="1011" 
d="M508 1014q89 0 157.5 -41.5t104.5 -120.5l29 137h202l-303 -1366h-202l112 504q-109 -152 -260 -152q-138 0 -217.5 94.5t-79.5 264.5q0 86 18.5 179t57 182.5t91.5 160.5t128.5 114.5t161.5 43.5zM545 834q-51 0 -96.5 -31t-78.5 -81t-57.5 -112t-36.5 -125t-12 -118
q0 -100 47 -155.5t129 -55.5q59 0 114 39t91 98l90 405q-21 59 -72 97.5t-118 38.5z" />
    <glyph glyph-name="r" unicode="r" horiz-adv-x="630" 
d="M213 0h-203l219 989h203l-31 -135q123 158 312 158l-47 -205q-23 10 -68 10q-68 0 -130.5 -39.5t-105.5 -103.5z" />
    <glyph glyph-name="s" unicode="s" horiz-adv-x="823" 
d="M346 -25q-118 0 -216.5 43t-154.5 117l117 135q38 -55 110 -94t154 -39q71 0 117.5 40.5t46.5 96.5q0 31 -22 57.5t-57.5 47.5t-78 42t-85.5 46.5t-78.5 56t-57.5 74.5t-22 98q0 132 95 225t259 93q102 0 193 -39.5t147 -106.5l-111 -131q-29 45 -96 80t-137 35
q-69 0 -110.5 -34t-41.5 -87q0 -28 22.5 -53t58 -45.5t79 -41.5t87 -47t79 -57t58 -76.5t22.5 -99.5q0 -140 -104 -238t-273 -98z" />
    <glyph glyph-name="t" unicode="t" horiz-adv-x="577" 
d="M322 -25q-112 0 -173 45.5t-61 137.5q0 32 8 71l131 582h-131l41 178h129l60 271h202l-59 -271h164l-39 -178h-164l-121 -539q-4 -14 -4 -45q0 -71 76 -71q44 0 70 26l10 -166q-51 -41 -139 -41z" />
    <glyph glyph-name="u" unicode="u" 
d="M229 989h203l-149 -672q-1 -5 -4 -25.5t-3 -29.5q0 -54 34 -80t93 -26t117.5 39t104.5 98l153 696h203l-219 -989h-203l31 131q-140 -156 -293 -156q-111 0 -175.5 55t-64.5 150q0 43 11 72z" />
    <glyph glyph-name="v" unicode="v" horiz-adv-x="884" 
d="M440 0h-219l-110 989h211l57 -745l389 745h223z" />
    <glyph glyph-name="w" unicode="w" horiz-adv-x="1370" 
d="M979 0h-213l-33 725l-350 -725h-213l-47 989h205l12 -721l350 721h189l32 -721l334 721h219z" />
    <glyph glyph-name="x" unicode="x" horiz-adv-x="872" 
d="M750 0h-218l-120 358l-281 -358h-229l407 504l-172 485h215l109 -340l262 340h229l-391 -485z" />
    <glyph glyph-name="y" unicode="y" 
d="M313 -401q-258 0 -381 145l117 150q38 -57 110 -88t152 -31q104 0 164.5 61t87.5 180l31 144q-141 -156 -291 -156q-107 0 -173.5 54t-66.5 153q0 23 9 70l157 708h203l-143 -643q-6 -35 -6 -55q0 -107 127 -107q60 0 118 40.5t103 99.5l147 665h203l-215 -973
q-92 -417 -453 -417z" />
    <glyph glyph-name="z" unicode="z" horiz-adv-x="819" 
d="M631 0h-664l33 156l539 655h-392l39 178h656l-33 -149l-543 -662h402z" />
    <glyph glyph-name="braceleft" unicode="{" horiz-adv-x="499" 
d="M266 -389h-69q-91 0 -159 59.5t-69 151.5q0 25 8 57l93 420q6 36 6 37q0 46 -21.5 74t-60.5 28l29 123q56 0 90 38t47 101l94 422q30 133 111.5 200t203.5 67h93l-31 -142h-92q-52 0 -86.5 -32t-46.5 -93l-103 -456q-29 -144 -133 -183q59 -29 59 -112q0 -37 -8 -70
l-92 -418q-4 -24 -4 -39q0 -41 25.5 -66.5t62.5 -25.5h84z" />
    <glyph glyph-name="bar" unicode="|" horiz-adv-x="401" 
d="M313 -41h-141v1448h141v-1448z" />
    <glyph glyph-name="braceright" unicode="}" horiz-adv-x="499" 
d="M231 1389h70q91 0 158 -59.5t67 -153.5q0 -35 -6 -56l-94 -420q-4 -24 -4 -36q0 -45 21.5 -74t58.5 -29l-27 -123q-108 0 -137 -139l-94 -422q-30 -133 -112 -199.5t-204 -66.5h-92l31 141h92q51 0 85.5 32t47.5 93l103 457q29 143 131 182q-60 31 -60 113q0 36 8 69
l95 418q4 24 4 39q0 41 -25.5 66.5t-62.5 25.5h-86z" />
    <glyph glyph-name="asciitilde" unicode="~" horiz-adv-x="937" 
d="M930 1366l141 -14q-105 -496 -352 -496q-73 0 -112.5 39t-49.5 94t-13.5 110.5t-17.5 94.5t-49 39q-57 0 -109 -98.5t-92 -280.5l-141 16q15 74 34.5 138.5t50 132t67.5 115t88.5 78t111.5 30.5q73 0 112.5 -39t49.5 -95t13.5 -111.5t17.5 -94.5t49 -39q57 0 109 99
t92 282z" />
    <glyph glyph-name="uni00A0" unicode="&#xa0;" horiz-adv-x="432" 
 />
    <glyph glyph-name="exclamdown" unicode="&#xa1;" horiz-adv-x="495" 
d="M178 578h174l-174 -955h-248zM344 1012q52 0 88.5 -37t36.5 -90q0 -61 -45 -104.5t-107 -43.5q-52 0 -88 36t-36 89q0 61 44.5 105.5t106.5 44.5z" />
    <glyph glyph-name="cent" unicode="&#xa2;" horiz-adv-x="854" 
d="M446 -25h-2l-38 -180h-152l45 203q-116 37 -180 135.5t-64 245.5q0 148 57 286.5t166.5 235.5t245.5 111l33 145h152l-35 -156q134 -29 205 -133l-127 -133q-38 67 -117 90l-150 -669q99 3 170 84l76 -148q-117 -117 -285 -117zM264 391q0 -130 80 -194l135 614
q-97 -45 -156 -168t-59 -252z" />
    <glyph glyph-name="sterling" unicode="&#xa3;" horiz-adv-x="966" 
d="M63 555l31 137h156q-20 46 -29.5 70t-20 69t-10.5 89q0 127 66 235t174.5 169.5t231.5 61.5q146 0 251.5 -70.5t126.5 -197.5l-200 -71q-11 71 -56.5 112t-115.5 41q-94 0 -164 -88.5t-70 -218.5q0 -37 7.5 -68t27.5 -77.5t23 -55.5h221l-29 -137h-176
q-10 -102 -68.5 -193t-132.5 -137q50 17 84 17q56 0 135.5 -33t124.5 -33q90 0 158 72l39 -182q-97 -93 -225 -93q-70 0 -135.5 22.5t-124 45t-111.5 22.5q-83 0 -201 -77l-39 159q121 59 201 163t80 214q0 5 -1 16.5t-1 16.5h-228z" />
    <glyph glyph-name="yen" unicode="&#xa5;" horiz-adv-x="1073" 
d="M543 0h-226l54 244h-381l28 131h381l43 194h-381l31 133h309l-206 664h239l156 -584l416 584h262l-498 -664h299l-31 -133h-368l-43 -194h368l-28 -131h-371z" />
    <glyph glyph-name="brokenbar" unicode="&#xa6;" horiz-adv-x="401" 
d="M313 -41h-141v647h141v-647zM313 760h-141v647h141v-647z" />
    <glyph glyph-name="section" unicode="&#xa7;" horiz-adv-x="831" 
d="M799 674q0 -101 -59 -180.5t-169 -118.5q115 -73 115 -205q0 -140 -103 -238t-264 -98q-127 0 -228.5 39t-160.5 113l117 125q40 -59 111 -93t155 -34q75 0 123.5 45.5t48.5 111.5q0 35 -22 63.5t-56.5 49.5t-76.5 42t-84.5 46t-77 54.5t-56.5 75t-22 101.5q0 102 67 179
t187 104q-66 38 -103.5 95t-37.5 126q0 131 99 220t249 89q238 0 358 -139l-112 -112q-38 53 -101 79.5t-135 26.5q-70 0 -115 -41t-45 -100q0 -34 22 -62t57 -49.5t77.5 -42t85 -45.5t77.5 -54.5t57 -74t22 -98.5zM600 629q0 93 -119 153q-99 -14 -146.5 -61.5
t-47.5 -110.5q0 -52 39.5 -91t115.5 -73q80 25 119 74t39 109z" />
    <glyph glyph-name="dieresis" unicode="&#xa8;" horiz-adv-x="569" 
d="M752 1255q0 -51 -39 -89t-90 -38q-44 0 -73.5 30t-29.5 73q0 51 39 89t90 38q43 0 73 -29.5t30 -73.5zM379 1255q0 -51 -39 -89t-92 -38q-43 0 -73 30t-30 73q0 51 40 89t91 38q43 0 73 -29.5t30 -73.5z" />
    <glyph glyph-name="copyright" unicode="&#xa9;" horiz-adv-x="1593" 
d="M1544 684q0 -143 -56 -274t-151 -226t-226 -151t-275 -56q-191 0 -353.5 95t-257 258t-94.5 354q0 192 94.5 355t257 257.5t353.5 94.5q192 0 355 -94.5t258 -257.5t95 -355zM1477 684q0 129 -51.5 247t-137.5 204t-204.5 137t-247.5 51t-247 -51t-203.5 -137t-136 -204
t-50.5 -247t50.5 -247t136 -204t203.5 -137t247 -51t247.5 51t204.5 137t137.5 204t51.5 247zM1036 422l45 -64q-131 -108 -280 -108q-179 0 -285 107.5t-106 271.5q0 102 40.5 194.5t106.5 157t153.5 102t178.5 37.5q221 0 323 -166l-69 -49q-37 69 -103 105.5t-153 36.5
q-72 0 -142.5 -31.5t-126 -85.5t-90 -132.5t-34.5 -166.5q0 -129 85 -218t224 -89q64 0 126 27.5t107 70.5z" />
    <glyph glyph-name="ordfeminine" unicode="&#xaa;" horiz-adv-x="735" 
d="M502 1206q-53 0 -97.5 -46.5t-68 -113t-23.5 -133.5q0 -68 31 -104.5t86 -36.5q73 0 135 88l60 268q-13 35 -47.5 56.5t-75.5 21.5zM666 1311h151l-143 -643h-152l19 84q-76 -101 -179 -101q-90 0 -148 63t-58 185q0 103 38.5 200.5t111.5 162.5t161 65q126 0 180 -100z
" />
    <glyph glyph-name="guillemotleft" unicode="&#xab;" horiz-adv-x="866" 
d="M406 129h-173l-174 369l338 362h185l-346 -371zM715 129h-170l-174 369l338 362h182l-344 -371z" />
    <glyph glyph-name="logicalnot" unicode="&#xac;" horiz-adv-x="911" 
d="M942 946l-115 -524h-137l86 391h-649l31 133h784z" />
    <glyph glyph-name="registered" unicode="&#xae;" horiz-adv-x="1011" 
d="M1040 952q0 -180 -127.5 -307t-308.5 -127q-180 0 -306 127t-126 307q0 181 127 307.5t307 126.5q119 0 219 -57.5t157.5 -157.5t57.5 -219zM979 952q0 156 -109.5 264.5t-265.5 108.5q-155 0 -263 -108t-108 -265q0 -154 108 -263t263 -109t265 109t110 263zM754 702
h-80l-86 197h-92l-43 -197h-68l109 498h188q63 0 104 -36t41 -95q0 -71 -50.5 -119.5t-112.5 -48.5zM756 1063q0 36 -23.5 57t-62.5 21h-121l-41 -180h137q46 0 78.5 29.5t32.5 72.5z" />
    <glyph glyph-name="macron" unicode="&#xaf;" horiz-adv-x="632" 
d="M788 1210h-630l26 121h631z" />
    <glyph glyph-name="degree" unicode="&#xb0;" horiz-adv-x="614" 
d="M707 1122q0 -107 -77.5 -183.5t-185.5 -76.5q-109 0 -185.5 76.5t-76.5 183.5q0 109 76.5 186.5t185.5 77.5q108 0 185.5 -78t77.5 -186zM590 1122q0 60 -43.5 103t-102.5 43q-60 0 -101.5 -43t-41.5 -103q0 -59 40.5 -100t100.5 -41q59 0 103.5 41.5t44.5 99.5z" />
    <glyph glyph-name="plusminus" unicode="&#xb1;" horiz-adv-x="903" 
d="M877 645h-322l-80 -366h-145l82 366h-322l31 131h319l78 352h146l-78 -352h319zM741 33h-786l29 133h786z" />
    <glyph glyph-name="twosuperior" unicode="&#xb2;" horiz-adv-x="692" 
d="M711 862h-551l26 125q298 215 396 306t98 171q0 49 -36 76t-91 27q-111 0 -193 -92l-73 102q54 56 126 86.5t150 30.5q117 0 197 -56.5t80 -158.5q0 -39 -12 -76.5t-42 -77.5t-61.5 -73.5t-90 -81.5t-105.5 -84t-130 -97h338z" />
    <glyph glyph-name="threesuperior" unicode="&#xb3;" horiz-adv-x="692" 
d="M766 1102q0 -98 -80 -176t-211 -78q-103 0 -183.5 39t-117.5 108l109 90q29 -53 78 -81.5t108 -28.5q66 0 103.5 44t37.5 103q0 45 -39.5 71t-103.5 26q-49 0 -61 -2l26 126q18 -2 98 -2q68 0 108 34.5t40 92.5q0 45 -38.5 72t-96.5 27q-100 0 -185 -82l-67 94
q52 53 121.5 84t142.5 31q126 0 204.5 -53.5t78.5 -149.5q0 -80 -57.5 -144.5t-151.5 -74.5q62 -15 99.5 -60.5t37.5 -109.5z" />
    <glyph glyph-name="acute" unicode="&#xb4;" horiz-adv-x="415" 
d="M623 1434l-342 -295h-144l291 295h195z" />
    <glyph glyph-name="mu" unicode="&#xb5;" 
d="M129 -377h-203l303 1366h203l-149 -676q-20 -85 8 -122t98 -37q62 0 126.5 39.5t107.5 95.5l155 700h203l-219 -989h-203l27 127q-60 -65 -146.5 -108.5t-175.5 -43.5q-12 0 -57 5z" />
    <glyph glyph-name="paragraph" unicode="&#xb6;" horiz-adv-x="919" 
d="M639 -205h-109l326 1462h-172l-326 -1462h-108l192 867q-116 0 -198 91t-82 228q0 97 50.5 185t143 144t203.5 56h428z" />
    <glyph glyph-name="periodcentered" unicode="&#xb7;" horiz-adv-x="495" 
d="M236 365q-53 0 -89 36t-36 88q0 62 44 106t105 44q52 0 88.5 -37t36.5 -90q0 -61 -44 -104t-105 -43z" />
    <glyph glyph-name="cedilla" unicode="&#xb8;" horiz-adv-x="399" 
d="M25 -395q-134 0 -207 80l61 84q61 -70 148 -70q46 0 74 25t28 61q0 24 -15 38.5t-42 14.5q-32 0 -60 -31l-69 46l100 170h109l-82 -132q27 21 57 21q50 0 81.5 -33t31.5 -88q0 -81 -61 -133.5t-154 -52.5z" />
    <glyph glyph-name="onesuperior" unicode="&#xb9;" horiz-adv-x="505" 
d="M477 862h-158l134 608l-150 -124l-74 96l291 239h137z" />
    <glyph glyph-name="ordmasculine" unicode="&#xba;" horiz-adv-x="724" 
d="M432 651q-127 0 -198.5 74t-71.5 195q0 99 42.5 191.5t123.5 154t180 61.5q127 0 198.5 -73.5t71.5 -194.5q0 -99 -42.5 -192t-123.5 -154.5t-180 -61.5zM436 774q58 0 103.5 52t65.5 116t20 121q0 66 -32.5 102.5t-90.5 36.5q-57 0 -102 -51.5t-65 -115.5t-20 -122
q0 -66 32 -102.5t89 -36.5z" />
    <glyph glyph-name="guillemotright" unicode="&#xbb;" horiz-adv-x="866" 
d="M154 860h172l174 -368l-338 -363h-185l347 373zM465 860h170l174 -368l-338 -363h-182l344 373z" />
    <glyph glyph-name="onequarter" unicode="&#xbc;" horiz-adv-x="1458" 
d="M1305 1366l-1022 -1366h-115l1020 1366h117zM1346 193h-93l-41 -193h-157l43 193h-350l24 116l416 510h205l-113 -502h92zM1124 317l76 340l-278 -340h202zM408 547h-158l133 608l-150 -125l-73 96l291 240h137z" />
    <glyph glyph-name="onehalf" unicode="&#xbd;" horiz-adv-x="1529" 
d="M1305 1366l-1022 -1366h-115l1020 1366h117zM1358 0h-551l27 125q125 90 193.5 141.5t135.5 106.5t97.5 90t48.5 70t18 69q0 49 -36 76t-91 27q-109 0 -192 -93l-74 103q113 116 276 116q117 0 197 -56.5t80 -158.5q0 -39 -12 -76.5t-42 -77.5t-61 -73.5t-89.5 -81.5
t-105.5 -83.5t-130 -96.5h337zM408 547h-158l133 608l-150 -125l-73 96l291 240h137z" />
    <glyph glyph-name="threequarters" unicode="&#xbe;" horiz-adv-x="1597" 
d="M1442 1366l-1022 -1366h-115l1020 1366h117zM1483 193h-92l-41 -193h-158l43 193h-350l24 116l416 510h205l-113 -502h92zM1262 317l75 340l-278 -340h203zM696 786q0 -98 -80 -176t-210 -78q-103 0 -184 39.5t-118 108.5l109 90q29 -53 78 -82t108 -29q66 0 104 44.5
t38 103.5q0 45 -40 70.5t-104 25.5q-49 0 -61 -2l26 127q18 -2 99 -2q68 0 107.5 34.5t39.5 92.5q0 45 -38.5 71.5t-96.5 26.5q-99 0 -184 -82l-68 95q52 53 121.5 83.5t142.5 30.5q127 0 205 -53t78 -149q0 -80 -57.5 -145t-151.5 -75q62 -15 99.5 -60.5t37.5 -109.5z" />
    <glyph glyph-name="questiondown" unicode="&#xbf;" horiz-adv-x="694" 
d="M313 528l185 62q30 -56 30 -133q0 -59 -21 -110t-54 -87t-73.5 -68.5t-81 -61t-73.5 -57.5t-54 -66t-21 -79q0 -58 41.5 -94.5t117.5 -36.5q115 0 203 82l80 -151q-144 -127 -332 -127q-151 0 -250.5 77t-99.5 197q0 67 23.5 125t61 99t82.5 77.5t90 67.5t82.5 62t61 69
t23.5 80q0 39 -21 73zM498 1010q52 0 87.5 -36t35.5 -89q0 -61 -44.5 -105.5t-105.5 -44.5q-52 0 -88.5 37t-36.5 90q0 61 45 104.5t107 43.5z" />
    <glyph glyph-name="Agrave" unicode="&#xc0;" horiz-adv-x="1101" 
d="M909 1491h-139l-211 295h189zM985 0h-235l-17 270h-450l-136 -270h-251l710 1366h271zM733 471l-37 653l-323 -653h360z" />
    <glyph glyph-name="Aacute" unicode="&#xc1;" horiz-adv-x="1101" 
d="M1116 1786l-342 -295h-143l291 295h194zM985 0h-235l-17 270h-450l-136 -270h-251l710 1366h271zM733 471l-37 653l-323 -653h360z" />
    <glyph glyph-name="Acircumflex" unicode="&#xc2;" horiz-adv-x="1101" 
d="M1030 1491h-119l-94 199l-174 -199h-127l225 295h189zM985 0h-235l-17 270h-450l-136 -270h-251l710 1366h271zM733 471l-37 653l-323 -653h360z" />
    <glyph glyph-name="Atilde" unicode="&#xc3;" horiz-adv-x="1101" 
d="M887 1487q-45 0 -74.5 26t-41 57t-31.5 57t-50 26q-67 0 -100 -154h-113q59 275 225 275q38 0 64 -17t39.5 -41.5t25 -49t28.5 -41.5t42 -17q64 0 100 153h113q-59 -274 -227 -274zM985 0h-235l-17 270h-450l-136 -270h-251l710 1366h271zM733 471l-37 653l-323 -653h360
z" />
    <glyph glyph-name="Adieresis" unicode="&#xc4;" horiz-adv-x="1101" 
d="M1096 1606q0 -51 -39 -89t-90 -38q-44 0 -73.5 29.5t-29.5 72.5q0 51 39 89t90 38q43 0 73 -29t30 -73zM723 1606q0 -51 -39 -89t-92 -38q-43 0 -73 29.5t-30 72.5q0 51 40.5 89t91.5 38q43 0 72.5 -29t29.5 -73zM985 0h-235l-17 270h-450l-136 -270h-251l710 1366h271z
M733 471l-37 653l-323 -653h360z" />
    <glyph glyph-name="Aring" unicode="&#xc5;" horiz-adv-x="1101" 
d="M774 1415q-76 0 -124 49.5t-48 126.5q0 86 63.5 149.5t149.5 63.5q77 0 125.5 -49t48.5 -125q0 -86 -64.5 -150.5t-150.5 -64.5zM784 1513q43 0 76 32t33 75q0 38 -24 63t-62 25q-43 0 -76 -32t-33 -74q0 -39 24 -64t62 -25zM985 0h-235l-17 270h-450l-136 -270h-251
l710 1366h271zM733 471l-37 653l-323 -653h360z" />
    <glyph glyph-name="AE" unicode="&#xc6;" horiz-adv-x="1585" 
d="M1389 0h-748l57 270h-368l-180 -270h-252l950 1366h842l-43 -199h-523l-82 -370h508l-45 -199h-508l-88 -399h525zM743 471l140 635l-426 -635h286z" />
    <glyph glyph-name="Ccedilla" unicode="&#xc7;" horiz-adv-x="1124" 
d="M578 -25h-21l-51 -84q27 21 57 21q50 0 81.5 -33t31.5 -88q0 -81 -61 -133.5t-154 -52.5q-134 0 -207 80l61 84q61 -70 148 -70q46 0 74 25t28 61q0 24 -15 38.5t-42 14.5q-31 0 -59 -31l-70 46l80 135q-171 34 -271 166t-100 333q0 132 30 262.5t89.5 245.5t139.5 203
t187 139.5t226 51.5q94 0 171.5 -29t131 -80t89 -113.5t54.5 -136.5l-213 -61q-30 105 -93.5 162t-154.5 57q-87 0 -167 -63.5t-135 -163.5t-88 -224.5t-33 -244.5q0 -148 71.5 -232t196.5 -84q145 0 262 164l176 -100q-88 -131 -204 -198t-246 -67z" />
    <glyph glyph-name="Egrave" unicode="&#xc8;" horiz-adv-x="968" 
d="M864 1491h-139l-211 295h188zM770 0h-750l302 1366h749l-45 -199h-522l-82 -370h510l-45 -199h-508l-88 -399h522z" />
    <glyph glyph-name="Eacute" unicode="&#xc9;" horiz-adv-x="968" 
d="M1073 1786l-342 -295h-143l291 295h194zM770 0h-750l302 1366h749l-45 -199h-522l-82 -370h510l-45 -199h-508l-88 -399h522z" />
    <glyph glyph-name="Ecircumflex" unicode="&#xca;" horiz-adv-x="968" 
d="M983 1491h-119l-94 199l-174 -199h-127l225 295h189zM770 0h-750l302 1366h749l-45 -199h-522l-82 -370h510l-45 -199h-508l-88 -399h522z" />
    <glyph glyph-name="Edieresis" unicode="&#xcb;" horiz-adv-x="968" 
d="M1053 1606q0 -51 -39 -89t-90 -38q-44 0 -73.5 29.5t-29.5 72.5q0 51 39 89t90 38q43 0 73 -29t30 -73zM680 1606q0 -51 -39 -89t-92 -38q-43 0 -73 29.5t-30 72.5q0 51 40.5 89t91.5 38q43 0 72.5 -29t29.5 -73zM770 0h-750l302 1366h749l-45 -199h-522l-82 -370h510
l-45 -199h-508l-88 -399h522z" />
    <glyph glyph-name="Igrave" unicode="&#xcc;" horiz-adv-x="487" 
d="M600 1491h-139l-211 295h188zM246 0h-226l302 1366h225z" />
    <glyph glyph-name="Iacute" unicode="&#xcd;" horiz-adv-x="487" 
d="M811 1786l-342 -295h-143l290 295h195zM246 0h-226l302 1366h225z" />
    <glyph glyph-name="Icircumflex" unicode="&#xce;" horiz-adv-x="487" 
d="M721 1491h-119l-94 199l-174 -199h-127l225 295h189zM246 0h-226l302 1366h225z" />
    <glyph glyph-name="Idieresis" unicode="&#xcf;" horiz-adv-x="487" 
d="M791 1606q0 -51 -39 -89t-90 -38q-44 0 -73.5 29.5t-29.5 72.5q0 51 39 89t90 38q43 0 73 -29t30 -73zM418 1606q0 -51 -39 -89t-92 -38q-43 0 -73 29.5t-30 72.5q0 51 40 89t91 38q43 0 73 -29t30 -73zM246 0h-226l302 1366h225z" />
    <glyph glyph-name="Eth" unicode="&#xd0;" horiz-adv-x="1245" 
d="M477 0h-407l129 592h-152l41 184h152l131 590h399q89 0 170.5 -35t144.5 -98.5t100.5 -161.5t37.5 -215q0 -111 -23.5 -224t-80.5 -228t-140 -203.5t-213 -144.5t-289 -56zM666 592h-240l-86 -393h176q90 0 169 41t133.5 108t94 152.5t58 174t18.5 173.5
q0 146 -73.5 232.5t-188.5 86.5h-174l-86 -391h240z" />
    <glyph glyph-name="Ntilde" unicode="&#xd1;" horiz-adv-x="1216" 
d="M946 1487q-37 0 -63 17t-39 41.5t-24.5 49t-28 41.5t-41.5 17q-68 0 -101 -154h-112q59 275 225 275q38 0 64 -17t39.5 -41.5t25 -49t28.5 -41.5t42 -17q64 0 100 153h113q-59 -274 -228 -274zM975 0h-217l-305 930l-207 -930h-226l302 1366h229l297 -903l201 903h227z
" />
    <glyph glyph-name="Ograve" unicode="&#xd2;" horiz-adv-x="1259" 
d="M989 1491h-139l-211 295h188zM578 -25q-222 0 -356 141t-134 371q0 127 29 255.5t87 244.5t137.5 206t188 143t230.5 53q221 0 355 -141.5t134 -370.5q0 -127 -29 -255.5t-87 -244.5t-137 -206t-187.5 -143t-230.5 -53zM590 176q117 0 217 106.5t154.5 265.5t54.5 322
q0 146 -75 232t-196 86q-89 0 -169.5 -63t-135 -163.5t-86.5 -224.5t-32 -245q0 -146 73.5 -231t194.5 -85z" />
    <glyph glyph-name="Oacute" unicode="&#xd3;" horiz-adv-x="1259" 
d="M1196 1786l-342 -295h-143l290 295h195zM578 -25q-222 0 -356 141t-134 371q0 127 29 255.5t87 244.5t137.5 206t188 143t230.5 53q221 0 355 -141.5t134 -370.5q0 -127 -29 -255.5t-87 -244.5t-137 -206t-187.5 -143t-230.5 -53zM590 176q117 0 217 106.5t154.5 265.5
t54.5 322q0 146 -75 232t-196 86q-89 0 -169.5 -63t-135 -163.5t-86.5 -224.5t-32 -245q0 -146 73.5 -231t194.5 -85z" />
    <glyph glyph-name="Ocircumflex" unicode="&#xd4;" horiz-adv-x="1259" 
d="M1108 1491h-119l-94 199l-174 -199h-127l225 295h189zM578 -25q-222 0 -356 141t-134 371q0 127 29 255.5t87 244.5t137.5 206t188 143t230.5 53q221 0 355 -141.5t134 -370.5q0 -127 -29 -255.5t-87 -244.5t-137 -206t-187.5 -143t-230.5 -53zM590 176q117 0 217 106.5
t154.5 265.5t54.5 322q0 146 -75 232t-196 86q-89 0 -169.5 -63t-135 -163.5t-86.5 -224.5t-32 -245q0 -146 73.5 -231t194.5 -85z" />
    <glyph glyph-name="Otilde" unicode="&#xd5;" horiz-adv-x="1259" 
d="M971 1487q-45 0 -74.5 26t-41 57t-31.5 57t-50 26q-67 0 -100 -154h-113q59 275 225 275q38 0 64 -17t39.5 -41.5t25 -49t28.5 -41.5t42 -17q64 0 100 153h113q-59 -274 -227 -274zM578 -25q-222 0 -356 141t-134 371q0 127 29 255.5t87 244.5t137.5 206t188 143
t230.5 53q221 0 355 -141.5t134 -370.5q0 -127 -29 -255.5t-87 -244.5t-137 -206t-187.5 -143t-230.5 -53zM590 176q117 0 217 106.5t154.5 265.5t54.5 322q0 146 -75 232t-196 86q-89 0 -169.5 -63t-135 -163.5t-86.5 -224.5t-32 -245q0 -146 73.5 -231t194.5 -85z" />
    <glyph glyph-name="Odieresis" unicode="&#xd6;" horiz-adv-x="1259" 
d="M1174 1606q0 -51 -39.5 -89t-90.5 -38q-44 0 -73 29.5t-29 72.5q0 51 39 89t90 38q43 0 73 -29t30 -73zM801 1606q0 -51 -39 -89t-92 -38q-43 0 -73 29.5t-30 72.5q0 51 40 89t91 38q43 0 73 -29t30 -73zM578 -25q-222 0 -356 141t-134 371q0 127 29 255.5t87 244.5
t137.5 206t188 143t230.5 53q221 0 355 -141.5t134 -370.5q0 -127 -29 -255.5t-87 -244.5t-137 -206t-187.5 -143t-230.5 -53zM590 176q117 0 217 106.5t154.5 265.5t54.5 322q0 146 -75 232t-196 86q-89 0 -169.5 -63t-135 -163.5t-86.5 -224.5t-32 -245q0 -146 73.5 -231
t194.5 -85z" />
    <glyph glyph-name="multiply" unicode="&#xd7;" horiz-adv-x="903" 
d="M674 340l-195 250l-313 -258l-82 102l317 258l-196 250l106 86l193 -250l315 258l82 -102l-315 -258l192 -250z" />
    <glyph glyph-name="Oslash" unicode="&#xd8;" horiz-adv-x="1259" 
d="M578 -25q-194 0 -322 109l-68 -84h-153l141 174q-88 130 -88 313q0 127 29 255.5t87 244.5t137.5 206t188 143t230.5 53q183 0 313 -105l66 82h153l-137 -170q94 -129 94 -319q0 -127 -29 -255.5t-87 -244.5t-137 -206t-187.5 -143t-230.5 -53zM590 176q117 0 217 106.5
t154.5 265.5t54.5 322q0 67 -19 129l-600 -741q73 -82 193 -82zM322 492q0 -70 14 -119l596 737q-75 78 -187 78q-89 0 -169.5 -63t-135 -163.5t-86.5 -224.5t-32 -245z" />
    <glyph glyph-name="Ugrave" unicode="&#xd9;" horiz-adv-x="1214" 
d="M967 1491h-140l-211 295h189zM559 -25q-205 0 -325.5 107t-120.5 289q0 52 10 94l199 901h227l-201 -909q-8 -56 -8 -70q2 -95 62.5 -154t164.5 -59q115 0 181 70.5t98 212.5l201 909h227l-201 -905q-53 -239 -178 -362.5t-336 -123.5z" />
    <glyph glyph-name="Uacute" unicode="&#xda;" horiz-adv-x="1214" 
d="M1174 1786l-343 -295h-143l291 295h195zM559 -25q-205 0 -325.5 107t-120.5 289q0 52 10 94l199 901h227l-201 -909q-8 -56 -8 -70q2 -95 62.5 -154t164.5 -59q115 0 181 70.5t98 212.5l201 909h227l-201 -905q-53 -239 -178 -362.5t-336 -123.5z" />
    <glyph glyph-name="Ucircumflex" unicode="&#xdb;" horiz-adv-x="1214" 
d="M1090 1491h-119l-94 199l-175 -199h-127l226 295h188zM559 -25q-205 0 -325.5 107t-120.5 289q0 52 10 94l199 901h227l-201 -909q-8 -56 -8 -70q2 -95 62.5 -154t164.5 -59q115 0 181 70.5t98 212.5l201 909h227l-201 -905q-53 -239 -178 -362.5t-336 -123.5z" />
    <glyph glyph-name="Udieresis" unicode="&#xdc;" horiz-adv-x="1214" 
d="M1153 1606q0 -51 -39 -89t-90 -38q-44 0 -73 29.5t-29 72.5q0 51 39 89t90 38q43 0 72.5 -29t29.5 -73zM780 1606q0 -51 -39 -89t-92 -38q-43 0 -72.5 29.5t-29.5 72.5q0 51 40 89t91 38q43 0 72.5 -29t29.5 -73zM559 -25q-205 0 -325.5 107t-120.5 289q0 52 10 94
l199 901h227l-201 -909q-8 -56 -8 -70q2 -95 62.5 -154t164.5 -59q115 0 181 70.5t98 212.5l201 909h227l-201 -905q-53 -239 -178 -362.5t-336 -123.5z" />
    <glyph glyph-name="Yacute" unicode="&#xdd;" horiz-adv-x="1073" 
d="M1108 1786l-342 -295h-143l290 295h195zM539 0h-226l125 569l-248 797h240l156 -584l415 584h263l-598 -797z" />
    <glyph glyph-name="Thorn" unicode="&#xde;" horiz-adv-x="1054" 
d="M246 0h-226l302 1366h225l-49 -233h215q147 0 243.5 -100.5t96.5 -250.5q0 -70 -17.5 -138.5t-57.5 -133.5t-97.5 -115t-144 -80t-191.5 -30h-236zM561 483q118 0 186 83t68 196q0 76 -45.5 124t-116.5 48h-200l-99 -451h207z" />
    <glyph glyph-name="germandbls" unicode="&#xdf;" horiz-adv-x="1140" 
d="M1069 307q0 -131 -101 -231.5t-263 -100.5q-121 0 -208.5 39t-154.5 123l113 129q96 -127 241 -127q69 0 115.5 42t46.5 100q0 34 -27 62.5t-67 48t-87 45.5t-87 54t-67 74.5t-27 104.5q0 75 33.5 131.5t81 89.5t94.5 61t80.5 62t33.5 76q0 53 -46.5 84.5t-117.5 31.5
q-79 0 -134.5 -49.5t-76.5 -146.5l-223 -1010h-203l224 1010q37 169 146.5 272.5t279.5 103.5q96 0 178.5 -32.5t134 -95t51.5 -140.5q0 -53 -18.5 -96.5t-48 -73t-65 -54t-71 -45t-65 -41t-48 -46.5t-18.5 -57q0 -33 27.5 -60.5t68.5 -46.5t89.5 -46t89.5 -56t68.5 -78
t27.5 -111z" />
    <glyph glyph-name="agrave" unicode="&#xe0;" horiz-adv-x="960" 
d="M766 1139h-139l-211 295h188zM745 0h-202l20 100q-101 -125 -254 -125q-117 0 -196.5 70.5t-79.5 198.5q0 165 97.5 274t242.5 109q88 0 160.5 -34.5t115.5 -100.5l33 145q8 36 8 63q0 66 -53.5 105t-140.5 39q-129 0 -246 -94l-51 149q147 115 340 115
q102 0 181.5 -27.5t130 -89.5t50.5 -152q0 -37 -14 -98zM399 117q120 0 191 100l35 158q-23 53 -74.5 81.5t-118.5 28.5q-86 0 -138 -67t-52 -156q0 -72 42 -108.5t115 -36.5z" />
    <glyph glyph-name="aacute" unicode="&#xe1;" horiz-adv-x="960" 
d="M977 1434l-342 -295h-143l290 295h195zM745 0h-202l20 100q-101 -125 -254 -125q-117 0 -196.5 70.5t-79.5 198.5q0 165 97.5 274t242.5 109q88 0 160.5 -34.5t115.5 -100.5l33 145q8 36 8 63q0 66 -53.5 105t-140.5 39q-129 0 -246 -94l-51 149q147 115 340 115
q102 0 181.5 -27.5t130 -89.5t50.5 -152q0 -37 -14 -98zM399 117q120 0 191 100l35 158q-23 53 -74.5 81.5t-118.5 28.5q-86 0 -138 -67t-52 -156q0 -72 42 -108.5t115 -36.5z" />
    <glyph glyph-name="acircumflex" unicode="&#xe2;" horiz-adv-x="960" 
d="M891 1139h-119l-94 198l-174 -198h-127l225 295h189zM745 0h-202l20 100q-101 -125 -254 -125q-117 0 -196.5 70.5t-79.5 198.5q0 165 97.5 274t242.5 109q88 0 160.5 -34.5t115.5 -100.5l33 145q8 36 8 63q0 66 -53.5 105t-140.5 39q-129 0 -246 -94l-51 149
q147 115 340 115q102 0 181.5 -27.5t130 -89.5t50.5 -152q0 -37 -14 -98zM399 117q120 0 191 100l35 158q-23 53 -74.5 81.5t-118.5 28.5q-86 0 -138 -67t-52 -156q0 -72 42 -108.5t115 -36.5z" />
    <glyph glyph-name="atilde" unicode="&#xe3;" horiz-adv-x="960" 
d="M752 1135q-45 0 -74.5 26t-41 56.5t-31.5 56.5t-50 26q-67 0 -100 -153h-113q59 274 225 274q38 0 64 -17t39.5 -41.5t25 -49t28.5 -41.5t42 -17q64 0 100 154h113q-59 -274 -227 -274zM745 0h-202l20 100q-101 -125 -254 -125q-117 0 -196.5 70.5t-79.5 198.5
q0 165 97.5 274t242.5 109q88 0 160.5 -34.5t115.5 -100.5l33 145q8 36 8 63q0 66 -53.5 105t-140.5 39q-129 0 -246 -94l-51 149q147 115 340 115q102 0 181.5 -27.5t130 -89.5t50.5 -152q0 -37 -14 -98zM399 117q120 0 191 100l35 158q-23 53 -74.5 81.5t-118.5 28.5
q-86 0 -138 -67t-52 -156q0 -72 42 -108.5t115 -36.5z" />
    <glyph glyph-name="adieresis" unicode="&#xe4;" horiz-adv-x="960" 
d="M952 1255q0 -51 -39 -89t-90 -38q-44 0 -73 30t-29 73q0 51 39 89t90 38q43 0 72.5 -29.5t29.5 -73.5zM580 1255q0 -51 -39 -89t-92 -38q-43 0 -73 30t-30 73q0 51 40 89t91 38q43 0 73 -29.5t30 -73.5zM745 0h-202l20 100q-101 -125 -254 -125q-117 0 -196.5 70.5
t-79.5 198.5q0 165 97.5 274t242.5 109q88 0 160.5 -34.5t115.5 -100.5l33 145q8 36 8 63q0 66 -53.5 105t-140.5 39q-129 0 -246 -94l-51 149q147 115 340 115q102 0 181.5 -27.5t130 -89.5t50.5 -152q0 -37 -14 -98zM399 117q120 0 191 100l35 158q-23 53 -74.5 81.5
t-118.5 28.5q-86 0 -138 -67t-52 -156q0 -72 42 -108.5t115 -36.5z" />
    <glyph glyph-name="aring" unicode="&#xe5;" horiz-adv-x="960" 
d="M645 1126q-76 0 -124 50t-48 127q0 86 63.5 149.5t149.5 63.5q76 0 125 -49t49 -126q0 -86 -64.5 -150.5t-150.5 -64.5zM655 1225q43 0 76 32t33 74q0 38 -24 63t-62 25q-43 0 -76 -32t-33 -74q0 -38 24 -63t62 -25zM745 0h-202l20 100q-101 -125 -254 -125
q-117 0 -196.5 70.5t-79.5 198.5q0 165 97.5 274t242.5 109q88 0 160.5 -34.5t115.5 -100.5l33 145q8 36 8 63q0 66 -53.5 105t-140.5 39q-129 0 -246 -94l-51 149q147 115 340 115q102 0 181.5 -27.5t130 -89.5t50.5 -152q0 -37 -14 -98zM399 117q120 0 191 100l35 158
q-23 53 -74.5 81.5t-118.5 28.5q-86 0 -138 -67t-52 -156q0 -72 42 -108.5t115 -36.5z" />
    <glyph glyph-name="ae" unicode="&#xe6;" horiz-adv-x="1552" 
d="M1470 428h-630q-9 -45 -9 -70q0 -90 62 -152.5t174 -62.5q127 0 221 88l70 -135q-137 -121 -307 -121q-246 0 -344 187q-82 -86 -173 -136.5t-208 -50.5q-125 0 -209 72.5t-84 200.5q0 166 99 272.5t241 106.5q88 0 164.5 -34.5t113.5 -96.5l33 141q6 34 6 61
q0 68 -54 107t-140 39q-128 0 -244 -94l-51 149q147 115 340 115q245 0 282 -187q54 84 139 135.5t189 51.5q157 0 252.5 -98.5t95.5 -284.5q0 -94 -29 -203zM866 573h441q8 31 8 72q0 88 -51.5 144.5t-139.5 56.5q-55 0 -100.5 -25t-75.5 -67t-49.5 -86t-32.5 -95zM627 258
q-6 27 -6 68q0 27 4 51q-21 53 -75 80.5t-118 27.5q-83 0 -136.5 -65t-53.5 -158q0 -70 42.5 -107.5t116.5 -37.5q127 0 226 141z" />
    <glyph glyph-name="ccedilla" unicode="&#xe7;" horiz-adv-x="854" 
d="M338 -395q-134 0 -207 80l62 84q61 -70 147 -70q46 0 74 25t28 61q0 24 -15 38.5t-42 14.5q-31 0 -59 -31l-70 46l80 135q-131 30 -206 132t-75 259q0 92 23.5 184t69 172.5t106.5 143t142.5 99t170.5 36.5q107 0 187.5 -39.5t124.5 -106.5l-127 -133q-27 48 -74 73.5
t-103 25.5q-92 0 -165.5 -70.5t-109.5 -170.5t-36 -202q0 -114 59.5 -174.5t155.5 -60.5q102 0 176 84l76 -148q-117 -117 -285 -117h-12l-51 -84q27 21 57 21q50 0 81.5 -33t31.5 -88q0 -81 -61 -133.5t-154 -52.5z" />
    <glyph glyph-name="egrave" unicode="&#xe8;" horiz-adv-x="974" 
d="M465 -25q-191 0 -300.5 107t-109.5 295q0 84 22 172.5t66 171.5t103.5 148.5t141.5 105t173 39.5q167 0 264 -102.5t97 -280.5q0 -89 -29 -203h-635q-6 -34 -6 -70q0 -88 60.5 -152.5t176.5 -64.5q58 0 118 24.5t104 65.5l69 -135q-63 -57 -146.5 -89t-168.5 -32z
M725 573h4q8 31 8 72q0 89 -50 146t-142 57q-67 0 -124 -43t-90.5 -104t-45.5 -128h440zM778 1139h-139l-211 295h188z" />
    <glyph glyph-name="eacute" unicode="&#xe9;" horiz-adv-x="974" 
d="M465 -25q-191 0 -300.5 107t-109.5 295q0 84 22 172.5t66 171.5t103.5 148.5t141.5 105t173 39.5q167 0 264 -102.5t97 -280.5q0 -89 -29 -203h-635q-6 -34 -6 -70q0 -88 60.5 -152.5t176.5 -64.5q58 0 118 24.5t104 65.5l69 -135q-63 -57 -146.5 -89t-168.5 -32z
M725 573h4q8 31 8 72q0 89 -50 146t-142 57q-67 0 -124 -43t-90.5 -104t-45.5 -128h440zM989 1434l-342 -295h-143l291 295h194z" />
    <glyph glyph-name="ecircumflex" unicode="&#xea;" horiz-adv-x="974" 
d="M465 -25q-191 0 -300.5 107t-109.5 295q0 84 22 172.5t66 171.5t103.5 148.5t141.5 105t173 39.5q167 0 264 -102.5t97 -280.5q0 -89 -29 -203h-635q-6 -34 -6 -70q0 -88 60.5 -152.5t176.5 -64.5q58 0 118 24.5t104 65.5l69 -135q-63 -57 -146.5 -89t-168.5 -32z
M725 573h4q8 31 8 72q0 89 -50 146t-142 57q-67 0 -124 -43t-90.5 -104t-45.5 -128h440zM897 1139h-119l-94 198l-174 -198h-127l225 295h189z" />
    <glyph glyph-name="edieresis" unicode="&#xeb;" horiz-adv-x="974" 
d="M465 -25q-191 0 -300.5 107t-109.5 295q0 84 22 172.5t66 171.5t103.5 148.5t141.5 105t173 39.5q167 0 264 -102.5t97 -280.5q0 -89 -29 -203h-635q-6 -34 -6 -70q0 -88 60.5 -152.5t176.5 -64.5q58 0 118 24.5t104 65.5l69 -135q-63 -57 -146.5 -89t-168.5 -32z
M725 573h4q8 31 8 72q0 89 -50 146t-142 57q-67 0 -124 -43t-90.5 -104t-45.5 -128h440zM963 1255q0 -51 -39 -89t-90 -38q-44 0 -73.5 30t-29.5 73q0 51 39 89t90 38q43 0 73 -29.5t30 -73.5zM590 1255q0 -51 -39 -89t-92 -38q-43 0 -73 30t-30 73q0 51 40 89t91 38
q43 0 73 -29.5t30 -73.5z" />
    <glyph glyph-name="igrave" unicode="&#xec;" horiz-adv-x="444" 
d="M500 1139h-140l-210 295h188zM213 0h-203l219 989h203z" />
    <glyph glyph-name="iacute" unicode="&#xed;" horiz-adv-x="444" 
d="M711 1434l-342 -295h-144l291 295h195zM213 0h-203l219 989h203z" />
    <glyph glyph-name="icircumflex" unicode="&#xee;" horiz-adv-x="444" 
d="M623 1139h-119l-94 198l-174 -198h-127l225 295h188zM213 0h-203l219 989h203z" />
    <glyph glyph-name="idieresis" unicode="&#xef;" horiz-adv-x="444" 
d="M690 1255q0 -51 -39 -89t-90 -38q-44 0 -73 30t-29 73q0 51 39 89t90 38q43 0 72.5 -29.5t29.5 -73.5zM317 1255q0 -51 -39 -89t-92 -38q-43 0 -72.5 30t-29.5 73q0 51 40 89t91 38q43 0 72.5 -29.5t29.5 -73.5zM213 0h-203l219 989h203z" />
    <glyph glyph-name="eth" unicode="&#xf0;" horiz-adv-x="1003" 
d="M362 1028l-22 102l250 74q-46 70 -96 129l172 107q68 -82 131 -174l184 55l23 -100l-152 -45q113 -207 113 -428q0 -108 -20.5 -216.5t-63.5 -208.5t-103 -177.5t-146 -124t-186 -46.5q-185 0 -290 104.5t-105 280.5q0 144 56.5 281.5t163 229.5t233.5 92q92 0 161 -49
t99 -140q-23 154 -121 338zM451 156q59 0 112 41t88 103.5t55.5 136.5t20.5 141q0 82 -48.5 144t-143.5 62q-77 0 -142 -69t-98 -163.5t-33 -182.5q0 -104 49 -158.5t140 -54.5z" />
    <glyph glyph-name="ntilde" unicode="&#xf1;" 
d="M768 0h-205l150 674q8 28 8 53q0 53 -34.5 80t-92.5 27q-110 0 -223 -140l-154 -694h-203l219 989h203l-28 -131q136 156 292 156q109 0 174.5 -55t65.5 -150q0 -32 -10 -72zM764 1135q-45 0 -74.5 26t-41 56.5t-31.5 56.5t-50 26q-67 0 -100 -153h-113q59 274 226 274
q38 0 64 -17t39.5 -41.5t25 -49t28 -41.5t41.5 -17q65 0 101 154h112q-59 -274 -227 -274z" />
    <glyph glyph-name="ograve" unicode="&#xf2;" horiz-adv-x="1003" 
d="M440 -25q-183 0 -285 106.5t-102 291.5q0 89 22.5 180.5t67 173.5t104.5 146.5t141 102.5t171 38q183 0 284 -106.5t101 -291.5q0 -89 -22.5 -180.5t-66.5 -173.5t-103.5 -146.5t-140.5 -102.5t-171 -38zM449 156q63 0 118.5 46t91 116t56 148.5t20.5 147.5
q0 107 -48.5 163.5t-135.5 56.5q-63 0 -118.5 -46t-91.5 -116t-56.5 -149t-20.5 -148q0 -107 48.5 -163t136.5 -56zM780 1139h-139l-211 295h188z" />
    <glyph glyph-name="oacute" unicode="&#xf3;" horiz-adv-x="1003" 
d="M440 -25q-183 0 -285 106.5t-102 291.5q0 89 22.5 180.5t67 173.5t104.5 146.5t141 102.5t171 38q183 0 284 -106.5t101 -291.5q0 -89 -22.5 -180.5t-66.5 -173.5t-103.5 -146.5t-140.5 -102.5t-171 -38zM449 156q63 0 118.5 46t91 116t56 148.5t20.5 147.5
q0 107 -48.5 163.5t-135.5 56.5q-63 0 -118.5 -46t-91.5 -116t-56.5 -149t-20.5 -148q0 -107 48.5 -163t136.5 -56zM989 1434l-342 -295h-143l291 295h194z" />
    <glyph glyph-name="ocircumflex" unicode="&#xf4;" horiz-adv-x="1003" 
d="M440 -25q-183 0 -285 106.5t-102 291.5q0 89 22.5 180.5t67 173.5t104.5 146.5t141 102.5t171 38q183 0 284 -106.5t101 -291.5q0 -89 -22.5 -180.5t-66.5 -173.5t-103.5 -146.5t-140.5 -102.5t-171 -38zM449 156q63 0 118.5 46t91 116t56 148.5t20.5 147.5
q0 107 -48.5 163.5t-135.5 56.5q-63 0 -118.5 -46t-91.5 -116t-56.5 -149t-20.5 -148q0 -107 48.5 -163t136.5 -56zM901 1139h-119l-94 198l-174 -198h-127l225 295h189z" />
    <glyph glyph-name="otilde" unicode="&#xf5;" horiz-adv-x="1003" 
d="M440 -25q-183 0 -285 106.5t-102 291.5q0 89 22.5 180.5t67 173.5t104.5 146.5t141 102.5t171 38q183 0 284 -106.5t101 -291.5q0 -89 -22.5 -180.5t-66.5 -173.5t-103.5 -146.5t-140.5 -102.5t-171 -38zM449 156q63 0 118.5 46t91 116t56 148.5t20.5 147.5
q0 107 -48.5 163.5t-135.5 56.5q-63 0 -118.5 -46t-91.5 -116t-56.5 -149t-20.5 -148q0 -107 48.5 -163t136.5 -56zM764 1135q-45 0 -74.5 26t-41 56.5t-31.5 56.5t-50 26q-67 0 -100 -153h-113q59 274 226 274q38 0 64 -17t39.5 -41.5t25 -49t28 -41.5t41.5 -17
q65 0 101 154h112q-59 -274 -227 -274z" />
    <glyph glyph-name="odieresis" unicode="&#xf6;" horiz-adv-x="1003" 
d="M440 -25q-183 0 -285 106.5t-102 291.5q0 89 22.5 180.5t67 173.5t104.5 146.5t141 102.5t171 38q183 0 284 -106.5t101 -291.5q0 -89 -22.5 -180.5t-66.5 -173.5t-103.5 -146.5t-140.5 -102.5t-171 -38zM449 156q63 0 118.5 46t91 116t56 148.5t20.5 147.5
q0 107 -48.5 163.5t-135.5 56.5q-63 0 -118.5 -46t-91.5 -116t-56.5 -149t-20.5 -148q0 -107 48.5 -163t136.5 -56zM969 1255q0 -51 -39 -89t-90 -38q-44 0 -73.5 30t-29.5 73q0 51 39 89t90 38q43 0 73 -29.5t30 -73.5zM596 1255q0 -51 -39 -89t-92 -38q-43 0 -73 30
t-30 73q0 51 40.5 89t91.5 38q43 0 72.5 -29.5t29.5 -73.5z" />
    <glyph glyph-name="divide" unicode="&#xf7;" horiz-adv-x="907" 
d="M874 625h-788l31 133h786zM410 242q-41 0 -70 29.5t-29 70.5q0 47 35 81t84 34q40 0 69 -29t29 -70q0 -49 -35 -82.5t-83 -33.5zM559 918q-40 0 -69 29t-29 69q0 49 34.5 83t84.5 34q41 0 69.5 -29.5t28.5 -69.5q0 -49 -35.5 -82.5t-83.5 -33.5z" />
    <glyph glyph-name="oslash" unicode="&#xf8;" horiz-adv-x="1003" 
d="M113 0h-133l129 141q-56 95 -56 232q0 89 22.5 180.5t67 173.5t104.5 146.5t141 102.5t171 38q167 0 264 -88l60 63h133l-129 -141q57 -94 57 -232q0 -89 -22.5 -180.5t-66.5 -173.5t-103.5 -146.5t-140.5 -102.5t-171 -38q-166 0 -268 91zM449 156q63 0 118.5 46t91 116
t56 148.5t20.5 147.5q0 35 -6 62l-420 -461q45 -59 140 -59zM264 375q0 -42 4 -60l420 461q-52 58 -137 58q-63 0 -118.5 -46t-91.5 -116t-56.5 -149t-20.5 -148z" />
    <glyph glyph-name="ugrave" unicode="&#xf9;" 
d="M229 989h203l-149 -672q-1 -5 -4 -25.5t-3 -29.5q0 -54 34 -80t93 -26t117.5 39t104.5 98l153 696h203l-219 -989h-203l31 131q-140 -156 -293 -156q-111 0 -175.5 55t-64.5 150q0 43 11 72zM778 1139h-139l-211 295h188z" />
    <glyph glyph-name="uacute" unicode="&#xfa;" 
d="M229 989h203l-149 -672q-1 -5 -4 -25.5t-3 -29.5q0 -54 34 -80t93 -26t117.5 39t104.5 98l153 696h203l-219 -989h-203l31 131q-140 -156 -293 -156q-111 0 -175.5 55t-64.5 150q0 43 11 72zM987 1434l-342 -295h-143l291 295h194z" />
    <glyph glyph-name="ucircumflex" unicode="&#xfb;" 
d="M229 989h203l-149 -672q-1 -5 -4 -25.5t-3 -29.5q0 -54 34 -80t93 -26t117.5 39t104.5 98l153 696h203l-219 -989h-203l31 131q-140 -156 -293 -156q-111 0 -175.5 55t-64.5 150q0 43 11 72zM897 1139h-119l-94 198l-174 -198h-127l225 295h189z" />
    <glyph glyph-name="udieresis" unicode="&#xfc;" 
d="M229 989h203l-149 -672q-1 -5 -4 -25.5t-3 -29.5q0 -54 34 -80t93 -26t117.5 39t104.5 98l153 696h203l-219 -989h-203l31 131q-140 -156 -293 -156q-111 0 -175.5 55t-64.5 150q0 43 11 72zM969 1255q0 -51 -39 -89t-90 -38q-44 0 -73.5 30t-29.5 73q0 51 39 89t90 38
q43 0 73 -29.5t30 -73.5zM596 1255q0 -51 -39 -89t-92 -38q-43 0 -73 30t-30 73q0 51 40.5 89t91.5 38q43 0 72.5 -29.5t29.5 -73.5z" />
    <glyph glyph-name="yacute" unicode="&#xfd;" 
d="M983 1434l-342 -295h-143l290 295h195zM313 -401q-258 0 -381 145l117 150q38 -57 110 -88t152 -31q104 0 164.5 61t87.5 180l31 144q-141 -156 -291 -156q-107 0 -173.5 54t-66.5 153q0 23 9 70l157 708h203l-143 -643q-6 -35 -6 -55q0 -107 127 -107q60 0 118 40.5
t103 99.5l147 665h203l-215 -973q-92 -417 -453 -417z" />
    <glyph glyph-name="thorn" unicode="&#xfe;" horiz-adv-x="1011" 
d="M504 -25q-88 0 -156.5 42t-103.5 120l-115 -514h-203l385 1743h203l-111 -504q112 152 263 152q137 0 216 -94t79 -265q0 -86 -18.5 -179t-57 -182.5t-91.5 -160.5t-128.5 -114.5t-161.5 -43.5zM467 156q63 0 118.5 47t90.5 118.5t54.5 151.5t19.5 150q0 100 -48 155.5
t-129 55.5q-58 0 -113 -39t-93 -99l-91 -405q23 -59 74 -97t117 -38z" />
    <glyph glyph-name="ydieresis" unicode="&#xff;" 
d="M961 1255q0 -51 -39.5 -89t-90.5 -38q-44 0 -73 30t-29 73q0 51 39 89t90 38q43 0 73 -29.5t30 -73.5zM588 1255q0 -51 -39 -89t-92 -38q-43 0 -73 30t-30 73q0 51 40 89t91 38q43 0 73 -29.5t30 -73.5zM313 -401q-258 0 -381 145l117 150q38 -57 110 -88t152 -31
q104 0 164.5 61t87.5 180l31 144q-141 -156 -291 -156q-107 0 -173.5 54t-66.5 153q0 23 9 70l157 708h203l-143 -643q-6 -35 -6 -55q0 -107 127 -107q60 0 118 40.5t103 99.5l147 665h203l-215 -973q-92 -417 -453 -417z" />
    <glyph glyph-name="dotlessi" unicode="&#x131;" horiz-adv-x="444" 
d="M213 0h-203l219 989h203z" />
    <glyph glyph-name="Lslash" unicode="&#x141;" horiz-adv-x="915" 
d="M16 446l41 189l148 76l145 655h225l-116 -526l170 88l-41 -189l-170 -88l-101 -452h478l-43 -199h-703l115 522z" />
    <glyph glyph-name="lslash" unicode="&#x142;" horiz-adv-x="577" 
d="M20 471l35 154l158 80l147 661h203l-121 -545l164 84l-35 -153l-161 -84l-88 -396q-1 -5 -4 -22t-3 -25q1 -33 21.5 -51t56.5 -18q44 0 70 26l12 -166q-55 -41 -139 -41q-111 0 -173.5 45.5t-62.5 131.5q0 34 9 77l71 322z" />
    <glyph glyph-name="OE" unicode="&#x152;" horiz-adv-x="1757" 
d="M1563 0h-750l31 147q-127 -172 -340 -172q-184 0 -301 141t-117 371q0 101 22 207.5t62.5 206t101 188t132.5 154.5t163 104.5t187 38.5q110 0 195 -48.5t124 -155.5l41 184h750l-45 -199h-523l-82 -370h508l-43 -199h-510l-88 -399h525zM901 406l115 518
q-17 128 -85 195t-175 67q-75 0 -144.5 -45t-121 -118.5t-90 -164.5t-58.5 -186t-20 -180q0 -142 69.5 -229t188.5 -87q92 0 177 61t144 169z" />
    <glyph glyph-name="oe" unicode="&#x153;" horiz-adv-x="1624" 
d="M1542 428h-627q-6 -30 -6 -70q0 -93 61 -154t173 -61q57 0 114.5 23t102.5 65l70 -135q-63 -58 -144 -89.5t-168 -31.5q-133 0 -220 65t-112 159q-34 -49 -64.5 -84t-73.5 -69.5t-96.5 -52.5t-115.5 -18q-180 0 -281.5 105.5t-101.5 292.5q0 91 22.5 183t66.5 174
t103.5 145.5t140 101t169.5 37.5q121 0 201.5 -64.5t109.5 -156.5q143 221 348 221q162 0 259.5 -99t97.5 -284q0 -93 -29 -203zM942 573h438q9 36 9 72q0 91 -48.5 146t-140.5 55q-53 0 -99.5 -25.5t-78 -66.5t-52 -87.5t-28.5 -93.5zM727 614q0 108 -49 164t-133 56
q-79 0 -146 -75.5t-101 -179.5t-34 -204q0 -104 46 -161.5t136 -57.5q50 0 95 30t78.5 79t58 109t37 122.5t12.5 117.5z" />
    <glyph glyph-name="Scaron" unicode="&#x160;" horiz-adv-x="991" 
d="M825 1491h-188l-100 295h118l93 -199l176 199h127zM446 -25q-146 0 -270 55.5t-188 145.5l139 166q53 -76 141 -121t187 -45q101 0 160 61t59 150q0 42 -27 79.5t-70 67.5t-95.5 60.5t-105 66.5t-95.5 77t-70 99.5t-27 127.5q0 173 131 298.5t326 125.5q123 0 232 -45.5
t174 -126.5l-136 -164q-50 64 -127 99.5t-159 35.5q-87 0 -143 -54.5t-56 -129.5q0 -35 21 -67t55 -57.5t77.5 -54.5t89 -55.5t89 -62.5t77.5 -74.5t55 -92t21 -114.5q0 -121 -55.5 -223t-163 -165t-246.5 -63z" />
    <glyph glyph-name="scaron" unicode="&#x161;" horiz-adv-x="823" 
d="M346 -25q-118 0 -216.5 43t-154.5 117l117 135q38 -55 110 -94t154 -39q71 0 117.5 40.5t46.5 96.5q0 31 -22 57.5t-57.5 47.5t-78 42t-85.5 46.5t-78.5 56t-57.5 74.5t-22 98q0 132 95 225t259 93q102 0 193 -39.5t147 -106.5l-111 -131q-29 45 -96 80t-137 35
q-69 0 -110.5 -34t-41.5 -87q0 -28 22.5 -53t58 -45.5t79 -41.5t87 -47t79 -57t58 -76.5t22.5 -99.5q0 -140 -104 -238t-273 -98zM653 1139h-188l-100 295h118l92 -199l177 199h127z" />
    <glyph glyph-name="Ydieresis" unicode="&#x178;" horiz-adv-x="1073" 
d="M1085 1606q0 -51 -39 -89t-90 -38q-44 0 -73 29.5t-29 72.5q0 51 39 89t90 38q43 0 72.5 -29t29.5 -73zM713 1606q0 -51 -39 -89t-92 -38q-43 0 -73 29.5t-30 72.5q0 51 40 89t91 38q43 0 73 -29t30 -73zM539 0h-226l125 569l-248 797h240l156 -584l415 584h263
l-598 -797z" />
    <glyph glyph-name="Zcaron" unicode="&#x17d;" horiz-adv-x="976" 
d="M805 1491h-189l-100 295h119l92 -199l176 199h127zM788 0h-821l41 188l735 979h-518l43 199h807l-41 -184l-739 -983h536z" />
    <glyph glyph-name="zcaron" unicode="&#x17e;" horiz-adv-x="819" 
d="M631 0h-664l33 156l539 655h-392l39 178h656l-33 -149l-543 -662h402zM639 1139h-188l-101 295h119l92 -199l176 199h127z" />
    <glyph glyph-name="florin" unicode="&#x192;" horiz-adv-x="849" 
d="M154 -330h-230l182 836h-106v180h147l93 416q30 134 108 209t201 75q136 0 215 -71l-80 -166q-33 39 -90 39q-53 0 -87 -36t-46 -101l-82 -365h215v-180h-254z" />
    <glyph glyph-name="circumflex" unicode="&#x2c6;" horiz-adv-x="514" 
d="M655 1139h-118l-95 198l-174 -198h-127l226 295h188z" />
    <glyph glyph-name="caron" unicode="&#x2c7;" horiz-adv-x="514" 
d="M496 1139h-189l-100 295h119l92 -199l176 199h127z" />
    <glyph glyph-name="breve" unicode="&#x2d8;" horiz-adv-x="610" 
d="M788 1300q-70 -73 -157 -113t-180 -40t-164.5 40t-110.5 113l109 76q24 -50 72.5 -79t113.5 -29q63 0 124 28.5t107 79.5z" />
    <glyph glyph-name="dotaccent" unicode="&#x2d9;" horiz-adv-x="288" 
d="M432 1280q0 -51 -40 -90t-91 -39q-44 0 -74 30t-30 74q0 51 40 90t91 39q44 0 74 -30t30 -74z" />
    <glyph glyph-name="ring" unicode="&#x2da;" horiz-adv-x="385" 
d="M352 1126q-76 0 -124 50t-48 127q0 86 63.5 149.5t149.5 63.5q76 0 125 -49t49 -126q0 -86 -64.5 -150.5t-150.5 -64.5zM362 1225q43 0 76 32t33 74q0 38 -24 63t-62 25q-43 0 -76 -32t-33 -74q0 -38 24 -63t62 -25z" />
    <glyph glyph-name="ogonek" unicode="&#x2db;" horiz-adv-x="344" 
d="M96 -219l78 -57q-72 -105 -172 -105q-72 0 -117 36t-45 103q0 79 53.5 155.5t167.5 139.5l74 -53q-188 -98 -188 -225q0 -62 63 -62q56 0 86 68z" />
    <glyph glyph-name="tilde" unicode="&#x2dc;" horiz-adv-x="579" 
d="M553 1135q-45 0 -74.5 26t-41 56.5t-31.5 56.5t-50 26q-67 0 -100 -153h-113q59 274 226 274q38 0 64 -17t39.5 -41.5t25 -49t28 -41.5t41.5 -17q65 0 101 154h112q-59 -274 -227 -274z" />
    <glyph glyph-name="hungarumlaut" unicode="&#x2dd;" horiz-adv-x="589" 
d="M522 1434l-266 -295h-119l215 295h170zM797 1434l-265 -295h-118l213 295h170z" />
    <glyph glyph-name="pi" unicode="&#x3c0;" horiz-adv-x="1015" 
d="M743 0h-204l186 844h-283l-186 -844h-205l187 844h-115l39 180h921l-39 -180h-114z" />
    <glyph glyph-name="endash" unicode="&#x2013;" horiz-adv-x="1079" 
d="M995 408h-954l37 176h956z" />
    <glyph glyph-name="emdash" unicode="&#x2014;" horiz-adv-x="1509" 
d="M1425 408h-1384l37 176h1386z" />
    <glyph glyph-name="quoteleft" unicode="&#x2018;" horiz-adv-x="497" 
d="M213 1020q0 104 77 207.5t189 158.5l76 -79q-60 -28 -112.5 -75t-71.5 -97q2 2 18 2q43 0 74 -30.5t31 -82.5q0 -59 -46 -102t-104 -43q-56 0 -93.5 37t-37.5 104z" />
    <glyph glyph-name="quoteright" unicode="&#x2019;" horiz-adv-x="497" 
d="M557 1245q0 -104 -76.5 -207.5t-189.5 -160.5l-76 81q60 28 112.5 75t71.5 97q-4 -2 -18 -2q-43 0 -74 30.5t-31 80.5q0 61 45.5 104t104.5 43q55 0 93 -37.5t38 -103.5z" />
    <glyph glyph-name="quotesinglbase" unicode="&#x201a;" horiz-adv-x="497" 
d="M307 111q0 -104 -77.5 -208t-190.5 -159l-76 80q60 28 112.5 75t71.5 97h-18q-43 0 -73.5 30t-30.5 80q0 59 45.5 102.5t103.5 43.5q56 0 94.5 -37t38.5 -104z" />
    <glyph glyph-name="quotedblleft" unicode="&#x201c;" horiz-adv-x="866" 
d="M586 1020q0 103 77.5 207t188.5 159l78 -79q-60 -28 -113 -75t-74 -97q4 2 19 2q45 0 75.5 -30.5t30.5 -82.5q0 -59 -45.5 -102t-103.5 -43q-57 0 -95 37t-38 104zM219 1020q0 104 77 207.5t189 158.5l76 -79q-60 -28 -112.5 -75t-71.5 -97q4 2 18 2q43 0 74 -30.5
t31 -82.5q0 -59 -45.5 -102t-104.5 -43q-56 0 -93.5 37t-37.5 104z" />
    <glyph glyph-name="quotedblright" unicode="&#x201d;" horiz-adv-x="866" 
d="M557 1245q0 -104 -76.5 -207.5t-189.5 -160.5l-76 81q60 28 112.5 75t71.5 97q-4 -2 -18 -2q-43 0 -74 30.5t-31 80.5q0 61 45.5 104t104.5 43q55 0 93 -37.5t38 -103.5zM926 1245q0 -103 -77.5 -207t-189.5 -161l-77 81q60 28 112.5 75t73.5 97q-4 -2 -20 -2
q-43 0 -74 30.5t-31 80.5q0 60 46 103.5t104 43.5q57 0 95 -37.5t38 -103.5z" />
    <glyph glyph-name="quotedblbase" unicode="&#x201e;" horiz-adv-x="866" 
d="M307 111q0 -104 -77.5 -208t-190.5 -159l-76 80q60 28 112.5 75t71.5 97h-18q-43 0 -73.5 30t-30.5 80q0 59 45.5 102.5t103.5 43.5q56 0 94.5 -37t38.5 -104zM674 111q0 -104 -77 -208t-189 -159l-78 80q60 28 112.5 75t73.5 97h-18q-45 0 -76 29.5t-31 80.5
q0 59 46.5 102.5t105.5 43.5q56 0 93.5 -37t37.5 -104z" />
    <glyph glyph-name="dagger" unicode="&#x2020;" horiz-adv-x="550" 
d="M635 1079l-180 8l-84 -417h-117l102 417l-184 -8l23 107l182 -6l37 206h116l-55 -206l184 6z" />
    <glyph glyph-name="daggerdbl" unicode="&#x2021;" horiz-adv-x="550" 
d="M659 1186l-24 -107l-180 8l-93 -417l185 8l-25 -107l-180 7l-39 -209h-117l56 209l-183 -7l23 107l180 -8l92 417l-182 -8l23 107l180 -6l39 206h116l-55 -206z" />
    <glyph glyph-name="bullet" unicode="&#x2022;" horiz-adv-x="733" 
d="M600 518q0 -102 -77.5 -177t-180.5 -75q-89 0 -149 60t-60 149q0 102 77.5 177t180.5 75q89 0 149 -60t60 -149z" />
    <glyph glyph-name="ellipsis" unicode="&#x2026;" horiz-adv-x="1486" 
d="M150 -23q-52 0 -88.5 37t-36.5 90q0 61 44.5 104.5t104.5 43.5q54 0 89.5 -36t35.5 -89q0 -62 -44 -106t-105 -44zM645 -23q-52 0 -88.5 37t-36.5 90q0 61 44.5 104.5t105.5 43.5q54 0 89.5 -36t35.5 -89q0 -61 -44.5 -105.5t-105.5 -44.5zM1141 -23q-52 0 -88.5 37
t-36.5 90q0 61 44.5 104.5t104.5 43.5q53 0 89 -36t36 -89q0 -62 -44 -106t-105 -44z" />
    <glyph glyph-name="perthousand" unicode="&#x2030;" horiz-adv-x="2007" 
d="M268 0h-114l1020 1366h116zM928 -25q-119 0 -195 75.5t-76 191.5q0 174 102.5 292.5t239.5 118.5q119 0 195 -75t76 -191q0 -175 -102.5 -293.5t-239.5 -118.5zM934 104q74 0 132 79t58 190q0 70 -36 109.5t-95 39.5q-74 0 -131 -77.5t-57 -188.5q0 -70 35 -111t94 -41z
M436 709q-119 0 -194.5 75t-75.5 191q0 174 102.5 292.5t239.5 118.5q119 0 194.5 -75t75.5 -191q0 -174 -102.5 -292.5t-239.5 -118.5zM444 840q73 0 131 77.5t58 188.5q0 70 -36 110.5t-95 40.5q-74 0 -131.5 -78.5t-57.5 -189.5q0 -70 35.5 -109.5t95.5 -39.5zM1577 -25
q-119 0 -194.5 75.5t-75.5 191.5q0 174 102.5 292.5t239.5 118.5q119 0 194.5 -75t75.5 -191q0 -175 -102.5 -293.5t-239.5 -118.5zM1585 104q73 0 131 79t58 190q0 69 -36.5 109t-95.5 40q-73 0 -130.5 -77.5t-57.5 -188.5q0 -70 35.5 -111t95.5 -41z" />
    <glyph glyph-name="guilsinglleft" unicode="&#x2039;" horiz-adv-x="557" 
d="M406 129h-173l-174 369l338 362h185l-346 -371z" />
    <glyph glyph-name="guilsinglright" unicode="&#x203a;" horiz-adv-x="557" 
d="M154 860h172l174 -368l-338 -363h-185l347 373z" />
    <glyph glyph-name="fraction" unicode="&#x2044;" horiz-adv-x="282" 
d="M750 1366l-1022 -1366h-115l1020 1366h117z" />
    <glyph glyph-name="Euro" unicode="&#x20ac;" horiz-adv-x="1161" 
d="M621 -25q-217 0 -351.5 134t-138.5 364h-94l29 133h71q5 64 27 158h-64l31 131h74q55 142 139 251t203.5 176t255.5 67q94 0 171.5 -29t131 -80t89 -113.5t54.5 -136.5l-213 -61q-30 105 -93.5 162t-154.5 57q-100 0 -186.5 -80t-148.5 -213h401l-31 -131h-420
q-18 -66 -32 -158h417l-28 -133h-395q5 -140 76 -218.5t192 -78.5q145 0 262 164l176 -100q-88 -131 -204 -198t-246 -67z" />
    <glyph glyph-name="trademark" unicode="&#x2122;" horiz-adv-x="847" 
d="M868 915h-57l82 373l-215 -373h-16l-52 373l-82 -373h-57l98 451h88l41 -324l181 324h88zM485 1313h-106l-88 -398h-58l89 398h-107l10 53h271z" />
    <glyph glyph-name="Omega" unicode="&#x2126;" horiz-adv-x="1247" 
d="M-8 0l43 199h237q-168 155 -168 399q0 102 27.5 211t83 212.5t131 185.5t180.5 132t222 50q223 0 361 -126t138 -362q0 -225 -110 -407t-283 -295h225l-45 -199h-420l21 94h-2l24 105q97 42 179.5 158.5t127 254.5t44.5 258q0 150 -69.5 233t-197.5 83q-91 0 -173 -67.5
t-135 -170.5t-83.5 -221t-30.5 -223q0 -207 138 -305l-23 -105l-20 -94h-422z" />
    <glyph glyph-name="partialdiff" unicode="&#x2202;" horiz-adv-x="1003" 
d="M446 -25q-185 0 -291 105t-106 280q0 144 57 281.5t164 229.5t234 92q92 0 161 -49t99 -140q-22 138 -97.5 295t-172.5 264l172 107q151 -176 225 -344.5t74 -347.5q0 -108 -20.5 -216.5t-63.5 -208.5t-103 -177.5t-146 -124t-186 -46.5zM451 156q59 0 112 41t88 103.5
t55.5 136.5t20.5 141q0 82 -48.5 144t-143.5 62q-77 0 -142 -69t-98 -163.5t-33 -182.5q0 -104 49 -158.5t140 -54.5z" />
    <glyph glyph-name="Delta" unicode="&#x2206;" horiz-adv-x="1101" 
d="M985 0h-1089l710 1366h271zM748 199l-52 925l-458 -925h510z" />
    <glyph glyph-name="product" unicode="&#x220f;" horiz-adv-x="1263" 
d="M901 -184h-227l299 1351h-389l-299 -1351h-226l297 1351h-161l43 199h1167l-43 -199h-162z" />
    <glyph glyph-name="summation" unicode="&#x2211;" horiz-adv-x="954" 
d="M489 1167l218 -569l-469 -584h526l-43 -198h-784l45 204l471 590l-215 557l43 199h782l-45 -199h-529z" />
    <glyph glyph-name="minus" unicode="&#x2212;" horiz-adv-x="903" 
d="M870 618h-786l31 134h784z" />
    <glyph glyph-name="radical" unicode="&#x221a;" horiz-adv-x="1198" 
d="M610 0h-143l-53 637l-264 -76l-7 127l398 111l43 -592l610 1159h147z" />
    <glyph glyph-name="infinity" unicode="&#x221e;" horiz-adv-x="1189" 
d="M328 338q-113 0 -175.5 71.5t-62.5 192.5q0 105 39 203t117 164.5t178 66.5q90 0 153 -59t87 -158q126 217 278 217q113 0 174.5 -72t61.5 -192q0 -106 -38.5 -204t-116 -164t-177.5 -66q-90 0 -154 58.5t-88 156.5q-59 -101 -125.5 -158t-150.5 -57zM842 469
q59 0 106 43t70.5 106.5t23.5 131.5q0 71 -35.5 113t-93.5 42q-62 0 -115 -61.5t-104 -163.5q9 -100 47 -155.5t101 -55.5zM358 469q112 0 220 225q-9 99 -47 155t-103 56q-58 0 -105 -42.5t-71.5 -106t-24.5 -131.5q0 -71 36.5 -113.5t94.5 -42.5z" />
    <glyph glyph-name="integral" unicode="&#x222b;" horiz-adv-x="614" 
d="M-31 -205h-90l31 142h90q53 0 87 33t46 91l277 1246q60 266 317 266h90l-31 -141h-92q-52 0 -86.5 -33t-46.5 -92l-276 -1246q-60 -266 -316 -266z" />
    <glyph glyph-name="approxequal" unicode="&#x2248;" horiz-adv-x="903" 
d="M41 422l33 143q77 -53 184 -53q56 0 108.5 14.5t88 31.5t93 31.5t122.5 14.5q114 0 188 -41l-33 -143q-71 51 -184 51q-56 0 -109 -14t-88.5 -31t-92.5 -31t-122 -14q-114 0 -188 41zM127 805l31 143q74 -51 184 -51q56 0 108.5 14t88 31t93 31t122.5 14q114 0 188 -41
l-31 -143q-77 53 -186 53q-56 0 -108 -14.5t-87.5 -31.5t-93.5 -31.5t-123 -14.5q-112 0 -186 41z" />
    <glyph glyph-name="notequal" unicode="&#x2260;" horiz-adv-x="903" 
d="M182 190h-121l172 232h-192l31 133h262l192 258h-399l31 133h469l172 230h123l-172 -230h192l-29 -133h-264l-194 -258h401l-29 -133h-471z" />
    <glyph glyph-name="lessequal" unicode="&#x2264;" horiz-adv-x="903" 
d="M793 268l-707 359l33 145l864 361l-37 -164l-688 -277l567 -274zM741 33h-786l29 133h786z" />
    <glyph glyph-name="greaterequal" unicode="&#x2265;" horiz-adv-x="903" 
d="M870 627l-864 -359l37 164l690 273l-567 276l33 152l704 -361zM741 33h-786l29 133h784z" />
    <glyph glyph-name="lozenge" unicode="&#x25ca;" horiz-adv-x="768" 
d="M295 0h-43l-172 684l473 682h43l174 -682zM291 92l403 600l-137 582l-401 -598z" />
    <glyph glyph-name="apple" unicode="&#xf8ff;" horiz-adv-x="1366" 
d="M414 313l32 146h-159q-66 0 -114 -48.5t-48 -113.5q0 -54 34.5 -90.5t88.5 -36.5q65 0 108.5 38t57.5 105zM545 907l28 125q5 35 5 39q0 57 -35 91t-92 34q-68 0 -116 -45.5t-48 -112.5q0 -61 38 -96t99 -35h121zM551 543h280l64 280h-281zM1157 328q0 61 -37.5 96
t-99.5 35h-121l-27 -125q-4 -12 -4 -39q0 -57 35 -91t92 -34q68 0 115 45.5t47 112.5zM1321 1069q0 54 -34.5 90.5t-88.5 36.5q-65 0 -109 -38t-59 -105l-33 -146h160q66 0 115 48.5t49 113.5zM1243 328q0 -98 -80 -170t-182 -72q-86 0 -143.5 57.5t-57.5 143.5q0 29 6 59
l27 113h-281l-36 -162q-22 -94 -92.5 -152.5t-163.5 -58.5q-85 0 -144 57.5t-59 141.5q0 100 77.5 179t178.5 79h172l63 280h-120q-93 0 -149 60t-56 155q0 98 79.5 170t180.5 72q86 0 143.5 -57.5t57.5 -143.5q0 -24 -7 -59l-26 -113h280l37 162q22 94 92.5 152.5
t163.5 58.5q85 0 145 -57.5t60 -141.5q0 -101 -77.5 -179.5t-178.5 -78.5h-172l-63 -280h114q93 0 152 -60.5t59 -154.5z" />
    </font>
</defs>
</svg>
