<?xml version="1.0" standalone="no"?>
<!DOCTYPE svg PUBLIC "-//W3C//DTD SVG 1.1//EN" "http://www.w3.org/Graphics/SVG/1.1/DTD/svg11.dtd" >
<svg xmlns="http://www.w3.org/2000/svg" xmlns:xlink="http://www.w3.org/1999/xlink" version="1.1">
<metadata>
Created by FontForge 20170731 at Thu Oct 14 08:25:27 2021
 By Aleksey,,,
Copyright (c) Mark Simonson, 2005. All rights reserved.
</metadata>
<defs>
<font id="ProximaNovaACond-RegularIt" horiz-adv-x="897" >
  <font-face 
    font-family="Proxima Nova Alt Cn Rg"
    font-weight="400"
    font-style="italic"
    font-stretch="normal"
    units-per-em="2048"
    panose-1="2 0 5 6 3 0 0 2 0 4"
    ascent="1618"
    descent="-430"
    x-height="989"
    cap-height="1366"
    bbox="-387 -408 1874 1792"
    underline-thickness="40"
    underline-position="-312"
    unicode-range="U+000D-FB02"
  />
<missing-glyph horiz-adv-x="1007" 
d="M903 -184h-719v1724h719v-1724zM838 -123v1602h-590v-1602h590z" />
    <glyph glyph-name="fi" unicode="fi" horiz-adv-x="933" 
d="M207 0h-148l191 860h-131l28 129h132l24 119q30 138 102.5 208t180.5 70q85 0 141 -34l-57 -119q-28 22 -74 22q-113 0 -145 -147l-27 -119h168l-29 -129h-166zM877 1133q-39 0 -66 25t-27 61q0 51 35.5 82.5t77.5 31.5q39 0 65.5 -26t26.5 -62q0 -51 -35 -81.5
t-77 -30.5zM688 0h-145l219 989h145z" />
    <glyph glyph-name="fl" unicode="fl" horiz-adv-x="1005" 
d="M207 0h-148l191 860h-131l28 129h132l24 119q30 138 102.5 208t180.5 70q85 0 141 -34l-57 -119q-28 22 -74 22q-113 0 -145 -147l-27 -119h168l-29 -129h-166zM776 -25q-93 0 -145.5 40t-52.5 116q0 35 8 74l258 1161h145l-252 -1137q0 -3 -3 -22.5t-3 -28.5
q0 -36 21.5 -54t58.5 -18q46 0 80 31l18 -117q-56 -45 -133 -45z" />
    <glyph glyph-name=".notdef" horiz-adv-x="1007" 
d="M903 -184h-719v1724h719v-1724zM838 -123v1602h-590v-1602h590z" />
    <glyph glyph-name=".null" horiz-adv-x="0" 
 />
    <glyph glyph-name="nonmarkingreturn" horiz-adv-x="682" 
 />
    <glyph glyph-name="NUL" horiz-adv-x="0" 
 />
    <glyph glyph-name="NUL" horiz-adv-x="0" 
 />
    <glyph glyph-name="CR" unicode="&#xd;" horiz-adv-x="0" 
 />
    <glyph glyph-name="space" unicode=" " horiz-adv-x="440" 
 />
    <glyph glyph-name="exclam" unicode="!" horiz-adv-x="466" 
d="M266 379h-121l187 987h184zM131 -20q-41 0 -69.5 29.5t-28.5 70.5q0 50 34.5 84.5t84.5 34.5q42 0 71 -30t29 -73q0 -49 -35.5 -82.5t-85.5 -33.5z" />
    <glyph glyph-name="quotedbl" unicode="&#x22;" horiz-adv-x="696" 
d="M311 848h-73q43 407 43 430q3 47 32.5 77.5t73.5 30.5q34 0 57 -23t23 -58q0 -8 -10 -48zM606 848h-71q41 407 43 430q3 48 32 78t74 30q33 0 56.5 -23t23.5 -58q0 -24 -12 -48z" />
    <glyph glyph-name="numbersign" unicode="#" horiz-adv-x="1038" 
d="M428 0h-121l191 373h-189l-186 -373h-121l188 373h-180l51 104h183l207 412h-181l47 104h187l186 373h121l-186 -373h184l186 373h121l-188 -373h180l-49 -104h-182l-209 -412h186l-51 -104h-189zM547 477l209 412h-185l-209 -412h185z" />
    <glyph glyph-name="dollar" unicode="$" horiz-adv-x="960" 
d="M279 -205l40 191q-103 17 -187 65.5t-128 116.5l107 119q40 -61 103.5 -103t137.5 -57l115 514q-48 32 -77 52.5t-67.5 56t-60 68t-37.5 78t-16 95.5q0 164 123 281t299 117h2l41 184h121l-45 -197q172 -40 256 -153l-103 -117q-73 94 -186 125l-105 -471
q56 -37 93.5 -67t77.5 -73.5t60.5 -96.5t20.5 -115q0 -113 -51 -210t-149.5 -158.5t-225.5 -64.5l-39 -180h-120zM692 383q0 54 -31.5 98.5t-89.5 89.5l-100 -448q102 13 161.5 86.5t59.5 173.5zM381 1014q0 -53 32.5 -95.5t94.5 -87.5l92 410q-95 -7 -157 -73t-62 -154z
" />
    <glyph glyph-name="percent" unicode="%" horiz-adv-x="1331" 
d="M248 0h-96l1017 1366h99zM903 -25q-117 0 -187.5 74.5t-70.5 188.5q0 174 100.5 292.5t231.5 118.5q117 0 188.5 -74t71.5 -188q0 -174 -100.5 -293t-233.5 -119zM907 76q84 0 149.5 87.5t65.5 213.5q0 79 -41 125.5t-108 46.5q-82 0 -147.5 -88t-65.5 -213
q0 -81 40 -126.5t107 -45.5zM434 713q-116 0 -188 75t-72 187q0 174 100.5 292.5t233.5 118.5q117 0 187.5 -74t70.5 -188q0 -174 -100.5 -292.5t-231.5 -118.5zM438 813q82 0 147.5 88t65.5 213q0 81 -40 126.5t-107 45.5q-84 0 -149.5 -87.5t-65.5 -213.5q0 -79 41 -125.5
t108 -46.5z" />
    <glyph glyph-name="ampersand" unicode="&#x26;" horiz-adv-x="1069" 
d="M895 0h-172q-33 55 -61 109q-154 -134 -314 -134q-141 0 -230 78t-89 221q0 77 20 143.5t50.5 115t79 93.5t93.5 75.5t105 64.5q-31 118 -31 219q0 163 99 282t231 119q107 0 173 -57.5t66 -171.5q0 -64 -22.5 -121.5t-48.5 -94t-85.5 -81.5t-91 -64t-107.5 -62
q-13 -7 -19 -11q31 -91 75 -184q48 -117 89 -201q92 123 178 299l112 -66q-121 -226 -227 -354q33 -62 127 -217zM373 98q107 0 231 121q-74 144 -108 225q-40 96 -80 205q-52 -33 -90 -66.5t-71 -77t-50 -97t-17 -115.5q0 -90 53.5 -142.5t131.5 -52.5zM489 977
q0 -59 17 -139q51 28 85.5 49t73 51.5t61 60.5t37.5 69.5t15 84.5q0 61 -29 90t-77 29q-68 0 -125.5 -88.5t-57.5 -206.5z" />
    <glyph glyph-name="quotesingle" unicode="'" horiz-adv-x="403" 
d="M311 848h-73q43 407 43 430q3 47 32.5 77.5t73.5 30.5q34 0 57 -23t23 -58q0 -8 -10 -48z" />
    <glyph glyph-name="parenleft" unicode="(" horiz-adv-x="468" 
d="M244 -360l-107 -48q-92 234 -92 512q0 350 127.5 679.5t362.5 619.5l83 -64q-196 -295 -308.5 -632.5t-112.5 -675.5q0 -77 13.5 -189t33.5 -202z" />
    <glyph glyph-name="parenright" unicode=")" horiz-adv-x="468" 
d="M223 1356l107 47q92 -234 92 -512q0 -350 -127.5 -679.5t-362.5 -619.5l-84 64q196 295 309 633t113 676q0 77 -13.5 189t-33.5 202z" />
    <glyph glyph-name="asterisk" unicode="*" horiz-adv-x="659" 
d="M440 801h-92l66 239l-228 -104l-26 82l233 82l-184 129l61 71l168 -147l41 233h92l-65 -239l225 104l27 -82l-230 -84l183 -127l-64 -71l-168 145z" />
    <glyph glyph-name="plus" unicode="+" 
d="M868 639h-331l-84 -377h-115l84 377h-332l23 104h333l80 363h113l-80 -363h334z" />
    <glyph glyph-name="comma" unicode="," horiz-adv-x="468" 
d="M256 82q0 -93 -68 -186t-163 -142l-62 66q58 29 105.5 76t64.5 96q-2 -2 -16 -2q-35 0 -59.5 25.5t-24.5 64.5q0 49 36 84t83 35q45 0 74.5 -31t29.5 -86z" />
    <glyph glyph-name="hyphen" unicode="-" horiz-adv-x="548" 
d="M471 430h-426l29 131h426z" />
    <glyph glyph-name="period" unicode="." horiz-adv-x="468" 
d="M133 -20q-42 0 -71 29t-29 71q0 49 35.5 84t85.5 35q41 0 69.5 -30t28.5 -73q0 -49 -34.5 -82.5t-84.5 -33.5z" />
    <glyph glyph-name="slash" unicode="/" horiz-adv-x="507" 
d="M-2 -41h-119l713 1448h121z" />
    <glyph glyph-name="zero" unicode="0" horiz-adv-x="1052" 
d="M457 -25q-167 0 -262 118.5t-95 336.5q0 104 18.5 215t52.5 217.5t85.5 201.5t113.5 166.5t141.5 113.5t164.5 42q167 0 259.5 -117.5t92.5 -336.5q0 -126 -25.5 -259.5t-75.5 -257.5t-117.5 -222.5t-159.5 -158t-193 -59.5zM469 121q70 0 134.5 58t111 150t81.5 203
t52.5 220.5t17.5 199.5q0 289 -204 289q-71 0 -136 -57.5t-111.5 -149.5t-82 -202.5t-53 -220t-17.5 -199.5q0 -291 207 -291z" />
    <glyph glyph-name="one" unicode="1" horiz-adv-x="645" 
d="M391 0h-162l254 1151l-260 -225l-76 102l402 338h143z" />
    <glyph glyph-name="two" unicode="2" horiz-adv-x="1005" 
d="M772 0h-776l37 164q64 57 162 143t148 130.5t124.5 112t111.5 105t86.5 89.5t73 86.5t48 76t33.5 77t9 71.5q0 87 -59.5 136.5t-157.5 49.5q-167 0 -284 -139l-86 106q72 83 171.5 130.5t211.5 47.5q162 0 269 -82.5t107 -234.5q0 -161 -150 -350q-108 -135 -376 -378
q-36 -34 -217 -196h545z" />
    <glyph glyph-name="three" unicode="3" horiz-adv-x="970" 
d="M418 -25q-149 0 -266.5 75t-157.5 204l129 84q35 -103 114.5 -160t180.5 -57q84 0 147.5 46t95 117t31.5 154q0 90 -62.5 140.5t-166.5 50.5q-78 0 -96 -2l32 149q18 -2 142 -2q118 0 195 79.5t77 201.5q0 86 -62.5 136t-168.5 50q-74 0 -146.5 -36t-128.5 -103l-84 102
q69 82 168 132t209 50q171 0 276 -81t105 -228q0 -144 -97.5 -254t-230.5 -129q92 -28 145.5 -101t53.5 -171q0 -87 -32.5 -168t-89 -143t-138 -99t-174.5 -37z" />
    <glyph glyph-name="four" unicode="4" horiz-adv-x="948" 
d="M639 0h-162l78 350h-543l35 154l678 862h215l-192 -872h149l-31 -144h-149zM586 494l153 690l-542 -690h389z" />
    <glyph glyph-name="five" unicode="5" horiz-adv-x="1009" 
d="M446 -25q-299 0 -405 273l131 84q34 -104 105 -157.5t174 -53.5q79 0 147.5 54.5t107.5 143.5t39 187q0 100 -59 156.5t-160 56.5q-121 0 -235 -105l-109 54l154 698h698l-30 -145h-537l-102 -461q96 96 239 96q135 0 223 -89.5t88 -244.5q0 -142 -59 -266.5t-168 -202.5
t-242 -78z" />
    <glyph glyph-name="six" unicode="6" horiz-adv-x="1009" 
d="M461 -25q-180 0 -273.5 116t-93.5 317q0 71 10.5 155.5t34.5 179t58 185.5t84.5 174.5t110.5 146t139.5 100t168.5 37.5q117 0 204.5 -54.5t127.5 -151.5l-114 -103q-25 77 -84 120.5t-144 43.5q-63 0 -119.5 -32t-98 -83t-77 -122.5t-59 -141t-41.5 -147.5
q-7 -25 -10 -43q55 75 141.5 128.5t179.5 53.5q140 0 229 -85t89 -234q0 -99 -34 -198.5t-92.5 -180t-147 -131t-189.5 -50.5zM467 121q83 0 151 65t102 154t34 174q0 91 -57 147t-156 56q-144 0 -281 -189q-10 -58 -10 -143q0 -121 56 -192.5t161 -71.5z" />
    <glyph glyph-name="seven" unicode="7" horiz-adv-x="868" 
d="M270 0h-182l698 1221h-573l31 145h764l-27 -113z" />
    <glyph glyph-name="eight" unicode="8" horiz-adv-x="997" 
d="M444 -25q-181 0 -290 79.5t-109 234.5q0 146 96.5 261t268.5 169q-79 43 -134 118t-55 167q0 110 60.5 198.5t156 136t203.5 47.5q99 0 182.5 -31.5t139 -102.5t55.5 -171q0 -151 -97.5 -253t-244.5 -136q87 -51 145 -132.5t58 -180.5q0 -175 -126.5 -289.5
t-308.5 -114.5zM557 766q79 14 142 48.5t105 98.5t42 148q0 79 -60.5 128.5t-154.5 49.5q-102 0 -175 -73t-73 -185q0 -71 54.5 -130.5t119.5 -84.5zM444 121q106 0 188.5 79.5t82.5 198.5q0 89 -59.5 154t-125.5 86q-132 -21 -223.5 -108.5t-91.5 -213.5q0 -95 64.5 -145.5
t164.5 -50.5z" />
    <glyph glyph-name="nine" unicode="9" horiz-adv-x="1009" 
d="M629 1389q180 0 273 -116t93 -317q0 -71 -11 -155.5t-34.5 -179.5t-58 -186t-84.5 -174t-110 -146t-139.5 -100.5t-168.5 -37.5q-117 0 -204.5 55t-127.5 152l115 103q25 -77 83.5 -120.5t143.5 -43.5q78 0 144.5 47t114.5 127.5t81 166.5t56 185q3 11 5.5 24t4.5 19
q-55 -75 -142 -128.5t-180 -53.5q-140 0 -228.5 85t-88.5 234q0 99 34 198.5t92.5 180t147 131t189.5 50.5zM623 1243q-83 0 -151.5 -65t-103 -154t-34.5 -174q0 -91 57.5 -147t155.5 -56q147 0 280 189q13 76 13 143q0 121 -56 192.5t-161 71.5z" />
    <glyph glyph-name="colon" unicode=":" horiz-adv-x="462" 
d="M133 -20q-41 0 -70.5 29.5t-29.5 70.5q0 49 35.5 84t85.5 35q41 0 69.5 -30t28.5 -73q0 -49 -34.5 -82.5t-84.5 -33.5zM311 784q-42 0 -71 29.5t-29 71.5q0 49 35.5 84t85.5 35q41 0 69.5 -29.5t28.5 -71.5q0 -49 -35 -84t-84 -35z" />
    <glyph glyph-name="semicolon" unicode=";" horiz-adv-x="466" 
d="M256 82q0 -93 -68 -186t-163 -142l-62 66q58 29 105.5 76t64.5 96q-2 -2 -16 -2q-35 0 -59.5 25.5t-24.5 64.5q0 49 36 84t83 35q45 0 74.5 -31t29.5 -86zM311 784q-42 0 -71 29.5t-29 71.5q0 49 35.5 84t85.5 35q41 0 69.5 -29.5t28.5 -71.5q0 -49 -35 -84t-84 -35z" />
    <glyph glyph-name="less" unicode="&#x3c;" 
d="M782 256l-694 377l23 104l864 377l-31 -129l-719 -307l584 -303z" />
    <glyph glyph-name="equal" unicode="=" 
d="M911 829h-780l25 105h778zM823 434h-780l25 105h778z" />
    <glyph glyph-name="greater" unicode="&#x3e;" 
d="M866 633l-862 -377l31 131l719 303l-584 305l25 119l696 -377z" />
    <glyph glyph-name="question" unicode="?" horiz-adv-x="794" 
d="M451 430l-134 -53q-34 61 -34 135q0 59 23 110t59.5 87.5t80.5 70t88.5 65.5t81 65.5t59.5 77.5t23 95q0 70 -51.5 116t-140.5 46q-124 0 -227 -92l-62 111q136 122 318 122q149 0 242 -76.5t93 -193.5q0 -69 -24.5 -128t-63.5 -101t-86.5 -79.5t-95 -70t-86.5 -64.5
t-63.5 -71.5t-24.5 -83.5q0 -51 25 -88zM291 -20q-41 0 -69.5 29.5t-28.5 70.5q0 50 34.5 84.5t83.5 34.5q43 0 72 -30t29 -73q0 -49 -35.5 -82.5t-85.5 -33.5z" />
    <glyph glyph-name="at" unicode="@" horiz-adv-x="1419" 
d="M672 -143q-247 0 -403 171t-156 443q0 162 61.5 316.5t162.5 268t238.5 182.5t282.5 69q235 0 381.5 -160.5t146.5 -415.5q0 -243 -99.5 -400t-227.5 -157q-74 0 -119.5 44.5t-50.5 111.5l-2 12q-48 -74 -119.5 -121t-155.5 -47q-110 0 -180 75.5t-70 217.5q0 140 58 268
t158 207.5t215 79.5q75 0 128 -43t76 -111l25 121h133l-119 -561q-4 -24 -4 -51q0 -46 21 -71t57 -25q28 0 62 27.5t66.5 79.5t54.5 142.5t22 200.5q0 231 -127 368.5t-334 137.5q-176 0 -332 -109.5t-247 -286t-91 -368.5q0 -242 137.5 -395.5t358.5 -153.5q171 0 332 115
l35 -53q-178 -129 -375 -129zM659 285q133 0 248 174l66 307q-14 58 -55.5 101.5t-104.5 43.5q-88 0 -160.5 -68.5t-110.5 -166.5t-38 -197q0 -90 40 -142t115 -52z" />
    <glyph glyph-name="A" unicode="A" horiz-adv-x="1048" 
d="M922 0h-170l-21 309h-487l-156 -309h-182l712 1366h195zM729 455l-47 731l-371 -731h418z" />
    <glyph glyph-name="B" unicode="B" horiz-adv-x="1058" 
d="M518 0h-485l301 1366h405q140 0 227 -82.5t87 -212.5q0 -141 -82 -252t-207 -131q78 -22 123 -97t45 -163q0 -81 -26 -155.5t-75 -136.5t-130.5 -99t-182.5 -37zM641 772q61 0 108.5 26t74.5 67.5t41 88t14 93.5q0 80 -51 127t-132 47h-231l-98 -449h274zM508 145
q116 0 187 87t71 206q0 90 -49 139.5t-139 49.5h-244l-107 -482h281z" />
    <glyph glyph-name="C" unicode="C" horiz-adv-x="1093" 
d="M559 -25q-207 0 -332 132t-125 362q0 131 30 263.5t88 250t135.5 208.5t180.5 144.5t216 53.5q160 0 263.5 -87.5t147.5 -232.5l-153 -45q-35 108 -104.5 163.5t-166.5 55.5q-126 0 -235.5 -119t-170.5 -297t-61 -358q0 -165 78.5 -256.5t218.5 -91.5q148 0 279 166
l125 -76q-172 -236 -414 -236z" />
    <glyph glyph-name="D" unicode="D" horiz-adv-x="1157" 
d="M397 0h-364l301 1366h356q85 0 162 -34t136.5 -95.5t94.5 -157.5t35 -211q0 -75 -12 -154.5t-39 -165t-66.5 -164t-98.5 -149t-131 -122.5t-168 -82.5t-206 -30.5zM465 1221l-238 -1076h199q100 0 187.5 46.5t148 121.5t104 170.5t64 192.5t20.5 188q0 163 -82.5 260
t-208.5 97h-194z" />
    <glyph glyph-name="E" unicode="E" horiz-adv-x="946" 
d="M735 0h-702l301 1366h702l-30 -145h-541l-98 -449h526l-33 -145h-526l-107 -482h541z" />
    <glyph glyph-name="F" unicode="F" horiz-adv-x="923" 
d="M197 0h-164l301 1366h702l-30 -145h-541l-98 -449h526l-33 -145h-526z" />
    <glyph glyph-name="G" unicode="G" horiz-adv-x="1155" 
d="M535 -25q-195 0 -314 132.5t-119 361.5q0 129 30 260.5t89 249.5t138.5 210t188 146t228.5 54q142 0 241 -84.5t140 -217.5l-143 -51q-33 95 -102 151t-158 56q-98 0 -189 -70t-154 -181t-101 -249.5t-38 -273.5q0 -162 76 -255t211 -93q74 0 139.5 35t114.5 96.5
t85 137.5t60 165h-389l31 145h555q-142 -725 -620 -725z" />
    <glyph glyph-name="H" unicode="H" horiz-adv-x="1177" 
d="M924 0h-162l137 631h-565l-137 -631h-164l301 1366h164l-131 -592h565l131 592h162z" />
    <glyph glyph-name="I" unicode="I" horiz-adv-x="450" 
d="M197 0h-164l301 1366h164z" />
    <glyph glyph-name="J" unicode="J" horiz-adv-x="817" 
d="M242 -25q-96 0 -176 35.5t-125 102.5l88 120q32 -54 84.5 -83t117.5 -29q193 0 248 235l221 1010h164l-225 -1014q-43 -193 -140.5 -285t-256.5 -92z" />
    <glyph glyph-name="K" unicode="K" horiz-adv-x="1044" 
d="M905 0h-182l-274 610l-158 -174l-94 -436h-164l301 1366h164l-152 -688l619 688h204l-600 -647z" />
    <glyph glyph-name="L" unicode="L" horiz-adv-x="847" 
d="M680 0h-660l302 1366h163l-270 -1221h496z" />
    <glyph glyph-name="M" unicode="M" horiz-adv-x="1400" 
d="M1147 0h-162l246 1106l-608 -1106h-64l-119 1106l-243 -1106h-164l301 1366h221l109 -1006l555 1006h229z" />
    <glyph glyph-name="N" unicode="N" horiz-adv-x="1173" 
d="M920 0h-156l-336 1049l-231 -1049h-164l301 1366h164l331 -1026l230 1026h162z" />
    <glyph glyph-name="O" unicode="O" horiz-adv-x="1230" 
d="M559 -25q-207 0 -332 135.5t-125 358.5q0 126 28.5 256t85.5 248.5t133.5 211.5t181.5 148.5t221 55.5q205 0 330.5 -136.5t125.5 -359.5q0 -125 -28.5 -255t-85.5 -248.5t-133.5 -211t-181 -148t-220.5 -55.5zM569 121q128 0 237.5 118.5t169.5 295.5t60 358
q0 163 -82 256.5t-215 93.5q-97 0 -185.5 -70.5t-149 -181.5t-96.5 -249t-36 -273q0 -162 81.5 -255t215.5 -93z" />
    <glyph glyph-name="P" unicode="P" horiz-adv-x="999" 
d="M197 0h-164l301 1366h393q137 0 226 -95.5t89 -236.5q0 -70 -17 -138t-54.5 -131.5t-92 -111.5t-135.5 -77t-178 -29h-248zM584 692h-4q70 0 126.5 28t92 75t54.5 105.5t19 121.5q0 89 -52.5 144t-133.5 55h-221l-117 -529h236z" />
    <glyph glyph-name="Q" unicode="Q" horiz-adv-x="1230" 
d="M559 -25q-207 0 -332 135.5t-125 358.5q0 126 28.5 256t85.5 248.5t133.5 211.5t181.5 148.5t221 55.5q205 0 330.5 -136.5t125.5 -359.5q0 -227 -91.5 -451.5t-246.5 -349.5l50 -112l-129 -48l-37 86q-97 -43 -195 -43zM569 121q59 0 127 33l-112 264l129 47l94 -225
q104 112 166.5 291.5t62.5 361.5q0 163 -82 256.5t-215 93.5q-97 0 -185.5 -70.5t-149 -181.5t-96.5 -249t-36 -273q0 -162 81.5 -255t215.5 -93z" />
    <glyph glyph-name="R" unicode="R" horiz-adv-x="1044" 
d="M842 0h-176l-144 547h-207l-118 -547h-164l301 1366h379q139 0 235 -92.5t96 -239.5q0 -182 -103 -314t-261 -157zM582 690q135 0 212.5 98.5t77.5 233.5q0 92 -54 145.5t-132 53.5h-221l-117 -531h234z" />
    <glyph glyph-name="S" unicode="S" horiz-adv-x="966" 
d="M422 -25q-134 0 -249.5 54t-172.5 139l106 119q52 -76 138 -121t184 -45q119 0 189.5 76t70.5 186q0 49 -26.5 92.5t-69 77t-94.5 66.5t-103.5 69.5t-94 78t-69 99t-26.5 125.5q0 164 123 281t299 117q116 0 216 -44t158 -122l-102 -117q-48 66 -123.5 101.5t-159.5 35.5
q-102 0 -170.5 -68t-68.5 -161q0 -45 26.5 -85t69 -73t94 -66.5t103.5 -71.5t94.5 -80.5t69 -101.5t26.5 -128q0 -116 -52 -213.5t-153.5 -158.5t-232.5 -61z" />
    <glyph glyph-name="T" unicode="T" horiz-adv-x="915" 
d="M428 0h-162l271 1221h-326l31 145h813l-31 -145h-326z" />
    <glyph glyph-name="U" unicode="U" horiz-adv-x="1165" 
d="M530 -25q-188 0 -298.5 100t-110.5 273q0 34 10 96l203 922h164l-205 -926q-8 -56 -8 -78q0 -111 67.5 -176t184.5 -65q127 0 200 78t109 241l203 926h163l-202 -924q-53 -232 -167.5 -349.5t-312.5 -117.5z" />
    <glyph glyph-name="V" unicode="V" horiz-adv-x="1048" 
d="M512 0h-195l-110 1366h170l74 -1169l589 1169h183z" />
    <glyph glyph-name="W" unicode="W" horiz-adv-x="1468" 
d="M1020 0h-174l16 1077l-463 -1077h-172l-4 1366h172l-22 -1112l481 1112h135l-10 -1112l469 1112h178z" />
    <glyph glyph-name="X" unicode="X" horiz-adv-x="1048" 
d="M922 0h-179l-200 559l-437 -559h-200l565 707l-242 659h181l182 -530l405 530h203l-536 -676z" />
    <glyph glyph-name="Y" unicode="Y" horiz-adv-x="1026" 
d="M483 0h-161l127 578l-248 788h172l182 -631l461 631h190l-596 -788z" />
    <glyph glyph-name="Z" unicode="Z" horiz-adv-x="948" 
d="M756 0h-785l31 139l805 1082h-565l30 145h770l-28 -135l-809 -1086h581z" />
    <glyph glyph-name="bracketleft" unicode="[" horiz-adv-x="434" 
d="M201 -389h-322l393 1778h324l-25 -109h-209l-344 -1561h207z" />
    <glyph glyph-name="backslash" unicode="\" horiz-adv-x="507" 
d="M272 -41l-82 1448h117l82 -1448h-117z" />
    <glyph glyph-name="bracketright" unicode="]" horiz-adv-x="434" 
d="M160 -389h-322l25 108h207l346 1561h-209l24 109h324z" />
    <glyph glyph-name="asciicircum" unicode="^" horiz-adv-x="780" 
d="M780 682h-114l-105 567l-358 -567h-125l446 684h113z" />
    <glyph glyph-name="underscore" unicode="_" horiz-adv-x="864" 
d="M715 -190h-873l25 108h874z" />
    <glyph glyph-name="grave" unicode="`" horiz-adv-x="380" 
d="M522 1139h-104l-211 295h149z" />
    <glyph glyph-name="a" unicode="a" horiz-adv-x="925" 
d="M696 0h-147l22 102q-108 -127 -254 -127q-116 0 -195 69t-79 196q0 166 97.5 278.5t242.5 112.5q86 0 158 -37.5t114 -106.5l39 175q8 31 8 71q0 72 -55 115t-147 43q-130 0 -248 -105l-43 109q143 119 319 119q93 0 165.5 -26t117.5 -83t45 -139q0 -35 -14 -100zM377 82
q128 0 215 119l45 192q-26 62 -84 96.5t-133 34.5q-99 0 -161 -82.5t-62 -187.5q0 -85 48.5 -128.5t131.5 -43.5z" />
    <glyph glyph-name="b" unicode="b" horiz-adv-x="985" 
d="M467 -25q-90 0 -158.5 45.5t-105.5 129.5l-33 -150h-145l301 1366h145l-113 -512q111 160 269 160q135 0 213 -92t78 -258q0 -72 -13.5 -150t-39 -155t-65 -146.5t-88 -122.5t-112 -84t-133.5 -31zM444 106q72 0 134.5 54.5t101.5 137t61.5 174t22.5 171.5
q0 115 -52.5 177.5t-144.5 62.5q-67 0 -131.5 -47.5t-107.5 -118.5l-99 -447q22 -71 80.5 -117.5t134.5 -46.5z" />
    <glyph glyph-name="c" unicode="c" horiz-adv-x="833" 
d="M432 -25q-166 0 -265 102.5t-99 289.5q0 90 22 182t66 175t102.5 148t138 103.5t166.5 38.5q197 0 287 -144l-94 -94q-30 54 -79.5 80.5t-109.5 26.5q-79 0 -147 -49t-110.5 -126t-66.5 -165.5t-24 -171.5q0 -130 64 -197.5t170 -67.5q111 0 190 93l59 -107
q-114 -117 -270 -117z" />
    <glyph glyph-name="d" unicode="d" horiz-adv-x="985" 
d="M516 1014q89 0 158.5 -45t105.5 -129l115 526h147l-303 -1366h-147l31 135q-111 -160 -269 -160q-133 0 -212 93.5t-79 257.5q0 110 31 228.5t86.5 222t144 170.5t191.5 67zM539 883q-72 0 -134.5 -54.5t-101.5 -137t-61.5 -174t-22.5 -171.5q0 -116 51.5 -178t143.5 -62
q69 0 133.5 48t105.5 118l101 447q-22 71 -80.5 117.5t-134.5 46.5z" />
    <glyph glyph-name="e" unicode="e" horiz-adv-x="960" 
d="M453 -25q-181 0 -284 104t-103 288q0 102 34 213t94 209t155.5 161.5t205.5 63.5q159 0 250.5 -99t91.5 -272q0 -95 -29 -197h-647q-8 -39 -8 -92q0 -110 65 -183t189 -73q60 0 121.5 27.5t109.5 75.5l58 -99q-63 -59 -142 -93t-161 -34zM741 557h9q10 48 10 92
q0 106 -57 174t-160 68q-112 0 -195.5 -102.5t-107.5 -231.5h501z" />
    <glyph glyph-name="f" unicode="f" horiz-adv-x="518" 
d="M207 0h-148l191 860h-131l28 129h132l24 119q30 138 102.5 208t180.5 70q85 0 141 -34l-57 -119q-28 22 -74 22q-113 0 -145 -147l-27 -119h168l-29 -129h-166z" />
    <glyph glyph-name="g" unicode="g" horiz-adv-x="985" 
d="M319 -401q-240 0 -356 141l92 113q38 -60 107 -91.5t157 -31.5q208 0 271 264l37 158q-112 -160 -275 -160q-129 0 -207.5 87.5t-78.5 260.5q0 84 18 175t55.5 180.5t89 160t126 114.5t159.5 44q80 0 155 -48t111 -126l33 149h145l-223 -995q-88 -395 -416 -395zM414 121
q66 0 131.5 46.5t109.5 115.5l97 436q-24 69 -86.5 116.5t-135.5 47.5q-70 0 -131 -52t-99 -132t-59.5 -169.5t-21.5 -169.5q0 -117 52 -178t143 -61z" />
    <glyph glyph-name="h" unicode="h" horiz-adv-x="954" 
d="M709 0h-148l156 705q10 35 10 59q0 61 -38.5 90t-104.5 29q-65 0 -132.5 -47t-121.5 -115l-160 -721h-145l301 1366h145l-113 -514q143 162 295 162q106 0 168 -53t62 -146q0 -19 -11 -74z" />
    <glyph glyph-name="i" unicode="i" horiz-adv-x="415" 
d="M358 1133q-39 0 -65.5 25t-26.5 61q0 51 35.5 82.5t77.5 31.5q39 0 65.5 -26t26.5 -62q0 -51 -35.5 -81.5t-77.5 -30.5zM170 0h-145l219 989h145z" />
    <glyph glyph-name="j" unicode="j" horiz-adv-x="415" 
d="M-129 -401q-130 0 -182 77l75 107q29 -53 97 -53q101 0 135 149l248 1110h145l-246 -1110q-33 -145 -96.5 -212.5t-175.5 -67.5zM358 1133q-39 0 -65.5 25t-26.5 61q0 51 35.5 82.5t77.5 31.5q39 0 65.5 -26t26.5 -62q0 -51 -35.5 -81.5t-77.5 -30.5z" />
    <glyph glyph-name="k" unicode="k" horiz-adv-x="899" 
d="M758 0h-166l-178 453l-185 -185l-59 -268h-145l301 1366h145l-199 -903l525 526h178l-445 -444z" />
    <glyph glyph-name="l" unicode="l" horiz-adv-x="487" 
d="M258 -25q-94 0 -146.5 40.5t-52.5 115.5q0 31 9 74l258 1161h145l-252 -1137q0 -3 -3 -22.5t-3 -28.5q0 -36 21.5 -54t58.5 -18q46 0 80 31l18 -117q-56 -45 -133 -45z" />
    <glyph glyph-name="m" unicode="m" horiz-adv-x="1419" 
d="M1174 0h-148l158 711q8 40 8 53q0 57 -34 88t-91 31q-59 0 -124.5 -47.5t-111.5 -114.5l-159 -721h-148l158 711q8 46 8 59q0 53 -32 83t-93 30q-60 0 -122.5 -47t-112.5 -115l-160 -721h-145l219 989h145l-31 -137q50 66 123 114t154 48q96 0 152.5 -53t56.5 -115v-15
q137 183 293 183q92 0 151.5 -53t59.5 -144q0 -13 -11 -76z" />
    <glyph glyph-name="n" unicode="n" horiz-adv-x="954" 
d="M709 0h-148l156 702q10 45 10 62q0 119 -143 119q-66 0 -133.5 -47t-120.5 -115l-160 -721h-145l219 989h145l-31 -137q143 162 295 162q106 0 168 -52.5t62 -146.5q0 -25 -11 -74z" />
    <glyph glyph-name="o" unicode="o" horiz-adv-x="978" 
d="M422 -25q-166 0 -261 101t-95 280q0 113 35 228.5t96 211.5t155.5 157t202.5 61q165 0 259.5 -101t94.5 -280q0 -113 -35 -228.5t-96 -211.5t-154.5 -157t-201.5 -61zM428 106q71 0 135 52.5t105.5 132t65.5 170t24 170.5q0 124 -55.5 188t-155.5 64q-71 0 -134.5 -52.5
t-104.5 -132t-65 -170t-24 -170.5q0 -124 55 -188t154 -64z" />
    <glyph glyph-name="p" unicode="p" horiz-adv-x="980" 
d="M467 -25q-90 0 -158.5 45.5t-105.5 129.5l-117 -527h-145l303 1366h145l-31 -135q111 160 269 160q135 0 213 -92t78 -258q0 -72 -13.5 -150t-39 -155t-65 -146.5t-88 -122.5t-112 -84t-133.5 -31zM444 106q72 0 134.5 54.5t101.5 137t61.5 174t22.5 171.5
q0 115 -52.5 177.5t-144.5 62.5q-67 0 -131.5 -47.5t-107.5 -118.5l-99 -447q22 -71 80.5 -117.5t134.5 -46.5z" />
    <glyph glyph-name="q" unicode="q" horiz-adv-x="980" 
d="M516 1014q89 0 158.5 -45t105.5 -129l31 149h147l-303 -1366h-147l115 512q-111 -160 -269 -160q-133 0 -212 93.5t-79 257.5q0 110 31 228.5t86.5 222t144 170.5t191.5 67zM539 883q-72 0 -134.5 -54.5t-101.5 -137t-61.5 -174t-22.5 -171.5q0 -116 51.5 -178t143.5 -62
q69 0 133.5 48t105.5 118l101 447q-22 71 -80.5 117.5t-134.5 46.5z" />
    <glyph glyph-name="r" unicode="r" horiz-adv-x="595" 
d="M170 0h-145l219 989h145l-33 -145q63 84 137.5 125t180.5 41l-35 -152q-24 8 -61 8q-72 0 -139.5 -46.5t-112.5 -119.5z" />
    <glyph glyph-name="s" unicode="s" horiz-adv-x="794" 
d="M326 -25q-112 0 -200.5 40.5t-139.5 115.5l92 98q34 -57 103 -96t151 -39q85 0 140.5 52t55.5 122q0 37 -22 68.5t-57 55.5t-77 48t-84.5 50.5t-77.5 56.5t-57 73t-22 95q0 126 89.5 212.5t242.5 86.5q97 0 180.5 -39.5t128.5 -102.5l-86 -96q-27 50 -92 84.5t-137 34.5
q-81 0 -131 -43.5t-50 -110.5q0 -33 22 -62.5t57.5 -53t78 -47t85 -50.5t78 -58t57.5 -75.5t22 -97.5q0 -134 -96 -228t-254 -94z" />
    <glyph glyph-name="t" unicode="t" horiz-adv-x="538" 
d="M287 -25q-95 0 -146 40.5t-51 121.5q0 27 6 68l148 655h-131l28 129h131l60 271h147l-59 -271h166l-29 -129h-166l-141 -631q-6 -24 -6 -49q0 -74 80 -74q46 0 77 31l21 -117q-55 -45 -135 -45z" />
    <glyph glyph-name="u" unicode="u" horiz-adv-x="952" 
d="M242 989h147l-156 -702q-8 -36 -8 -62q0 -61 38 -90t104 -29t133.5 45.5t117.5 112.5l162 725h148l-219 -989h-148l31 137q-143 -162 -295 -162q-104 0 -165.5 52.5t-61.5 146.5q0 44 10 74z" />
    <glyph glyph-name="v" unicode="v" horiz-adv-x="837" 
d="M389 0h-162l-106 989h153l66 -813l430 813h164z" />
    <glyph glyph-name="w" unicode="w" horiz-adv-x="1308" 
d="M907 0h-149l-39 795l-387 -795h-150l-47 989h148l20 -790l385 790h137l35 -790l373 790h160z" />
    <glyph glyph-name="x" unicode="x" horiz-adv-x="833" 
d="M698 0h-157l-142 397l-315 -397h-170l414 504l-178 485h157l127 -377l297 377h170l-395 -485z" />
    <glyph glyph-name="y" unicode="y" horiz-adv-x="952" 
d="M289 -401q-244 0 -357 141l93 113q37 -60 108 -91.5t156 -31.5q109 0 174.5 67t95.5 197l35 160q-149 -160 -293 -160q-103 0 -165 50t-62 146q0 33 8 74l162 725h145l-151 -686q-9 -35 -9 -61q0 -61 39 -90t103 -29q68 0 136 46.5t116 113.5l157 706h148l-221 -995
q-88 -395 -418 -395z" />
    <glyph glyph-name="z" unicode="z" horiz-adv-x="794" 
d="M596 0h-619l25 115l590 745h-424l29 129h610l-25 -112l-592 -748h433z" />
    <glyph glyph-name="braceleft" unicode="{" horiz-adv-x="473" 
d="M240 -389h-74q-80 0 -139.5 53t-59.5 137q0 30 8 58l99 448q6 36 6 39q0 46 -21.5 75.5t-58.5 29.5l23 98q55 0 89.5 39.5t47.5 103.5l100 453q27 122 100.5 183t180.5 61h94l-25 -109h-94q-53 0 -89.5 -34.5t-51.5 -100.5l-105 -477q-16 -71 -46.5 -115.5t-86.5 -65.5
q60 -29 60 -110q0 -33 -9 -70l-98 -448q-4 -24 -4 -39q0 -45 26.5 -73t65.5 -28h86z" />
    <glyph glyph-name="bar" unicode="|" horiz-adv-x="397" 
d="M295 -41h-111v1448h111v-1448z" />
    <glyph glyph-name="braceright" unicode="}" horiz-adv-x="473" 
d="M231 1389h74q80 0 139.5 -53.5t59.5 -139.5q0 -19 -6 -55l-101 -449q-4 -24 -4 -39q0 -46 21 -75t59 -29l-22 -98q-108 0 -140 -144l-100 -452q-27 -122 -100.5 -183t-180.5 -61h-94l25 108h94q53 0 89.5 35t51.5 101l105 477q32 143 133 180q-60 31 -60 111q0 31 9 69
l98 449q4 24 4 39q0 45 -26.5 72.5t-65.5 27.5h-86z" />
    <glyph glyph-name="asciitilde" unicode="~" horiz-adv-x="919" 
d="M944 1366l109 -10q-106 -488 -340 -488q-70 0 -107 40.5t-46 98t-13 115t-21 98t-57 40.5q-129 0 -221 -394l-109 13q20 93 47.5 172t68 153.5t97.5 117t125 42.5q52 0 86 -21.5t48.5 -56.5t22 -77t11 -83.5t9 -76.5t22 -56.5t45.5 -21.5q132 0 223 395z" />
    <glyph glyph-name="uni00A0" unicode="&#xa0;" horiz-adv-x="440" 
 />
    <glyph glyph-name="exclamdown" unicode="&#xa1;" horiz-adv-x="466" 
d="M197 610h122l-188 -987h-182zM332 1010q41 0 70.5 -30t29.5 -71q0 -49 -35.5 -83.5t-85.5 -34.5q-41 0 -69.5 29.5t-28.5 72.5q0 49 34.5 83t84.5 34z" />
    <glyph glyph-name="cent" unicode="&#xa2;" horiz-adv-x="833" 
d="M432 -25h-16l-39 -180h-117l43 199q-111 34 -173 129.5t-62 243.5q0 108 33 218.5t91 202t147 153.5t191 71l33 145h117l-35 -151q136 -27 205 -136l-94 -94q-49 85 -140 101l-170 -771h7q111 0 190 93l59 -107q-114 -117 -270 -117zM219 371q0 -177 115 -238l166 739
q-85 -24 -151.5 -109t-98 -188.5t-31.5 -203.5z" />
    <glyph glyph-name="sterling" unicode="&#xa3;" horiz-adv-x="921" 
d="M61 553l23 106h190q-3 8 -24.5 55t-28 66.5t-15.5 60t-9 79.5q0 124 60 231.5t162 171t220 63.5q130 0 227 -66t117 -179l-143 -56q-14 74 -66.5 119t-132.5 45q-108 0 -189 -98t-81 -246q0 -46 11.5 -86.5t34 -89t29.5 -70.5h228l-25 -106h-182q0 -112 -67 -217
t-152 -160q52 19 84 19q59 0 141.5 -38t128.5 -38q92 0 164 76l35 -129q-93 -93 -217 -93q-68 0 -127 22.5t-112.5 45t-108.5 22.5q-84 0 -199 -77l-33 120q128 60 216.5 174t88.5 230q0 15 -4 43h-244z" />
    <glyph glyph-name="yen" unicode="&#xa5;" horiz-adv-x="1026" 
d="M489 0h-161l55 252h-393l22 104h394l49 222h-394l23 104h338l-215 684h172l182 -631l461 631h190l-518 -684h326l-23 -104h-381l-49 -222h379l-22 -104h-379z" />
    <glyph glyph-name="brokenbar" unicode="&#xa6;" horiz-adv-x="397" 
d="M295 -41h-111v647h111v-647zM295 760h-111v647h111v-647z" />
    <glyph glyph-name="section" unicode="&#xa7;" horiz-adv-x="798" 
d="M754 662q0 -100 -59 -178t-173 -115q119 -80 119 -211q0 -133 -95 -228.5t-247 -95.5q-243 0 -358 148l92 92q39 -59 107.5 -93t154.5 -34q85 0 142 55.5t57 134.5q0 38 -21.5 70t-56 55.5t-76.5 46t-84 48.5t-76.5 56t-56 74.5t-21.5 98.5q0 103 70.5 179.5t194.5 96.5
q-152 91 -152 230q0 123 91.5 208.5t232.5 85.5q221 0 329 -137l-88 -82q-77 109 -235 109q-80 0 -133.5 -48.5t-53.5 -117.5q0 -52 41 -93t99 -71.5t116 -64.5t99 -89.5t41 -129.5zM608 631q0 60 -36 100.5t-97 73.5q-118 -16 -173.5 -69.5t-55.5 -123.5q0 -59 44.5 -103
t133.5 -85q184 57 184 207z" />
    <glyph glyph-name="dieresis" unicode="&#xa8;" horiz-adv-x="548" 
d="M709 1247q0 -41 -31.5 -71.5t-73.5 -30.5q-35 0 -58.5 23.5t-23.5 58.5q0 40 32 71t73 31q34 0 58 -24t24 -58zM350 1247q0 -41 -30.5 -71.5t-71.5 -30.5q-35 0 -58.5 23.5t-23.5 58.5q0 40 31 71t71 31q35 0 58.5 -24t23.5 -58z" />
    <glyph glyph-name="copyright" unicode="&#xa9;" horiz-adv-x="1593" 
d="M1544 684q0 -143 -56 -274t-151 -226t-226 -151t-275 -56q-191 0 -353.5 95t-257 258t-94.5 354q0 192 94.5 355t257 257.5t353.5 94.5q192 0 355 -94.5t258 -257.5t95 -355zM1483 684q0 130 -51.5 249.5t-138.5 206t-207 138t-250 51.5t-249 -51.5t-205 -138
t-137.5 -206t-51.5 -249.5t51.5 -249t137.5 -206t205 -138.5t249 -51.5t250 51.5t207 138.5t138.5 206t51.5 249zM1034 412l39 -58q-129 -106 -274 -106q-180 0 -286.5 108.5t-106.5 272.5q0 102 41 195t108 157.5t155 102.5t179 38q219 0 317 -164l-61 -43
q-75 140 -258 140q-74 0 -147 -32t-131 -87t-94 -135.5t-36 -169.5q0 -133 89.5 -225.5t230.5 -92.5q64 0 128 28t107 71z" />
    <glyph glyph-name="ordfeminine" unicode="&#xaa;" horiz-adv-x="718" 
d="M498 1235q-60 0 -110 -52t-76.5 -127.5t-26.5 -150.5q0 -77 35 -119.5t96 -42.5q82 0 159 105l64 291q-14 41 -54 68.5t-87 27.5zM678 1311h113l-142 -643h-114l20 92q-79 -109 -186 -109q-90 0 -146.5 62t-56.5 184q0 101 37.5 199t109.5 164.5t160 66.5
q61 0 109.5 -27.5t74.5 -78.5z" />
    <glyph glyph-name="guillemotleft" unicode="&#xab;" horiz-adv-x="782" 
d="M365 129h-132l-174 369l338 362h144l-346 -371zM631 129h-131l-174 369l338 362h143l-346 -371z" />
    <glyph glyph-name="logicalnot" unicode="&#xac;" horiz-adv-x="903" 
d="M934 934l-111 -500h-108l88 395h-672l25 105h778z" />
    <glyph glyph-name="registered" unicode="&#xae;" horiz-adv-x="1011" 
d="M1040 952q0 -180 -127.5 -307t-308.5 -127q-180 0 -306 127t-126 307q0 181 127 307.5t307 126.5q119 0 219 -57.5t157.5 -157.5t57.5 -219zM981 952q0 158 -110 266.5t-267 108.5t-265 -108.5t-108 -266.5q0 -156 108.5 -265t264.5 -109q157 0 267 109.5t110 264.5z
M752 702h-78l-86 197h-94l-43 -197h-66l109 498h188q61 0 102 -35.5t41 -95.5q0 -71 -50.5 -119.5t-112.5 -48.5zM756 1061q0 39 -23.5 60.5t-60.5 21.5h-125l-41 -185h139q46 0 78.5 30t32.5 73z" />
    <glyph glyph-name="macron" unicode="&#xaf;" horiz-adv-x="626" 
d="M782 1210h-624l20 95h625z" />
    <glyph glyph-name="degree" unicode="&#xb0;" horiz-adv-x="591" 
d="M684 1137q0 -101 -72.5 -173.5t-175.5 -72.5t-175.5 72.5t-72.5 173.5q0 103 72.5 176t175.5 73t175.5 -73t72.5 -176zM590 1137q0 63 -45.5 108t-108.5 45t-107 -45t-44 -108q0 -62 43 -106t106 -44t109.5 44.5t46.5 105.5z" />
    <glyph glyph-name="plusminus" unicode="&#xb1;" 
d="M870 651h-331l-84 -377h-113l84 377h-334l23 105h334l79 362h113l-80 -362h334zM737 45h-778l21 105h780z" />
    <glyph glyph-name="twosuperior" unicode="&#xb2;" horiz-adv-x="669" 
d="M678 862h-514l20 96q279 218 358 291q125 115 142 197q4 17 4 35q0 56 -38.5 85t-96.5 29q-117 0 -195 -96l-59 78q108 117 258 117q105 0 179.5 -53.5t74.5 -151.5q0 -76 -64.5 -163.5t-137 -150t-245.5 -198.5q-5 -4 -7 -6t-6 -5t-7 -5h354z" />
    <glyph glyph-name="threesuperior" unicode="&#xb3;" horiz-adv-x="669" 
d="M733 1104q0 -96 -75 -176t-199 -80q-98 0 -171.5 39t-107.5 108l86 66q28 -55 76.5 -85t110.5 -30q75 0 118 53t43 123q0 53 -41.5 83t-107.5 30q-47 0 -59 -2l22 98q18 -2 92 -2q73 0 119.5 41.5t46.5 112.5q0 51 -40.5 81.5t-102.5 30.5q-103 0 -187 -90l-57 74
q48 53 114.5 84t137.5 31q113 0 184.5 -51.5t71.5 -145.5q0 -82 -57 -146.5t-148 -76.5q57 -14 94 -60t37 -110z" />
    <glyph glyph-name="acute" unicode="&#xb4;" horiz-adv-x="380" 
d="M588 1434l-342 -295h-109l299 295h152z" />
    <glyph glyph-name="mu" unicode="&#xb5;" horiz-adv-x="952" 
d="M86 -377h-145l303 1366h145l-156 -704q-40 -183 117 -183q70 0 144.5 46.5t123.5 111.5l162 729h148l-219 -989h-148l29 133q-62 -68 -148.5 -113t-173.5 -45q-48 0 -102 15z" />
    <glyph glyph-name="paragraph" unicode="&#xb6;" horiz-adv-x="919" 
d="M612 -205h-88l330 1481h-184l-330 -1481h-90l192 867q-116 0 -198 91t-82 228q0 97 50.5 185t143 144t203.5 56h402z" />
    <glyph glyph-name="periodcentered" unicode="&#xb7;" horiz-adv-x="468" 
d="M223 391q-41 0 -69.5 29.5t-28.5 71.5q0 49 34.5 83.5t84.5 34.5q41 0 70.5 -29.5t29.5 -70.5q0 -49 -35.5 -84t-85.5 -35z" />
    <glyph glyph-name="cedilla" unicode="&#xb8;" horiz-adv-x="378" 
d="M12 -391q-119 0 -194 78l53 69q55 -67 145 -67q52 0 82.5 28.5t30.5 69.5q0 27 -16.5 43t-46.5 16q-35 0 -64 -32l-57 36l100 173h90l-84 -136q27 21 60 21q48 0 78 -32t30 -85q0 -78 -59 -130t-148 -52z" />
    <glyph glyph-name="onesuperior" unicode="&#xb9;" horiz-adv-x="460" 
d="M426 862h-121l146 658l-152 -129l-57 75l260 215h104z" />
    <glyph glyph-name="ordmasculine" unicode="&#xba;" horiz-adv-x="712" 
d="M424 651q-120 0 -187 71t-67 191q0 96 40 189.5t118.5 159t175.5 65.5q120 0 187 -71t67 -191q0 -96 -40 -189.5t-118.5 -159t-175.5 -65.5zM426 748q49 0 91.5 32.5t68.5 82t40.5 104t14.5 102.5q0 75 -37.5 117.5t-103.5 42.5q-65 0 -116 -56t-74 -127.5t-23 -136.5
q0 -75 36.5 -118t102.5 -43z" />
    <glyph glyph-name="guillemotright" unicode="&#xbb;" horiz-adv-x="782" 
d="M154 860h131l174 -368l-338 -363h-144l347 373zM420 860h131l174 -368l-338 -363h-143l346 373z" />
    <glyph glyph-name="onequarter" unicode="&#xbc;" horiz-adv-x="1378" 
d="M1247 1366l-1018 -1366h-96l1016 1366h98zM1260 207h-97l-45 -207h-117l46 207h-347l21 92l424 520h153l-114 -516h96zM1067 303l86 387l-319 -387h233zM356 547h-120l145 657l-152 -129l-57 76l260 215h105z" />
    <glyph glyph-name="onehalf" unicode="&#xbd;" horiz-adv-x="1449" 
d="M1247 1366l-1018 -1366h-96l1016 1366h98zM1268 0h-514l20 96q278 217 355 288q126 115 145 196q4 19 4 38q0 56 -38.5 85.5t-96.5 29.5q-117 0 -195 -96l-59 78q107 116 258 116q105 0 179.5 -53t74.5 -151q0 -40 -11.5 -77t-48 -83t-61 -75.5t-95.5 -90t-104 -87
t-132 -104.5l-15 -12h354zM356 547h-120l145 657l-152 -129l-57 76l260 215h105z" />
    <glyph glyph-name="threequarters" unicode="&#xbe;" horiz-adv-x="1527" 
d="M1397 1366l-1018 -1366h-96l1015 1366h99zM1409 207h-96l-45 -207h-117l45 207h-346l20 92l424 520h154l-115 -516h97zM1217 303l86 387l-320 -387h234zM664 788q0 -96 -75.5 -176t-199.5 -80q-98 0 -171 39.5t-107 108.5l86 65q57 -114 186 -114q75 0 118.5 53t43.5 123
q0 53 -42 83t-108 30q-47 0 -59 -2l22 98q18 -2 93 -2q73 0 119 41t46 112q0 51 -40.5 82t-102.5 31q-102 0 -186 -90l-58 74q48 53 114.5 83.5t137.5 30.5q113 0 184.5 -51t71.5 -145q0 -82 -57 -147t-148 -77q57 -14 94.5 -60t37.5 -110z" />
    <glyph glyph-name="questiondown" unicode="&#xbf;" horiz-adv-x="681" 
d="M340 559l133 53q35 -57 35 -137q0 -59 -23 -109.5t-59.5 -87t-81 -70t-89 -65t-81 -65t-59.5 -77.5t-23 -95q0 -70 51.5 -116t141.5 -46q127 0 227 92l61 -110q-139 -125 -317 -125q-148 0 -241 77.5t-93 194.5q0 68 24.5 127t64 101t86.5 79t94.5 70t87 65t64 72
t24.5 84q0 47 -27 88zM500 1010q41 0 70.5 -30t29.5 -71q0 -49 -35.5 -83.5t-85.5 -34.5q-41 0 -70.5 29.5t-29.5 70.5q0 49 35.5 84t85.5 35z" />
    <glyph glyph-name="Agrave" unicode="&#xc0;" horiz-adv-x="1048" 
d="M864 1491h-104l-211 295h149zM922 0h-170l-21 309h-487l-156 -309h-182l712 1366h195zM729 455l-47 731l-371 -731h418z" />
    <glyph glyph-name="Aacute" unicode="&#xc1;" horiz-adv-x="1048" 
d="M1073 1786l-342 -295h-108l299 295h151zM922 0h-170l-21 309h-487l-156 -309h-182l712 1366h195zM729 455l-47 731l-371 -731h418z" />
    <glyph glyph-name="Acircumflex" unicode="&#xc2;" horiz-adv-x="1048" 
d="M985 1491h-90l-100 215l-189 -215h-98l229 295h144zM922 0h-170l-21 309h-487l-156 -309h-182l712 1366h195zM729 455l-47 731l-371 -731h418z" />
    <glyph glyph-name="Atilde" unicode="&#xc3;" horiz-adv-x="1048" 
d="M856 1487q-38 0 -63 20t-36.5 48t-21 56t-26 48t-43.5 20q-76 0 -115 -180h-88q58 275 217 275q38 0 62.5 -20t36 -48t21 -56.5t26.5 -48.5t44 -20q73 0 115 180h88q-27 -126 -80.5 -200t-136.5 -74zM922 0h-170l-21 309h-487l-156 -309h-182l712 1366h195zM729 455
l-47 731l-371 -731h418z" />
    <glyph glyph-name="Adieresis" unicode="&#xc4;" horiz-adv-x="1048" 
d="M1036 1593q0 -41 -31.5 -71.5t-72.5 -30.5q-35 0 -58.5 23.5t-23.5 58.5q0 40 31.5 71t72.5 31q34 0 58 -24t24 -58zM678 1593q0 -41 -31 -71.5t-72 -30.5q-35 0 -58 23.5t-23 58.5q0 40 31 71t71 31q35 0 58.5 -24t23.5 -58zM922 0h-170l-21 309h-487l-156 -309h-182
l712 1366h195zM729 455l-47 731l-371 -731h418z" />
    <glyph glyph-name="Aring" unicode="&#xc5;" horiz-adv-x="1048" 
d="M748 1417q-73 0 -119.5 48t-46.5 122q0 82 60.5 143.5t143.5 61.5q73 0 119.5 -48t46.5 -122q0 -83 -60.5 -144t-143.5 -61zM754 1495q50 0 86.5 36t36.5 85q0 43 -27 70.5t-70 27.5q-50 0 -85.5 -36t-35.5 -85q0 -42 27 -70t68 -28zM922 0h-170l-21 309h-487l-156 -309
h-182l712 1366h195zM729 455l-47 731l-371 -731h418z" />
    <glyph glyph-name="AE" unicode="&#xc6;" horiz-adv-x="1540" 
d="M1331 0h-702l65 309h-391l-209 -309h-182l950 1366h770l-30 -145h-541l-100 -449h526l-33 -145h-526l-107 -482h541zM727 455l160 716l-492 -716h332z" />
    <glyph glyph-name="Ccedilla" unicode="&#xc7;" horiz-adv-x="1093" 
d="M559 -25h-20l-54 -88q27 21 60 21q48 0 78 -32t30 -85q0 -78 -59 -130t-148 -52q-119 0 -194 78l53 69q55 -67 146 -67q52 0 82 28t30 70q0 27 -16.5 43t-46.5 16q-35 0 -64 -32l-57 36l78 136q-164 30 -259.5 156.5t-95.5 326.5q0 131 30 263.5t88 250t135.5 208.5
t180.5 144.5t216 53.5q160 0 263.5 -87.5t147.5 -232.5l-153 -45q-35 108 -104.5 163.5t-166.5 55.5q-126 0 -235.5 -119t-170.5 -297t-61 -358q0 -165 78.5 -256.5t218.5 -91.5q148 0 279 166l125 -76q-172 -236 -414 -236z" />
    <glyph glyph-name="Egrave" unicode="&#xc8;" horiz-adv-x="946" 
d="M838 1491h-105l-211 295h150zM735 0h-702l301 1366h702l-30 -145h-541l-98 -449h526l-33 -145h-526l-107 -482h541z" />
    <glyph glyph-name="Eacute" unicode="&#xc9;" horiz-adv-x="946" 
d="M1044 1786l-342 -295h-108l299 295h151zM735 0h-702l301 1366h702l-30 -145h-541l-98 -449h526l-33 -145h-526l-107 -482h541z" />
    <glyph glyph-name="Ecircumflex" unicode="&#xca;" horiz-adv-x="946" 
d="M954 1491h-90l-100 215l-189 -215h-98l230 295h143zM735 0h-702l301 1366h702l-30 -145h-541l-98 -449h526l-33 -145h-526l-107 -482h541z" />
    <glyph glyph-name="Edieresis" unicode="&#xcb;" horiz-adv-x="946" 
d="M1008 1593q0 -41 -31.5 -71.5t-73.5 -30.5q-35 0 -58.5 23.5t-23.5 58.5q0 40 32 71t73 31q34 0 58 -24t24 -58zM649 1593q0 -41 -30.5 -71.5t-71.5 -30.5q-35 0 -58.5 23.5t-23.5 58.5q0 40 31 71t71 31q35 0 58.5 -24t23.5 -58zM735 0h-702l301 1366h702l-30 -145h-541
l-98 -449h526l-33 -145h-526l-107 -482h541z" />
    <glyph glyph-name="Igrave" unicode="&#xcc;" horiz-adv-x="450" 
d="M563 1491h-104l-211 295h149zM197 0h-164l301 1366h164z" />
    <glyph glyph-name="Iacute" unicode="&#xcd;" horiz-adv-x="450" 
d="M774 1786l-342 -295h-108l299 295h151zM197 0h-164l301 1366h164z" />
    <glyph glyph-name="Icircumflex" unicode="&#xce;" horiz-adv-x="450" 
d="M684 1491h-90l-100 215l-189 -215h-98l229 295h144zM197 0h-164l301 1366h164z" />
    <glyph glyph-name="Idieresis" unicode="&#xcf;" horiz-adv-x="450" 
d="M739 1593q0 -41 -31.5 -71.5t-72.5 -30.5q-35 0 -58.5 23.5t-23.5 58.5q0 40 31.5 71t72.5 31q34 0 58 -24t24 -58zM381 1593q0 -41 -30.5 -71.5t-71.5 -30.5q-35 0 -58.5 23.5t-23.5 58.5q0 40 31 71t71 31q35 0 58.5 -24t23.5 -58zM197 0h-164l301 1366h164z" />
    <glyph glyph-name="Eth" unicode="&#xd0;" horiz-adv-x="1206" 
d="M446 0h-364l135 616h-160l31 136h160l135 614h356q85 0 162 -34t136.5 -95.5t94.5 -157.5t35 -211q0 -75 -12 -154.5t-39 -165t-66.5 -164t-98.5 -149t-131 -122.5t-168 -82.5t-206 -30.5zM639 616h-258l-105 -471h199q100 0 187.5 46.5t148 121.5t104 170.5t64 192.5
t20.5 188q0 164 -82 260.5t-208 96.5h-195l-104 -469h260z" />
    <glyph glyph-name="Ntilde" unicode="&#xd1;" horiz-adv-x="1173" 
d="M920 1487q-38 0 -63 20t-36.5 48t-21.5 56t-26.5 48t-43.5 20q-76 0 -115 -180h-88q58 275 217 275q38 0 62.5 -20t36 -48t21.5 -56.5t27 -48.5t44 -20q73 0 115 180h88q-27 -126 -80.5 -200t-136.5 -74zM920 0h-156l-336 1049l-231 -1049h-164l301 1366h164l331 -1026
l230 1026h162z" />
    <glyph glyph-name="Ograve" unicode="&#xd2;" horiz-adv-x="1230" 
d="M956 1491h-104l-211 295h150zM559 -25q-207 0 -332 135.5t-125 358.5q0 126 28.5 256t85.5 248.5t133.5 211.5t181.5 148.5t221 55.5q205 0 330.5 -136.5t125.5 -359.5q0 -125 -28.5 -255t-85.5 -248.5t-133.5 -211t-181 -148t-220.5 -55.5zM569 121q128 0 237.5 118.5
t169.5 295.5t60 358q0 163 -82 256.5t-215 93.5q-97 0 -185.5 -70.5t-149 -181.5t-96.5 -249t-36 -273q0 -162 81.5 -255t215.5 -93z" />
    <glyph glyph-name="Oacute" unicode="&#xd3;" horiz-adv-x="1230" 
d="M1163 1786l-342 -295h-108l299 295h151zM559 -25q-207 0 -332 135.5t-125 358.5q0 126 28.5 256t85.5 248.5t133.5 211.5t181.5 148.5t221 55.5q205 0 330.5 -136.5t125.5 -359.5q0 -125 -28.5 -255t-85.5 -248.5t-133.5 -211t-181 -148t-220.5 -55.5zM569 121
q128 0 237.5 118.5t169.5 295.5t60 358q0 163 -82 256.5t-215 93.5q-97 0 -185.5 -70.5t-149 -181.5t-96.5 -249t-36 -273q0 -162 81.5 -255t215.5 -93z" />
    <glyph glyph-name="Ocircumflex" unicode="&#xd4;" horiz-adv-x="1230" 
d="M1075 1491h-90l-100 215l-189 -215h-98l229 295h144zM559 -25q-207 0 -332 135.5t-125 358.5q0 126 28.5 256t85.5 248.5t133.5 211.5t181.5 148.5t221 55.5q205 0 330.5 -136.5t125.5 -359.5q0 -125 -28.5 -255t-85.5 -248.5t-133.5 -211t-181 -148t-220.5 -55.5z
M569 121q128 0 237.5 118.5t169.5 295.5t60 358q0 163 -82 256.5t-215 93.5q-97 0 -185.5 -70.5t-149 -181.5t-96.5 -249t-36 -273q0 -162 81.5 -255t215.5 -93z" />
    <glyph glyph-name="Otilde" unicode="&#xd5;" horiz-adv-x="1230" 
d="M954 1487q-38 0 -63 20t-36.5 48t-21 56t-26 48t-43.5 20q-76 0 -115 -180h-88q58 275 217 275q38 0 62.5 -20t36 -48t21.5 -56.5t27 -48.5t44 -20q72 0 114 180h88q-27 -126 -80.5 -200t-136.5 -74zM559 -25q-207 0 -332 135.5t-125 358.5q0 126 28.5 256t85.5 248.5
t133.5 211.5t181.5 148.5t221 55.5q205 0 330.5 -136.5t125.5 -359.5q0 -125 -28.5 -255t-85.5 -248.5t-133.5 -211t-181 -148t-220.5 -55.5zM569 121q128 0 237.5 118.5t169.5 295.5t60 358q0 163 -82 256.5t-215 93.5q-97 0 -185.5 -70.5t-149 -181.5t-96.5 -249t-36 -273
q0 -162 81.5 -255t215.5 -93z" />
    <glyph glyph-name="Odieresis" unicode="&#xd6;" horiz-adv-x="1230" 
d="M1126 1593q0 -41 -31.5 -71.5t-72.5 -30.5q-35 0 -58.5 23.5t-23.5 58.5q0 40 31.5 71t72.5 31q34 0 58 -24t24 -58zM768 1593q0 -41 -30.5 -71.5t-71.5 -30.5q-35 0 -58.5 23.5t-23.5 58.5q0 40 31 71t71 31q35 0 58.5 -24t23.5 -58zM559 -25q-207 0 -332 135.5
t-125 358.5q0 126 28.5 256t85.5 248.5t133.5 211.5t181.5 148.5t221 55.5q205 0 330.5 -136.5t125.5 -359.5q0 -125 -28.5 -255t-85.5 -248.5t-133.5 -211t-181 -148t-220.5 -55.5zM569 121q128 0 237.5 118.5t169.5 295.5t60 358q0 163 -82 256.5t-215 93.5
q-97 0 -185.5 -70.5t-149 -181.5t-96.5 -249t-36 -273q0 -162 81.5 -255t215.5 -93z" />
    <glyph glyph-name="multiply" unicode="&#xd7;" 
d="M680 352l-201 258l-321 -264l-66 80l326 264l-203 258l84 68l199 -258l323 264l66 -80l-324 -264l201 -258z" />
    <glyph glyph-name="Oslash" unicode="&#xd8;" horiz-adv-x="1230" 
d="M559 -25q-184 0 -305 109l-64 -84h-120l120 158q-88 127 -88 311q0 126 28.5 256t85.5 248.5t133.5 211.5t181.5 148.5t221 55.5q176 0 299 -107l63 84h121l-119 -156q92 -131 92 -317q0 -125 -28.5 -255t-85.5 -248.5t-133.5 -211t-181 -148t-220.5 -55.5zM569 121
q128 0 237.5 118.5t169.5 295.5t60 358q0 94 -32 172l-650 -852q80 -92 215 -92zM272 469q0 -92 29 -168l649 852q-81 90 -211 90q-97 0 -185.5 -70.5t-149 -181.5t-96.5 -249t-36 -273z" />
    <glyph glyph-name="Ugrave" unicode="&#xd9;" horiz-adv-x="1165" 
d="M924 1491h-105l-211 295h150zM530 -25q-188 0 -298.5 100t-110.5 273q0 34 10 96l203 922h164l-205 -926q-8 -56 -8 -78q0 -111 67.5 -176t184.5 -65q127 0 200 78t109 241l203 926h163l-202 -924q-53 -232 -167.5 -349.5t-312.5 -117.5z" />
    <glyph glyph-name="Uacute" unicode="&#xda;" horiz-adv-x="1165" 
d="M1128 1786l-342 -295h-108l299 295h151zM530 -25q-188 0 -298.5 100t-110.5 273q0 34 10 96l203 922h164l-205 -926q-8 -56 -8 -78q0 -111 67.5 -176t184.5 -65q127 0 200 78t109 241l203 926h163l-202 -924q-53 -232 -167.5 -349.5t-312.5 -117.5z" />
    <glyph glyph-name="Ucircumflex" unicode="&#xdb;" horiz-adv-x="1165" 
d="M1047 1491h-91l-100 215l-188 -215h-99l230 295h143zM530 -25q-188 0 -298.5 100t-110.5 273q0 34 10 96l203 922h164l-205 -926q-8 -56 -8 -78q0 -111 67.5 -176t184.5 -65q127 0 200 78t109 241l203 926h163l-202 -924q-53 -232 -167.5 -349.5t-312.5 -117.5z" />
    <glyph glyph-name="Udieresis" unicode="&#xdc;" horiz-adv-x="1165" 
d="M1096 1593q0 -41 -31.5 -71.5t-73.5 -30.5q-35 0 -58.5 23.5t-23.5 58.5q0 40 32 71t73 31q34 0 58 -24t24 -58zM737 1593q0 -41 -30.5 -71.5t-71.5 -30.5q-35 0 -58.5 23.5t-23.5 58.5q0 40 31 71t71 31q35 0 58.5 -24t23.5 -58zM530 -25q-188 0 -298.5 100t-110.5 273
q0 34 10 96l203 922h164l-205 -926q-8 -56 -8 -78q0 -111 67.5 -176t184.5 -65q127 0 200 78t109 241l203 926h163l-202 -924q-53 -232 -167.5 -349.5t-312.5 -117.5z" />
    <glyph glyph-name="Yacute" unicode="&#xdd;" horiz-adv-x="1026" 
d="M1067 1786l-342 -295h-109l299 295h152zM483 0h-161l127 578l-248 788h172l182 -631l461 631h190l-596 -788z" />
    <glyph glyph-name="Thorn" unicode="&#xde;" horiz-adv-x="999" 
d="M197 0h-164l301 1366h164l-56 -246h232q135 0 224 -94.5t89 -237.5q0 -67 -16.5 -134t-54 -131t-91.5 -113t-135.5 -79t-179.5 -30h-248zM524 446q93 0 161.5 49t100 122.5t31.5 158.5q0 88 -52 144.5t-132 56.5h-221l-117 -531h229z" />
    <glyph glyph-name="germandbls" unicode="&#xdf;" horiz-adv-x="1075" 
d="M997 293q0 -59 -23.5 -115.5t-65.5 -102t-108.5 -73t-144.5 -27.5q-115 0 -196 38t-146 122l90 94q95 -133 248 -133q84 0 138.5 52t54.5 126q0 35 -20.5 64t-53.5 50.5t-72.5 43t-79.5 45.5t-73 52.5t-53.5 70t-20.5 92.5q0 63 25.5 113t63.5 79.5t83 58.5t83 51
t63.5 55t25.5 73q0 60 -51 96.5t-125 36.5q-82 0 -143.5 -55t-85.5 -160l-230 -1040h-147l231 1040q35 158 134.5 252t250.5 94q130 0 224 -68t94 -175q0 -60 -26 -108.5t-64.5 -77t-84 -57t-84 -51t-64.5 -57.5t-26 -77q0 -45 39 -81.5t94.5 -65t111.5 -61.5t95 -87.5
t39 -126.5z" />
    <glyph glyph-name="agrave" unicode="&#xe0;" horiz-adv-x="925" 
d="M731 1139h-104l-211 295h149zM696 0h-147l22 102q-108 -127 -254 -127q-116 0 -195 69t-79 196q0 166 97.5 278.5t242.5 112.5q86 0 158 -37.5t114 -106.5l39 175q8 31 8 71q0 72 -55 115t-147 43q-130 0 -248 -105l-43 109q143 119 319 119q93 0 165.5 -26t117.5 -83
t45 -139q0 -35 -14 -100zM377 82q128 0 215 119l45 192q-26 62 -84 96.5t-133 34.5q-99 0 -161 -82.5t-62 -187.5q0 -85 48.5 -128.5t131.5 -43.5z" />
    <glyph glyph-name="aacute" unicode="&#xe1;" horiz-adv-x="925" 
d="M942 1434l-342 -295h-108l299 295h151zM696 0h-147l22 102q-108 -127 -254 -127q-116 0 -195 69t-79 196q0 166 97.5 278.5t242.5 112.5q86 0 158 -37.5t114 -106.5l39 175q8 31 8 71q0 72 -55 115t-147 43q-130 0 -248 -105l-43 109q143 119 319 119q93 0 165.5 -26
t117.5 -83t45 -139q0 -35 -14 -100zM377 82q128 0 215 119l45 192q-26 62 -84 96.5t-133 34.5q-99 0 -161 -82.5t-62 -187.5q0 -85 48.5 -128.5t131.5 -43.5z" />
    <glyph glyph-name="acircumflex" unicode="&#xe2;" horiz-adv-x="925" 
d="M856 1139h-90l-100 215l-189 -215h-98l229 295h144zM696 0h-147l22 102q-108 -127 -254 -127q-116 0 -195 69t-79 196q0 166 97.5 278.5t242.5 112.5q86 0 158 -37.5t114 -106.5l39 175q8 31 8 71q0 72 -55 115t-147 43q-130 0 -248 -105l-43 109q143 119 319 119
q93 0 165.5 -26t117.5 -83t45 -139q0 -35 -14 -100zM377 82q128 0 215 119l45 192q-26 62 -84 96.5t-133 34.5q-99 0 -161 -82.5t-62 -187.5q0 -85 48.5 -128.5t131.5 -43.5z" />
    <glyph glyph-name="atilde" unicode="&#xe3;" horiz-adv-x="925" 
d="M733 1135q-38 0 -63 20t-36.5 48t-21 56t-26 48t-43.5 20q-76 0 -115 -180h-88q58 274 217 274q38 0 62.5 -20t36 -48t21.5 -56t27 -48t44 -20q72 0 114 180h88q-27 -126 -80.5 -200t-136.5 -74zM696 0h-147l22 102q-108 -127 -254 -127q-116 0 -195 69t-79 196
q0 166 97.5 278.5t242.5 112.5q86 0 158 -37.5t114 -106.5l39 175q8 31 8 71q0 72 -55 115t-147 43q-130 0 -248 -105l-43 109q143 119 319 119q93 0 165.5 -26t117.5 -83t45 -139q0 -35 -14 -100zM377 82q128 0 215 119l45 192q-26 62 -84 96.5t-133 34.5q-99 0 -161 -82.5
t-62 -187.5q0 -85 48.5 -128.5t131.5 -43.5z" />
    <glyph glyph-name="adieresis" unicode="&#xe4;" horiz-adv-x="925" 
d="M905 1247q0 -41 -31.5 -71.5t-72.5 -30.5q-35 0 -58.5 23.5t-23.5 58.5q0 40 31.5 71t72.5 31q34 0 58 -24t24 -58zM547 1247q0 -41 -31 -71.5t-72 -30.5q-35 0 -58.5 23.5t-23.5 58.5q0 40 31.5 71t71.5 31q35 0 58.5 -24t23.5 -58zM696 0h-147l22 102
q-108 -127 -254 -127q-116 0 -195 69t-79 196q0 166 97.5 278.5t242.5 112.5q86 0 158 -37.5t114 -106.5l39 175q8 31 8 71q0 72 -55 115t-147 43q-130 0 -248 -105l-43 109q143 119 319 119q93 0 165.5 -26t117.5 -83t45 -139q0 -35 -14 -100zM377 82q128 0 215 119l45 192
q-26 62 -84 96.5t-133 34.5q-99 0 -161 -82.5t-62 -187.5q0 -85 48.5 -128.5t131.5 -43.5z" />
    <glyph glyph-name="aring" unicode="&#xe5;" horiz-adv-x="925" 
d="M631 1135q-73 0 -119.5 48t-46.5 122q0 82 61 143t144 61q73 0 119.5 -48t46.5 -122q0 -83 -61 -143.5t-144 -60.5zM637 1212q50 0 86.5 36t36.5 85q0 43 -27 71t-69 28q-50 0 -85.5 -36t-35.5 -85q0 -42 26.5 -70.5t67.5 -28.5zM696 0h-147l22 102q-108 -127 -254 -127
q-116 0 -195 69t-79 196q0 166 97.5 278.5t242.5 112.5q86 0 158 -37.5t114 -106.5l39 175q8 31 8 71q0 72 -55 115t-147 43q-130 0 -248 -105l-43 109q143 119 319 119q93 0 165.5 -26t117.5 -83t45 -139q0 -35 -14 -100zM377 82q128 0 215 119l45 192q-26 62 -84 96.5
t-133 34.5q-99 0 -161 -82.5t-62 -187.5q0 -85 48.5 -128.5t131.5 -43.5z" />
    <glyph glyph-name="ae" unicode="&#xe6;" horiz-adv-x="1527" 
d="M1436 446h-643q-9 -41 -9 -90q0 -113 65 -185.5t185 -72.5q129 0 232 103l59 -99q-133 -127 -299 -127q-127 0 -211 53t-123 144q-37 -42 -68.5 -71t-77.5 -61t-101.5 -48.5t-118.5 -16.5q-122 0 -202.5 70.5t-80.5 198.5q0 170 98.5 278.5t241.5 108.5q87 0 162 -36
t112 -101l37 168q8 33 8 69q0 75 -55.5 117.5t-146.5 42.5q-124 0 -248 -105l-43 109q142 119 319 119q254 0 275 -203q52 91 137 147t190 56q151 0 242.5 -96t91.5 -275q0 -97 -28 -197zM815 557h502q10 36 10 90q0 108 -57 176t-158 68q-62 0 -114 -31t-87.5 -83.5
t-58 -106t-37.5 -113.5zM637 252q-6 38 -6 82q0 35 4 59q-22 64 -83 97.5t-132 33.5q-97 0 -160 -81t-63 -189q0 -83 48.5 -127.5t131.5 -44.5q143 0 260 170z" />
    <glyph glyph-name="ccedilla" unicode="&#xe7;" horiz-adv-x="833" 
d="M326 -391q-120 0 -195 78l53 69q55 -67 146 -67q52 0 82 28t30 70q0 27 -16.5 43t-46.5 16q-35 0 -64 -32l-57 36l78 136q-125 25 -196.5 123.5t-71.5 257.5q0 90 22 182t66 175t102.5 148t138 103.5t166.5 38.5q197 0 287 -144l-94 -94q-30 54 -79.5 80.5t-109.5 26.5
q-79 0 -147 -49t-110.5 -126t-66.5 -165.5t-24 -171.5q0 -130 64 -197.5t170 -67.5q111 0 190 93l59 -107q-114 -117 -270 -117h-14l-53 -88q27 21 59 21q48 0 78 -32t30 -85q0 -78 -58.5 -130t-147.5 -52z" />
    <glyph glyph-name="egrave" unicode="&#xe8;" horiz-adv-x="960" 
d="M453 -25q-181 0 -284 104t-103 288q0 102 34 213t94 209t155.5 161.5t205.5 63.5q159 0 250.5 -99t91.5 -272q0 -95 -29 -197h-647q-8 -39 -8 -92q0 -110 65 -183t189 -73q60 0 121.5 27.5t109.5 75.5l58 -99q-63 -59 -142 -93t-161 -34zM741 557h9q10 48 10 92
q0 106 -57 174t-160 68q-112 0 -195.5 -102.5t-107.5 -231.5h501zM752 1139h-105l-211 295h150z" />
    <glyph glyph-name="eacute" unicode="&#xe9;" horiz-adv-x="960" 
d="M453 -25q-181 0 -284 104t-103 288q0 102 34 213t94 209t155.5 161.5t205.5 63.5q159 0 250.5 -99t91.5 -272q0 -95 -29 -197h-647q-8 -39 -8 -92q0 -110 65 -183t189 -73q60 0 121.5 27.5t109.5 75.5l58 -99q-63 -59 -142 -93t-161 -34zM741 557h9q10 48 10 92
q0 106 -57 174t-160 68q-112 0 -195.5 -102.5t-107.5 -231.5h501zM961 1434l-343 -295h-108l299 295h152z" />
    <glyph glyph-name="ecircumflex" unicode="&#xea;" horiz-adv-x="960" 
d="M453 -25q-181 0 -284 104t-103 288q0 102 34 213t94 209t155.5 161.5t205.5 63.5q159 0 250.5 -99t91.5 -272q0 -95 -29 -197h-647q-8 -39 -8 -92q0 -110 65 -183t189 -73q60 0 121.5 27.5t109.5 75.5l58 -99q-63 -59 -142 -93t-161 -34zM741 557h9q10 48 10 92
q0 106 -57 174t-160 68q-112 0 -195.5 -102.5t-107.5 -231.5h501zM870 1139h-90l-100 215l-188 -215h-99l230 295h143z" />
    <glyph glyph-name="edieresis" unicode="&#xeb;" horiz-adv-x="960" 
d="M453 -25q-181 0 -284 104t-103 288q0 102 34 213t94 209t155.5 161.5t205.5 63.5q159 0 250.5 -99t91.5 -272q0 -95 -29 -197h-647q-8 -39 -8 -92q0 -110 65 -183t189 -73q60 0 121.5 27.5t109.5 75.5l58 -99q-63 -59 -142 -93t-161 -34zM741 557h9q10 48 10 92
q0 106 -57 174t-160 68q-112 0 -195.5 -102.5t-107.5 -231.5h501zM922 1247q0 -41 -31.5 -71.5t-73.5 -30.5q-35 0 -58.5 23.5t-23.5 58.5q0 40 32 71t73 31q34 0 58 -24t24 -58zM563 1247q0 -41 -30.5 -71.5t-71.5 -30.5q-35 0 -58.5 23.5t-23.5 58.5q0 40 31 71t71 31
q35 0 58.5 -24t23.5 -58z" />
    <glyph glyph-name="igrave" unicode="&#xec;" horiz-adv-x="415" 
d="M467 1139h-105l-210 295h149zM170 0h-145l219 989h145z" />
    <glyph glyph-name="iacute" unicode="&#xed;" horiz-adv-x="415" 
d="M678 1434l-342 -295h-109l299 295h152zM170 0h-145l219 989h145z" />
    <glyph glyph-name="icircumflex" unicode="&#xee;" horiz-adv-x="415" 
d="M590 1139h-90l-101 215l-188 -215h-98l229 295h143zM170 0h-145l219 989h145z" />
    <glyph glyph-name="idieresis" unicode="&#xef;" horiz-adv-x="415" 
d="M643 1247q0 -41 -31.5 -71.5t-72.5 -30.5q-35 0 -58.5 23.5t-23.5 58.5q0 40 31.5 71t72.5 31q34 0 58 -24t24 -58zM285 1247q0 -41 -31 -71.5t-72 -30.5q-35 0 -58.5 23.5t-23.5 58.5q0 40 31.5 71t71.5 31q35 0 58.5 -24t23.5 -58zM170 0h-145l219 989h145z" />
    <glyph glyph-name="eth" unicode="&#xf0;" horiz-adv-x="978" 
d="M367 1053l-19 82l256 75q-53 83 -100 136l127 77q71 -85 123 -168l192 58l19 -80l-166 -51q123 -223 123 -445q0 -87 -14.5 -176t-41.5 -174.5t-69.5 -160t-96 -130.5t-123.5 -88.5t-149 -32.5q-170 0 -266 102t-96 273q0 111 34 223.5t92 203.5t144 148.5t182 57.5
q86 0 155.5 -46t100.5 -136q-37 166 -127 336zM432 106q67 0 128.5 50t102.5 125.5t65 164t24 166.5q0 60 -20.5 112.5t-71 91t-123.5 38.5q-67 0 -128.5 -49.5t-101.5 -124.5t-64 -161.5t-24 -162.5q0 -123 56 -186.5t157 -63.5z" />
    <glyph glyph-name="ntilde" unicode="&#xf1;" horiz-adv-x="954" 
d="M711 0h-148l156 702q10 45 10 62q0 119 -143 119q-66 0 -133.5 -47t-120.5 -115l-160 -721h-145l219 989h145l-31 -137q143 162 295 162q106 0 168 -52.5t62 -146.5q0 -25 -11 -74zM739 1135q-38 0 -63 20t-36.5 48t-21 56t-26 48t-43.5 20q-76 0 -115 -180h-88
q58 274 217 274q38 0 62.5 -20t36 -48t21.5 -56t27 -48t44 -20q72 0 114 180h88q-27 -126 -80.5 -200t-136.5 -74z" />
    <glyph glyph-name="ograve" unicode="&#xf2;" horiz-adv-x="978" 
d="M422 -25q-166 0 -261 101t-95 280q0 113 35 228.5t96 211.5t155.5 157t202.5 61q165 0 259.5 -101t94.5 -280q0 -113 -35 -228.5t-96 -211.5t-154.5 -157t-201.5 -61zM428 106q71 0 135 52.5t105.5 132t65.5 170t24 170.5q0 124 -55.5 188t-155.5 64q-71 0 -134.5 -52.5
t-104.5 -132t-65 -170t-24 -170.5q0 -124 55 -188t154 -64zM752 1139h-105l-211 295h150z" />
    <glyph glyph-name="oacute" unicode="&#xf3;" horiz-adv-x="978" 
d="M422 -25q-166 0 -261 101t-95 280q0 113 35 228.5t96 211.5t155.5 157t202.5 61q165 0 259.5 -101t94.5 -280q0 -113 -35 -228.5t-96 -211.5t-154.5 -157t-201.5 -61zM428 106q71 0 135 52.5t105.5 132t65.5 170t24 170.5q0 124 -55.5 188t-155.5 64q-71 0 -134.5 -52.5
t-104.5 -132t-65 -170t-24 -170.5q0 -124 55 -188t154 -64zM958 1434l-342 -295h-108l299 295h151z" />
    <glyph glyph-name="ocircumflex" unicode="&#xf4;" horiz-adv-x="978" 
d="M422 -25q-166 0 -261 101t-95 280q0 113 35 228.5t96 211.5t155.5 157t202.5 61q165 0 259.5 -101t94.5 -280q0 -113 -35 -228.5t-96 -211.5t-154.5 -157t-201.5 -61zM428 106q71 0 135 52.5t105.5 132t65.5 170t24 170.5q0 124 -55.5 188t-155.5 64q-71 0 -134.5 -52.5
t-104.5 -132t-65 -170t-24 -170.5q0 -124 55 -188t154 -64zM872 1139h-90l-100 215l-188 -215h-99l230 295h143z" />
    <glyph glyph-name="otilde" unicode="&#xf5;" horiz-adv-x="978" 
d="M422 -25q-166 0 -261 101t-95 280q0 113 35 228.5t96 211.5t155.5 157t202.5 61q165 0 259.5 -101t94.5 -280q0 -113 -35 -228.5t-96 -211.5t-154.5 -157t-201.5 -61zM428 106q71 0 135 52.5t105.5 132t65.5 170t24 170.5q0 124 -55.5 188t-155.5 64q-71 0 -134.5 -52.5
t-104.5 -132t-65 -170t-24 -170.5q0 -124 55 -188t154 -64zM750 1135q-38 0 -63 20t-36.5 48t-21.5 56t-26.5 48t-43.5 20q-76 0 -115 -180h-88q58 274 217 274q38 0 62.5 -20t36 -48t21.5 -56t27 -48t44 -20q73 0 115 180h88q-27 -126 -80.5 -200t-136.5 -74z" />
    <glyph glyph-name="odieresis" unicode="&#xf6;" horiz-adv-x="978" 
d="M422 -25q-166 0 -261 101t-95 280q0 113 35 228.5t96 211.5t155.5 157t202.5 61q165 0 259.5 -101t94.5 -280q0 -113 -35 -228.5t-96 -211.5t-154.5 -157t-201.5 -61zM428 106q71 0 135 52.5t105.5 132t65.5 170t24 170.5q0 124 -55.5 188t-155.5 64q-71 0 -134.5 -52.5
t-104.5 -132t-65 -170t-24 -170.5q0 -124 55 -188t154 -64zM926 1247q0 -41 -31.5 -71.5t-73.5 -30.5q-35 0 -58.5 23.5t-23.5 58.5q0 40 32 71t73 31q34 0 58 -24t24 -58zM567 1247q0 -41 -30.5 -71.5t-71.5 -30.5q-35 0 -58.5 23.5t-23.5 58.5q0 40 31 71t71 31
q35 0 58.5 -24t23.5 -58z" />
    <glyph glyph-name="divide" unicode="&#xf7;" horiz-adv-x="907" 
d="M877 639h-787l23 104h788zM410 252q-34 0 -58 24.5t-24 59.5q0 41 29.5 70.5t70.5 29.5q35 0 59.5 -25.5t24.5 -60.5q0 -41 -30 -69.5t-72 -28.5zM563 938q-35 0 -59.5 24.5t-24.5 59.5q0 41 29.5 69.5t71.5 28.5q35 0 59.5 -24.5t24.5 -59.5q0 -41 -30.5 -69.5
t-70.5 -28.5z" />
    <glyph glyph-name="oslash" unicode="&#xf8;" horiz-adv-x="978" 
d="M106 0h-106l117 133q-51 86 -51 223q0 113 35 228.5t96 211.5t155.5 157t202.5 61q155 0 250 -92l57 67h107l-115 -131q55 -93 55 -225q0 -113 -35 -228.5t-96 -211.5t-154.5 -157t-201.5 -61q-161 0 -256 95zM428 106q71 0 135 52.5t105.5 132t65.5 170t24 170.5
q0 52 -13 102l-481 -551q55 -76 164 -76zM219 358q0 -60 10 -96l478 549q-57 72 -160 72q-71 0 -134.5 -52.5t-104.5 -132t-65 -170t-24 -170.5z" />
    <glyph glyph-name="ugrave" unicode="&#xf9;" horiz-adv-x="952" 
d="M242 989h147l-156 -702q-8 -36 -8 -62q0 -61 38 -90t104 -29t133.5 45.5t117.5 112.5l162 725h148l-219 -989h-148l31 137q-143 -162 -295 -162q-104 0 -165.5 52.5t-61.5 146.5q0 44 10 74zM739 1139h-104l-211 295h149z" />
    <glyph glyph-name="uacute" unicode="&#xfa;" horiz-adv-x="952" 
d="M242 989h147l-156 -702q-8 -36 -8 -62q0 -61 38 -90t104 -29t133.5 45.5t117.5 112.5l162 725h148l-219 -989h-148l31 137q-143 -162 -295 -162q-104 0 -165.5 52.5t-61.5 146.5q0 44 10 74zM948 1434l-342 -295h-108l299 295h151z" />
    <glyph glyph-name="ucircumflex" unicode="&#xfb;" horiz-adv-x="952" 
d="M242 989h147l-156 -702q-8 -36 -8 -62q0 -61 38 -90t104 -29t133.5 45.5t117.5 112.5l162 725h148l-219 -989h-148l31 137q-143 -162 -295 -162q-104 0 -165.5 52.5t-61.5 146.5q0 44 10 74zM858 1139h-90l-100 215l-189 -215h-98l229 295h144z" />
    <glyph glyph-name="udieresis" unicode="&#xfc;" horiz-adv-x="952" 
d="M242 989h147l-156 -702q-8 -36 -8 -62q0 -61 38 -90t104 -29t133.5 45.5t117.5 112.5l162 725h148l-219 -989h-148l31 137q-143 -162 -295 -162q-104 0 -165.5 52.5t-61.5 146.5q0 44 10 74zM915 1247q0 -41 -31.5 -71.5t-72.5 -30.5q-35 0 -58.5 23.5t-23.5 58.5
q0 40 32 71t73 31q34 0 57.5 -24t23.5 -58zM557 1247q0 -41 -30.5 -71.5t-71.5 -30.5q-35 0 -58.5 23.5t-23.5 58.5q0 40 31 71t71 31q35 0 58.5 -24t23.5 -58z" />
    <glyph glyph-name="yacute" unicode="&#xfd;" horiz-adv-x="952" 
d="M944 1434l-342 -295h-108l299 295h151zM289 -401q-244 0 -357 141l93 113q37 -60 108 -91.5t156 -31.5q109 0 174.5 67t95.5 197l35 160q-149 -160 -293 -160q-103 0 -165 50t-62 146q0 33 8 74l162 725h145l-151 -686q-9 -35 -9 -61q0 -61 39 -90t103 -29q68 0 136 46.5
t116 113.5l157 706h148l-221 -995q-88 -395 -418 -395z" />
    <glyph glyph-name="thorn" unicode="&#xfe;" horiz-adv-x="980" 
d="M467 -25q-90 0 -158.5 45.5t-105.5 129.5l-117 -527h-145l385 1743h145l-113 -512q111 160 269 160q135 0 213 -92t78 -258q0 -72 -13.5 -150t-39 -155t-65 -146.5t-88 -122.5t-112 -84t-133.5 -31zM444 106q72 0 134.5 54.5t101.5 137t61.5 174t22.5 171.5
q0 115 -52.5 177.5t-144.5 62.5q-67 0 -131.5 -47.5t-107.5 -118.5l-99 -447q22 -71 80.5 -117.5t134.5 -46.5z" />
    <glyph glyph-name="ydieresis" unicode="&#xff;" horiz-adv-x="952" 
d="M907 1247q0 -41 -31.5 -71.5t-72.5 -30.5q-35 0 -58.5 23.5t-23.5 58.5q0 40 31.5 71t72.5 31q34 0 58 -24t24 -58zM549 1247q0 -41 -31 -71.5t-72 -30.5q-35 0 -58 23.5t-23 58.5q0 40 31 71t71 31q35 0 58.5 -24t23.5 -58zM289 -401q-244 0 -357 141l93 113
q37 -60 108 -91.5t156 -31.5q109 0 174.5 67t95.5 197l35 160q-149 -160 -293 -160q-103 0 -165 50t-62 146q0 33 8 74l162 725h145l-151 -686q-9 -35 -9 -61q0 -61 39 -90t103 -29q68 0 136 46.5t116 113.5l157 706h148l-221 -995q-88 -395 -418 -395z" />
    <glyph glyph-name="dotlessi" unicode="&#x131;" horiz-adv-x="415" 
d="M170 0h-145l219 989h145z" />
    <glyph glyph-name="Lslash" unicode="&#x141;" horiz-adv-x="892" 
d="M27 479l32 142l160 81l148 664h163l-124 -567l182 94l-31 -141l-184 -95l-113 -512h496l-31 -145h-659l122 563z" />
    <glyph glyph-name="lslash" unicode="&#x142;" horiz-adv-x="550" 
d="M31 500l26 118l174 89l148 659h145l-127 -575l176 90l-26 -119l-176 -90l-99 -443q0 -3 -3 -22.5t-3 -28.5q0 -36 21.5 -54t58.5 -18q46 0 80 31l18 -117q-56 -45 -133 -45q-93 0 -145.5 40t-52.5 116q0 35 8 74l84 383z" />
    <glyph glyph-name="OE" unicode="&#x152;" horiz-adv-x="1744" 
d="M1534 0h-703l37 172q-68 -100 -161.5 -148.5t-200.5 -48.5q-182 0 -293 136.5t-111 357.5q0 99 21.5 205t60.5 208t98 193.5t129.5 160.5t160 109.5t184.5 40.5q54 0 101.5 -12t93 -38t80.5 -73.5t54 -113.5l48 217h702l-31 -145h-540l-99 -449h527l-33 -145h-526
l-107 -482h541zM918 389l120 545q-17 150 -91 228.5t-195 78.5q-68 0 -133.5 -35t-117 -94t-95.5 -137t-73 -164t-45 -174t-16 -168q0 -158 76 -253t209 -95q103 0 200 71.5t161 196.5z" />
    <glyph glyph-name="oe" unicode="&#x153;" horiz-adv-x="1611" 
d="M1522 446h-639q-9 -31 -9 -92q0 -115 64.5 -185.5t185.5 -70.5q128 0 228 103l57 -99q-130 -127 -299 -127q-142 0 -229 75t-103 179q-32 -54 -62.5 -93t-74.5 -79t-100.5 -61t-122.5 -21q-164 0 -258 100.5t-94 280.5q0 92 21.5 186t64 178.5t100 150t135.5 104.5
t164 39q127 0 206.5 -74.5t96.5 -175.5q142 250 358 250q154 0 246 -97t92 -274q0 -99 -28 -197zM901 557h502q10 33 10 92q0 109 -55 175.5t-156 66.5q-80 0 -147 -55t-103.5 -128.5t-50.5 -150.5zM750 631q0 125 -56.5 188.5t-150.5 63.5q-91 0 -168 -86.5t-116.5 -206
t-39.5 -232.5q0 -120 52.5 -187t152.5 -67q70 0 133.5 52.5t104 132t64.5 170.5t24 172z" />
    <glyph glyph-name="Scaron" unicode="&#x160;" horiz-adv-x="954" 
d="M784 1491h-143l-104 295h90l98 -215l190 215h99zM422 -25q-134 0 -249.5 54t-172.5 139l106 119q52 -76 138 -121t184 -45q119 0 189.5 76t70.5 186q0 49 -26.5 92.5t-69 77t-94.5 66.5t-103.5 69.5t-94 78t-69 99t-26.5 125.5q0 164 123 281t299 117q116 0 216 -44
t158 -122l-102 -117q-48 66 -123.5 101.5t-159.5 35.5q-102 0 -170.5 -68t-68.5 -161q0 -45 26.5 -85t69 -73t94 -66.5t103.5 -71.5t94.5 -80.5t69 -101.5t26.5 -128q0 -116 -52 -213.5t-153.5 -158.5t-232.5 -61z" />
    <glyph glyph-name="scaron" unicode="&#x161;" horiz-adv-x="794" 
d="M326 -25q-112 0 -200.5 40.5t-139.5 115.5l92 98q34 -57 103 -96t151 -39q85 0 140.5 52t55.5 122q0 37 -22 68.5t-57 55.5t-77 48t-84.5 50.5t-77.5 56.5t-57 73t-22 95q0 126 89.5 212.5t242.5 86.5q97 0 180.5 -39.5t128.5 -102.5l-86 -96q-27 50 -92 84.5t-137 34.5
q-81 0 -131 -43.5t-50 -110.5q0 -33 22 -62.5t57.5 -53t78 -47t85 -50.5t78 -58t57.5 -75.5t22 -97.5q0 -134 -96 -228t-254 -94zM614 1139h-143l-104 295h90l98 -215l190 215h99z" />
    <glyph glyph-name="Ydieresis" unicode="&#x178;" horiz-adv-x="1026" 
d="M1030 1593q0 -41 -31.5 -71.5t-72.5 -30.5q-35 0 -58.5 23.5t-23.5 58.5q0 40 31.5 71t72.5 31q34 0 58 -24t24 -58zM672 1593q0 -41 -31 -71.5t-72 -30.5q-35 0 -58.5 23.5t-23.5 58.5q0 40 31.5 71t71.5 31q35 0 58.5 -24t23.5 -58zM483 0h-161l127 578l-248 788h172
l182 -631l461 631h190l-596 -788z" />
    <glyph glyph-name="Zcaron" unicode="&#x17d;" horiz-adv-x="948" 
d="M768 1491h-143l-105 295h90l99 -215l190 215h98zM756 0h-785l31 139l805 1082h-565l30 145h770l-28 -135l-809 -1086h581z" />
    <glyph glyph-name="zcaron" unicode="&#x17e;" horiz-adv-x="794" 
d="M596 0h-619l25 115l590 745h-424l29 129h610l-25 -112l-592 -748h433zM604 1139h-143l-105 295h90l99 -215l190 215h99z" />
    <glyph glyph-name="florin" unicode="&#x192;" horiz-adv-x="815" 
d="M102 -330h-163l188 852h-119v133h148l102 465q29 127 99.5 196.5t181.5 69.5q122 0 188 -69l-65 -115q-34 39 -95 39q-116 0 -149 -151l-96 -435h235v-133h-264z" />
    <glyph glyph-name="circumflex" unicode="&#x2c6;" horiz-adv-x="477" 
d="M618 1139h-90l-100 215l-188 -215h-99l230 295h143z" />
    <glyph glyph-name="caron" unicode="&#x2c7;" horiz-adv-x="477" 
d="M455 1139h-144l-104 295h90l98 -215l191 215h98z" />
    <glyph glyph-name="breve" unicode="&#x2d8;" horiz-adv-x="604" 
d="M782 1307q-69 -72 -156 -113t-177 -41q-91 0 -162.5 41.5t-108.5 112.5l84 61q26 -56 79 -87.5t122 -31.5t135.5 31.5t116.5 87.5z" />
    <glyph glyph-name="dotaccent" unicode="&#x2d9;" horiz-adv-x="221" 
d="M375 1278q0 -41 -31.5 -71.5t-73.5 -30.5q-37 0 -60.5 23t-23.5 58q0 41 32 73t73 32q37 0 60.5 -23.5t23.5 -60.5z" />
    <glyph glyph-name="ring" unicode="&#x2da;" horiz-adv-x="370" 
d="M346 1135q-73 0 -119.5 48t-46.5 122q0 82 61 143t144 61q73 0 119.5 -48t46.5 -122q0 -83 -61 -143.5t-144 -60.5zM352 1212q50 0 86.5 36t36.5 85q0 43 -27 71t-69 28q-49 0 -85 -36t-36 -85q0 -42 26.5 -70.5t67.5 -28.5z" />
    <glyph glyph-name="ogonek" unicode="&#x2db;" horiz-adv-x="323" 
d="M90 -227l64 -47q-65 -107 -166 -107q-67 0 -108.5 34.5t-41.5 98.5q0 80 55.5 156.5t169.5 138.5l60 -47q-197 -101 -197 -236q0 -32 18.5 -49.5t51.5 -17.5q60 0 94 76z" />
    <glyph glyph-name="tilde" unicode="&#x2dc;" horiz-adv-x="552" 
d="M537 1135q-38 0 -63 20t-36.5 48t-21.5 56t-26.5 48t-43.5 20q-76 0 -115 -180h-88q58 274 217 274q38 0 62.5 -20t36 -48t21.5 -56t27 -48t44 -20q73 0 115 180h88q-27 -126 -80.5 -200t-136.5 -74z" />
    <glyph glyph-name="hungarumlaut" unicode="&#x2dd;" horiz-adv-x="550" 
d="M492 1434l-263 -295h-92l219 295h136zM758 1434l-264 -295h-93l220 295h137z" />
    <glyph glyph-name="pi" unicode="&#x3c0;" horiz-adv-x="931" 
d="M651 0h-149l196 891h-292l-197 -891h-150l197 891h-119l29 133h829l-28 -133h-117z" />
    <glyph glyph-name="endash" unicode="&#x2013;" horiz-adv-x="1079" 
d="M1001 430h-956l29 131h954z" />
    <glyph glyph-name="emdash" unicode="&#x2014;" horiz-adv-x="1509" 
d="M1432 430h-1387l29 131h1384z" />
    <glyph glyph-name="quoteleft" unicode="&#x2018;" horiz-adv-x="468" 
d="M233 1059q0 92 69 185t165 142l61 -63q-59 -30 -106 -77t-64 -95h17q35 0 59.5 -25.5t24.5 -64.5q0 -48 -36 -82.5t-83 -34.5q-45 0 -76 30.5t-31 84.5z" />
    <glyph glyph-name="quoteright" unicode="&#x2019;" horiz-adv-x="468" 
d="M520 1270q0 -91 -68 -185t-163 -143l-62 66q57 29 105 76.5t65 95.5h-16q-35 0 -59.5 25t-24.5 65q0 47 36.5 81.5t82.5 34.5q45 0 74.5 -30t29.5 -86z" />
    <glyph glyph-name="quotesinglbase" unicode="&#x201a;" horiz-adv-x="468" 
d="M256 82q0 -93 -68 -186t-163 -142l-62 66q58 29 105.5 76t64.5 96q-2 -2 -16 -2q-35 0 -59.5 25.5t-24.5 64.5q0 49 36 84t83 35q45 0 74.5 -31t29.5 -86z" />
    <glyph glyph-name="quotedblleft" unicode="&#x201c;" horiz-adv-x="790" 
d="M563 1059q0 93 68.5 185.5t165.5 141.5l61 -63q-59 -30 -107 -77t-65 -95h16q35 0 60.5 -25.5t25.5 -64.5q0 -49 -35.5 -83t-82.5 -34q-46 0 -76.5 30t-30.5 85zM244 1059q0 93 68 185.5t165 141.5l60 -63q-58 -31 -105.5 -77.5t-64.5 -94.5h16q35 0 59.5 -25.5
t24.5 -64.5q0 -48 -36 -82.5t-83 -34.5q-45 0 -74.5 30t-29.5 85z" />
    <glyph glyph-name="quotedblright" unicode="&#x201d;" horiz-adv-x="790" 
d="M520 1270q0 -91 -68 -185t-163 -143l-62 66q57 29 105 76.5t65 95.5h-16q-35 0 -59.5 25t-24.5 65q0 47 36.5 81.5t82.5 34.5q45 0 74.5 -30t29.5 -86zM842 1270q0 -92 -69 -185.5t-165 -142.5l-61 66q58 28 105.5 75.5t64.5 96.5h-17q-35 0 -59.5 25t-24.5 65
q0 47 36.5 81.5t82.5 34.5t76.5 -30t30.5 -86z" />
    <glyph glyph-name="quotedblbase" unicode="&#x201e;" horiz-adv-x="790" 
d="M256 82q0 -93 -68 -186t-163 -142l-62 66q58 29 105.5 76t64.5 96q-2 -2 -16 -2q-35 0 -59.5 25.5t-24.5 64.5q0 49 36 84t83 35q45 0 74.5 -31t29.5 -86zM578 82q0 -93 -68.5 -186t-165.5 -142l-61 66q59 29 107 76t65 96q-2 -2 -17 -2q-35 0 -60.5 25.5t-25.5 64.5
q0 49 36 84t83 35q46 0 76.5 -31t30.5 -86z" />
    <glyph glyph-name="dagger" unicode="&#x2020;" horiz-adv-x="536" 
d="M621 1090l-181 8l-88 -428h-96l104 428l-184 -8l19 86l182 -7l39 217h96l-57 -217l184 7z" />
    <glyph glyph-name="daggerdbl" unicode="&#x2021;" horiz-adv-x="536" 
d="M639 1176l-18 -86l-181 8l-98 -439l184 9l-18 -86l-180 6l-43 -219h-97l60 219l-185 -6l19 86l180 -9l98 439l-184 -8l19 86l180 -7l41 217h96l-57 -217z" />
    <glyph glyph-name="bullet" unicode="&#x2022;" horiz-adv-x="733" 
d="M588 518q0 -98 -73.5 -168.5t-172.5 -70.5q-85 0 -141 55.5t-56 140.5q0 98 73.5 169t172.5 71q85 0 141 -56t56 -141z" />
    <glyph glyph-name="ellipsis" unicode="&#x2026;" horiz-adv-x="1402" 
d="M133 -20q-42 0 -71 29t-29 71q0 49 35.5 84t85.5 35q41 0 69.5 -30t28.5 -73q0 -49 -34.5 -82.5t-84.5 -33.5zM600 -20q-41 0 -70.5 29.5t-29.5 70.5q0 49 35.5 84t85.5 35q41 0 70.5 -30t29.5 -73q0 -49 -35.5 -82.5t-85.5 -33.5zM1069 -20q-42 0 -71 29t-29 71
q0 50 34.5 84.5t83.5 34.5q43 0 72 -30t29 -73q0 -49 -35.5 -82.5t-83.5 -33.5z" />
    <glyph glyph-name="perthousand" unicode="&#x2030;" horiz-adv-x="1970" 
d="M248 0h-96l1017 1366h99zM903 -25q-117 0 -187.5 74.5t-70.5 188.5q0 174 100.5 292.5t231.5 118.5q117 0 188.5 -74t71.5 -188q0 -174 -100.5 -293t-233.5 -119zM907 76q84 0 149.5 87.5t65.5 213.5q0 79 -41 125.5t-108 46.5q-82 0 -147.5 -88t-65.5 -213
q0 -81 40 -126.5t107 -45.5zM434 713q-116 0 -188 75t-72 187q0 174 100.5 292.5t233.5 118.5q117 0 187.5 -74t70.5 -188q0 -174 -100.5 -292.5t-231.5 -118.5zM438 813q82 0 147.5 88t65.5 213q0 81 -40 126.5t-107 45.5q-84 0 -149.5 -87.5t-65.5 -213.5q0 -79 41 -125.5
t108 -46.5zM1540 -25q-115 0 -186.5 74.5t-71.5 188.5q0 174 100.5 292.5t233.5 118.5q116 0 187 -74t71 -188q0 -174 -100.5 -293t-233.5 -119zM1544 76q84 0 149.5 87.5t65.5 213.5q0 79 -40.5 125.5t-108.5 46.5q-82 0 -147.5 -88t-65.5 -213q0 -81 40 -126.5t107 -45.5z
" />
    <glyph glyph-name="guilsinglleft" unicode="&#x2039;" horiz-adv-x="516" 
d="M365 129h-132l-174 369l338 362h144l-346 -371z" />
    <glyph glyph-name="guilsinglright" unicode="&#x203a;" horiz-adv-x="516" 
d="M154 860h131l174 -368l-338 -363h-144l347 373z" />
    <glyph glyph-name="fraction" unicode="&#x2044;" horiz-adv-x="260" 
d="M727 1366l-1018 -1366h-96l1016 1366h98z" />
    <glyph glyph-name="Euro" unicode="&#x20ac;" horiz-adv-x="1126" 
d="M598 -25q-207 0 -332 132t-125 362v18h-96l23 103h79q13 106 35 188h-73l24 105h84q83 223 234 364.5t340 141.5q160 0 263.5 -87.5t147.5 -232.5l-153 -45q-35 108 -104.5 163.5t-166.5 55.5q-116 0 -216 -99.5t-167 -260.5h443l-25 -105h-457q-27 -90 -39 -188h455
l-24 -103h-437v-18q0 -165 78.5 -256.5t218.5 -91.5q148 0 279 166l125 -76q-172 -236 -414 -236z" />
    <glyph glyph-name="trademark" unicode="&#x2122;" horiz-adv-x="847" 
d="M868 915h-57l82 373l-215 -373h-16l-52 373l-82 -373h-57l98 451h88l41 -324l181 324h88zM485 1313h-106l-88 -398h-58l89 398h-107l10 53h271z" />
    <glyph glyph-name="Omega" unicode="&#x2126;" horiz-adv-x="1216" 
d="M6 0l31 145h237q-163 153 -163 402q0 106 27 221t81.5 225.5t128 199t176 142.5t215.5 54q209 0 335 -123.5t126 -360.5q0 -243 -113.5 -443t-291.5 -317h225l-31 -145h-383l12 57l19 88q106 44 198 169.5t142.5 280.5t50.5 296q0 168 -77 259t-216 91q-82 0 -157 -49.5
t-130 -129.5t-96.5 -179.5t-62.5 -202.5t-21 -195q0 -233 152 -340l-19 -88l-12 -57h-383z" />
    <glyph glyph-name="partialdiff" unicode="&#x2202;" horiz-adv-x="978" 
d="M428 -25q-170 0 -267.5 102t-97.5 273q0 149 57 293.5t164 242t234 97.5q86 0 155.5 -46t100.5 -136q-29 139 -102.5 290.5t-167.5 254.5l127 77q145 -175 218 -342.5t73 -343.5q0 -87 -14.5 -176t-41.5 -174.5t-69.5 -160t-96 -130.5t-123.5 -88.5t-149 -32.5zM432 106
q67 0 128.5 50t102.5 125.5t65 164t24 166.5q0 60 -20.5 112.5t-71 91t-123.5 38.5q-67 0 -128.5 -49.5t-101.5 -124.5t-64 -161.5t-24 -162.5q0 -123 56 -186.5t157 -63.5z" />
    <glyph glyph-name="Delta" unicode="&#x2206;" horiz-adv-x="1048" 
d="M922 0h-1016l712 1366h195zM750 145l-68 1041l-528 -1041h596z" />
    <glyph glyph-name="product" unicode="&#x220f;" horiz-adv-x="1163" 
d="M793 -184h-164l311 1405h-401l-310 -1405h-163l311 1405h-166l31 145h1058l-30 -145h-166z" />
    <glyph glyph-name="summation" unicode="&#x2211;" horiz-adv-x="925" 
d="M438 1221l221 -621l-495 -639h551l-31 -145h-737l30 147l502 647l-219 613l31 143h735l-31 -145h-557z" />
    <glyph glyph-name="minus" unicode="&#x2212;" 
d="M866 633h-778l23 104h780z" />
    <glyph glyph-name="radical" unicode="&#x221a;" horiz-adv-x="1220" 
d="M623 0h-115l-62 662l-290 -89l-6 101l393 114l55 -636l649 1214h113z" />
    <glyph glyph-name="infinity" unicode="&#x221e;" horiz-adv-x="1161" 
d="M317 350q-107 0 -167 69.5t-60 184.5q0 104 39 199.5t114 158t169 62.5q89 0 150.5 -63t82.5 -164q123 227 279 227q107 0 167 -70t60 -186q0 -104 -38.5 -199t-114 -157t-169.5 -62q-89 0 -150.5 62.5t-82.5 162.5q-122 -225 -279 -225zM829 455q94 0 153.5 93.5
t59.5 207.5q0 75 -37.5 119.5t-99.5 44.5q-116 0 -235 -240q23 -225 159 -225zM338 455q69 0 125 64t112 173q-11 107 -51.5 167.5t-109.5 60.5q-94 0 -154.5 -94t-60.5 -208q0 -74 38.5 -118.5t100.5 -44.5z" />
    <glyph glyph-name="integral" unicode="&#x222b;" horiz-adv-x="595" 
d="M-29 -205h-92l23 109h94q55 0 91 35.5t50 99.5l287 1290q26 121 98 182.5t183 61.5h94l-27 -109h-92q-55 0 -91 -35.5t-50 -99.5l-287 -1290q-26 -120 -98.5 -182t-182.5 -62z" />
    <glyph glyph-name="approxequal" unicode="&#x2248;" 
d="M43 434l27 113q74 -53 182 -53q56 0 108.5 14.5t88 32.5t92 32.5t121.5 14.5q113 0 186 -43l-25 -115q-73 53 -184 53q-56 0 -108.5 -14.5t-88 -32.5t-92 -32.5t-121.5 -14.5q-110 0 -186 45zM131 823l25 115q70 -53 182 -53q56 0 108.5 14.5t88 32.5t92 32.5t121.5 14.5
q110 0 186 -45l-25 -113q-77 53 -184 53q-56 0 -108.5 -14.5t-88 -32.5t-92 -32.5t-121.5 -14.5q-111 0 -184 43z" />
    <glyph glyph-name="notequal" unicode="&#x2260;" 
d="M172 190h-102l182 244h-209l25 105h262l217 290h-416l25 105h469l180 242h104l-182 -242h207l-23 -105h-262l-217 -290h414l-23 -105h-469z" />
    <glyph glyph-name="lessequal" unicode="&#x2264;" 
d="M784 266l-694 375l23 104l862 377l-29 -129l-719 -307l584 -303zM737 45h-778l21 105h780z" />
    <glyph glyph-name="greaterequal" unicode="&#x2265;" 
d="M868 641l-862 -375l29 129l721 303l-586 308l27 116l696 -377zM737 45h-780l23 105h780z" />
    <glyph glyph-name="lozenge" unicode="&#x25ca;" horiz-adv-x="768" 
d="M295 0h-43l-172 684l473 682h43l174 -682zM291 92l403 600l-137 582l-401 -598z" />
    <glyph glyph-name="apple" unicode="&#xf8ff;" horiz-adv-x="1366" 
d="M424 313l33 156h-170q-69 0 -119.5 -52.5t-50.5 -121.5q0 -57 37 -96t94 -39q68 0 114.5 41t61.5 112zM551 897l31 135q4 14 4 41q0 61 -37 97t-98 36q-71 0 -121.5 -49.5t-50.5 -118.5q0 -64 39.5 -102.5t103.5 -38.5h129zM551 543h280l64 280h-281zM1167 328
q0 64 -40 102.5t-105 38.5h-129l-29 -135q-4 -12 -4 -41q0 -61 37 -97t98 -36q71 0 121.5 49.5t50.5 118.5zM1329 1071q0 57 -37 96t-94 39q-69 0 -115 -40.5t-61 -112.5l-33 -156h168q70 0 121 52t51 122zM1243 328q0 -98 -80 -170t-182 -72q-86 0 -143.5 57.5t-57.5 143.5
q0 29 6 59l29 123h-280l-39 -172q-22 -94 -92.5 -152.5t-163.5 -58.5q-85 0 -144 57.5t-59 141.5q0 100 77.5 179t178.5 79h180l64 280h-129q-93 0 -149 60t-56 155q0 98 79.5 170t180.5 72q86 0 143.5 -57.5t57.5 -143.5q0 -24 -7 -59l-28 -123h280l39 172
q22 94 92.5 152.5t163.5 58.5q85 0 145 -57.5t60 -141.5q0 -101 -77.5 -179.5t-178.5 -78.5h-180l-64 -280h123q93 0 152 -60.5t59 -154.5z" />
    </font>
</defs>
</svg>
